<svg width="93" height="28" viewBox="0 0 93 28" fill="none" xmlns="http://www.w3.org/2000/svg">
  <g clip-path="url(#clip0_295_1558)">
  <path d="M57.5395 21.8745C52.1549 25.8433 44.3504 27.9608 37.6308 27.9608C28.2089 27.9608 19.7267 24.476 13.3096 18.6801C12.8055 18.2243 13.2572 17.6032 13.8622 17.9581C20.7875 21.9874 29.3503 24.4115 38.1955 24.4115C44.1608 24.4115 50.7231 23.1773 56.757 20.6161C57.6685 20.2289 58.4308 21.213 57.5395 21.8745Z" fill="#4B4B55"/>
  <path d="M59.778 19.3133C59.0924 18.434 55.2284 18.8978 53.494 19.1035C52.9657 19.1681 52.885 18.7083 53.3609 18.3775C56.4384 16.2116 61.4882 16.8368 62.077 17.5628C62.6659 18.2928 61.9238 23.3547 59.0319 25.7707C58.5882 26.1418 58.1647 25.9441 58.3623 25.4521C59.0117 23.8306 60.4677 20.1966 59.778 19.3133Z" fill="#4B4B55"/>
  <path d="M53.6151 3.08704V0.981622C53.6151 0.662986 53.8571 0.449219 54.1475 0.449219H63.5734C63.8759 0.449219 64.1179 0.66702 64.1179 0.981622V2.78453C64.1139 3.08704 63.8598 3.4823 63.408 4.10748L58.5236 11.0812C60.3387 11.0368 62.2545 11.307 63.9001 12.2347C64.2712 12.4444 64.372 12.751 64.4003 13.0535V15.3001C64.4003 15.6066 64.0615 15.9656 63.7065 15.78C60.8065 14.2594 56.9547 14.0941 53.7482 15.7962C53.4214 15.9736 53.0786 15.6187 53.0786 15.3122V13.1785C53.0786 12.8357 53.0826 12.2508 53.4255 11.7305L59.0843 3.61541H54.1596C53.8571 3.61541 53.6151 3.40164 53.6151 3.08704Z" fill="#4B4B55"/>
  <path d="M19.2305 16.2238H16.3628C16.0886 16.2036 15.8708 15.9979 15.8506 15.7357V1.01802C15.8506 0.723583 16.0966 0.489646 16.4032 0.489646H19.0773C19.3556 0.501739 19.5774 0.715514 19.5976 0.981716V2.90563H19.65C20.3478 1.04625 21.6586 0.179077 23.4252 0.179077C25.2201 0.179077 26.3414 1.04625 27.148 2.90563C27.8418 1.04625 29.4188 0.179077 31.1088 0.179077C32.3107 0.179077 33.6256 0.67518 34.4282 1.78839C35.3358 3.02663 35.1502 4.82551 35.1502 6.40255L35.1462 15.6914C35.1462 15.9858 34.9002 16.2238 34.5936 16.2238H31.7299C31.4436 16.2036 31.2137 15.9737 31.2137 15.6914V7.89086C31.2137 7.26973 31.2701 5.72092 31.133 5.13204C30.9192 4.14387 30.2779 3.86557 29.447 3.86557C28.7533 3.86557 28.0273 4.3294 27.7329 5.07155C27.4384 5.81368 27.4667 7.05596 27.4667 7.89086V15.6914C27.4667 15.9858 27.2206 16.2238 26.9141 16.2238H24.0504C23.76 16.2036 23.5341 15.9737 23.5341 15.6914L23.5301 7.89086C23.5301 6.24929 23.8003 3.8333 21.7635 3.8333C19.7024 3.8333 19.7831 6.18878 19.7831 7.89086V15.6914C19.7831 15.9858 19.5371 16.2238 19.2305 16.2238Z" fill="#4B4B55"/>
  <path d="M72.2329 0.179077C76.4881 0.179077 78.7912 3.8333 78.7912 8.47974C78.7912 12.9689 76.2461 16.5303 72.2329 16.5303C68.0544 16.5303 65.7795 12.8761 65.7795 8.32243C65.7795 3.74054 68.0826 0.179077 72.2329 0.179077ZM72.2571 3.18393C70.1436 3.18393 70.0105 6.06375 70.0105 7.8586C70.0105 9.65748 69.9823 13.4972 72.2329 13.4972C74.4553 13.4972 74.5602 10.3996 74.5602 8.512C74.5602 7.26973 74.5077 5.78545 74.1326 4.60771C73.81 3.58324 73.1687 3.18393 72.2571 3.18393Z" fill="#4B4B55"/>
  <path d="M84.3088 16.2238H81.4532C81.1668 16.2036 80.9369 15.9737 80.9369 15.6914L80.9329 0.969616C80.9571 0.69938 81.195 0.489646 81.4854 0.489646H84.1434C84.3935 0.501739 84.5992 0.671148 84.6556 0.901049V3.15166H84.7081C85.5107 1.13902 86.636 0.179077 88.6164 0.179077C89.9031 0.179077 91.1574 0.642914 91.9641 1.91342C92.7143 3.09116 92.7143 5.07155 92.7143 6.49532V15.76C92.682 16.0181 92.4441 16.2238 92.1617 16.2238H89.2859C89.0238 16.2036 88.806 16.01 88.7777 15.76V7.76583C88.7777 6.15652 88.9633 3.80103 86.9829 3.80103C86.2851 3.80103 85.6438 4.26891 85.3252 4.97878C84.9219 5.87822 84.8694 6.77362 84.8694 7.76583V15.6914C84.8654 15.9858 84.6153 16.2238 84.3088 16.2238Z" fill="#4B4B55"/>
  <path d="M46.1008 9.19357V8.57243C44.0276 8.57243 41.8375 9.0161 41.8375 11.4603C41.8375 12.6986 42.4788 13.5375 43.5799 13.5375C44.3866 13.5375 45.1086 13.0414 45.5643 12.2347C46.129 11.2425 46.1008 10.3108 46.1008 9.19357ZM48.9927 16.1834C48.8031 16.3528 48.5289 16.3649 48.3151 16.252C47.3632 15.4614 47.1938 15.0944 46.6695 14.3401C45.0965 15.9454 43.9833 16.4254 41.9424 16.4254C39.5304 16.4254 37.6509 14.9371 37.6509 11.9564C37.6509 9.62918 38.9133 8.04406 40.7082 7.26966C42.265 6.58398 44.439 6.46299 46.1008 6.27342V5.90235C46.1008 5.22071 46.1532 4.41404 45.7539 3.82517C45.403 3.2968 44.7335 3.079 44.1446 3.079C43.0515 3.079 42.0755 3.63963 41.8375 4.80124C41.7891 5.05938 41.5995 5.31348 41.3414 5.32558L38.5584 5.02711C38.3244 4.97468 38.0663 4.78511 38.1308 4.42614C38.7722 1.05425 41.8173 0.0378418 44.5439 0.0378418C45.9394 0.0378418 47.7625 0.408911 48.8636 1.46565C50.2592 2.76843 50.1261 4.5068 50.1261 6.39845V10.8674C50.1261 12.2105 50.6827 12.7994 51.207 13.5254C51.3925 13.7835 51.4329 14.0941 51.1989 14.2877C50.6141 14.7757 49.5735 15.6833 49.0008 16.1915L48.9927 16.1834" fill="#4B4B55"/>
  <path d="M8.5058 9.19357V8.57243C6.43265 8.57243 4.24254 9.0161 4.24254 11.4603C4.24254 12.6986 4.88384 13.5375 5.98495 13.5375C6.79162 13.5375 7.51359 13.0414 7.96936 12.2347C8.53403 11.2425 8.5058 10.3108 8.5058 9.19357ZM11.3977 16.1834C11.2082 16.3528 10.9339 16.3649 10.7201 16.252C9.76824 15.4614 9.59884 15.0944 9.0745 14.3401C7.50149 15.9454 6.38829 16.4254 4.3474 16.4254C1.93545 16.4254 0.0559082 14.9371 0.0559082 11.9564C0.0559082 9.62918 1.31835 8.04406 3.11319 7.26966C4.67007 6.58398 6.84405 6.46299 8.5058 6.27342V5.90235C8.5058 5.22071 8.55823 4.41404 8.15893 3.82517C7.80803 3.2968 7.13849 3.079 6.54962 3.079C5.45658 3.079 4.4805 3.63963 4.24254 4.80124C4.19413 5.05938 4.00457 5.31348 3.74643 5.32558L0.963414 5.02711C0.729479 4.97468 0.471344 4.78511 0.535877 4.42614C1.17718 1.05425 4.22237 0.0378418 6.94892 0.0378418C8.34446 0.0378418 10.1675 0.408911 11.2686 1.46565C12.6642 2.76843 12.5311 4.5068 12.5311 6.39845V10.8674C12.5311 12.2105 13.0877 12.7994 13.612 13.5254C13.7976 13.7835 13.8379 14.0941 13.604 14.2877C13.0191 14.7757 11.9785 15.6833 11.4058 16.1915L11.3977 16.1834" fill="#4B4B55"/>
  </g>
  <defs>
  <clipPath id="clip0_295_1558">
  <rect width="92.7692" height="28" fill="white"/>
  </clipPath>
  </defs>
  </svg>
  