<svg width="100" height="32" viewBox="0 0 100 32" fill="none" xmlns="http://www.w3.org/2000/svg">
  <g clip-path="url(#clip0_295_1727)">
  <path d="M0 0H0.470588V13.3445H0V0Z" fill="#4B4B55"/>
  <path d="M3.86816 0H7.87085V13.3445H3.86816V0Z" fill="#4B4B55"/>
  <path d="M10.8979 0H12.8825V13.3445H10.8979V0Z" fill="#4B4B55"/>
  <path d="M56.9122 10.1177C54.0532 10.1177 52.9768 11.311 52.5564 11.7648L51.9005 10.4202H46.6532V13.3614H47.881V32.0169H52.0014V24.874C52.8423 25.6471 54.2045 26.2185 55.8863 26.2185C61.3354 26.2185 63.5554 22.2522 63.5554 17.7984C63.5554 13.2606 60.8308 10.1177 56.9122 10.1177ZM59.4013 17.9496C59.4013 21.0925 57.8877 22.9748 55.3986 22.9748C52.96 22.9748 51.85 21.4454 51.85 18.1513C51.85 14.7564 52.96 13.311 55.55 13.311C57.8877 13.311 59.4013 15.1429 59.4013 17.9496ZM94.8369 18.958V19.2269C94.8369 21.1261 94.4165 23.3278 91.2715 23.3278C89.741 23.3278 88.7824 22.4874 88.7824 21.1597C88.7824 20.0169 89.2365 18.958 92.5665 18.958H94.8369ZM98.8564 22.9412V15.1597C98.8564 11.7648 96.6869 10.1009 92.2133 10.1009C91.0528 10.1009 89.2029 10.2353 88.6983 10.2858V13.3614C88.6983 13.3614 90.8678 13.2101 92.1124 13.2101C93.9455 13.2101 94.8033 13.8656 94.8033 15.2438V16.2522H92.2133C87.1847 16.2522 84.6452 17.9664 84.6452 21.395C84.6452 23.6471 86.0747 26.1849 90.1279 26.1849C93.3065 26.1849 94.6014 25.1765 95.0051 24.7059L95.5937 25.916L100.017 25.8824V22.9412H98.8564ZM13.9422 16.4706C13.9422 20.5547 15.8258 23.0085 18.9371 23.0085C20.8712 23.0085 22.2167 22.2185 23.0576 20.3026H27.6825C26.8416 23.2606 24.6216 26.3362 18.8194 26.3362C12.8995 26.3362 9.36768 22.7059 9.36768 16.5883C9.36768 13.8656 10.259 11.3782 11.8736 9.57989C13.6226 7.68073 16.0781 6.67232 18.9876 6.67232C25.8325 6.67232 27.7498 11.5127 27.7498 13.3446H23.2089C22.8389 11.6471 21.8298 10.0337 18.9708 10.0337C15.8763 10.0337 13.9422 12.4874 13.9422 16.4706ZM39.4719 18.958V19.2269C39.4719 21.1261 39.0851 23.3278 35.9233 23.3278C34.3929 23.3278 33.4006 22.4874 33.4006 21.1597C33.4006 20.0169 33.8715 18.958 37.1847 18.958H39.4719ZM43.5251 22.9412V15.1597C43.5251 11.7648 41.3556 10.1009 36.882 10.1009C35.7215 10.1009 33.8715 10.2353 33.367 10.2858V13.3614C33.367 13.3614 35.5365 13.2101 36.7811 13.2101C38.6142 13.2101 39.4719 13.8656 39.4719 15.2438V16.2522H36.882C31.8534 16.2522 29.3139 17.9664 29.3139 21.395C29.3139 23.6471 30.7434 26.1849 34.7629 26.1849C37.9583 26.1849 39.2533 25.1765 39.6233 24.7059L40.2288 25.916L44.6519 25.8824V22.9412H43.5251ZM79.6502 10.4034H82.9129V13.3446H79.6502V21.2606C79.6502 22.4538 79.9193 23.1093 81.3993 23.1093C81.9206 23.1093 82.2402 23.0757 82.4756 23.0589V25.8824C81.7693 26.1177 80.7602 26.2017 79.6502 26.2017C76.7407 26.2017 75.4962 24.874 75.4962 21.832V13.3446H74.3021V10.4034H75.4962V7.81518H79.6502V10.4034ZM66.6835 3.8656H70.8039V8.23535H66.6835V3.8656ZM65.5735 10.4034H70.8039V25.916H66.6835V13.3446H65.5735V10.4034Z" fill="#4B4B55"/>
  </g>
  <defs>
  <clipPath id="clip0_295_1727">
  <rect width="100" height="32" fill="white"/>
  </clipPath>
  </defs>
  </svg>
  