<svg width="93" height="28" viewBox="0 0 93 28" fill="none" xmlns="http://www.w3.org/2000/svg">
  <path d="M71.0871 0H65.3044V8.21739C65.3044 11.411 67.8934 14 71.0871 14V0Z" fill="#4B4B55"/>
  <path d="M71.0871 28H65.3044V19.7826C65.3044 16.589 67.8934 14 71.0871 14V28Z" fill="#4B4B55"/>
  <path d="M93 0H85.6957L70.9348 14.1522H78.3913L93 0Z" fill="#4B4B55"/>
  <path d="M92.6958 28H85.2393L70.9349 14.1522H78.3915L92.6958 28Z" fill="#4B4B55"/>
  <path d="M23.0001 5.93478V0H6.86967C3.50794 0 0.782715 2.72397 0.782715 6.08571V21.9191C0.782715 25.2808 3.50793 28 6.86967 28H18.1305C20.8199 28 23.0001 25.8198 23.0001 23.1304V22.2174H6.7175V5.93478H23.0001Z" fill="#4B4B55"/>
  <path d="M50.2389 11.4131H40.0433C39.3709 11.4131 38.8259 10.868 38.8259 10.1957V5.93481H38.4455C35.3779 5.93481 32.8911 8.42158 32.8911 11.4892C32.8911 14.5567 35.3779 17.0435 38.4455 17.0435H50.2389V11.4131Z" fill="#4B4B55"/>
  <path d="M58.3042 5.93478V0H43.6955C41.0061 0 38.8259 2.18018 38.8259 4.86956V5.93478H58.3042Z" fill="#4B4B55"/>
  <path d="M34.2608 22.2174L34.2608 28L54.6521 28C58.0138 28 60.739 25.2748 60.739 21.913L60.739 17.5C60.739 14.1383 58.0138 11.413 54.6521 11.413L43.5434 11.413L43.5434 17.0435L53.5868 17.0435C54.2592 17.0435 54.8042 17.5885 54.8042 18.2609L54.8042 21C54.8042 21.6723 54.2592 22.2174 53.5868 22.2174L34.2608 22.2174Z" fill="#4B4B55"/>
  <path d="M23 16.7886L23 22.2174L24.0653 22.2174C26.7546 22.2174 28.9348 20.0343 28.9348 17.345L28.9348 11.1582L17.2174 11.1582L17.2174 11.9191C17.2174 14.6085 19.3976 16.7886 22.087 16.7886L23 16.7886Z" fill="#4B4B55"/>
  </svg>
  