<svg width="111" height="28" viewBox="0 0 111 28" fill="none" xmlns="http://www.w3.org/2000/svg">
  <g clip-path="url(#clip0_295_1584)">
  <path d="M14.7114 0.367029C22.4682 0.367029 28.7896 6.48257 28.7896 13.9982C28.7896 21.5171 22.4682 27.6327 14.7114 27.6327C6.94241 27.6327 0.621094 21.5171 0.621094 13.9982C0.621094 6.48257 6.94241 0.367029 14.7114 0.367029ZM14.7114 26.0362C21.5635 26.0362 27.1369 20.6352 27.1369 13.9982C27.1369 7.36128 21.5635 1.96351 14.7114 1.96351C7.84718 1.96351 2.27381 7.36128 2.27381 13.9982C2.27381 20.6352 7.84718 26.0362 14.7114 26.0362Z" fill="#4B4B55"/>
  <path d="M15.7127 8.53295C15.7127 9.12197 15.2301 9.60156 14.6149 9.60156C14.0117 9.60156 13.5171 9.12197 13.5171 8.53295C13.5171 7.94393 14.0117 7.46434 14.6149 7.46434C15.2301 7.46434 15.7127 7.94393 15.7127 8.53295Z" fill="#4B4B55"/>
  <path d="M22.8064 15.9521C22.7702 16.1227 22.3963 18.6623 22.3963 18.688L22.3601 18.9262C22.3601 18.9262 22.348 19.0453 22.2153 19.129C22.1429 19.174 21.6483 19.4991 21.6483 19.4991C21.6483 19.4991 21.588 19.541 21.5759 19.5828C21.5639 19.644 21.6121 19.6987 21.6121 19.6987L22.0826 20.3038C22.1309 20.3553 22.1671 20.41 22.1671 20.4808C22.1671 20.5613 22.1188 20.6321 22.0585 20.674L7.15996 20.6707C7.09964 20.6257 7.06345 20.5581 7.06345 20.4808C7.06345 20.4519 7.06345 20.4261 7.07552 20.4004C7.07552 20.4004 7.09964 20.3585 7.13583 20.3167L7.58219 19.6794C7.58219 19.6794 7.63044 19.5699 7.546 19.5056C7.44949 19.4412 6.94282 19.1097 6.94282 19.1097C6.94282 19.1097 6.85837 19.0421 6.84631 18.9745C6.84631 18.9069 6.81012 18.688 6.81012 18.6719C6.77393 18.4563 6.43615 16.1163 6.39996 15.9521C6.38789 15.833 6.39996 15.7365 6.46027 15.6592C6.50853 15.5884 6.59297 15.5433 6.70155 15.5272C6.73774 15.5208 7.72695 15.3953 7.83552 15.3824C7.87171 15.3792 7.91997 15.4017 7.93203 15.4596C7.94409 15.524 7.89584 15.5594 7.85965 15.5691L7.87171 15.5659C7.35298 15.804 7.03933 16.2836 7.02726 16.8598C7.84759 16.6988 8.05267 16.2901 8.10092 15.73C8.10092 15.7075 8.12505 15.6624 8.19743 15.6592C8.25775 15.6528 8.29394 15.6817 8.29394 15.7075V15.7139L8.60759 18.1376V18.1408C8.60759 18.173 8.58346 18.2149 8.53521 18.2277C8.47489 18.2406 8.4387 18.2084 8.42664 18.173C8.1733 17.6612 7.6787 17.3555 7.09964 17.3426C7.25647 17.9091 7.69076 18.3533 8.25775 18.5013C8.69204 18.4595 9.11426 18.4176 9.54855 18.3822C9.95871 18.2631 10.2724 18.0475 10.3809 17.5454V17.5486C10.3689 17.4842 10.3568 17.4198 10.3327 17.3522C10.2362 17.0787 10.0311 16.8984 9.80189 16.9789C9.56061 17.0658 9.53649 17.3265 9.633 17.6001C9.68125 17.7127 9.74157 17.8093 9.82601 17.8769C9.57268 17.8705 9.35553 17.7868 9.18664 17.5454C8.88505 17.1495 8.92124 16.5315 9.37966 16.2772C9.66919 16.1098 10.0793 16.3062 10.393 16.6828C10.2965 16.0905 9.92252 15.5659 9.88633 15.1088C9.82601 14.4651 10.0793 13.7473 10.4533 13.551C10.8273 13.6861 11.1771 14.3492 11.2133 14.9929C11.2254 15.4532 10.9117 16.0551 10.8876 16.6602C11.153 16.2289 11.539 15.9714 11.8648 16.1002C12.3473 16.2933 12.4679 16.8984 12.2387 17.3329C12.094 17.5904 11.8889 17.7063 11.6356 17.7417C11.7079 17.6645 11.7562 17.5615 11.7924 17.4424C11.8527 17.1591 11.7924 16.9016 11.539 16.8501C11.3098 16.7986 11.1289 17.0046 11.0686 17.2911C11.0444 17.3812 11.0444 17.4713 11.0565 17.5518C11.2375 17.9831 11.5752 18.1312 11.9975 18.2342C12.4317 18.2149 12.866 18.202 13.3003 18.1923V18.1891L13.3486 18.1827C13.9638 18.0861 14.2775 17.7063 14.3378 16.9982C13.7949 17.0754 13.3727 17.3812 13.1797 17.8479C13.1676 17.8769 13.1435 17.9187 13.0711 17.9187C12.9867 17.9187 12.9505 17.8672 12.9505 17.8286V15.5948V15.5884C12.9625 15.553 12.9987 15.5144 13.0591 15.5144C13.1194 15.5144 13.1556 15.5562 13.1676 15.582V15.5852V15.5884C13.2762 16.0004 13.4933 16.3899 14.3378 16.4574C14.2654 15.6656 13.8914 15.421 13.3486 15.3051C13.3365 15.3051 13.3124 15.2987 13.2883 15.2762C13.2762 15.2665 13.2641 15.244 13.2641 15.2118C13.2641 15.2086 13.2641 15.2086 13.2641 15.2054C13.2641 15.17 13.2762 15.1474 13.2883 15.1346C13.3124 15.1185 13.3486 15.112 13.3606 15.1152H15.8699C15.8819 15.1152 15.9181 15.1152 15.9423 15.1442C15.9543 15.1539 15.9664 15.1764 15.9664 15.2118V15.215C15.9664 15.2472 15.9543 15.2665 15.9423 15.2794C15.9302 15.2987 15.9061 15.3019 15.8819 15.3051C15.3511 15.4693 15.0013 15.8974 14.9048 16.4542C15.7251 16.3802 15.9423 15.994 16.0508 15.582C16.0629 15.5562 16.0991 15.5079 16.1715 15.5079C16.2318 15.5079 16.268 15.5594 16.268 15.5916L16.28 15.5981V17.8351V17.8383C16.268 17.8672 16.2438 17.9252 16.1594 17.9252C16.087 17.9252 16.0508 17.8801 16.0388 17.8479C15.8457 17.3877 15.4356 17.0851 14.9048 17.0014C15.0013 17.6001 15.3753 18.0604 15.8819 18.1859L15.9302 18.1891C16.3645 18.1955 16.7988 18.2084 17.2331 18.2245C17.6673 18.1569 18.0051 17.9831 18.1861 17.4939V17.4971C18.1861 17.4327 18.174 17.3651 18.162 17.2975C18.1016 17.0143 17.9207 16.8083 17.6794 16.8598C17.4261 16.9177 17.3778 17.172 17.4381 17.4552C17.4623 17.5743 17.5226 17.6773 17.595 17.7546C17.3416 17.7192 17.1365 17.6065 16.9918 17.349C16.7626 16.9177 16.8711 16.3094 17.3537 16.113C17.6673 15.9843 18.0534 16.2257 18.3067 16.6409C18.2947 16.039 17.9931 15.4757 18.0172 15.0155C18.0413 14.3685 18.3912 13.6894 18.7772 13.5413C19.1391 13.7215 19.3924 14.4232 19.3442 15.0637C19.2959 15.5208 18.9099 16.0809 18.8134 16.6795C19.115 16.2836 19.5372 16.0744 19.8388 16.2418C20.2972 16.4929 20.3334 17.1076 20.0439 17.51C19.875 17.7514 19.6578 17.8383 19.4045 17.8447C19.4889 17.7771 19.5493 17.6806 19.5975 17.5647C19.694 17.2911 19.6699 17.0304 19.4286 16.9467C19.1994 16.8694 18.9943 17.0497 18.8978 17.3265C18.8616 17.4134 18.8496 17.5035 18.8496 17.584C18.9702 18.0217 19.2839 18.2116 19.6699 18.3629C20.1163 18.3983 20.5747 18.437 21.009 18.482C21.5518 18.3179 21.962 17.8866 22.1188 17.3426C21.5277 17.3555 21.0331 17.6612 20.7918 18.173C20.7677 18.2084 20.7315 18.2406 20.6712 18.2277C20.6229 18.2149 20.5988 18.1762 20.5988 18.1408V18.1376L20.9124 15.7139V15.7075C20.9245 15.6817 20.9486 15.6528 21.009 15.6592C21.0813 15.6624 21.1055 15.7075 21.1055 15.7332C21.1537 16.2901 21.3588 16.6988 22.1791 16.8598C22.1671 16.2836 21.8655 15.804 21.3347 15.5659L21.3467 15.5691C21.3105 15.5626 21.2744 15.524 21.2864 15.4596C21.2985 15.4017 21.3347 15.3792 21.3709 15.3824C21.4915 15.3953 22.4807 15.5208 22.5048 15.5272C22.6134 15.5433 22.6979 15.5916 22.7461 15.6624C22.8064 15.7365 22.8306 15.833 22.8064 15.9521ZM14.7118 18.5464C14.6635 18.5013 14.5911 18.5013 14.5429 18.5464L13.9518 19.1129C13.9035 19.1612 13.9035 19.232 13.9518 19.277L14.5429 19.8467C14.5911 19.8918 14.6635 19.8918 14.7118 19.8467L15.2908 19.277C15.3391 19.232 15.3391 19.1612 15.2908 19.1129L14.7118 18.5464ZM11.9251 19.1451C11.913 18.9841 11.7683 18.8586 11.5994 18.8683L9.95871 18.9519C9.78982 18.9616 9.65712 19.1 9.66919 19.2609L9.68125 19.4862C9.69331 19.6472 9.83808 19.7727 10.007 19.7663L11.6476 19.6794C11.8165 19.6729 11.9492 19.5345 11.9371 19.3704L11.9251 19.1451ZM17.2813 19.3704C17.2692 19.5345 17.4019 19.6729 17.5708 19.6794L19.2115 19.7663C19.3804 19.7727 19.5251 19.6472 19.5372 19.4862L19.5493 19.2609C19.5613 19.1 19.4286 18.9616 19.2597 18.9519L17.607 18.8683C17.4502 18.8586 17.3054 18.9841 17.2934 19.1451" fill="#4B4B55"/>
  <path d="M13.4206 4.44505C13.4085 4.4547 13.3844 4.47723 13.3844 4.50942C13.3844 4.54482 13.3965 4.56736 13.4085 4.57701C13.4327 4.59633 13.4568 4.60276 13.4688 4.60598C13.7584 4.66392 13.9514 4.76048 14.0841 4.90854C14.2409 5.07591 14.3254 5.31731 14.3495 5.63275C13.6015 5.57159 13.4085 5.22397 13.312 4.85382C13.3 4.82485 13.2758 4.78623 13.2155 4.78623C13.1552 4.78623 13.119 4.82164 13.119 4.85382L13.1069 4.86026V6.87839C13.1069 6.91379 13.1431 6.96529 13.2155 6.96529C13.3 6.96529 13.312 6.92345 13.3241 6.90414V6.89448C13.505 6.47605 13.879 6.20246 14.3615 6.13165C14.3254 6.46317 14.2409 6.71102 14.0841 6.88804C13.9514 7.0361 13.7584 7.12945 13.4688 7.18738V7.1906C13.4447 7.19382 13.4206 7.20348 13.4085 7.21635C13.3965 7.22923 13.3844 7.25176 13.3844 7.28716C13.3844 7.31935 13.4085 7.33866 13.4206 7.35154C13.4447 7.36763 13.4688 7.37085 13.4809 7.37085H15.7489C15.7609 7.37085 15.7971 7.37085 15.8212 7.3451C15.8333 7.33222 15.8454 7.31291 15.8454 7.28073V7.27751C15.8454 7.27429 15.8454 7.27429 15.8454 7.27429C15.8454 7.25176 15.8333 7.23244 15.8212 7.21635C15.8092 7.20669 15.773 7.19382 15.7609 7.1906C15.4593 7.09404 15.206 6.8977 15.0492 6.62411C14.9647 6.47605 14.9165 6.3119 14.8803 6.13487C15.3508 6.21212 15.7247 6.48571 15.8936 6.8977V6.90092C15.9177 6.93311 15.9298 6.96851 16.0022 6.96851C16.0866 6.96851 16.1108 6.91701 16.1228 6.88804V6.86551V4.86348V4.85382C16.1108 4.81842 16.0746 4.77979 16.0143 4.77979C15.9539 4.77979 15.9177 4.81842 15.9057 4.85382C15.8092 5.21754 15.6162 5.56194 14.8923 5.63275C14.9165 5.46537 14.9768 5.31088 15.0492 5.16925C15.206 4.89566 15.4593 4.70254 15.7609 4.60598C15.785 4.59954 15.8092 4.58989 15.8212 4.57701C15.8333 4.56414 15.8454 4.54482 15.8454 4.52229C15.8454 4.51908 15.8454 4.51586 15.8454 4.51264C15.8454 4.48367 15.8333 4.46436 15.8212 4.45148C15.7971 4.42573 15.7609 4.42251 15.7489 4.42251H13.4809C13.4688 4.42251 13.4447 4.42573 13.4206 4.44505Z" fill="#4B4B55"/>
  <path d="M14.1804 11.0821C14.1804 11.3138 14.3734 11.5005 14.6147 11.5005C14.856 11.5005 15.049 11.3138 15.049 11.0821C15.049 10.8503 14.856 10.6636 14.6147 10.6636C14.3734 10.6636 14.1804 10.8503 14.1804 11.0821Z" fill="#4B4B55"/>
  <path d="M14.1929 10.0875C14.1929 10.316 14.3859 10.4995 14.6151 10.4995C14.8564 10.4995 15.0494 10.316 15.0494 10.0875C15.0494 9.85899 14.8564 9.67231 14.6151 9.67231C14.3859 9.67231 14.1929 9.85899 14.1929 10.0875Z" fill="#4B4B55"/>
  <path d="M14.1689 12.1281C14.1689 12.3695 14.362 12.5658 14.6153 12.5658C14.8686 12.5658 15.0737 12.3695 15.0737 12.1281C15.0737 11.8834 14.8686 11.6871 14.6153 11.6871C14.362 11.6871 14.1689 11.8834 14.1689 12.1281Z" fill="#4B4B55"/>
  <path d="M14.144 13.2356C14.144 13.4899 14.3491 13.6959 14.6145 13.6959C14.8799 13.6959 15.0971 13.4899 15.0971 13.2356C15.0971 12.9814 14.8799 12.7754 14.6145 12.7754C14.3491 12.7754 14.144 12.9814 14.144 13.2356Z" fill="#4B4B55"/>
  <path d="M14.1201 14.3846C14.1201 14.6518 14.3373 14.8674 14.6147 14.8674C14.8922 14.8674 15.1093 14.6518 15.1093 14.3846C15.1093 14.1207 14.8922 13.9018 14.6147 13.9018C14.3373 13.9018 14.1201 14.1207 14.1201 14.3846Z" fill="#4B4B55"/>
  <path d="M13.9756 11.1658C13.9756 11.1658 13.9756 11.0596 13.9394 10.9373C13.9032 10.8118 13.8067 10.6894 13.6378 10.5897C13.5172 10.5092 13.3845 10.4384 13.2638 10.3708C13.3965 10.2807 13.493 10.1262 13.493 9.95236C13.493 9.67234 13.2638 9.44703 12.9743 9.44703C12.6848 9.44703 12.4556 9.67234 12.4556 9.95236C12.4556 9.97811 12.4556 10.0006 12.4676 10.0264C12.4556 10.0232 12.4435 10.02 12.4314 10.0135C12.3108 9.97811 12.1902 9.93949 12.0695 9.90408C12.2264 9.81718 12.3349 9.65302 12.3349 9.46634C12.3349 9.18631 12.0937 8.961 11.8041 8.961C11.5267 8.961 11.2854 9.18631 11.2854 9.46634C11.2854 9.55324 11.3095 9.63371 11.3578 9.7013C11.1044 9.63371 10.9235 9.58865 10.9235 9.58865C10.8994 9.58221 10.8752 9.57899 10.8511 9.57256C10.9838 9.48243 11.0803 9.32794 11.0803 9.15412C11.0803 8.87732 10.8511 8.65201 10.5616 8.65201C10.2721 8.65201 10.0428 8.87732 10.0428 9.15412C10.0428 9.2539 10.067 9.34403 10.1152 9.42128C10.1152 9.41806 10.1152 9.41806 10.1032 9.41806C9.92221 9.38587 9.71713 9.37943 9.53617 9.37943C9.59649 9.29897 9.63268 9.19597 9.63268 9.08653C9.63268 8.8065 9.40348 8.58441 9.11395 8.58441C8.82442 8.58441 8.59521 8.8065 8.59521 9.08653C8.59521 9.24103 8.6676 9.37943 8.78823 9.46956C8.59521 9.51784 8.4022 9.57899 8.22124 9.65946C8.23331 9.6144 8.24537 9.56612 8.24537 9.51462C8.24537 9.23459 8.01616 9.00928 7.72664 9.00928C7.43711 9.00928 7.2079 9.23459 7.2079 9.51462C7.2079 9.75924 7.38886 9.96202 7.63013 10.0071C7.4733 10.123 7.31647 10.2517 7.18378 10.3933C7.18378 10.3869 7.18378 10.3837 7.18378 10.3772C7.18378 10.0972 6.95457 9.87511 6.66504 9.87511C6.37551 9.87511 6.14631 10.0972 6.14631 10.3772C6.14631 10.6573 6.37551 10.8794 6.66504 10.8794C6.7133 10.8794 6.76155 10.8729 6.8098 10.86C6.7133 11.0017 6.62885 11.1562 6.5444 11.3139C6.4479 11.1819 6.29107 11.095 6.12218 11.095C5.83265 11.095 5.59138 11.3203 5.59138 11.5971C5.59138 11.8771 5.83265 12.1025 6.12218 12.1025C6.17043 12.1025 6.23075 12.0896 6.27901 12.0735C6.25488 12.2119 6.23075 12.3503 6.20662 12.4951C6.14631 12.4694 6.08599 12.4565 6.01361 12.4565C5.72408 12.4565 5.49487 12.6818 5.49487 12.9619C5.49487 13.2387 5.72408 13.464 6.01361 13.464C6.08599 13.464 6.17043 13.4447 6.23075 13.4125C6.24282 13.4672 6.25488 13.5219 6.25488 13.5798C6.27901 13.6378 6.29107 13.6893 6.30313 13.7376C6.0498 13.7697 5.84472 13.979 5.84472 14.2365C5.84472 14.5133 6.08599 14.7386 6.36345 14.7386C6.47202 14.7386 6.5806 14.7064 6.65298 14.6549C6.72536 14.8158 6.82187 15.0218 6.93044 15.26C7.13552 15.2343 7.43711 15.1956 7.61806 15.1699C7.42505 14.7611 7.30441 14.5229 7.30441 14.5229C7.29235 14.4457 7.0752 14.0723 6.99076 13.7665C6.90631 13.5187 6.85806 13.0584 6.85806 12.9812C6.85806 12.1894 7.14758 11.4684 7.63013 10.9469C8.11267 10.4287 8.77617 10.1036 9.54824 10.1036C9.70506 10.1036 9.88602 10.1133 10.3082 10.1938C10.7425 10.3 10.9597 10.3547 11.3457 10.4545C11.9971 10.6508 12.2625 10.7474 13.1914 11.1819C13.2879 11.227 13.3241 11.3074 13.3362 11.3686C13.3603 11.4265 13.3603 11.4748 13.3603 11.4748L13.3965 14.8287H13.9756" fill="#4B4B55"/>
  <path d="M15.2539 11.1658C15.2539 11.1658 15.2539 11.0596 15.2901 10.9373C15.3384 10.8118 15.4349 10.6894 15.5917 10.5897C15.7123 10.5092 15.845 10.4384 15.9657 10.3708C15.833 10.2807 15.7365 10.1262 15.7365 9.95236C15.7365 9.67234 15.9657 9.44703 16.2552 9.44703C16.5447 9.44703 16.7739 9.67234 16.7739 9.95236C16.7739 9.97811 16.7739 10.0006 16.7739 10.0264C16.786 10.0232 16.798 10.02 16.798 10.0135C16.9187 9.97811 17.0514 9.93949 17.172 9.90408C17.0152 9.81718 16.9066 9.65302 16.9066 9.46634C16.9066 9.18631 17.1358 8.961 17.4254 8.961C17.7149 8.961 17.9441 9.18631 17.9441 9.46634C17.9441 9.55324 17.92 9.63371 17.8838 9.7013C18.1371 9.63371 18.306 9.58865 18.306 9.58865C18.3422 9.58221 18.3663 9.57899 18.3904 9.57256C18.2457 9.48243 18.1492 9.32794 18.1492 9.15412C18.1492 8.87732 18.3904 8.65201 18.68 8.65201C18.9574 8.65201 19.1987 8.87732 19.1987 9.15412C19.1987 9.2539 19.1625 9.34403 19.1143 9.42128C19.1263 9.41806 19.1263 9.41806 19.1263 9.41806C19.3073 9.38587 19.5124 9.37943 19.6933 9.37943C19.633 9.29897 19.5968 9.19597 19.5968 9.08653C19.5968 8.8065 19.826 8.58441 20.1155 8.58441C20.4051 8.58441 20.6343 8.8065 20.6343 9.08653C20.6343 9.24103 20.5619 9.37943 20.4533 9.46956C20.6463 9.51784 20.8273 9.57899 21.0082 9.65946C20.9962 9.6144 20.9841 9.56612 20.9841 9.51462C20.9841 9.23459 21.2133 9.00928 21.5028 9.00928C21.7924 9.00928 22.0216 9.23459 22.0216 9.51462C22.0216 9.75924 21.8406 9.96202 21.6114 10.0071C21.7682 10.123 21.913 10.2517 22.0457 10.3933C22.0457 10.3869 22.0457 10.3837 22.0457 10.3772C22.0457 10.0972 22.287 9.87511 22.5644 9.87511C22.854 9.87511 23.0832 10.0972 23.0832 10.3772C23.0832 10.6573 22.854 10.8794 22.5644 10.8794C22.5162 10.8794 22.4679 10.8729 22.4197 10.86C22.5282 11.0017 22.6127 11.1562 22.6851 11.3139C22.7816 11.1819 22.9384 11.095 23.1194 11.095C23.4089 11.095 23.6381 11.3203 23.6381 11.5971C23.6381 11.8771 23.4089 12.1025 23.1194 12.1025C23.059 12.1025 22.9987 12.0896 22.9505 12.0735C22.9867 12.2119 23.0108 12.3503 23.0229 12.4951C23.0832 12.4694 23.1556 12.4565 23.2279 12.4565C23.5054 12.4565 23.7467 12.6818 23.7467 12.9619C23.7467 13.2387 23.5054 13.464 23.2279 13.464C23.1435 13.464 23.0711 13.4447 22.9987 13.4125C22.9867 13.4672 22.9867 13.5219 22.9746 13.5798C22.9625 13.6378 22.9505 13.6893 22.9263 13.7376C23.1917 13.7697 23.3848 13.979 23.3848 14.2365C23.3848 14.5133 23.1556 14.7386 22.866 14.7386C22.7575 14.7386 22.6609 14.7064 22.5765 14.6549C22.5041 14.8158 22.4076 15.0218 22.3111 15.26C22.094 15.2343 21.8044 15.1956 21.6114 15.1699C21.8044 14.7611 21.9251 14.5229 21.9251 14.5229C21.9371 14.4457 22.1543 14.0723 22.2508 13.7665C22.3232 13.5187 22.3714 13.0584 22.3714 12.9812C22.3714 12.1894 22.0819 11.4684 21.5994 10.9469C21.1289 10.4287 20.4533 10.1036 19.6933 10.1036C19.5365 10.1036 19.3435 10.1133 18.9212 10.1938C18.4869 10.3 18.2819 10.3547 17.8958 10.4545C17.2444 10.6508 16.979 10.7474 16.038 11.1819C15.9536 11.227 15.9053 11.3074 15.8933 11.3686C15.8691 11.4265 15.8812 11.4748 15.8812 11.4748L15.833 14.8287H15.2539" fill="#4B4B55"/>
  <path d="M33.0841 17.7352C33.0841 18.5238 33.4098 19.1353 33.9285 19.7726C32.5292 20.146 31.7571 21.118 31.7571 22.5568C31.7571 24.4236 33.0479 25.6274 35.0384 25.6274C36.2689 25.6274 37.1495 25.2026 37.8733 24.2691C38.1146 24.5653 38.8987 25.5148 38.8987 25.5148H41.0581C41.0581 25.5148 38.959 23.0074 38.8022 22.8111C38.9349 22.5954 40.2257 20.5194 40.2257 20.5129C40.2498 20.4904 40.6721 19.9271 40.6721 19.9271H38.8384C38.8384 19.9271 37.9819 21.2854 37.7647 21.6491C37.4511 21.2854 35.545 19.0935 35.545 19.0935C35.0384 18.4916 34.8815 18.2437 34.8815 17.7641C34.8815 17.1719 35.2435 16.8468 35.907 16.8468H38.1387V15.7428L38.006 15.6945C37.3666 15.4692 36.7152 15.3726 35.8346 15.3726C34.1577 15.3726 33.0841 16.2996 33.0841 17.7352ZM33.6269 22.4731C33.6269 21.3948 33.9527 20.9313 34.8212 20.7929C34.9539 20.9507 36.667 22.9398 36.8359 23.1297C36.7997 23.1877 36.7635 23.2488 36.7635 23.2488C36.3533 23.9151 35.8225 24.2402 35.159 24.2402C34.1215 24.2402 33.6269 23.6608 33.6269 22.4731Z" fill="#4B4B55"/>
  <path d="M38.2231 2.35961C38.2231 2.35961 38.2231 6.12872 38.2231 6.48921C37.8612 6.48921 34.2783 6.48921 33.9284 6.48921C33.9284 6.12872 33.9284 2.35961 33.9284 2.35961H32.1189V12.402H33.9284C33.9284 12.402 33.9284 8.24985 33.9284 7.88613C34.2783 7.88613 37.8612 7.88613 38.2231 7.88613C38.2231 8.24985 38.2231 12.402 38.2231 12.402H40.0326V2.35961" fill="#4B4B55"/>
  <path d="M49.5386 2.35961C49.5386 2.35961 47.6446 9.29592 47.3551 10.3484C47.0655 9.30236 45.063 2.35961 45.063 2.35961H42.7347L41.6128 12.402H43.362C43.362 12.402 43.9411 6.37978 44.0979 4.85411C44.5322 6.33793 46.3297 12.402 46.3297 12.402H48.3322C48.3322 12.402 49.997 6.44093 50.4192 4.9217C50.576 6.47956 51.1913 12.402 51.1913 12.402H52.9164L51.7824 2.35961" fill="#4B4B55"/>
  <path d="M56.4031 2.35961V12.402H58.2126C58.2126 12.402 58.2126 8.59747 58.2126 8.23697C58.5142 8.23697 59.419 8.23697 59.419 8.23697C60.191 8.23697 60.4444 8.5685 60.7822 9.35708L62.0609 12.402H64.0996L62.8088 9.52767C62.459 8.73909 62.1092 8.17903 61.4698 7.78957C62.7726 7.33573 63.4361 6.45703 63.4361 5.16954C63.4361 3.43788 62.1333 2.35961 60.0222 2.35961H56.4031ZM59.5758 3.75653C61.2285 3.75653 61.518 4.2329 61.518 5.23392C61.518 6.39265 60.951 6.8658 59.5758 6.8658C59.5758 6.8658 58.4298 6.8658 58.1161 6.8658C58.1161 6.53106 58.1161 4.09128 58.1161 3.75653C58.4298 3.75653 59.5758 3.75653 59.5758 3.75653Z" fill="#4B4B55"/>
  <path d="M64.3406 8.42357C64.3406 11.1112 65.6314 12.5306 68.0682 12.5306C69.3832 12.5306 70.1794 12.315 70.6257 12.138L70.7463 12.0865V11.1048H68.3698C67.0549 11.1048 66.2346 10.7346 66.1742 8.94822C66.5603 8.94822 71.2409 8.94822 71.2409 8.94822V8.4107C71.2409 5.24027 69.4193 4.574 67.8873 4.574C65.6676 4.574 64.3406 6.01276 64.3406 8.42357ZM68.0079 5.87757C69.0574 5.87757 69.5279 6.37647 69.5279 7.49015C69.5279 7.49015 69.5279 7.59314 69.5279 7.69614C69.1901 7.69614 66.7171 7.69614 66.3552 7.69614C66.4035 6.399 66.8739 5.87757 68.0079 5.87757Z" fill="#4B4B55"/>
  <path d="M77.237 4.68028C77.237 4.68028 75.5964 9.5373 75.2948 10.4321C74.9932 9.5373 73.3646 4.68028 73.3646 4.68028H71.5068L74.2935 12.4213H76.2358L79.0224 4.68028" fill="#4B4B55"/>
  <path d="M79.2034 8.42357C79.2034 11.1112 80.4942 12.5306 82.931 12.5306C84.2459 12.5306 85.0421 12.315 85.4885 12.138L85.6091 12.0865V11.1048H83.2326C82.4485 11.1048 81.9177 10.9535 81.5799 10.6252C81.2421 10.2936 81.0732 9.7368 81.037 8.94822C81.4351 8.94822 86.1037 8.94822 86.1037 8.94822V8.4107C86.1037 5.24027 84.2821 4.574 82.7501 4.574C80.5304 4.574 79.2034 6.01276 79.2034 8.42357ZM82.7621 5.87757C83.8117 5.87757 84.2821 6.37647 84.2821 7.49015C84.2821 7.49015 84.2821 7.59314 84.2821 7.69614C83.9444 7.69614 81.4713 7.69614 81.1215 7.69614C81.1577 6.399 81.6282 5.87757 82.7621 5.87757Z" fill="#4B4B55"/>
  <path d="M88.9507 5.05043C88.9266 4.94421 88.8663 4.68028 88.8663 4.68028H87.3101V12.4213H89.0593C89.0593 12.4213 89.0593 6.48275 89.0593 6.15122C89.1558 6.13835 89.2644 6.12548 89.2644 6.12548C89.7469 6.06432 90.2536 5.99994 90.8809 5.99994C91.8339 5.99994 92.1355 6.251 92.1355 7.02993V12.4213H93.8968V7.07177C93.8968 5.60083 92.8231 4.57406 91.3031 4.57406C90.2294 4.57406 89.5539 4.78971 88.9507 5.05043Z" fill="#4B4B55"/>
  <path d="M100.134 4.68021C100.134 4.68021 100.134 10.6219 100.134 10.9535C100.037 10.9663 99.9405 10.9792 99.9405 10.9792C99.4459 11.0404 98.9392 11.1048 98.3119 11.1048C97.3589 11.1048 97.0573 10.8537 97.0573 10.0748V4.68021H95.3081V10.0329C95.3081 11.5039 96.3697 12.5306 97.9018 12.5306C98.9634 12.5306 99.6389 12.315 100.242 12.0511C100.266 12.1605 100.327 12.4212 100.327 12.4212H101.883V4.68021" fill="#4B4B55"/>
  <path d="M103.15 8.42357C103.15 11.1112 104.428 12.5306 106.865 12.5306C108.18 12.5306 108.976 12.315 109.423 12.138L109.543 12.0865V11.1048H107.167C105.852 11.1048 105.032 10.7346 104.971 8.94822C105.357 8.94822 110.038 8.94822 110.038 8.94822V8.4107C110.038 5.24027 108.216 4.574 106.684 4.574C104.477 4.574 103.15 6.01276 103.15 8.42357ZM106.648 5.87757C107.698 5.87757 108.168 6.37647 108.168 7.49015C108.168 7.49015 108.168 7.59314 108.168 7.69614C107.83 7.69614 105.357 7.69614 105.007 7.69614C105.044 6.399 105.514 5.87757 106.648 5.87757Z" fill="#4B4B55"/>
  <path d="M43.2903 20.3102C43.2903 24.9516 46.1373 25.6469 47.8383 25.6469C48.6465 25.6469 49.6116 25.5084 50.4319 25.2767L50.5767 25.2349V24.1147H48.0433C46.1011 24.1147 45.2205 22.9399 45.2205 20.3102C45.2205 17.6773 46.0167 16.6506 48.0433 16.6506H50.4199V15.5047L50.2751 15.4596C49.7322 15.3051 48.8757 15.1185 47.8503 15.1185C46.4751 15.1185 43.2903 15.6238 43.2903 20.3102Z" fill="#4B4B55"/>
  <path d="M57.6575 17.5486H56.0771C56.0771 17.5486 56.0771 23.6609 56.0771 23.9924C55.9686 24.0053 55.86 24.0182 55.86 24.0182C55.3654 24.0825 54.8466 24.1501 54.1952 24.1501C53.206 24.1501 52.8923 23.8926 52.8923 23.0847V17.5486H51.1069V23.0429C51.1069 24.5525 52.2047 25.605 53.7609 25.605C54.8708 25.605 55.5584 25.3797 56.1736 25.1125C56.2098 25.2284 56.2701 25.4955 56.2701 25.4955H57.8625V17.5486" fill="#4B4B55"/>
  <path d="M59.1414 19.7083C59.1414 21.1342 60.4201 21.7103 61.4455 22.1738C62.1934 22.5118 62.8328 22.8047 62.8328 23.3068C62.8328 23.7253 62.688 24.1501 61.5903 24.1501H59.1775V25.2638L59.3223 25.3056C59.9134 25.473 61.0233 25.605 61.5541 25.605C63.3998 25.605 64.5579 24.6555 64.5579 23.1266C64.5579 21.7168 63.2792 21.1406 62.2417 20.6804C61.4938 20.3424 60.8303 20.0495 60.8303 19.5538C60.8303 19.2706 60.9268 18.8908 61.7592 18.8908H64.015V17.79L63.8703 17.7417C63.4722 17.5968 62.5915 17.4359 61.9642 17.4359C60.2271 17.4359 59.1414 18.3082 59.1414 19.7083Z" fill="#4B4B55"/>
  <path d="M67.6946 15.2279H66.7175C66.7175 15.2279 66.3073 17.2685 66.247 17.5486C65.9937 17.5486 64.908 17.5486 64.908 17.5486V18.8908C64.908 18.8908 65.8248 18.8908 66.1143 18.8908C66.1143 19.2577 66.1143 23.5418 66.1143 23.5418C66.1143 24.8969 67.1397 25.605 68.1651 25.605C68.7562 25.605 69.2388 25.5213 69.9023 25.3024L70.035 25.2574V24.1501H68.8528C68.1531 24.1501 67.8997 23.9313 67.8997 23.3068C67.8997 23.3068 67.8997 19.2577 67.8997 18.8908C68.2254 18.8908 69.8902 18.8908 69.8902 18.8908V17.5486C69.8902 17.5486 68.2254 17.5486 67.8997 17.5486C67.8997 17.2138 67.8997 15.2279 67.8997 15.2279" fill="#4B4B55"/>
  <path d="M70.3606 21.514C70.3606 24.1887 71.6876 25.605 74.2089 25.605C76.706 25.605 78.021 24.1887 78.021 21.514C78.021 18.8457 76.694 17.4359 74.1727 17.4359C71.7117 17.4359 70.3606 18.8843 70.3606 21.514ZM72.2546 21.514C72.2546 19.248 72.9784 18.7942 74.1606 18.7942C75.3911 18.7942 76.1029 19.2384 76.1029 21.514C76.1029 23.7896 75.367 24.2467 74.1848 24.2467C73.0267 24.2467 72.2546 23.7832 72.2546 21.514Z" fill="#4B4B55"/>
  <path d="M84.9577 18.1084C84.4752 17.6578 83.8479 17.4357 82.9672 17.4357C82.2072 17.4357 81.4231 17.6385 80.7355 17.9926C80.6993 17.8477 80.6148 17.5484 80.6148 17.5484H79.1431V25.4954H80.9405C80.9405 25.4954 80.9405 19.4152 80.9405 19.1062C81.5437 18.9807 82.2555 18.8906 82.7018 18.8906C83.3291 18.8906 83.691 19.1577 83.691 19.6373V25.4954H85.4765V19.6792C85.4765 19.4635 85.4644 19.28 85.4523 19.1159C86.0796 18.9839 86.8034 18.8906 87.2498 18.8906C87.8892 18.8906 88.239 19.1577 88.239 19.6373V25.4954H90.0244V19.7918C90.0244 18.2501 89.1679 17.4357 87.5514 17.4357C86.4657 17.4357 85.6695 17.7608 84.9577 18.1084Z" fill="#4B4B55"/>
  <path d="M91.1104 19.7083C91.1104 21.1342 92.377 21.7103 93.4024 22.1738C94.1504 22.5118 94.8018 22.8047 94.8018 23.3068C94.8018 23.7253 94.657 24.1501 93.5593 24.1501H91.1345V25.2638L91.2913 25.3056C91.8704 25.473 92.9802 25.605 93.511 25.605C95.3688 25.605 96.5148 24.6555 96.5148 23.1266C96.5148 21.7168 95.2361 21.1406 94.2107 20.6804C93.4507 20.3424 92.7993 20.0495 92.7993 19.5538C92.7993 19.2706 92.8958 18.8908 93.7282 18.8908H95.972V17.79L95.8393 17.7417C95.4412 17.5968 94.5605 17.4359 93.9332 17.4359C92.184 17.4359 91.1104 18.3082 91.1104 19.7083Z" fill="#4B4B55"/>
  </g>
  <defs>
  <clipPath id="clip0_295_1584">
  <rect width="110.151" height="28" fill="white" transform="translate(0.253418)"/>
  </clipPath>
  </defs>
  </svg>
  