<svg width="105" height="28" viewBox="0 0 105 28" fill="none" xmlns="http://www.w3.org/2000/svg">
  <g clip-path="url(#clip0_295_1567)">
  <path d="M42.1802 0H14.1802V28H42.1802V0Z" fill="white"/>
  <path d="M56.1802 14.0329L42.1802 0V28.0329L56.1802 14.0329Z" fill="#4B4B55"/>
  <path d="M28.1802 14.0329L42.1802 0H14.1802L28.1802 14.0329Z" fill="#4B4B55"/>
  <path d="M0.147217 14.0329L14.1802 28.0329V0L0.147217 14.0329Z" fill="#4B4B55"/>
  <path d="M28.1802 14.033L14.1802 28.033H42.1802L28.1802 14.033Z" fill="#4B4B55"/>
  <path d="M68.4673 14.8565H63.3944V19.8635H60.8579V8.13647H63.3944V12.9459H68.4673V8.13647H71.0038V19.8635H68.4673V14.8565Z" fill="#4B4B55"/>
  <path d="M77.1308 20.0941C74.5943 20.0941 72.519 19.073 72.4861 16.273H75.0226C75.0555 17.5247 75.7802 18.2824 77.1637 18.2824C78.1849 18.2824 79.3708 17.7553 79.3708 16.6024C79.3708 15.68 78.5802 15.4165 77.2626 15.0212L76.4061 14.7906C74.5614 14.2635 72.7167 13.5388 72.7167 11.4306C72.7167 8.82825 75.1543 7.93884 77.3614 7.93884C79.6343 7.93884 81.6108 8.72943 81.6437 11.3318H79.1073C79.0084 10.2777 78.3826 9.65178 77.1967 9.65178C76.2414 9.65178 75.319 10.1459 75.319 11.2C75.319 12.0565 76.1096 12.32 77.7567 12.8471L78.7449 13.1435C80.7543 13.7694 82.039 14.4612 82.039 16.4377C82.0061 19.073 79.4367 20.0941 77.1308 20.0941Z" fill="#4B4B55"/>
  <path d="M83.4556 8.16935H87.5403C88.2979 8.13641 89.0885 8.16935 89.8462 8.30112C91.2626 8.63053 92.3497 9.55288 92.3497 11.1341C92.3497 12.6494 91.3944 13.407 90.0109 13.7694C91.592 14.0658 92.7779 14.8564 92.7779 16.6023C92.7779 19.2705 90.1426 19.8635 88.1003 19.8635H83.4885L83.4556 8.16935ZM87.5403 13.0446C88.6603 13.0446 89.8132 12.8141 89.8132 11.4635C89.8132 10.2446 88.7591 9.91523 87.705 9.91523H85.9262V13.0446H87.5403ZM87.7709 18.1176C88.9567 18.1176 90.1097 17.8541 90.1097 16.4046C90.1097 14.9552 89.1214 14.6917 87.9026 14.6917H85.8932V18.1176H87.7709Z" fill="#4B4B55"/>
  <path d="M99.3659 20.0941C95.5777 20.0941 93.8977 17.6894 93.8977 14.0988C93.8977 10.5082 95.7754 7.90588 99.4977 7.90588C101.837 7.90588 104.109 8.96 104.175 11.5953H101.54C101.408 10.4094 100.618 9.81647 99.4977 9.81647C97.1918 9.81647 96.5001 12.2871 96.5001 14.1647C96.5001 16.0424 97.1918 18.2165 99.3989 18.2165C100.552 18.2165 101.408 17.5906 101.573 16.4047H104.208C103.945 19.1059 101.804 20.0941 99.3659 20.0941Z" fill="#4B4B55"/>
  </g>
  <defs>
  <clipPath id="clip0_295_1567">
  <rect width="104.061" height="28" fill="white" transform="translate(0.147217)"/>
  </clipPath>
  </defs>
  </svg>
  