<svg width="132" height="28" viewBox="0 0 132 28" fill="none" xmlns="http://www.w3.org/2000/svg">
  <g clip-path="url(#clip0_295_1577)">
  <path d="M55.1865 5.60016V22.4002H52.2698V9.21682H52.231L47.0198 22.4002H45.0754L39.7476 9.21682H39.7087V22.4002H37.0254V5.60016H41.2254L46.0476 18.0446H46.1254L51.2198 5.60016H55.1865ZM57.5976 6.88349C57.5976 6.41682 57.7532 6.02794 58.1032 5.71682C58.4532 5.40571 58.8421 5.25016 59.3087 5.25016C59.8143 5.25016 60.2421 5.40571 60.5532 5.71682C60.8643 6.02794 61.0587 6.41682 61.0587 6.88349C61.0587 7.35016 60.9032 7.73905 60.5532 8.05016C60.2032 8.36127 59.8143 8.51682 59.3087 8.51682C58.8032 8.51682 58.4143 8.36127 58.1032 8.05016C57.7921 7.70016 57.5976 7.31127 57.5976 6.88349ZM60.7476 10.3446V22.4002H57.9087V10.3446H60.7476ZM69.3421 20.339C69.7698 20.339 70.2365 20.2613 70.7421 20.0279C71.2476 19.8335 71.7143 19.5613 72.1421 19.2502V21.8946C71.6754 22.1668 71.1698 22.3613 70.5865 22.4779C70.0032 22.5946 69.381 22.6724 68.681 22.6724C66.8921 22.6724 65.4532 22.1279 64.3643 21.0002C63.2365 19.8724 62.6921 18.4335 62.6921 16.7224C62.6921 14.7779 63.2754 13.1835 64.4032 11.939C65.531 10.6946 67.1254 10.0724 69.2254 10.0724C69.7698 10.0724 70.3143 10.1502 70.8198 10.2668C71.3643 10.3835 71.7921 10.5779 72.1032 10.7335V13.4557C71.6754 13.1446 71.2087 12.8724 70.7809 12.7168C70.3143 12.5613 69.8476 12.4446 69.3809 12.4446C68.2532 12.4446 67.3587 12.7946 66.6587 13.5335C65.9587 14.2724 65.6476 15.2446 65.6476 16.489C65.6476 17.6946 65.9976 18.6668 66.6587 19.3279C67.3198 19.989 68.2143 20.339 69.3421 20.339ZM80.1921 10.1502C80.4254 10.1502 80.6198 10.1502 80.8143 10.189C81.0087 10.2279 81.1643 10.2668 81.281 10.3057V13.1835C81.1254 13.0668 80.931 12.9502 80.6198 12.8724C80.3087 12.7946 79.9976 12.7168 79.5698 12.7168C78.8698 12.7168 78.2865 13.0279 77.8198 13.6113C77.3532 14.1946 77.081 15.089 77.081 16.3335V22.4002H74.2421V10.3446H77.081V12.2502H77.1198C77.3921 11.589 77.781 11.0835 78.2865 10.6946C78.831 10.3446 79.4532 10.1502 80.1921 10.1502ZM81.4365 16.5668C81.4365 14.5835 82.0198 12.989 83.1087 11.8224C84.2365 10.6557 85.7921 10.0724 87.7754 10.0724C89.6421 10.0724 91.1198 10.6168 92.1698 11.7446C93.2198 12.8724 93.7643 14.389 93.7643 16.2946C93.7643 18.239 93.181 19.7946 92.0921 20.9613C90.9643 22.1279 89.4476 22.7113 87.5032 22.7113C85.6365 22.7113 84.1587 22.1668 83.0698 21.0779C81.981 19.9502 81.4365 18.4335 81.4365 16.5668ZM84.3921 16.4502C84.3921 17.6946 84.6643 18.6668 85.2476 19.3279C85.831 19.989 86.6476 20.339 87.6976 20.339C88.7087 20.339 89.5254 20.0279 90.0698 19.3279C90.6143 18.6668 90.8865 17.6946 90.8865 16.3724C90.8865 15.089 90.6143 14.1168 90.0698 13.4168C89.5254 12.7557 88.7087 12.4057 87.7365 12.4057C86.6865 12.4057 85.9087 12.7557 85.3254 13.4557C84.6643 14.1946 84.3921 15.1668 84.3921 16.4502ZM98.0032 13.5335C98.0032 13.9224 98.1198 14.2724 98.3921 14.5057C98.6643 14.739 99.2087 15.0113 100.103 15.3613C101.231 15.8279 102.048 16.3335 102.475 16.8779C102.942 17.4613 103.175 18.1224 103.175 18.939C103.175 20.0668 102.748 20.9613 101.853 21.6613C100.998 22.3613 99.7921 22.6724 98.3143 22.6724C97.8087 22.6724 97.2643 22.5946 96.6421 22.4779C96.0198 22.3613 95.5143 22.2057 95.0865 22.0113V19.2113C95.5921 19.5613 96.1754 19.8724 96.7587 20.0668C97.3421 20.2613 97.8865 20.3779 98.3921 20.3779C99.0143 20.3779 99.5198 20.3002 99.7921 20.1057C100.103 19.9113 100.259 19.639 100.259 19.2113C100.259 18.8224 100.103 18.5113 99.7921 18.2002C99.481 17.9279 98.8587 17.6168 98.0032 17.2668C96.9532 16.839 96.2143 16.3335 95.7865 15.789C95.3587 15.2446 95.1254 14.5446 95.1254 13.689C95.1254 12.6002 95.5532 11.7057 96.4087 11.0057C97.2643 10.3057 98.3921 9.95571 99.7532 9.95571C100.181 9.95571 100.648 9.9946 101.153 10.1113C101.659 10.2279 102.125 10.3446 102.475 10.4613V13.2224C102.087 12.989 101.659 12.7557 101.153 12.5613C100.648 12.3668 100.142 12.289 99.6754 12.289C99.131 12.289 98.7032 12.4057 98.431 12.6002C98.1587 12.8724 98.0032 13.1446 98.0032 13.5335ZM104.381 16.5668C104.381 14.5835 104.964 12.989 106.053 11.8224C107.181 10.6557 108.737 10.0724 110.72 10.0724C112.587 10.0724 114.064 10.6168 115.114 11.7446C116.164 12.8724 116.709 14.389 116.709 16.2946C116.709 18.239 116.125 19.7946 115.037 20.9613C113.909 22.1279 112.392 22.7113 110.448 22.7113C108.581 22.7113 107.103 22.1668 106.014 21.0779C104.964 19.9502 104.381 18.4335 104.381 16.5668ZM107.337 16.4502C107.337 17.6946 107.609 18.6668 108.192 19.3279C108.775 19.989 109.592 20.339 110.642 20.339C111.653 20.339 112.47 20.0279 113.014 19.3279C113.559 18.6668 113.831 17.6946 113.831 16.3724C113.831 15.089 113.559 14.1168 113.014 13.4168C112.47 12.7557 111.653 12.4057 110.681 12.4057C109.631 12.4057 108.853 12.7557 108.27 13.4557C107.648 14.1946 107.337 15.1668 107.337 16.4502ZM126.159 12.6779H121.92V22.4002H119.042V12.6779H117.02V10.3446H119.042V8.67238C119.042 7.42793 119.47 6.37794 120.287 5.56127C121.103 4.7446 122.153 4.35571 123.437 4.35571C123.787 4.35571 124.098 4.3946 124.37 4.3946C124.642 4.3946 124.875 4.47238 125.07 4.55016V7.00016C124.992 6.96127 124.798 6.88349 124.564 6.80571C124.331 6.72794 124.059 6.68905 123.748 6.68905C123.164 6.68905 122.698 6.88349 122.387 7.23349C122.075 7.58349 121.92 8.16682 121.92 8.86682V10.3057H126.159V7.58349L128.998 6.72793V10.3057H131.875V12.639H128.998V18.2779C128.998 19.0168 129.153 19.5224 129.387 19.8335C129.659 20.1446 130.087 20.3002 130.67 20.3002C130.825 20.3002 131.02 20.2613 131.253 20.1835C131.487 20.1057 131.681 20.0279 131.837 19.9113V22.2446C131.642 22.3613 131.37 22.439 130.942 22.5168C130.514 22.5946 130.125 22.6335 129.698 22.6335C128.492 22.6335 127.598 22.3224 127.014 21.7002C126.431 21.0779 126.12 20.1057 126.12 18.8224L126.159 12.6779Z" fill="#4B4B55"/>
  <path d="M13.8864 0H0.586426V13.3H13.8864V0Z" fill="#4B4B55"/>
  <path d="M28.5864 0H15.2864V13.3H28.5864V0Z" fill="#4B4B55"/>
  <path d="M13.8864 14.7H0.586426V28H13.8864V14.7Z" fill="#4B4B55"/>
  <path d="M28.5864 14.7H15.2864V28H28.5864V14.7Z" fill="#4B4B55"/>
  </g>
  <defs>
  <clipPath id="clip0_295_1577">
  <rect width="131.289" height="28" fill="white" transform="translate(0.586426)"/>
  </clipPath>
  </defs>
  </svg>
  