<svg width="60" height="60" viewBox="0 0 60 60" fill="none" xmlns="http://www.w3.org/2000/svg">
  <rect width="60" height="60" rx="30" fill="#EEEAFF"/>
  <path d="M31.3333 44H16.3333C15.4493 44 14.6014 43.6488 13.9763 43.0237C13.3512 42.3986 13 41.5507 13 40.6667V17.3333C13 16.4493 13.3512 15.6014 13.9763 14.9763C14.6014 14.3512 15.4493 14 16.3333 14H43C43.8841 14 44.7319 14.3512 45.357 14.9763C45.9821 15.6014 46.3333 16.4493 46.3333 17.3333V32.3333" stroke="#763FEC" stroke-width="2" stroke-linecap="round"/>
  <path d="M13 20.6668H46.3333M18 17.3501L18.0167 17.3318M23 17.3501L23.0167 17.3318M28 17.3501L28.0167 17.3318M43.2067 42.5318L46.3333 45.6668M43.2067 42.5318C43.6765 42.0683 44.0499 41.5163 44.3053 40.9078C44.5608 40.2992 44.6932 39.6461 44.695 38.9861C44.6968 38.3261 44.5679 37.6723 44.3158 37.0624C44.0637 36.4524 43.6933 35.8985 43.226 35.4324C42.7587 34.9663 42.2038 34.5973 41.5932 34.3468C40.9826 34.0962 40.3285 33.9691 39.6685 33.9726C39.0085 33.9761 38.3557 34.1102 37.7478 34.3672C37.14 34.6243 36.589 34.9991 36.1267 35.4701C35.2027 36.4115 34.6881 37.68 34.6951 38.9991C34.7021 40.3182 35.2301 41.5811 36.1641 42.5126C37.0981 43.4442 38.3623 43.9689 39.6814 43.9725C41.0005 43.9761 42.2676 43.4582 43.2067 42.5318V42.5318Z" stroke="#763FEC" stroke-width="2" stroke-linecap="round" stroke-linejoin="round"/>
  </svg>
  