<svg width="60" height="60" viewBox="0 0 60 60" fill="none" xmlns="http://www.w3.org/2000/svg">
  <rect width="60" height="60" rx="30" fill="#EEEAFF"/>
  <path d="M22.5 30.0002L19.16 34.4535C18.6933 35.0756 18.4589 35.8413 18.4972 36.6181C18.5356 37.3948 18.8443 38.1337 19.37 38.7068L25.6766 45.5868C26.3066 46.2752 27.1966 46.6668 28.1316 46.6668H35.8333C39.8333 46.6668 42.5 43.3335 42.5 40.0002V25.7152M37.5 26.6668V25.7152C37.5 21.9052 42.5 21.9052 42.5 25.7152" stroke="#763FEC" stroke-width="2" stroke-linecap="round" stroke-linejoin="round"/>
  <path d="M32.5 26.6666V23.8099C32.5 19.9999 37.5 19.9999 37.5 23.8099V26.6666M27.5 26.6666V22.4999C27.5 18.6899 32.5 18.6899 32.5 22.4999V26.6666M27.5 26.6666V15.8316C27.4996 15.1688 27.236 14.5334 26.7672 14.0649C26.2984 13.5964 25.6628 13.3333 25 13.3333C24.337 13.3333 23.7011 13.5966 23.2322 14.0655C22.7634 14.5343 22.5 15.1702 22.5 15.8333V34.9999" stroke="#763FEC" stroke-width="2" stroke-linecap="round" stroke-linejoin="round"/>
  </svg>
  