<svg width="60" height="60" viewBox="0 0 60 60" fill="none" xmlns="http://www.w3.org/2000/svg">
  <rect width="60" height="60" rx="30" fill="#EEEAFF"/>
  <path d="M37.4533 43.3333H16.8333C16.568 43.3333 16.3137 43.2279 16.1261 43.0404C15.9386 42.8528 15.8333 42.5985 15.8333 42.3333V25.9999C15.8333 25.7347 15.9386 25.4804 16.1261 25.2928C16.3137 25.1053 16.568 24.9999 16.8333 24.9999H21.4466C22.0222 24.9999 22.588 24.8509 23.0889 24.5673C23.5898 24.2837 24.0088 23.8752 24.3049 23.3816L28.8216 15.8533C29.1622 15.2847 29.6989 14.8602 30.3306 14.6595C30.9623 14.4589 31.6456 14.496 32.2519 14.7638C32.8581 15.0316 33.3457 15.5117 33.6228 16.1138C33.8999 16.7159 33.9475 17.3985 33.7566 18.0333L32.0533 23.7133C32.0086 23.8624 31.9994 24.02 32.0264 24.1733C32.0534 24.3267 32.1159 24.4716 32.2088 24.5966C32.3017 24.7216 32.4225 24.8231 32.5616 24.8931C32.7007 24.9631 32.8542 24.9997 33.0099 24.9999H40.6349C41.1475 24.9998 41.6532 25.1179 42.1127 25.3451C42.5722 25.5722 42.9731 25.9022 43.2843 26.3095C43.5955 26.7168 43.8086 27.1904 43.9069 27.6934C44.0053 28.1965 43.9864 28.7154 43.8516 29.2099L40.6682 40.8766C40.476 41.5817 40.0574 42.2041 39.4768 42.648C38.8962 43.0919 38.1858 43.3327 37.4549 43.3333H37.4533Z" stroke="#763FEC" stroke-width="2" stroke-linecap="round"/>
  <path d="M21.6667 43.3333V25" stroke="#763FEC" stroke-width="2" stroke-linecap="round" stroke-linejoin="round"/>
  </svg>
  