<svg width="472" height="298" viewBox="0 0 472 298" fill="none" xmlns="http://www.w3.org/2000/svg">
  <rect x="0.5" y="0.5" width="471" height="297" rx="11.5" fill="white"/>
  <path d="M24.312 49H26.808L28.728 44.272H36.336L38.232 49H40.752L33.864 32.2H31.2L24.312 49ZM29.592 42.088L32.52 34.84L35.448 42.088H29.592ZM42.2625 49H44.5425V42.76C44.5425 40.528 45.6945 39.136 47.5185 39.136C49.1505 39.136 49.9665 40.072 49.9665 41.968V49H52.2465V41.512C52.2465 38.752 50.7345 37.072 48.2145 37.072C46.6065 37.072 45.3825 37.72 44.5425 38.776V37.432H42.2625V49ZM53.3655 39.448H55.4775V44.968C55.4775 47.68 57.1575 49.36 59.9175 49.36C62.3175 49.36 64.1655 47.56 64.0215 44.8L61.8375 44.584C61.9335 46.216 61.1655 47.272 59.8455 47.272C58.5255 47.272 57.7575 46.48 57.7575 45.016V39.448H63.6135V37.432H57.7575V33.976H55.4775V37.432H53.3655V39.448ZM71.1116 37.072C67.5836 37.072 65.0876 39.808 65.0876 43.24C65.0876 46.696 67.5836 49.36 71.1116 49.36C74.6156 49.36 77.0636 46.696 77.0636 43.24C77.0636 39.808 74.5916 37.072 71.1116 37.072ZM71.0876 47.176C68.9516 47.176 67.3676 45.472 67.3676 43.24C67.3676 40.96 68.9516 39.256 71.0876 39.256C73.2476 39.256 74.7836 40.96 74.7836 43.24C74.7836 44.368 74.4236 45.328 73.7276 46.072C73.0316 46.816 72.1676 47.176 71.0876 47.176ZM79.0659 49H81.3459V42.76C81.3459 40.528 82.4979 39.136 84.3219 39.136C85.9539 39.136 86.7699 40.072 86.7699 41.968V49H89.0499V41.512C89.0499 38.752 87.5379 37.072 85.0179 37.072C83.4099 37.072 82.1859 37.72 81.3459 38.776V37.432H79.0659V49ZM91.6697 49H93.9497V37.432H91.6697V49ZM92.7977 32.488C91.9337 32.488 91.2617 33.184 91.2617 34.024C91.2617 34.888 91.9337 35.56 92.7977 35.56C93.6377 35.56 94.3097 34.888 94.3097 34.024C94.3097 33.184 93.6377 32.488 92.7977 32.488ZM100.57 42.04C97.6659 42.52 96.2019 43.696 96.2019 45.904C96.2019 47.632 97.5219 49.36 100.162 49.36C101.722 49.36 102.826 48.64 103.474 47.56V49H105.61V41.2C105.61 38.632 103.93 37.048 100.882 37.048C98.2419 37.048 96.1059 38.656 96.2499 41.584L98.4099 41.752L98.3859 41.416C98.3859 39.952 99.3219 39.016 100.93 39.016C102.562 39.016 103.45 39.856 103.45 41.08V41.56L100.57 42.04ZM100.594 47.296C99.2259 47.296 98.3619 46.648 98.3619 45.664C98.3619 44.584 99.3459 44.104 100.906 43.816L103.45 43.408V44.08C103.45 46 102.25 47.296 100.594 47.296ZM114.086 49H120.014C124.646 49.096 128.126 45.256 128.054 40.624C128.126 35.968 124.646 32.128 120.014 32.2H114.086V49ZM116.366 46.744V34.456H119.99C123.302 34.456 125.702 37.096 125.702 40.624C125.702 44.152 123.302 46.744 119.99 46.744H116.366ZM135.601 37.072C132.073 37.072 129.577 39.808 129.577 43.24C129.577 46.696 132.073 49.36 135.601 49.36C139.105 49.36 141.553 46.696 141.553 43.24C141.553 39.808 139.081 37.072 135.601 37.072ZM135.577 47.176C133.441 47.176 131.857 45.472 131.857 43.24C131.857 40.96 133.441 39.256 135.577 39.256C137.737 39.256 139.273 40.96 139.273 43.24C139.273 44.368 138.913 45.328 138.217 46.072C137.521 46.816 136.657 47.176 135.577 47.176ZM143.556 49H145.836V42.76C145.836 40.528 146.988 39.136 148.812 39.136C150.444 39.136 151.26 40.072 151.26 41.968V49H153.54V41.512C153.54 38.752 152.028 37.072 149.508 37.072C147.9 37.072 146.676 37.72 145.836 38.776V37.432H143.556V49ZM161.535 37.072C158.007 37.072 155.511 39.808 155.511 43.24C155.511 46.696 158.007 49.36 161.535 49.36C165.039 49.36 167.487 46.696 167.487 43.24C167.487 39.808 165.015 37.072 161.535 37.072ZM161.511 47.176C159.375 47.176 157.791 45.472 157.791 43.24C157.791 40.96 159.375 39.256 161.511 39.256C163.671 39.256 165.207 40.96 165.207 43.24C165.207 44.368 164.847 45.328 164.151 46.072C163.455 46.816 162.591 47.176 161.511 47.176ZM168.106 37.432L172.762 49H175.162L179.794 37.432H177.394L173.962 46L170.506 37.432H168.106ZM184.929 42.04C182.025 42.52 180.561 43.696 180.561 45.904C180.561 47.632 181.881 49.36 184.521 49.36C186.081 49.36 187.185 48.64 187.833 47.56V49H189.969V41.2C189.969 38.632 188.289 37.048 185.241 37.048C182.601 37.048 180.465 38.656 180.609 41.584L182.769 41.752L182.745 41.416C182.745 39.952 183.681 39.016 185.289 39.016C186.921 39.016 187.809 39.856 187.809 41.08V41.56L184.929 42.04ZM184.953 47.296C183.585 47.296 182.721 46.648 182.721 45.664C182.721 44.584 183.705 44.104 185.265 43.816L187.809 43.408V44.08C187.809 46 186.609 47.296 184.953 47.296ZM192.588 49H194.868V42.76C194.868 40.528 196.02 39.136 197.844 39.136C199.476 39.136 200.292 40.072 200.292 41.968V49H202.572V41.512C202.572 38.752 201.06 37.072 198.54 37.072C196.932 37.072 195.708 37.72 194.868 38.776V37.432H192.588V49Z" fill="#34343D"/>
  <rect x="382" y="36.5" width="66" height="12" rx="6" fill="#F4F4F4"/>
  <rect x="24" y="85" width="153" height="36" rx="4" fill="#E2F8D4"/>
  <path d="M41.6506 108H40.358L44.0966 97.8182H45.3693L49.108 108H47.8153L44.7727 99.429H44.6932L41.6506 108ZM42.1278 104.023H47.3381V105.116H42.1278V104.023ZM50.5348 110.864V100.364H51.6683V101.577H51.8075C51.8937 101.444 52.013 101.275 52.1655 101.07C52.3213 100.861 52.5433 100.675 52.8317 100.513C53.1233 100.347 53.5178 100.264 54.0149 100.264C54.6579 100.264 55.2247 100.425 55.7152 100.746C56.2057 101.068 56.5885 101.524 56.8636 102.114C57.1387 102.704 57.2763 103.4 57.2763 104.202C57.2763 105.01 57.1387 105.711 56.8636 106.305C56.5885 106.895 56.2074 107.352 55.7202 107.677C55.233 107.998 54.6712 108.159 54.0348 108.159C53.5443 108.159 53.1515 108.078 52.8565 107.915C52.5616 107.75 52.3345 107.562 52.1754 107.354C52.0163 107.142 51.8937 106.966 51.8075 106.827H51.7081V110.864H50.5348ZM51.6882 104.182C51.6882 104.759 51.7727 105.267 51.9418 105.708C52.1108 106.146 52.3577 106.489 52.6825 106.737C53.0073 106.982 53.4051 107.105 53.8757 107.105C54.3662 107.105 54.7756 106.976 55.1037 106.717C55.4351 106.455 55.6837 106.104 55.8494 105.663C56.0185 105.219 56.103 104.725 56.103 104.182C56.103 103.645 56.0201 103.161 55.8544 102.73C55.692 102.296 55.4451 101.953 55.1136 101.701C54.7855 101.446 54.3729 101.318 53.8757 101.318C53.3984 101.318 52.9974 101.439 52.6726 101.681C52.3478 101.92 52.1025 102.254 51.9368 102.685C51.7711 103.113 51.6882 103.612 51.6882 104.182ZM59.0661 110.864V100.364H60.1996V101.577H60.3388C60.425 101.444 60.5443 101.275 60.6967 101.07C60.8525 100.861 61.0746 100.675 61.3629 100.513C61.6546 100.347 62.049 100.264 62.5462 100.264C63.1892 100.264 63.7559 100.425 64.2464 100.746C64.737 101.068 65.1198 101.524 65.3949 102.114C65.67 102.704 65.8075 103.4 65.8075 104.202C65.8075 105.01 65.67 105.711 65.3949 106.305C65.1198 106.895 64.7386 107.352 64.2514 107.677C63.7642 107.998 63.2024 108.159 62.5661 108.159C62.0755 108.159 61.6828 108.078 61.3878 107.915C61.0928 107.75 60.8658 107.562 60.7067 107.354C60.5476 107.142 60.425 106.966 60.3388 106.827H60.2393V110.864H59.0661ZM60.2195 104.182C60.2195 104.759 60.304 105.267 60.473 105.708C60.642 106.146 60.889 106.489 61.2138 106.737C61.5386 106.982 61.9363 107.105 62.407 107.105C62.8975 107.105 63.3068 106.976 63.6349 106.717C63.9664 106.455 64.215 106.104 64.3807 105.663C64.5497 105.219 64.6342 104.725 64.6342 104.182C64.6342 103.645 64.5514 103.161 64.3857 102.73C64.2232 102.296 63.9763 101.953 63.6449 101.701C63.3168 101.446 62.9041 101.318 62.407 101.318C61.9297 101.318 61.5286 101.439 61.2038 101.681C60.879 101.92 60.6338 102.254 60.468 102.685C60.3023 103.113 60.2195 103.612 60.2195 104.182ZM68.7706 97.8182V108H67.5973V97.8182H68.7706ZM70.9196 108V100.364H72.0929V108H70.9196ZM71.5162 99.0909C71.2875 99.0909 71.0903 99.013 70.9245 98.8572C70.7621 98.7015 70.6809 98.5142 70.6809 98.2955C70.6809 98.0767 70.7621 97.8894 70.9245 97.7337C71.0903 97.5779 71.2875 97.5 71.5162 97.5C71.7449 97.5 71.9404 97.5779 72.1028 97.7337C72.2685 97.8894 72.3514 98.0767 72.3514 98.2955C72.3514 98.5142 72.2685 98.7015 72.1028 98.8572C71.9404 99.013 71.7449 99.0909 71.5162 99.0909ZM77.3441 108.159C76.6282 108.159 76.0117 107.99 75.4947 107.652C74.9776 107.314 74.5799 106.848 74.3015 106.255C74.0231 105.662 73.8839 104.984 73.8839 104.222C73.8839 103.446 74.0264 102.762 74.3114 102.168C74.5998 101.572 75.0008 101.106 75.5146 100.771C76.0316 100.433 76.6348 100.264 77.3242 100.264C77.8612 100.264 78.3451 100.364 78.7759 100.562C79.2068 100.761 79.5598 101.04 79.8349 101.398C80.11 101.756 80.2807 102.173 80.3469 102.651H79.1737C79.0842 102.303 78.8853 101.994 78.5771 101.726C78.2721 101.454 77.8612 101.318 77.3441 101.318C76.8867 101.318 76.4857 101.437 76.141 101.676C75.7996 101.911 75.5328 102.245 75.3406 102.675C75.1516 103.103 75.0572 103.605 75.0572 104.182C75.0572 104.772 75.15 105.286 75.3356 105.723C75.5245 106.161 75.7897 106.5 76.131 106.742C76.4757 106.984 76.8801 107.105 77.3441 107.105C77.649 107.105 77.9258 107.052 78.1744 106.946C78.4229 106.84 78.6334 106.688 78.8058 106.489C78.9781 106.29 79.1007 106.051 79.1737 105.773H80.3469C80.2807 106.223 80.1166 106.629 79.8548 106.991C79.5962 107.349 79.2532 107.634 78.8256 107.846C78.4014 108.055 77.9076 108.159 77.3441 108.159ZM84.3093 108.179C83.8254 108.179 83.3862 108.088 82.9918 107.906C82.5974 107.72 82.2842 107.453 82.0522 107.105C81.8202 106.754 81.7042 106.33 81.7042 105.832C81.7042 105.395 81.7904 105.04 81.9627 104.768C82.1351 104.493 82.3654 104.278 82.6538 104.122C82.9421 103.966 83.2603 103.85 83.6083 103.774C83.9596 103.695 84.3126 103.632 84.6673 103.585C85.1313 103.526 85.5075 103.481 85.7958 103.451C86.0875 103.418 86.2996 103.363 86.4322 103.287C86.5681 103.211 86.636 103.078 86.636 102.889V102.849C86.636 102.359 86.5018 101.978 86.2333 101.706C85.9682 101.434 85.5655 101.298 85.0252 101.298C84.4651 101.298 84.0259 101.421 83.7077 101.666C83.3896 101.911 83.1658 102.173 83.0366 102.452L81.9229 102.054C82.1218 101.59 82.387 101.229 82.7184 100.97C83.0531 100.708 83.4177 100.526 83.8121 100.423C84.2099 100.317 84.601 100.264 84.9854 100.264C85.2307 100.264 85.5124 100.294 85.8306 100.354C86.1521 100.41 86.462 100.528 86.7603 100.707C87.0619 100.886 87.3121 101.156 87.511 101.517C87.7099 101.878 87.8093 102.362 87.8093 102.969V108H86.636V106.966H86.5763C86.4968 107.132 86.3642 107.309 86.1786 107.498C85.993 107.687 85.7461 107.848 85.4379 107.98C85.1296 108.113 84.7534 108.179 84.3093 108.179ZM84.4883 107.125C84.9523 107.125 85.3434 107.034 85.6616 106.852C85.9831 106.669 86.225 106.434 86.3874 106.146C86.5531 105.857 86.636 105.554 86.636 105.236V104.162C86.5863 104.222 86.4769 104.276 86.3079 104.326C86.1422 104.372 85.9499 104.414 85.7312 104.45C85.5157 104.483 85.3053 104.513 85.0998 104.54C84.8976 104.563 84.7335 104.583 84.6076 104.599C84.3027 104.639 84.0176 104.704 83.7525 104.793C83.4906 104.879 83.2785 105.01 83.1161 105.186C82.957 105.358 82.8775 105.594 82.8775 105.892C82.8775 106.3 83.0283 106.608 83.3299 106.817C83.6348 107.022 84.021 107.125 84.4883 107.125ZM93.2718 100.364V101.358H89.3145V100.364H93.2718ZM90.4679 98.5341H91.6412V105.812C91.6412 106.144 91.6892 106.393 91.7853 106.558C91.8848 106.721 92.0107 106.83 92.1632 106.886C92.319 106.939 92.483 106.966 92.6554 106.966C92.7846 106.966 92.8907 106.959 92.9735 106.946C93.0564 106.929 93.1227 106.916 93.1724 106.906L93.411 107.96C93.3315 107.99 93.2205 108.02 93.0779 108.05C92.9354 108.083 92.7548 108.099 92.536 108.099C92.2046 108.099 91.8798 108.028 91.5616 107.886C91.2467 107.743 90.9849 107.526 90.7761 107.234C90.5706 106.943 90.4679 106.575 90.4679 106.131V98.5341ZM95.0368 108V100.364H96.21V108H95.0368ZM95.6333 99.0909C95.4047 99.0909 95.2074 99.013 95.0417 98.8572C94.8793 98.7015 94.7981 98.5142 94.7981 98.2955C94.7981 98.0767 94.8793 97.8894 95.0417 97.7337C95.2074 97.5779 95.4047 97.5 95.6333 97.5C95.862 97.5 96.0576 97.5779 96.22 97.7337C96.3857 97.8894 96.4686 98.0767 96.4686 98.2955C96.4686 98.5142 96.3857 98.7015 96.22 98.8572C96.0576 99.013 95.862 99.0909 95.6333 99.0909ZM101.461 108.159C100.772 108.159 100.167 107.995 99.6467 107.667C99.1296 107.339 98.7253 106.88 98.4336 106.29C98.1452 105.7 98.0011 105.01 98.0011 104.222C98.0011 103.426 98.1452 102.732 98.4336 102.138C98.7253 101.545 99.1296 101.085 99.6467 100.756C100.167 100.428 100.772 100.264 101.461 100.264C102.151 100.264 102.754 100.428 103.271 100.756C103.791 101.085 104.196 101.545 104.484 102.138C104.776 102.732 104.922 103.426 104.922 104.222C104.922 105.01 104.776 105.7 104.484 106.29C104.196 106.88 103.791 107.339 103.271 107.667C102.754 107.995 102.151 108.159 101.461 108.159ZM101.461 107.105C101.985 107.105 102.416 106.971 102.754 106.702C103.092 106.434 103.342 106.081 103.505 105.643C103.667 105.206 103.748 104.732 103.748 104.222C103.748 103.711 103.667 103.236 103.505 102.795C103.342 102.354 103.092 101.998 102.754 101.726C102.416 101.454 101.985 101.318 101.461 101.318C100.938 101.318 100.507 101.454 100.169 101.726C99.8306 101.998 99.5804 102.354 99.418 102.795C99.2556 103.236 99.1744 103.711 99.1744 104.222C99.1744 104.732 99.2556 105.206 99.418 105.643C99.5804 106.081 99.8306 106.434 100.169 106.702C100.507 106.971 100.938 107.105 101.461 107.105ZM107.886 103.406V108H106.713V100.364H107.846V101.557H107.945C108.124 101.169 108.396 100.857 108.761 100.622C109.125 100.384 109.596 100.264 110.173 100.264C110.69 100.264 111.142 100.37 111.53 100.582C111.918 100.791 112.219 101.109 112.435 101.537C112.65 101.961 112.758 102.498 112.758 103.148V108H111.585V103.227C111.585 102.627 111.429 102.16 111.117 101.825C110.806 101.487 110.378 101.318 109.835 101.318C109.46 101.318 109.125 101.399 108.83 101.562C108.539 101.724 108.308 101.961 108.139 102.273C107.97 102.584 107.886 102.962 107.886 103.406ZM124.567 100.364C124.507 99.8598 124.265 99.4688 123.841 99.1903C123.417 98.9119 122.896 98.7727 122.28 98.7727C121.829 98.7727 121.435 98.8456 121.097 98.9915C120.762 99.1373 120.5 99.3378 120.311 99.593C120.125 99.8482 120.033 100.138 120.033 100.463C120.033 100.735 120.097 100.969 120.227 101.164C120.359 101.356 120.528 101.517 120.734 101.646C120.939 101.772 121.155 101.877 121.38 101.96C121.605 102.039 121.812 102.104 122.001 102.153L123.036 102.432C123.301 102.501 123.596 102.598 123.92 102.72C124.249 102.843 124.562 103.01 124.86 103.222C125.162 103.431 125.41 103.7 125.606 104.028C125.801 104.356 125.899 104.759 125.899 105.236C125.899 105.786 125.755 106.283 125.467 106.727C125.182 107.171 124.764 107.524 124.214 107.786C123.667 108.048 123.002 108.179 122.22 108.179C121.491 108.179 120.86 108.061 120.326 107.826C119.796 107.591 119.378 107.263 119.073 106.842C118.772 106.421 118.601 105.932 118.561 105.375H119.834C119.867 105.759 119.996 106.078 120.222 106.33C120.45 106.578 120.739 106.764 121.087 106.886C121.438 107.006 121.816 107.065 122.22 107.065C122.691 107.065 123.113 106.989 123.488 106.837C123.862 106.681 124.159 106.465 124.378 106.19C124.597 105.912 124.706 105.587 124.706 105.216C124.706 104.878 124.612 104.603 124.423 104.391C124.234 104.179 123.985 104.006 123.677 103.874C123.369 103.741 123.036 103.625 122.678 103.526L121.425 103.168C120.629 102.939 120 102.612 119.536 102.188C119.071 101.764 118.839 101.209 118.839 100.523C118.839 99.9527 118.994 99.4555 119.302 99.0312C119.613 98.6037 120.031 98.2723 120.555 98.0369C121.082 97.7983 121.67 97.679 122.32 97.679C122.976 97.679 123.559 97.7966 124.07 98.032C124.58 98.264 124.984 98.5821 125.283 98.9865C125.584 99.3909 125.743 99.8499 125.76 100.364H124.567ZM131.088 100.364V101.358H127.131V100.364H131.088ZM128.284 98.5341H129.458V105.812C129.458 106.144 129.506 106.393 129.602 106.558C129.701 106.721 129.827 106.83 129.98 106.886C130.135 106.939 130.299 106.966 130.472 106.966C130.601 106.966 130.707 106.959 130.79 106.946C130.873 106.929 130.939 106.916 130.989 106.906L131.227 107.96C131.148 107.99 131.037 108.02 130.894 108.05C130.752 108.083 130.571 108.099 130.352 108.099C130.021 108.099 129.696 108.028 129.378 107.886C129.063 107.743 128.801 107.526 128.593 107.234C128.387 106.943 128.284 106.575 128.284 106.131V98.5341ZM135.1 108.179C134.616 108.179 134.177 108.088 133.783 107.906C133.388 107.72 133.075 107.453 132.843 107.105C132.611 106.754 132.495 106.33 132.495 105.832C132.495 105.395 132.581 105.04 132.754 104.768C132.926 104.493 133.156 104.278 133.445 104.122C133.733 103.966 134.051 103.85 134.399 103.774C134.751 103.695 135.104 103.632 135.458 103.585C135.922 103.526 136.298 103.481 136.587 103.451C136.878 103.418 137.091 103.363 137.223 103.287C137.359 103.211 137.427 103.078 137.427 102.889V102.849C137.427 102.359 137.293 101.978 137.024 101.706C136.759 101.434 136.356 101.298 135.816 101.298C135.256 101.298 134.817 101.421 134.499 101.666C134.181 101.911 133.957 102.173 133.828 102.452L132.714 102.054C132.913 101.59 133.178 101.229 133.509 100.97C133.844 100.708 134.209 100.526 134.603 100.423C135.001 100.317 135.392 100.264 135.776 100.264C136.022 100.264 136.303 100.294 136.622 100.354C136.943 100.41 137.253 100.528 137.551 100.707C137.853 100.886 138.103 101.156 138.302 101.517C138.501 101.878 138.6 102.362 138.6 102.969V108H137.427V106.966H137.367C137.288 107.132 137.155 107.309 136.97 107.498C136.784 107.687 136.537 107.848 136.229 107.98C135.921 108.113 135.544 108.179 135.1 108.179ZM135.279 107.125C135.743 107.125 136.134 107.034 136.453 106.852C136.774 106.669 137.016 106.434 137.178 106.146C137.344 105.857 137.427 105.554 137.427 105.236V104.162C137.377 104.222 137.268 104.276 137.099 104.326C136.933 104.372 136.741 104.414 136.522 104.45C136.307 104.483 136.096 104.513 135.891 104.54C135.689 104.563 135.525 104.583 135.399 104.599C135.094 104.639 134.809 104.704 134.544 104.793C134.282 104.879 134.07 105.01 133.907 105.186C133.748 105.358 133.669 105.594 133.669 105.892C133.669 106.3 133.819 106.608 134.121 106.817C134.426 107.022 134.812 107.125 135.279 107.125ZM144.063 100.364V101.358H140.105V100.364H144.063ZM141.259 98.5341H142.432V105.812C142.432 106.144 142.48 106.393 142.576 106.558C142.676 106.721 142.802 106.83 142.954 106.886C143.11 106.939 143.274 106.966 143.446 106.966C143.576 106.966 143.682 106.959 143.765 106.946C143.847 106.929 143.914 106.916 143.963 106.906L144.202 107.96C144.123 107.99 144.011 108.02 143.869 108.05C143.726 108.083 143.546 108.099 143.327 108.099C142.996 108.099 142.671 108.028 142.353 107.886C142.038 107.743 141.776 107.526 141.567 107.234C141.362 106.943 141.259 106.575 141.259 106.131V98.5341ZM150.64 104.878V100.364H151.814V108H150.64V106.707H150.561C150.382 107.095 150.103 107.425 149.725 107.697C149.348 107.965 148.87 108.099 148.294 108.099C147.816 108.099 147.392 107.995 147.021 107.786C146.65 107.574 146.358 107.256 146.146 106.832C145.934 106.404 145.828 105.866 145.828 105.216V100.364H147.001V105.136C147.001 105.693 147.157 106.137 147.468 106.469C147.783 106.8 148.184 106.966 148.672 106.966C148.963 106.966 149.26 106.891 149.561 106.742C149.866 106.593 150.122 106.364 150.327 106.056C150.536 105.748 150.64 105.355 150.64 104.878ZM159.372 102.074L158.318 102.372C158.251 102.196 158.154 102.026 158.024 101.86C157.898 101.691 157.726 101.552 157.507 101.442C157.289 101.333 157.008 101.278 156.667 101.278C156.2 101.278 155.81 101.386 155.499 101.602C155.191 101.814 155.036 102.084 155.036 102.412C155.036 102.704 155.142 102.934 155.355 103.103C155.567 103.272 155.898 103.413 156.349 103.526L157.482 103.804C158.165 103.97 158.674 104.223 159.009 104.565C159.343 104.903 159.511 105.339 159.511 105.872C159.511 106.31 159.385 106.701 159.133 107.045C158.884 107.39 158.536 107.662 158.089 107.861C157.642 108.06 157.121 108.159 156.528 108.159C155.749 108.159 155.104 107.99 154.594 107.652C154.084 107.314 153.76 106.82 153.624 106.17L154.738 105.892C154.844 106.303 155.045 106.611 155.34 106.817C155.638 107.022 156.027 107.125 156.508 107.125C157.055 107.125 157.489 107.009 157.811 106.777C158.135 106.542 158.298 106.26 158.298 105.932C158.298 105.667 158.205 105.445 158.019 105.266C157.834 105.083 157.549 104.947 157.164 104.858L155.892 104.56C155.192 104.394 154.678 104.137 154.35 103.789C154.026 103.438 153.863 102.999 153.863 102.472C153.863 102.041 153.984 101.66 154.226 101.328C154.471 100.997 154.804 100.737 155.225 100.548C155.65 100.359 156.13 100.264 156.667 100.264C157.423 100.264 158.016 100.43 158.447 100.761C158.881 101.093 159.189 101.53 159.372 102.074Z" fill="#033B1E"/>
  <rect x="189" y="85" width="86" height="36" rx="4" fill="#F4F4F4"/>
  <path d="M206.233 108V97.8182H212.338V98.9119H207.466V102.352H211.881V103.446H207.466V108H206.233ZM214.291 108V100.364H215.464V108H214.291ZM214.887 99.0909C214.659 99.0909 214.461 99.013 214.296 98.8572C214.133 98.7015 214.052 98.5142 214.052 98.2955C214.052 98.0767 214.133 97.8894 214.296 97.7337C214.461 97.5779 214.659 97.5 214.887 97.5C215.116 97.5 215.311 97.5779 215.474 97.7337C215.64 97.8894 215.722 98.0767 215.722 98.2955C215.722 98.5142 215.64 98.7015 215.474 98.8572C215.311 99.013 215.116 99.0909 214.887 99.0909ZM218.786 97.8182V108H217.613V97.8182H218.786ZM224.256 100.364V101.358H220.299V100.364H224.256ZM221.452 98.5341H222.626V105.812C222.626 106.144 222.674 106.393 222.77 106.558C222.869 106.721 222.995 106.83 223.148 106.886C223.303 106.939 223.467 106.966 223.64 106.966C223.769 106.966 223.875 106.959 223.958 106.946C224.041 106.929 224.107 106.916 224.157 106.906L224.395 107.96C224.316 107.99 224.205 108.02 224.062 108.05C223.92 108.083 223.739 108.099 223.52 108.099C223.189 108.099 222.864 108.028 222.546 107.886C222.231 107.743 221.969 107.526 221.76 107.234C221.555 106.943 221.452 106.575 221.452 106.131V98.5341ZM229.141 108.159C228.405 108.159 227.77 107.997 227.237 107.672C226.706 107.344 226.297 106.886 226.009 106.3C225.724 105.71 225.581 105.024 225.581 104.241C225.581 103.459 225.724 102.77 226.009 102.173C226.297 101.573 226.698 101.106 227.212 100.771C227.729 100.433 228.332 100.264 229.021 100.264C229.419 100.264 229.812 100.33 230.2 100.463C230.588 100.596 230.941 100.811 231.259 101.109C231.577 101.404 231.83 101.795 232.019 102.283C232.208 102.77 232.303 103.37 232.303 104.082V104.58H226.416V103.565H231.11C231.11 103.134 231.023 102.75 230.851 102.412C230.682 102.074 230.44 101.807 230.125 101.612C229.814 101.416 229.446 101.318 229.021 101.318C228.554 101.318 228.15 101.434 227.808 101.666C227.47 101.895 227.21 102.193 227.028 102.561C226.846 102.929 226.754 103.323 226.754 103.744V104.42C226.754 104.997 226.854 105.486 227.053 105.887C227.255 106.285 227.535 106.588 227.893 106.797C228.251 107.002 228.667 107.105 229.141 107.105C229.449 107.105 229.727 107.062 229.976 106.976C230.228 106.886 230.445 106.754 230.627 106.578C230.81 106.399 230.95 106.177 231.05 105.912L232.183 106.23C232.064 106.615 231.864 106.953 231.582 107.244C231.3 107.533 230.952 107.758 230.538 107.92C230.124 108.08 229.658 108.159 229.141 108.159ZM234.088 108V100.364H235.221V101.517H235.301C235.44 101.139 235.692 100.833 236.056 100.597C236.421 100.362 236.832 100.244 237.289 100.244C237.375 100.244 237.483 100.246 237.612 100.249C237.742 100.253 237.839 100.258 237.906 100.264V101.457C237.866 101.447 237.775 101.433 237.632 101.413C237.493 101.389 237.346 101.378 237.19 101.378C236.819 101.378 236.487 101.456 236.195 101.612C235.907 101.764 235.678 101.976 235.509 102.248C235.344 102.516 235.261 102.823 235.261 103.168V108H234.088Z" fill="#4B4B55"/>
  <path d="M251.505 106.495L255.001 103M258.496 99.5048L255 103M255 103L251.505 99.5048M255.001 103L258.496 106.495" stroke="#4B4B55" stroke-linecap="round" stroke-linejoin="round"/>
  <path d="M25 161H448" stroke="#F6F5F9" stroke-width="2"/>
  <path d="M25 183.6H448" stroke="#F6F5F9" stroke-width="2"/>
  <path d="M25 206.2H448" stroke="#F6F5F9" stroke-width="2"/>
  <path d="M25 228.8H448" stroke="#F6F5F9" stroke-width="2"/>
  <path d="M25 251.4H448" stroke="#F6F5F9" stroke-width="2"/>
  <path d="M25 274H448" stroke="#F6F5F9" stroke-width="2"/>
  <rect x="24" y="145" width="49" height="129" rx="4" fill="#BBEB9D"/>
  <rect x="99" y="186" width="49" height="88" rx="4" fill="#CFF4B8"/>
  <rect x="174" y="203" width="49" height="71" rx="4" fill="#BBEB9D"/>
  <rect x="249" y="246" width="49" height="28" rx="4" fill="#CFF4B8"/>
  <rect x="324" y="232" width="49" height="42" rx="4" fill="#BBEB9D"/>
  <rect x="399" y="260" width="49" height="14" rx="4" fill="#CFF4B8"/>
  <rect x="0.5" y="0.5" width="471" height="297" rx="11.5" stroke="#E2E2E8"/>
  </svg>
  