<svg width="172" height="99" viewBox="0 0 172 99" fill="none" xmlns="http://www.w3.org/2000/svg">
  <path d="M79.7502 5.16218C79.5726 2.81435 77.6158 1 75.2612 1H16.6712C14.0511 1 11.9845 3.22883 12.1822 5.84149L18.8533 94.0094C19.0309 96.3573 20.9877 98.1716 23.3423 98.1716H81.9323C84.5524 98.1716 86.619 95.9428 86.4213 93.3301L79.7502 5.16218Z" fill="#BA9AFF" stroke="#2C0F68" stroke-linecap="round" stroke-linejoin="round"/>
  <path d="M8.03735 5.16218C8.215 2.81435 10.1718 1 12.5264 1H71.1164C73.7365 1 75.8031 3.22883 75.6054 5.84149L68.9343 94.0094C68.7567 96.3573 66.7999 98.1716 64.4453 98.1716H5.85534C3.23521 98.1716 1.16864 95.9428 1.36632 93.3301L8.03735 5.16218Z" fill="#CFB8FF" stroke="#2C0F68" stroke-linecap="round" stroke-linejoin="round"/>
  <path d="M14.7507 13.7717C14.931 11.4261 16.8868 9.61487 19.2393 9.61487H62.7174C65.3397 9.61487 67.407 11.8472 67.206 14.4617L67.0787 16.1176C66.8984 18.4632 64.9426 20.2744 62.5901 20.2744H19.112C16.4897 20.2744 14.4224 18.0421 14.6234 15.4276L14.7507 13.7717Z" fill="#EEEAFF" stroke="#2C0F68" stroke-linecap="round" stroke-linejoin="round"/>
  <rect x="97.7295" y="43.2333" width="72.977" height="54.9378" rx="4.50184" fill="#FFAD73" stroke="#2C0F68" stroke-linecap="round" stroke-linejoin="round"/>
  <path d="M98 89H171V93.4982C171 95.9845 168.984 98 166.498 98H102.502C100.016 98 98 95.9845 98 93.4982V89Z" fill="white" stroke="#2C0F68" stroke-linecap="round" stroke-linejoin="round"/>
  <rect x="97.7295" y="43.2333" width="67.2373" height="54.9378" rx="4.50184" fill="#FFC49A" stroke="#2C0F68" stroke-linecap="round" stroke-linejoin="round"/>
  <path d="M98 89H165V93.4982C165 95.9845 162.984 98 160.498 98H102.502C100.016 98 98 95.9845 98 93.4982V89Z" fill="white"/>
  <path d="M98 89H165V93.4982C165 95.9845 162.984 98 160.498 98H102.502C100.016 98 98 95.9845 98 93.4982V89Z" fill="white"/>
  <path d="M98 89H165V93.4982C165 95.9845 162.984 98 160.498 98H102.502C100.016 98 98 95.9845 98 93.4982V89Z" stroke="#2C0F68" stroke-linecap="round" stroke-linejoin="round"/>
  <path d="M110.029 43.2333L113.239 34.2463C113.773 32.7516 115.188 31.7538 116.776 31.7538H151.438C154.035 31.7538 155.848 34.3268 154.975 36.7728L152.667 43.2333" stroke="#2C0F68" stroke-linecap="round" stroke-linejoin="round"/>
  <path d="M159.227 43.2333L156.017 34.2463C155.484 32.7516 154.068 31.7538 152.48 31.7538H117.818C115.221 31.7538 113.408 34.3268 114.281 36.7728L116.589 43.2333" stroke="#2C0F68" stroke-linecap="round" stroke-linejoin="round"/>
  </svg>
  