<svg width="105" height="128" viewBox="0 0 105 128" fill="none" xmlns="http://www.w3.org/2000/svg">
  <rect x="91.3457" y="7.18945" width="119.523" height="83.9992" rx="8.34275" transform="rotate(90 91.3457 7.18945)" fill="#BA9AFF" stroke="#2C0F68" stroke-linecap="round" stroke-linejoin="round"/>
  <rect x="84.9993" y="7.18943" width="119.523" height="83.9992" rx="8.34275" transform="rotate(90 84.9993 7.18943)" fill="#CFB8FF" stroke="#2C0F68" stroke-linecap="round" stroke-linejoin="round"/>
  <rect x="79.2715" y="14.7502" width="104.271" height="72.1876" rx="3.3371" transform="rotate(90 79.2715 14.7502)" fill="#EEEAFF" stroke="#2C0F68" stroke-linecap="round" stroke-linejoin="round"/>
  <path d="M16.2513 97.2503H68.9598M16.2513 105.271H48.096" stroke="#2C0F68" stroke-linecap="round" stroke-linejoin="round"/>
  <rect width="20.4032" height="45.2419" rx="3.3371" transform="matrix(4.37114e-08 -1 -1 -4.37114e-08 65.7369 21.4032)" fill="#FCB685" stroke="#2C0F68" stroke-linecap="round" stroke-linejoin="round"/>
  <path d="M100.663 27H30.3371C28.4941 27 27 28.4941 27 30.3371V75.3165C27 77.1596 28.4941 78.6536 30.3371 78.6536H33.3813C35.2244 78.6536 36.7184 80.1477 36.7184 81.9907V89.1669C36.7184 90.9493 38.8741 91.8414 40.1336 90.5801L51.066 79.6327C51.692 79.0058 52.5415 78.6536 53.4273 78.6536H100.663C102.506 78.6536 104 77.1596 104 75.3165V30.3371C104 28.4941 102.506 27 100.663 27Z" fill="white" stroke="#2C0F68" stroke-linecap="round" stroke-linejoin="round"/>
  <mask id="path-7-outside-1_280_6418" maskUnits="userSpaceOnUse" x="54" y="42" width="24" height="24" fill="black">
  <rect fill="white" x="54" y="42" width="24" height="24"/>
  <path fill-rule="evenodd" clip-rule="evenodd" d="M65 65C64.4477 65 64 64.5523 64 64V57C64 56.4477 63.5523 56 63 56H56C55.4477 56 55 55.5523 55 55V53C55 52.4477 55.4477 52 56 52H63C63.5523 52 64 51.5523 64 51V44C64 43.4477 64.4477 43 65 43H67C67.5523 43 68 43.4477 68 44V51C68 51.5523 68.4477 52 69 52H76C76.5523 52 77 52.4477 77 53V55C77 55.5523 76.5523 56 76 56H69C68.4477 56 68 56.4477 68 57V64C68 64.5523 67.5523 65 67 65H65Z"/>
  </mask>
  <path fill-rule="evenodd" clip-rule="evenodd" d="M65 65C64.4477 65 64 64.5523 64 64V57C64 56.4477 63.5523 56 63 56H56C55.4477 56 55 55.5523 55 55V53C55 52.4477 55.4477 52 56 52H63C63.5523 52 64 51.5523 64 51V44C64 43.4477 64.4477 43 65 43H67C67.5523 43 68 43.4477 68 44V51C68 51.5523 68.4477 52 69 52H76C76.5523 52 77 52.4477 77 53V55C77 55.5523 76.5523 56 76 56H69C68.4477 56 68 56.4477 68 57V64C68 64.5523 67.5523 65 67 65H65Z" fill="#B8F592"/>
  <path d="M63 64C63 65.1046 63.8954 66 65 66V64H63ZM63 57V64H65V57H63ZM56 57H63V55H56V57ZM54 55C54 56.1046 54.8954 57 56 57V55H54ZM54 53V55H56V53H54ZM56 51C54.8954 51 54 51.8954 54 53H56H56V51ZM63 51H56V53H63V51ZM63 44V51H65V44H63ZM65 42C63.8954 42 63 42.8954 63 44H65V42ZM67 42H65V44H67V42ZM69 44C69 42.8954 68.1046 42 67 42V44V44H69ZM69 51V44H67V51H69ZM76 51H69V53H76V51ZM78 53C78 51.8954 77.1046 51 76 51V53H78ZM78 55V53H76V55H78ZM76 57C77.1046 57 78 56.1046 78 55H76V57ZM69 57H76V55H69V57ZM69 64V57H67V64H69ZM67 66C68.1046 66 69 65.1046 69 64H67V66ZM65 66H67V64H65V66ZM69 55C67.8954 55 67 55.8954 67 57H69V55ZM67 51C67 52.1046 67.8954 53 69 53V51H67ZM63 53C64.1046 53 65 52.1046 65 51H63V53ZM65 57C65 55.8954 64.1046 55 63 55V57H65Z" fill="#2C0F68" mask="url(#path-7-outside-1_280_6418)"/>
  </svg>
  