<svg width="474" height="215" viewBox="0 0 474 215" fill="none" xmlns="http://www.w3.org/2000/svg">
  <rect x="1" y="0.5" width="472" height="214" rx="11.5" fill="white"/>
  <path d="M26.108 46H37.7V43.816H28.388V38.512H36.716V36.304H28.388V31.384H37.7V29.2H26.108V46ZM39.3138 39.904H46.5138V37.696H39.3138V39.904ZM49.1593 46H60.6313V43.816H51.4393V29.2H49.1593V46ZM67.0569 34.072C63.6729 34.072 61.3689 36.736 61.3689 40.24C61.3689 43.768 63.6969 46.36 67.1769 46.36C69.9369 46.36 72.1929 44.608 72.5769 42.04L70.4169 41.656C70.2009 43.264 68.8569 44.32 67.2249 44.32C65.1849 44.32 63.7209 42.88 63.5049 40.648H72.2409V39.544C72.2409 36.352 70.2009 34.072 67.0569 34.072ZM63.6249 38.824C64.0329 37.168 65.3529 36.064 67.0569 36.064C68.8809 36.064 70.0809 37.264 70.1529 38.824H63.6249ZM78.5578 39.04C75.6538 39.52 74.1898 40.696 74.1898 42.904C74.1898 44.632 75.5098 46.36 78.1498 46.36C79.7098 46.36 80.8138 45.64 81.4618 44.56V46H83.5978V38.2C83.5978 35.632 81.9178 34.048 78.8698 34.048C76.2298 34.048 74.0938 35.656 74.2378 38.584L76.3978 38.752L76.3738 38.416C76.3738 36.952 77.3098 36.016 78.9178 36.016C80.5498 36.016 81.4378 36.856 81.4378 38.08V38.56L78.5578 39.04ZM78.5818 44.296C77.2138 44.296 76.3498 43.648 76.3498 42.664C76.3498 41.584 77.3338 41.104 78.8938 40.816L81.4378 40.408V41.08C81.4378 43 80.2378 44.296 78.5818 44.296ZM86.2166 46H88.4966V39.52C88.4966 37.408 89.4566 36.184 90.8966 36.184C92.0726 36.184 92.7686 36.976 92.7686 38.512C92.7686 38.776 92.7686 38.968 92.7446 39.088L95.0486 38.752C95.1686 35.68 93.7526 34.072 91.5206 34.072C90.2006 34.072 89.1926 34.576 88.4966 35.608V34.432H86.2166V46ZM96.7344 46H99.0144V39.76C99.0144 37.528 100.166 36.136 101.99 36.136C103.622 36.136 104.438 37.072 104.438 38.968V46H106.718V38.512C106.718 35.752 105.206 34.072 102.686 34.072C101.078 34.072 99.8544 34.72 99.0144 35.776V34.432H96.7344V46ZM109.338 46H111.618V34.432H109.338V46ZM110.466 29.488C109.602 29.488 108.93 30.184 108.93 31.024C108.93 31.888 109.602 32.56 110.466 32.56C111.306 32.56 111.978 31.888 111.978 31.024C111.978 30.184 111.306 29.488 110.466 29.488ZM114.254 46H116.534V39.76C116.534 37.528 117.686 36.136 119.51 36.136C121.142 36.136 121.958 37.072 121.958 38.968V46H124.238V38.512C124.238 35.752 122.726 34.072 120.206 34.072C118.598 34.072 117.374 34.72 116.534 35.776V34.432H114.254V46ZM131.658 34.12C128.514 34.12 126.234 36.736 126.234 39.904C126.234 43.096 128.514 45.616 131.658 45.616C133.218 45.616 134.466 45.016 135.354 43.84V45.712C135.354 48.184 133.914 49.72 131.73 49.72C129.738 49.72 128.442 48.352 128.514 46.432L126.282 46.72C126.234 49.744 128.562 51.736 131.706 51.736C135.234 51.736 137.634 49.192 137.634 45.64V34.432H135.354V35.944C134.442 34.744 133.218 34.144 131.658 34.12ZM131.946 43.48C129.93 43.48 128.514 41.992 128.514 39.904C128.514 38.872 128.826 38.008 129.474 37.336C130.122 36.64 130.938 36.304 131.946 36.304C133.962 36.304 135.354 37.816 135.354 39.904C135.354 41.992 133.962 43.48 131.946 43.48Z" fill="#34343D"/>
  <rect x="205.5" y="25.5" width="127" height="28" rx="4" fill="#F6F5F9"/>
  <path d="M221.875 44.5H218.733V34.3182H222.014C223.002 34.3182 223.847 34.522 224.55 34.9297C225.252 35.334 225.791 35.9157 226.165 36.6747C226.54 37.4304 226.727 38.3352 226.727 39.3892C226.727 40.4498 226.538 41.3629 226.161 42.1286C225.783 42.8909 225.232 43.4775 224.51 43.8885C223.787 44.2962 222.909 44.5 221.875 44.5ZM219.966 43.4062H221.795C222.637 43.4062 223.335 43.2438 223.888 42.919C224.442 42.5942 224.855 42.1319 225.126 41.532C225.398 40.9321 225.534 40.2178 225.534 39.3892C225.534 38.5672 225.4 37.8596 225.131 37.2663C224.863 36.6697 224.462 36.2124 223.928 35.8942C223.395 35.5727 222.73 35.4119 221.935 35.4119H219.966V43.4062ZM230.884 44.679C230.4 44.679 229.96 44.5878 229.566 44.4055C229.172 44.2199 228.858 43.9531 228.626 43.6051C228.394 43.2538 228.278 42.8295 228.278 42.3324C228.278 41.8949 228.365 41.5402 228.537 41.2685C228.709 40.9934 228.94 40.7779 229.228 40.6222C229.516 40.4664 229.835 40.3504 230.183 40.2741C230.534 40.1946 230.887 40.1316 231.241 40.0852C231.705 40.0256 232.082 39.9808 232.37 39.951C232.662 39.9179 232.874 39.8632 233.006 39.7869C233.142 39.7107 233.21 39.5781 233.21 39.3892V39.3494C233.21 38.8589 233.076 38.4777 232.808 38.206C232.542 37.9342 232.14 37.7983 231.599 37.7983C231.039 37.7983 230.6 37.9209 230.282 38.1662C229.964 38.4115 229.74 38.6733 229.611 38.9517L228.497 38.554C228.696 38.09 228.961 37.7287 229.293 37.4702C229.627 37.2083 229.992 37.026 230.386 36.9233C230.784 36.8172 231.175 36.7642 231.56 36.7642C231.805 36.7642 232.087 36.794 232.405 36.8537C232.726 36.91 233.036 37.0277 233.335 37.2067C233.636 37.3857 233.886 37.6558 234.085 38.017C234.284 38.3783 234.384 38.8622 234.384 39.4688V44.5H233.21V43.4659H233.151C233.071 43.6316 232.938 43.8089 232.753 43.9979C232.567 44.1868 232.32 44.3475 232.012 44.4801C231.704 44.6127 231.328 44.679 230.884 44.679ZM231.062 43.625C231.527 43.625 231.918 43.5339 232.236 43.3516C232.557 43.1693 232.799 42.9339 232.962 42.6456C233.127 42.3572 233.21 42.054 233.21 41.7358V40.6619C233.161 40.7216 233.051 40.7763 232.882 40.826C232.716 40.8724 232.524 40.9138 232.305 40.9503C232.09 40.9834 231.879 41.0133 231.674 41.0398C231.472 41.063 231.308 41.0829 231.182 41.0994C230.877 41.1392 230.592 41.2038 230.327 41.2933C230.065 41.3795 229.853 41.5104 229.69 41.6861C229.531 41.8584 229.452 42.0937 229.452 42.392C229.452 42.7997 229.603 43.108 229.904 43.3168C230.209 43.5223 230.595 43.625 231.062 43.625ZM239.846 36.8636V37.858H235.889V36.8636H239.846ZM237.042 35.0341H238.215V42.3125C238.215 42.6439 238.263 42.8925 238.36 43.0582C238.459 43.2206 238.585 43.33 238.737 43.3864C238.893 43.4394 239.057 43.4659 239.23 43.4659C239.359 43.4659 239.465 43.4593 239.548 43.446C239.631 43.4295 239.697 43.4162 239.747 43.4062L239.985 44.4602C239.906 44.4901 239.795 44.5199 239.652 44.5497C239.51 44.5829 239.329 44.5994 239.11 44.5994C238.779 44.5994 238.454 44.5282 238.136 44.3857C237.821 44.2431 237.559 44.026 237.35 43.7344C237.145 43.4427 237.042 43.0748 237.042 42.6307V35.0341ZM243.858 44.679C243.374 44.679 242.935 44.5878 242.541 44.4055C242.146 44.2199 241.833 43.9531 241.601 43.6051C241.369 43.2538 241.253 42.8295 241.253 42.3324C241.253 41.8949 241.339 41.5402 241.512 41.2685C241.684 40.9934 241.914 40.7779 242.203 40.6222C242.491 40.4664 242.809 40.3504 243.157 40.2741C243.508 40.1946 243.861 40.1316 244.216 40.0852C244.68 40.0256 245.056 39.9808 245.345 39.951C245.636 39.9179 245.848 39.8632 245.981 39.7869C246.117 39.7107 246.185 39.5781 246.185 39.3892V39.3494C246.185 38.8589 246.051 38.4777 245.782 38.206C245.517 37.9342 245.114 37.7983 244.574 37.7983C244.014 37.7983 243.575 37.9209 243.257 38.1662C242.938 38.4115 242.715 38.6733 242.585 38.9517L241.472 38.554C241.671 38.09 241.936 37.7287 242.267 37.4702C242.602 37.2083 242.967 37.026 243.361 36.9233C243.759 36.8172 244.15 36.7642 244.534 36.7642C244.78 36.7642 245.061 36.794 245.379 36.8537C245.701 36.91 246.011 37.0277 246.309 37.2067C246.611 37.3857 246.861 37.6558 247.06 38.017C247.259 38.3783 247.358 38.8622 247.358 39.4688V44.5H246.185V43.4659H246.125C246.046 43.6316 245.913 43.8089 245.727 43.9979C245.542 44.1868 245.295 44.3475 244.987 44.4801C244.678 44.6127 244.302 44.679 243.858 44.679ZM244.037 43.625C244.501 43.625 244.892 43.5339 245.21 43.3516C245.532 43.1693 245.774 42.9339 245.936 42.6456C246.102 42.3572 246.185 42.054 246.185 41.7358V40.6619C246.135 40.7216 246.026 40.7763 245.857 40.826C245.691 40.8724 245.499 40.9138 245.28 40.9503C245.065 40.9834 244.854 41.0133 244.649 41.0398C244.446 41.063 244.282 41.0829 244.156 41.0994C243.852 41.1392 243.566 41.2038 243.301 41.2933C243.039 41.3795 242.827 41.5104 242.665 41.6861C242.506 41.8584 242.426 42.0937 242.426 42.392C242.426 42.7997 242.577 43.108 242.879 43.3168C243.184 43.5223 243.57 43.625 244.037 43.625ZM253.437 47.3636V36.8636H254.571V38.0767H254.71C254.796 37.9441 254.915 37.7751 255.068 37.5696C255.224 37.3608 255.446 37.1752 255.734 37.0128C256.026 36.8471 256.42 36.7642 256.917 36.7642C257.56 36.7642 258.127 36.925 258.618 37.2464C259.108 37.5679 259.491 38.0237 259.766 38.6136C260.041 39.2036 260.179 39.8996 260.179 40.7017C260.179 41.5104 260.041 42.2114 259.766 42.8047C259.491 43.3946 259.11 43.852 258.623 44.1768C258.135 44.4983 257.574 44.6591 256.937 44.6591C256.447 44.6591 256.054 44.5779 255.759 44.4155C255.464 44.2498 255.237 44.0625 255.078 43.8537C254.919 43.6416 254.796 43.4659 254.71 43.3267H254.61V47.3636H253.437ZM254.591 40.6818C254.591 41.2585 254.675 41.7673 254.844 42.2081C255.013 42.6456 255.26 42.9886 255.585 43.2372C255.91 43.4825 256.307 43.6051 256.778 43.6051C257.269 43.6051 257.678 43.4759 258.006 43.2173C258.337 42.9555 258.586 42.6042 258.752 42.1634C258.921 41.7192 259.005 41.2254 259.005 40.6818C259.005 40.1449 258.922 39.661 258.757 39.2301C258.594 38.7959 258.347 38.4529 258.016 38.201C257.688 37.9458 257.275 37.8182 256.778 37.8182C256.301 37.8182 255.9 37.9392 255.575 38.1811C255.25 38.4197 255.005 38.7545 254.839 39.1854C254.673 39.6129 254.591 40.1117 254.591 40.6818ZM261.968 44.5V36.8636H263.102V38.017H263.181C263.321 37.6392 263.573 37.3326 263.937 37.0973C264.302 36.862 264.713 36.7443 265.17 36.7443C265.256 36.7443 265.364 36.746 265.493 36.7493C265.623 36.7526 265.72 36.7576 265.787 36.7642V37.9574C265.747 37.9474 265.656 37.9325 265.513 37.9126C265.374 37.8894 265.226 37.8778 265.071 37.8778C264.699 37.8778 264.368 37.9557 264.076 38.1115C263.788 38.264 263.559 38.4761 263.39 38.7479C263.225 39.0163 263.142 39.3229 263.142 39.6676V44.5H261.968ZM270.047 44.6591C269.358 44.6591 268.753 44.495 268.233 44.1669C267.716 43.8388 267.311 43.3797 267.02 42.7898C266.731 42.1998 266.587 41.5104 266.587 40.7216C266.587 39.9261 266.731 39.2318 267.02 38.6385C267.311 38.0452 267.716 37.5845 268.233 37.2564C268.753 36.9283 269.358 36.7642 270.047 36.7642C270.737 36.7642 271.34 36.9283 271.857 37.2564C272.377 37.5845 272.782 38.0452 273.07 38.6385C273.362 39.2318 273.507 39.9261 273.507 40.7216C273.507 41.5104 273.362 42.1998 273.07 42.7898C272.782 43.3797 272.377 43.8388 271.857 44.1669C271.34 44.495 270.737 44.6591 270.047 44.6591ZM270.047 43.6051C270.571 43.6051 271.002 43.4709 271.34 43.2024C271.678 42.9339 271.928 42.581 272.091 42.1435C272.253 41.706 272.334 41.232 272.334 40.7216C272.334 40.2112 272.253 39.7356 272.091 39.2947C271.928 38.8539 271.678 38.4976 271.34 38.2259C271.002 37.9541 270.571 37.8182 270.047 37.8182C269.524 37.8182 269.093 37.9541 268.755 38.2259C268.417 38.4976 268.166 38.8539 268.004 39.2947C267.842 39.7356 267.76 40.2112 267.76 40.7216C267.76 41.232 267.842 41.706 268.004 42.1435C268.166 42.581 268.417 42.9339 268.755 43.2024C269.093 43.4709 269.524 43.6051 270.047 43.6051ZM278.619 36.8636V37.858H274.662V36.8636H278.619ZM275.816 35.0341H276.989V42.3125C276.989 42.6439 277.037 42.8925 277.133 43.0582C277.232 43.2206 277.358 43.33 277.511 43.3864C277.667 43.4394 277.831 43.4659 278.003 43.4659C278.132 43.4659 278.238 43.4593 278.321 43.446C278.404 43.4295 278.47 43.4162 278.52 43.4062L278.759 44.4602C278.679 44.4901 278.568 44.5199 278.426 44.5497C278.283 44.5829 278.102 44.5994 277.884 44.5994C277.552 44.5994 277.227 44.5282 276.909 44.3857C276.594 44.2431 276.333 44.026 276.124 43.7344C275.918 43.4427 275.816 43.0748 275.816 42.6307V35.0341ZM283.504 44.6591C282.768 44.6591 282.134 44.4967 281.6 44.1719C281.07 43.8438 280.66 43.3864 280.372 42.7997C280.087 42.2098 279.944 41.5237 279.944 40.7415C279.944 39.9593 280.087 39.2699 280.372 38.6733C280.66 38.0734 281.061 37.6061 281.575 37.2713C282.092 36.9332 282.695 36.7642 283.385 36.7642C283.782 36.7642 284.175 36.8305 284.563 36.9631C284.951 37.0956 285.304 37.3111 285.622 37.6094C285.94 37.9044 286.194 38.2955 286.383 38.7827C286.572 39.2699 286.666 39.8698 286.666 40.5824V41.0795H280.78V40.0653H285.473C285.473 39.6345 285.387 39.25 285.214 38.9119C285.045 38.5739 284.803 38.3071 284.488 38.1115C284.177 37.916 283.809 37.8182 283.385 37.8182C282.917 37.8182 282.513 37.9342 282.172 38.1662C281.834 38.3949 281.573 38.6932 281.391 39.0611C281.209 39.429 281.118 39.8234 281.118 40.2443V40.9205C281.118 41.4972 281.217 41.986 281.416 42.3871C281.618 42.7848 281.898 43.0881 282.256 43.2969C282.614 43.5024 283.03 43.6051 283.504 43.6051C283.812 43.6051 284.091 43.562 284.339 43.4759C284.591 43.3864 284.808 43.2538 284.991 43.0781C285.173 42.8991 285.314 42.6771 285.413 42.4119L286.547 42.7301C286.427 43.1146 286.227 43.4527 285.945 43.7443C285.663 44.0327 285.315 44.258 284.901 44.4205C284.487 44.5795 284.021 44.6591 283.504 44.6591ZM291.553 44.6591C290.837 44.6591 290.221 44.4901 289.704 44.152C289.187 43.8139 288.789 43.3482 288.51 42.755C288.232 42.1617 288.093 41.4839 288.093 40.7216C288.093 39.946 288.235 39.2616 288.52 38.6683C288.809 38.0717 289.21 37.6061 289.724 37.2713C290.241 36.9332 290.844 36.7642 291.533 36.7642C292.07 36.7642 292.554 36.8636 292.985 37.0625C293.416 37.2614 293.769 37.5398 294.044 37.8977C294.319 38.2557 294.49 38.6733 294.556 39.1506H293.383C293.293 38.8026 293.094 38.4943 292.786 38.2259C292.481 37.9541 292.07 37.8182 291.553 37.8182C291.096 37.8182 290.695 37.9375 290.35 38.1761C290.009 38.4115 289.742 38.7446 289.55 39.1754C289.361 39.603 289.266 40.1051 289.266 40.6818C289.266 41.2718 289.359 41.7855 289.545 42.223C289.733 42.6605 289.999 43.0002 290.34 43.2422C290.685 43.4841 291.089 43.6051 291.553 43.6051C291.858 43.6051 292.135 43.5521 292.383 43.446C292.632 43.34 292.842 43.1875 293.015 42.9886C293.187 42.7898 293.31 42.5511 293.383 42.2727H294.556C294.49 42.7235 294.326 43.1295 294.064 43.4908C293.805 43.8487 293.462 44.1338 293.035 44.3459C292.61 44.5547 292.117 44.6591 291.553 44.6591ZM299.592 36.8636V37.858H295.635V36.8636H299.592ZM296.788 35.0341H297.961V42.3125C297.961 42.6439 298.01 42.8925 298.106 43.0582C298.205 43.2206 298.331 43.33 298.483 43.3864C298.639 43.4394 298.803 43.4659 298.976 43.4659C299.105 43.4659 299.211 43.4593 299.294 43.446C299.377 43.4295 299.443 43.4162 299.493 43.4062L299.731 44.4602C299.652 44.4901 299.541 44.5199 299.398 44.5497C299.256 44.5829 299.075 44.5994 298.856 44.5994C298.525 44.5994 298.2 44.5282 297.882 44.3857C297.567 44.2431 297.305 44.026 297.096 43.7344C296.891 43.4427 296.788 43.0748 296.788 42.6307V35.0341ZM301.357 44.5V36.8636H302.53V44.5H301.357ZM301.954 35.5909C301.725 35.5909 301.528 35.513 301.362 35.3572C301.2 35.2015 301.118 35.0142 301.118 34.7955C301.118 34.5767 301.2 34.3894 301.362 34.2337C301.528 34.0779 301.725 34 301.954 34C302.182 34 302.378 34.0779 302.54 34.2337C302.706 34.3894 302.789 34.5767 302.789 34.7955C302.789 35.0142 302.706 35.2015 302.54 35.3572C302.378 35.513 302.182 35.5909 301.954 35.5909ZM307.782 44.6591C307.092 44.6591 306.487 44.495 305.967 44.1669C305.45 43.8388 305.046 43.3797 304.754 42.7898C304.466 42.1998 304.321 41.5104 304.321 40.7216C304.321 39.9261 304.466 39.2318 304.754 38.6385C305.046 38.0452 305.45 37.5845 305.967 37.2564C306.487 36.9283 307.092 36.7642 307.782 36.7642C308.471 36.7642 309.074 36.9283 309.591 37.2564C310.112 37.5845 310.516 38.0452 310.804 38.6385C311.096 39.2318 311.242 39.9261 311.242 40.7216C311.242 41.5104 311.096 42.1998 310.804 42.7898C310.516 43.3797 310.112 43.8388 309.591 44.1669C309.074 44.495 308.471 44.6591 307.782 44.6591ZM307.782 43.6051C308.305 43.6051 308.736 43.4709 309.074 43.2024C309.412 42.9339 309.663 42.581 309.825 42.1435C309.987 41.706 310.069 41.232 310.069 40.7216C310.069 40.2112 309.987 39.7356 309.825 39.2947C309.663 38.8539 309.412 38.4976 309.074 38.2259C308.736 37.9541 308.305 37.8182 307.782 37.8182C307.258 37.8182 306.827 37.9541 306.489 38.2259C306.151 38.4976 305.901 38.8539 305.738 39.2947C305.576 39.7356 305.495 40.2112 305.495 40.7216C305.495 41.232 305.576 41.706 305.738 42.1435C305.901 42.581 306.151 42.9339 306.489 43.2024C306.827 43.4709 307.258 43.6051 307.782 43.6051ZM314.206 39.9062V44.5H313.033V36.8636H314.166V38.0568H314.266C314.445 37.669 314.717 37.3575 315.081 37.1222C315.446 36.8835 315.916 36.7642 316.493 36.7642C317.01 36.7642 317.463 36.8703 317.85 37.0824C318.238 37.2912 318.54 37.6094 318.755 38.0369C318.971 38.4612 319.078 38.9981 319.078 39.6477V44.5H317.905V39.7273C317.905 39.1274 317.749 38.66 317.438 38.3253C317.126 37.9872 316.699 37.8182 316.155 37.8182C315.78 37.8182 315.446 37.8994 315.151 38.0618C314.859 38.2242 314.629 38.4612 314.46 38.7727C314.291 39.0843 314.206 39.4621 314.206 39.9062Z" fill="#4B4B55"/>
  <rect x="340.5" y="25.5" width="109" height="28" rx="4" fill="#F6F5F9"/>
  <path d="M361.926 37.5H360.693C360.62 37.1454 360.493 36.8338 360.31 36.5653C360.131 36.2969 359.913 36.0715 359.654 35.8892C359.399 35.7036 359.116 35.5644 358.804 35.4716C358.492 35.3788 358.168 35.3324 357.83 35.3324C357.213 35.3324 356.655 35.4882 356.154 35.7997C355.657 36.1113 355.261 36.5703 354.966 37.1768C354.674 37.7834 354.528 38.5275 354.528 39.4091C354.528 40.2907 354.674 41.0348 354.966 41.6413C355.261 42.2479 355.657 42.7069 356.154 43.0185C356.655 43.33 357.213 43.4858 357.83 43.4858C358.168 43.4858 358.492 43.4394 358.804 43.3466C359.116 43.2538 359.399 43.1162 359.654 42.9339C359.913 42.7483 360.131 42.5213 360.31 42.2528C360.493 41.9811 360.62 41.6695 360.693 41.3182H361.926C361.833 41.8385 361.664 42.3042 361.419 42.7152C361.174 43.1262 360.869 43.4759 360.504 43.7642C360.14 44.0492 359.73 44.2663 359.276 44.4155C358.826 44.5646 358.343 44.6392 357.83 44.6392C356.961 44.6392 356.189 44.4271 355.513 44.0028C354.837 43.5786 354.305 42.9754 353.917 42.1932C353.529 41.411 353.335 40.483 353.335 39.4091C353.335 38.3352 353.529 37.4072 353.917 36.625C354.305 35.8428 354.837 35.2396 355.513 34.8153C356.189 34.3911 356.961 34.179 357.83 34.179C358.343 34.179 358.826 34.2536 359.276 34.4027C359.73 34.5518 360.14 34.7706 360.504 35.0589C360.869 35.344 361.174 35.692 361.419 36.103C361.664 36.5107 361.833 36.9763 361.926 37.5ZM366.862 44.6591C366.172 44.6591 365.567 44.495 365.047 44.1669C364.53 43.8388 364.126 43.3797 363.834 42.7898C363.546 42.1998 363.401 41.5104 363.401 40.7216C363.401 39.9261 363.546 39.2318 363.834 38.6385C364.126 38.0452 364.53 37.5845 365.047 37.2564C365.567 36.9283 366.172 36.7642 366.862 36.7642C367.551 36.7642 368.154 36.9283 368.671 37.2564C369.192 37.5845 369.596 38.0452 369.884 38.6385C370.176 39.2318 370.322 39.9261 370.322 40.7216C370.322 41.5104 370.176 42.1998 369.884 42.7898C369.596 43.3797 369.192 43.8388 368.671 44.1669C368.154 44.495 367.551 44.6591 366.862 44.6591ZM366.862 43.6051C367.385 43.6051 367.816 43.4709 368.154 43.2024C368.492 42.9339 368.743 42.581 368.905 42.1435C369.067 41.706 369.149 41.232 369.149 40.7216C369.149 40.2112 369.067 39.7356 368.905 39.2947C368.743 38.8539 368.492 38.4976 368.154 38.2259C367.816 37.9541 367.385 37.8182 366.862 37.8182C366.338 37.8182 365.907 37.9541 365.569 38.2259C365.231 38.4976 364.981 38.8539 364.818 39.2947C364.656 39.7356 364.575 40.2112 364.575 40.7216C364.575 41.232 364.656 41.706 364.818 42.1435C364.981 42.581 365.231 42.9339 365.569 43.2024C365.907 43.4709 366.338 43.6051 366.862 43.6051ZM373.286 39.9062V44.5H372.113V36.8636H373.246V38.0568H373.346C373.525 37.669 373.797 37.3575 374.161 37.1222C374.526 36.8835 374.996 36.7642 375.573 36.7642C376.09 36.7642 376.543 36.8703 376.93 37.0824C377.318 37.2912 377.62 37.6094 377.835 38.0369C378.051 38.4612 378.158 38.9981 378.158 39.6477V44.5H376.985V39.7273C376.985 39.1274 376.829 38.66 376.518 38.3253C376.206 37.9872 375.779 37.8182 375.235 37.8182C374.861 37.8182 374.526 37.8994 374.231 38.0618C373.939 38.2242 373.709 38.4612 373.54 38.7727C373.371 39.0843 373.286 39.4621 373.286 39.9062ZM383.623 36.8636V37.858H379.666V36.8636H383.623ZM380.819 35.0341H381.993V42.3125C381.993 42.6439 382.041 42.8925 382.137 43.0582C382.236 43.2206 382.362 43.33 382.515 43.3864C382.671 43.4394 382.835 43.4659 383.007 43.4659C383.136 43.4659 383.242 43.4593 383.325 43.446C383.408 43.4295 383.474 43.4162 383.524 43.4062L383.763 44.4602C383.683 44.4901 383.572 44.5199 383.43 44.5497C383.287 44.5829 383.106 44.5994 382.888 44.5994C382.556 44.5994 382.231 44.5282 381.913 44.3857C381.598 44.2431 381.336 44.026 381.128 43.7344C380.922 43.4427 380.819 43.0748 380.819 42.6307V35.0341ZM385.388 44.5V36.8636H386.522V38.017H386.601C386.741 37.6392 386.992 37.3326 387.357 37.0973C387.722 36.862 388.133 36.7443 388.59 36.7443C388.676 36.7443 388.784 36.746 388.913 36.7493C389.042 36.7526 389.14 36.7576 389.206 36.7642V37.9574C389.167 37.9474 389.076 37.9325 388.933 37.9126C388.794 37.8894 388.646 37.8778 388.491 37.8778C388.119 37.8778 387.788 37.9557 387.496 38.1115C387.208 38.264 386.979 38.4761 386.81 38.7479C386.644 39.0163 386.562 39.3229 386.562 39.6676V44.5H385.388ZM392.844 44.679C392.361 44.679 391.921 44.5878 391.527 44.4055C391.133 44.2199 390.819 43.9531 390.587 43.6051C390.355 43.2538 390.239 42.8295 390.239 42.3324C390.239 41.8949 390.326 41.5402 390.498 41.2685C390.67 40.9934 390.901 40.7779 391.189 40.6222C391.477 40.4664 391.795 40.3504 392.143 40.2741C392.495 40.1946 392.848 40.1316 393.202 40.0852C393.666 40.0256 394.043 39.9808 394.331 39.951C394.623 39.9179 394.835 39.8632 394.967 39.7869C395.103 39.7107 395.171 39.5781 395.171 39.3892V39.3494C395.171 38.8589 395.037 38.4777 394.768 38.206C394.503 37.9342 394.101 37.7983 393.56 37.7983C393 37.7983 392.561 37.9209 392.243 38.1662C391.925 38.4115 391.701 38.6733 391.572 38.9517L390.458 38.554C390.657 38.09 390.922 37.7287 391.254 37.4702C391.588 37.2083 391.953 37.026 392.347 36.9233C392.745 36.8172 393.136 36.7642 393.521 36.7642C393.766 36.7642 394.048 36.794 394.366 36.8537C394.687 36.91 394.997 37.0277 395.295 37.2067C395.597 37.3857 395.847 37.6558 396.046 38.017C396.245 38.3783 396.344 38.8622 396.344 39.4688V44.5H395.171V43.4659H395.112C395.032 43.6316 394.899 43.8089 394.714 43.9979C394.528 44.1868 394.281 44.3475 393.973 44.4801C393.665 44.6127 393.289 44.679 392.844 44.679ZM393.023 43.625C393.487 43.625 393.879 43.5339 394.197 43.3516C394.518 43.1693 394.76 42.9339 394.923 42.6456C395.088 42.3572 395.171 42.054 395.171 41.7358V40.6619C395.121 40.7216 395.012 40.7763 394.843 40.826C394.677 40.8724 394.485 40.9138 394.266 40.9503C394.051 40.9834 393.84 41.0133 393.635 41.0398C393.433 41.063 393.269 41.0829 393.143 41.0994C392.838 41.1392 392.553 41.2038 392.288 41.2933C392.026 41.3795 391.814 41.5104 391.651 41.6861C391.492 41.8584 391.413 42.0937 391.413 42.392C391.413 42.7997 391.563 43.108 391.865 43.3168C392.17 43.5223 392.556 43.625 393.023 43.625ZM401.588 44.6591C400.872 44.6591 400.256 44.4901 399.739 44.152C399.222 43.8139 398.824 43.3482 398.546 42.755C398.267 42.1617 398.128 41.4839 398.128 40.7216C398.128 39.946 398.271 39.2616 398.556 38.6683C398.844 38.0717 399.245 37.6061 399.759 37.2713C400.276 36.9332 400.879 36.7642 401.568 36.7642C402.105 36.7642 402.589 36.8636 403.02 37.0625C403.451 37.2614 403.804 37.5398 404.079 37.8977C404.354 38.2557 404.525 38.6733 404.591 39.1506H403.418C403.328 38.8026 403.129 38.4943 402.821 38.2259C402.516 37.9541 402.105 37.8182 401.588 37.8182C401.131 37.8182 400.73 37.9375 400.385 38.1761C400.044 38.4115 399.777 38.7446 399.585 39.1754C399.396 39.603 399.301 40.1051 399.301 40.6818C399.301 41.2718 399.394 41.7855 399.58 42.223C399.769 42.6605 400.034 43.0002 400.375 43.2422C400.72 43.4841 401.124 43.6051 401.588 43.6051C401.893 43.6051 402.17 43.5521 402.419 43.446C402.667 43.34 402.878 43.1875 403.05 42.9886C403.222 42.7898 403.345 42.5511 403.418 42.2727H404.591C404.525 42.7235 404.361 43.1295 404.099 43.4908C403.84 43.8487 403.497 44.1338 403.07 44.3459C402.646 44.5547 402.152 44.6591 401.588 44.6591ZM409.627 36.8636V37.858H405.67V36.8636H409.627ZM406.823 35.0341H407.997V42.3125C407.997 42.6439 408.045 42.8925 408.141 43.0582C408.24 43.2206 408.366 43.33 408.519 43.3864C408.674 43.4394 408.838 43.4659 409.011 43.4659C409.14 43.4659 409.246 43.4593 409.329 43.446C409.412 43.4295 409.478 43.4162 409.528 43.4062L409.767 44.4602C409.687 44.4901 409.576 44.5199 409.433 44.5497C409.291 44.5829 409.11 44.5994 408.892 44.5994C408.56 44.5994 408.235 44.5282 407.917 44.3857C407.602 44.2431 407.34 44.026 407.132 43.7344C406.926 43.4427 406.823 43.0748 406.823 42.6307V35.0341ZM416.503 34.3182V44.5H415.33V34.3182H416.503ZM420.899 44.679C420.415 44.679 419.976 44.5878 419.582 44.4055C419.187 44.2199 418.874 43.9531 418.642 43.6051C418.41 43.2538 418.294 42.8295 418.294 42.3324C418.294 41.8949 418.38 41.5402 418.553 41.2685C418.725 40.9934 418.955 40.7779 419.244 40.6222C419.532 40.4664 419.85 40.3504 420.198 40.2741C420.549 40.1946 420.902 40.1316 421.257 40.0852C421.721 40.0256 422.097 39.9808 422.386 39.951C422.677 39.9179 422.889 39.8632 423.022 39.7869C423.158 39.7107 423.226 39.5781 423.226 39.3892V39.3494C423.226 38.8589 423.092 38.4777 422.823 38.206C422.558 37.9342 422.155 37.7983 421.615 37.7983C421.055 37.7983 420.616 37.9209 420.298 38.1662C419.979 38.4115 419.756 38.6733 419.626 38.9517L418.513 38.554C418.712 38.09 418.977 37.7287 419.308 37.4702C419.643 37.2083 420.008 37.026 420.402 36.9233C420.8 36.8172 421.191 36.7642 421.575 36.7642C421.821 36.7642 422.102 36.794 422.42 36.8537C422.742 36.91 423.052 37.0277 423.35 37.2067C423.652 37.3857 423.902 37.6558 424.101 38.017C424.3 38.3783 424.399 38.8622 424.399 39.4688V44.5H423.226V43.4659H423.166C423.087 43.6316 422.954 43.8089 422.768 43.9979C422.583 44.1868 422.336 44.3475 422.028 44.4801C421.719 44.6127 421.343 44.679 420.899 44.679ZM421.078 43.625C421.542 43.625 421.933 43.5339 422.251 43.3516C422.573 43.1693 422.815 42.9339 422.977 42.6456C423.143 42.3572 423.226 42.054 423.226 41.7358V40.6619C423.176 40.7216 423.067 40.7763 422.898 40.826C422.732 40.8724 422.54 40.9138 422.321 40.9503C422.106 40.9834 421.895 41.0133 421.69 41.0398C421.487 41.063 421.323 41.0829 421.197 41.0994C420.893 41.1392 420.607 41.2038 420.342 41.2933C420.08 41.3795 419.868 41.5104 419.706 41.6861C419.547 41.8584 419.467 42.0937 419.467 42.392C419.467 42.7997 419.618 43.108 419.92 43.3168C420.225 43.5223 420.611 43.625 421.078 43.625ZM428.271 44.5L425.944 36.8636H427.177L428.828 42.7102H428.907L430.538 36.8636H431.791L433.401 42.6903H433.481L435.132 36.8636H436.365L434.038 44.5H432.884L431.214 38.6335H431.095L429.424 44.5H428.271Z" fill="#4B4B55"/>
  <rect x="24.5" y="79" width="288" height="8" rx="4" fill="#5EB42A"/>
  <rect x="300.5" y="79" width="149" height="8" rx="4" fill="#E2E2E8"/>
  <path d="M25.9091 113V101.364H29.8409C30.75 101.364 31.4962 101.519 32.0795 101.83C32.6629 102.136 33.0947 102.559 33.375 103.097C33.6553 103.634 33.7955 104.246 33.7955 104.932C33.7955 105.617 33.6553 106.225 33.375 106.756C33.0947 107.286 32.6648 107.703 32.0852 108.006C31.5057 108.305 30.7652 108.455 29.8636 108.455H26.6818V107.182H29.8182C30.4394 107.182 30.9394 107.091 31.3182 106.909C31.7008 106.727 31.9773 106.47 32.1477 106.136C32.322 105.799 32.4091 105.398 32.4091 104.932C32.4091 104.466 32.322 104.059 32.1477 103.71C31.9735 103.362 31.6951 103.093 31.3125 102.903C30.9299 102.71 30.4242 102.614 29.7955 102.614H27.3182V113H25.9091ZM31.3864 107.773L34.25 113H32.6136L29.7955 107.773H31.3864ZM39.527 113.182C38.6861 113.182 37.9607 112.996 37.3509 112.625C36.7448 112.25 36.277 111.727 35.9474 111.057C35.6217 110.383 35.4588 109.598 35.4588 108.705C35.4588 107.811 35.6217 107.023 35.9474 106.341C36.277 105.655 36.7353 105.121 37.3224 104.739C37.9134 104.352 38.6027 104.159 39.3906 104.159C39.8452 104.159 40.294 104.235 40.7372 104.386C41.1804 104.538 41.5838 104.784 41.9474 105.125C42.3111 105.462 42.6009 105.909 42.8168 106.466C43.0327 107.023 43.1406 107.708 43.1406 108.523V109.091H36.4134V107.932H41.777C41.777 107.439 41.6785 107 41.4815 106.614C41.2884 106.227 41.0118 105.922 40.652 105.699C40.2959 105.475 39.8755 105.364 39.3906 105.364C38.8565 105.364 38.3944 105.496 38.0043 105.761C37.6179 106.023 37.3205 106.364 37.1122 106.784C36.9039 107.205 36.7997 107.655 36.7997 108.136V108.909C36.7997 109.568 36.9134 110.127 37.1406 110.585C37.3717 111.04 37.6918 111.386 38.1009 111.625C38.5099 111.86 38.9853 111.977 39.527 111.977C39.8793 111.977 40.1974 111.928 40.4815 111.83C40.7694 111.727 41.0175 111.576 41.2259 111.375C41.4342 111.17 41.5952 110.917 41.7088 110.614L43.0043 110.977C42.8679 111.417 42.6387 111.803 42.3168 112.136C41.9948 112.466 41.5971 112.723 41.1236 112.909C40.6501 113.091 40.1179 113.182 39.527 113.182ZM51.3622 106.227L50.1577 106.568C50.0819 106.367 49.9702 106.172 49.8224 105.983C49.6785 105.79 49.4815 105.631 49.2315 105.506C48.9815 105.381 48.6615 105.318 48.2713 105.318C47.7372 105.318 47.2921 105.441 46.9361 105.688C46.5838 105.93 46.4077 106.239 46.4077 106.614C46.4077 106.947 46.5289 107.21 46.7713 107.403C47.0137 107.597 47.3925 107.758 47.9077 107.886L49.2031 108.205C49.9834 108.394 50.5649 108.684 50.9474 109.074C51.33 109.46 51.5213 109.958 51.5213 110.568C51.5213 111.068 51.3774 111.515 51.0895 111.909C50.8054 112.303 50.4077 112.614 49.8963 112.841C49.3849 113.068 48.7902 113.182 48.1122 113.182C47.2221 113.182 46.4853 112.989 45.902 112.602C45.3187 112.216 44.9493 111.652 44.794 110.909L46.0668 110.591C46.188 111.061 46.4171 111.413 46.7543 111.648C47.0952 111.883 47.5402 112 48.0895 112C48.7145 112 49.2107 111.867 49.5781 111.602C49.9493 111.333 50.1349 111.011 50.1349 110.636C50.1349 110.333 50.0289 110.08 49.8168 109.875C49.6046 109.667 49.2789 109.511 48.8395 109.409L47.3849 109.068C46.5857 108.879 45.9986 108.585 45.6236 108.188C45.2524 107.786 45.0668 107.284 45.0668 106.682C45.0668 106.189 45.205 105.754 45.4815 105.375C45.7618 104.996 46.1425 104.699 46.6236 104.483C47.1084 104.267 47.6577 104.159 48.2713 104.159C49.1349 104.159 49.813 104.348 50.3054 104.727C50.8016 105.106 51.1539 105.606 51.3622 106.227ZM57.0852 113.182C56.2973 113.182 55.6061 112.994 55.0114 112.619C54.4205 112.244 53.9583 111.72 53.625 111.045C53.2955 110.371 53.1307 109.583 53.1307 108.682C53.1307 107.773 53.2955 106.979 53.625 106.301C53.9583 105.623 54.4205 105.097 55.0114 104.722C55.6061 104.347 56.2973 104.159 57.0852 104.159C57.8731 104.159 58.5625 104.347 59.1534 104.722C59.7481 105.097 60.2102 105.623 60.5398 106.301C60.8731 106.979 61.0398 107.773 61.0398 108.682C61.0398 109.583 60.8731 110.371 60.5398 111.045C60.2102 111.72 59.7481 112.244 59.1534 112.619C58.5625 112.994 57.8731 113.182 57.0852 113.182ZM57.0852 111.977C57.6837 111.977 58.1761 111.824 58.5625 111.517C58.9489 111.21 59.2348 110.807 59.4205 110.307C59.6061 109.807 59.6989 109.265 59.6989 108.682C59.6989 108.098 59.6061 107.555 59.4205 107.051C59.2348 106.547 58.9489 106.14 58.5625 105.83C58.1761 105.519 57.6837 105.364 57.0852 105.364C56.4867 105.364 55.9943 105.519 55.608 105.83C55.2216 106.14 54.9356 106.547 54.75 107.051C54.5644 107.555 54.4716 108.098 54.4716 108.682C54.4716 109.265 54.5644 109.807 54.75 110.307C54.9356 110.807 55.2216 111.21 55.608 111.517C55.9943 111.824 56.4867 111.977 57.0852 111.977ZM68.5866 109.432V104.273H69.9276V113H68.5866V111.523H68.4957C68.2912 111.966 67.973 112.343 67.5412 112.653C67.1094 112.96 66.5639 113.114 65.9048 113.114C65.3594 113.114 64.8745 112.994 64.4503 112.756C64.026 112.513 63.6927 112.15 63.4503 111.665C63.2079 111.176 63.0866 110.561 63.0866 109.818V104.273H64.4276V109.727C64.4276 110.364 64.6056 110.871 64.9616 111.25C65.3215 111.629 65.7798 111.818 66.3366 111.818C66.67 111.818 67.009 111.733 67.3537 111.562C67.7022 111.392 67.9938 111.131 68.2287 110.778C68.4673 110.426 68.5866 109.977 68.5866 109.432ZM72.3835 113V104.273H73.679V105.591H73.7699C73.929 105.159 74.2169 104.809 74.6335 104.54C75.0502 104.271 75.5199 104.136 76.0426 104.136C76.1411 104.136 76.2642 104.138 76.4119 104.142C76.5597 104.146 76.6714 104.152 76.7472 104.159V105.523C76.7017 105.511 76.5975 105.494 76.4347 105.472C76.2756 105.445 76.107 105.432 75.929 105.432C75.5047 105.432 75.1259 105.521 74.7926 105.699C74.4631 105.873 74.2017 106.116 74.0085 106.426C73.8191 106.733 73.7244 107.083 73.7244 107.477V113H72.3835ZM81.6165 113.182C80.7983 113.182 80.0938 112.989 79.5028 112.602C78.9119 112.216 78.4574 111.684 78.1392 111.006C77.821 110.328 77.6619 109.553 77.6619 108.682C77.6619 107.795 77.8248 107.013 78.1506 106.335C78.4801 105.653 78.9384 105.121 79.5256 104.739C80.1165 104.352 80.8059 104.159 81.5938 104.159C82.2074 104.159 82.7604 104.273 83.2528 104.5C83.7453 104.727 84.1487 105.045 84.4631 105.455C84.7775 105.864 84.9725 106.341 85.0483 106.886H83.7074C83.6051 106.489 83.3778 106.136 83.0256 105.83C82.6771 105.519 82.2074 105.364 81.6165 105.364C81.0938 105.364 80.6354 105.5 80.2415 105.773C79.8513 106.042 79.5464 106.422 79.3267 106.915C79.1108 107.403 79.0028 107.977 79.0028 108.636C79.0028 109.311 79.1089 109.898 79.321 110.398C79.5369 110.898 79.84 111.286 80.2301 111.562C80.6241 111.839 81.0862 111.977 81.6165 111.977C81.965 111.977 82.2812 111.917 82.5653 111.795C82.8494 111.674 83.09 111.5 83.2869 111.273C83.4839 111.045 83.6241 110.773 83.7074 110.455H85.0483C84.9725 110.97 84.785 111.434 84.4858 111.847C84.1903 112.256 83.7983 112.581 83.3097 112.824C82.8248 113.062 82.2604 113.182 81.6165 113.182ZM90.6676 113.182C89.8267 113.182 89.1013 112.996 88.4915 112.625C87.8854 112.25 87.4176 111.727 87.0881 111.057C86.7623 110.383 86.5994 109.598 86.5994 108.705C86.5994 107.811 86.7623 107.023 87.0881 106.341C87.4176 105.655 87.8759 105.121 88.4631 104.739C89.054 104.352 89.7434 104.159 90.5312 104.159C90.9858 104.159 91.4347 104.235 91.8778 104.386C92.321 104.538 92.7244 104.784 93.0881 105.125C93.4517 105.462 93.7415 105.909 93.9574 106.466C94.1733 107.023 94.2812 107.708 94.2812 108.523V109.091H87.554V107.932H92.9176C92.9176 107.439 92.8191 107 92.6222 106.614C92.429 106.227 92.1525 105.922 91.7926 105.699C91.4366 105.475 91.0161 105.364 90.5312 105.364C89.9972 105.364 89.535 105.496 89.1449 105.761C88.7585 106.023 88.4612 106.364 88.2528 106.784C88.0445 107.205 87.9403 107.655 87.9403 108.136V108.909C87.9403 109.568 88.054 110.127 88.2812 110.585C88.5123 111.04 88.8324 111.386 89.2415 111.625C89.6506 111.86 90.1259 111.977 90.6676 111.977C91.0199 111.977 91.3381 111.928 91.6222 111.83C91.91 111.727 92.1581 111.576 92.3665 111.375C92.5748 111.17 92.7358 110.917 92.8494 110.614L94.1449 110.977C94.0085 111.417 93.7794 111.803 93.4574 112.136C93.1354 112.466 92.7377 112.723 92.2642 112.909C91.7907 113.091 91.2585 113.182 90.6676 113.182ZM102.503 106.227L101.298 106.568C101.223 106.367 101.111 106.172 100.963 105.983C100.819 105.79 100.622 105.631 100.372 105.506C100.122 105.381 99.8021 105.318 99.4119 105.318C98.8778 105.318 98.4328 105.441 98.0767 105.688C97.7244 105.93 97.5483 106.239 97.5483 106.614C97.5483 106.947 97.6695 107.21 97.9119 107.403C98.1544 107.597 98.5331 107.758 99.0483 107.886L100.344 108.205C101.124 108.394 101.705 108.684 102.088 109.074C102.471 109.46 102.662 109.958 102.662 110.568C102.662 111.068 102.518 111.515 102.23 111.909C101.946 112.303 101.548 112.614 101.037 112.841C100.526 113.068 99.9309 113.182 99.2528 113.182C98.3627 113.182 97.6259 112.989 97.0426 112.602C96.4593 112.216 96.09 111.652 95.9347 110.909L97.2074 110.591C97.3286 111.061 97.5578 111.413 97.8949 111.648C98.2358 111.883 98.6809 112 99.2301 112C99.8551 112 100.351 111.867 100.719 111.602C101.09 111.333 101.276 111.011 101.276 110.636C101.276 110.333 101.17 110.08 100.957 109.875C100.745 109.667 100.42 109.511 99.9801 109.409L98.5256 109.068C97.7263 108.879 97.1392 108.585 96.7642 108.188C96.393 107.786 96.2074 107.284 96.2074 106.682C96.2074 106.189 96.3456 105.754 96.6222 105.375C96.9025 104.996 97.2831 104.699 97.7642 104.483C98.2491 104.267 98.7983 104.159 99.4119 104.159C100.276 104.159 100.954 104.348 101.446 104.727C101.942 105.106 102.295 105.606 102.503 106.227ZM109.362 113V101.364H113.294C114.207 101.364 114.953 101.528 115.533 101.858C116.116 102.184 116.548 102.625 116.828 103.182C117.108 103.739 117.249 104.36 117.249 105.045C117.249 105.731 117.108 106.354 116.828 106.915C116.552 107.475 116.124 107.922 115.544 108.256C114.964 108.585 114.222 108.75 113.317 108.75H110.499V107.5H113.271C113.896 107.5 114.398 107.392 114.777 107.176C115.156 106.96 115.43 106.669 115.601 106.301C115.775 105.93 115.862 105.511 115.862 105.045C115.862 104.58 115.775 104.163 115.601 103.795C115.43 103.428 115.154 103.14 114.771 102.932C114.389 102.72 113.881 102.614 113.249 102.614H110.771V113H109.362ZM119.337 113V104.273H120.632V105.591H120.723C120.882 105.159 121.17 104.809 121.587 104.54C122.003 104.271 122.473 104.136 122.996 104.136C123.094 104.136 123.217 104.138 123.365 104.142C123.513 104.146 123.625 104.152 123.7 104.159V105.523C123.655 105.511 123.551 105.494 123.388 105.472C123.229 105.445 123.06 105.432 122.882 105.432C122.458 105.432 122.079 105.521 121.746 105.699C121.416 105.873 121.155 106.116 120.962 106.426C120.772 106.733 120.678 107.083 120.678 107.477V113H119.337ZM128.57 113.182C127.782 113.182 127.09 112.994 126.496 112.619C125.905 112.244 125.443 111.72 125.109 111.045C124.78 110.371 124.615 109.583 124.615 108.682C124.615 107.773 124.78 106.979 125.109 106.301C125.443 105.623 125.905 105.097 126.496 104.722C127.09 104.347 127.782 104.159 128.57 104.159C129.357 104.159 130.047 104.347 130.638 104.722C131.232 105.097 131.695 105.623 132.024 106.301C132.357 106.979 132.524 107.773 132.524 108.682C132.524 109.583 132.357 110.371 132.024 111.045C131.695 111.72 131.232 112.244 130.638 112.619C130.047 112.994 129.357 113.182 128.57 113.182ZM128.57 111.977C129.168 111.977 129.661 111.824 130.047 111.517C130.433 111.21 130.719 110.807 130.905 110.307C131.09 109.807 131.183 109.265 131.183 108.682C131.183 108.098 131.09 107.555 130.905 107.051C130.719 106.547 130.433 106.14 130.047 105.83C129.661 105.519 129.168 105.364 128.57 105.364C127.971 105.364 127.479 105.519 127.092 105.83C126.706 106.14 126.42 106.547 126.234 107.051C126.049 107.555 125.956 108.098 125.956 108.682C125.956 109.265 126.049 109.807 126.234 110.307C126.42 110.807 126.706 111.21 127.092 111.517C127.479 111.824 127.971 111.977 128.57 111.977ZM138.094 116.455C137.446 116.455 136.889 116.371 136.423 116.205C135.957 116.042 135.569 115.826 135.259 115.557C134.952 115.292 134.707 115.008 134.526 114.705L135.594 113.955C135.715 114.114 135.868 114.295 136.054 114.5C136.24 114.708 136.493 114.888 136.815 115.04C137.141 115.195 137.567 115.273 138.094 115.273C138.798 115.273 139.38 115.102 139.838 114.761C140.296 114.42 140.526 113.886 140.526 113.159V111.386H140.412C140.313 111.545 140.173 111.742 139.991 111.977C139.813 112.208 139.556 112.415 139.219 112.597C138.885 112.775 138.435 112.864 137.866 112.864C137.162 112.864 136.529 112.697 135.969 112.364C135.412 112.03 134.971 111.545 134.645 110.909C134.323 110.273 134.162 109.5 134.162 108.591C134.162 107.697 134.319 106.919 134.634 106.256C134.948 105.589 135.385 105.074 135.946 104.71C136.507 104.343 137.154 104.159 137.889 104.159C138.457 104.159 138.908 104.254 139.241 104.443C139.579 104.629 139.836 104.841 140.014 105.08C140.196 105.314 140.336 105.508 140.435 105.659H140.571V104.273H141.866V113.25C141.866 114 141.696 114.61 141.355 115.08C141.018 115.553 140.563 115.9 139.991 116.119C139.423 116.343 138.791 116.455 138.094 116.455ZM138.048 111.659C138.586 111.659 139.041 111.536 139.412 111.29C139.783 111.044 140.065 110.689 140.259 110.227C140.452 109.765 140.548 109.212 140.548 108.568C140.548 107.939 140.454 107.384 140.264 106.903C140.075 106.422 139.795 106.045 139.423 105.773C139.052 105.5 138.594 105.364 138.048 105.364C137.48 105.364 137.007 105.508 136.628 105.795C136.253 106.083 135.971 106.47 135.781 106.955C135.596 107.439 135.503 107.977 135.503 108.568C135.503 109.174 135.598 109.71 135.787 110.176C135.98 110.638 136.264 111.002 136.639 111.267C137.018 111.528 137.488 111.659 138.048 111.659ZM144.321 113V104.273H145.616V105.591H145.707C145.866 105.159 146.154 104.809 146.571 104.54C146.988 104.271 147.457 104.136 147.98 104.136C148.079 104.136 148.202 104.138 148.349 104.142C148.497 104.146 148.609 104.152 148.685 104.159V105.523C148.639 105.511 148.535 105.494 148.372 105.472C148.213 105.445 148.045 105.432 147.866 105.432C147.442 105.432 147.063 105.521 146.73 105.699C146.401 105.873 146.139 106.116 145.946 106.426C145.757 106.733 145.662 107.083 145.662 107.477V113H144.321ZM153.668 113.182C152.827 113.182 152.101 112.996 151.491 112.625C150.885 112.25 150.418 111.727 150.088 111.057C149.762 110.383 149.599 109.598 149.599 108.705C149.599 107.811 149.762 107.023 150.088 106.341C150.418 105.655 150.876 105.121 151.463 104.739C152.054 104.352 152.743 104.159 153.531 104.159C153.986 104.159 154.435 104.235 154.878 104.386C155.321 104.538 155.724 104.784 156.088 105.125C156.452 105.462 156.741 105.909 156.957 106.466C157.173 107.023 157.281 107.708 157.281 108.523V109.091H150.554V107.932H155.918C155.918 107.439 155.819 107 155.622 106.614C155.429 106.227 155.152 105.922 154.793 105.699C154.437 105.475 154.016 105.364 153.531 105.364C152.997 105.364 152.535 105.496 152.145 105.761C151.759 106.023 151.461 106.364 151.253 106.784C151.045 107.205 150.94 107.655 150.94 108.136V108.909C150.94 109.568 151.054 110.127 151.281 110.585C151.512 111.04 151.832 111.386 152.241 111.625C152.651 111.86 153.126 111.977 153.668 111.977C154.02 111.977 154.338 111.928 154.622 111.83C154.91 111.727 155.158 111.576 155.366 111.375C155.575 111.17 155.736 110.917 155.849 110.614L157.145 110.977C157.009 111.417 156.779 111.803 156.457 112.136C156.135 112.466 155.738 112.723 155.264 112.909C154.791 113.091 154.259 113.182 153.668 113.182ZM165.503 106.227L164.298 106.568C164.223 106.367 164.111 106.172 163.963 105.983C163.819 105.79 163.622 105.631 163.372 105.506C163.122 105.381 162.802 105.318 162.412 105.318C161.878 105.318 161.433 105.441 161.077 105.688C160.724 105.93 160.548 106.239 160.548 106.614C160.548 106.947 160.67 107.21 160.912 107.403C161.154 107.597 161.533 107.758 162.048 107.886L163.344 108.205C164.124 108.394 164.705 108.684 165.088 109.074C165.471 109.46 165.662 109.958 165.662 110.568C165.662 111.068 165.518 111.515 165.23 111.909C164.946 112.303 164.548 112.614 164.037 112.841C163.526 113.068 162.931 113.182 162.253 113.182C161.363 113.182 160.626 112.989 160.043 112.602C159.459 112.216 159.09 111.652 158.935 110.909L160.207 110.591C160.329 111.061 160.558 111.413 160.895 111.648C161.236 111.883 161.681 112 162.23 112C162.855 112 163.351 111.867 163.719 111.602C164.09 111.333 164.276 111.011 164.276 110.636C164.276 110.333 164.17 110.08 163.957 109.875C163.745 109.667 163.42 109.511 162.98 109.409L161.526 109.068C160.726 108.879 160.139 108.585 159.764 108.188C159.393 107.786 159.207 107.284 159.207 106.682C159.207 106.189 159.346 105.754 159.622 105.375C159.902 104.996 160.283 104.699 160.764 104.483C161.249 104.267 161.798 104.159 162.412 104.159C163.276 104.159 163.954 104.348 164.446 104.727C164.942 105.106 165.295 105.606 165.503 106.227ZM173.862 106.227L172.658 106.568C172.582 106.367 172.47 106.172 172.322 105.983C172.179 105.79 171.982 105.631 171.732 105.506C171.482 105.381 171.161 105.318 170.771 105.318C170.237 105.318 169.792 105.441 169.436 105.688C169.084 105.93 168.908 106.239 168.908 106.614C168.908 106.947 169.029 107.21 169.271 107.403C169.514 107.597 169.893 107.758 170.408 107.886L171.703 108.205C172.483 108.394 173.065 108.684 173.447 109.074C173.83 109.46 174.021 109.958 174.021 110.568C174.021 111.068 173.877 111.515 173.589 111.909C173.305 112.303 172.908 112.614 172.396 112.841C171.885 113.068 171.29 113.182 170.612 113.182C169.722 113.182 168.985 112.989 168.402 112.602C167.819 112.216 167.449 111.652 167.294 110.909L168.567 110.591C168.688 111.061 168.917 111.413 169.254 111.648C169.595 111.883 170.04 112 170.589 112C171.214 112 171.711 111.867 172.078 111.602C172.449 111.333 172.635 111.011 172.635 110.636C172.635 110.333 172.529 110.08 172.317 109.875C172.105 109.667 171.779 109.511 171.339 109.409L169.885 109.068C169.086 108.879 168.499 108.585 168.124 108.188C167.752 107.786 167.567 107.284 167.567 106.682C167.567 106.189 167.705 105.754 167.982 105.375C168.262 104.996 168.643 104.699 169.124 104.483C169.608 104.267 170.158 104.159 170.771 104.159C171.635 104.159 172.313 104.348 172.805 104.727C173.302 105.106 173.654 105.606 173.862 106.227Z" fill="#696972"/>
  <path d="M421.568 113.159C421.091 113.152 420.614 113.061 420.136 112.886C419.659 112.712 419.223 112.419 418.83 112.006C418.436 111.589 418.119 111.027 417.881 110.318C417.642 109.606 417.523 108.712 417.523 107.636C417.523 106.606 417.619 105.693 417.812 104.898C418.006 104.098 418.286 103.426 418.653 102.881C419.021 102.331 419.464 101.915 419.983 101.631C420.506 101.347 421.095 101.205 421.75 101.205C422.402 101.205 422.981 101.335 423.489 101.597C424 101.854 424.417 102.214 424.739 102.676C425.061 103.138 425.269 103.67 425.364 104.273H423.977C423.848 103.75 423.598 103.316 423.227 102.972C422.856 102.627 422.364 102.455 421.75 102.455C420.848 102.455 420.138 102.847 419.619 103.631C419.104 104.415 418.845 105.515 418.841 106.932H418.932C419.144 106.61 419.396 106.335 419.688 106.108C419.983 105.877 420.309 105.699 420.665 105.574C421.021 105.449 421.398 105.386 421.795 105.386C422.462 105.386 423.072 105.553 423.625 105.886C424.178 106.216 424.621 106.672 424.955 107.256C425.288 107.835 425.455 108.5 425.455 109.25C425.455 109.97 425.294 110.629 424.972 111.227C424.65 111.822 424.197 112.295 423.614 112.648C423.034 112.996 422.352 113.167 421.568 113.159ZM421.568 111.909C422.045 111.909 422.473 111.79 422.852 111.551C423.235 111.312 423.536 110.992 423.756 110.591C423.979 110.189 424.091 109.742 424.091 109.25C424.091 108.769 423.983 108.331 423.767 107.938C423.555 107.54 423.261 107.223 422.886 106.989C422.515 106.754 422.091 106.636 421.614 106.636C421.254 106.636 420.919 106.708 420.608 106.852C420.297 106.992 420.025 107.186 419.79 107.432C419.559 107.678 419.377 107.96 419.244 108.278C419.112 108.593 419.045 108.924 419.045 109.273C419.045 109.735 419.153 110.167 419.369 110.568C419.589 110.97 419.888 111.294 420.267 111.54C420.65 111.786 421.083 111.909 421.568 111.909ZM431.416 113.159C430.636 113.159 429.946 113.021 429.348 112.744C428.753 112.464 428.289 112.08 427.956 111.591C427.623 111.098 427.458 110.538 427.462 109.909C427.458 109.417 427.554 108.962 427.751 108.545C427.948 108.125 428.217 107.775 428.558 107.494C428.903 107.21 429.287 107.03 429.712 106.955V106.886C429.155 106.742 428.712 106.43 428.382 105.949C428.053 105.464 427.89 104.913 427.893 104.295C427.89 103.705 428.039 103.176 428.342 102.71C428.645 102.244 429.062 101.877 429.592 101.608C430.126 101.339 430.734 101.205 431.416 101.205C432.09 101.205 432.693 101.339 433.223 101.608C433.753 101.877 434.17 102.244 434.473 102.71C434.78 103.176 434.935 103.705 434.939 104.295C434.935 104.913 434.767 105.464 434.433 105.949C434.104 106.43 433.666 106.742 433.121 106.886V106.955C433.541 107.03 433.92 107.21 434.257 107.494C434.594 107.775 434.863 108.125 435.064 108.545C435.265 108.962 435.367 109.417 435.371 109.909C435.367 110.538 435.196 111.098 434.859 111.591C434.526 112.08 434.062 112.464 433.467 112.744C432.876 113.021 432.193 113.159 431.416 113.159ZM431.416 111.909C431.943 111.909 432.397 111.824 432.78 111.653C433.162 111.483 433.458 111.242 433.666 110.932C433.875 110.621 433.981 110.258 433.984 109.841C433.981 109.402 433.867 109.013 433.643 108.676C433.42 108.339 433.115 108.074 432.729 107.881C432.346 107.687 431.909 107.591 431.416 107.591C430.92 107.591 430.477 107.687 430.087 107.881C429.7 108.074 429.395 108.339 429.172 108.676C428.952 109.013 428.844 109.402 428.848 109.841C428.844 110.258 428.945 110.621 429.149 110.932C429.357 111.242 429.655 111.483 430.041 111.653C430.428 111.824 430.886 111.909 431.416 111.909ZM431.416 106.386C431.833 106.386 432.202 106.303 432.524 106.136C432.85 105.97 433.106 105.737 433.291 105.438C433.477 105.138 433.571 104.788 433.575 104.386C433.571 103.992 433.479 103.65 433.297 103.358C433.115 103.062 432.863 102.835 432.541 102.676C432.219 102.513 431.844 102.432 431.416 102.432C430.981 102.432 430.6 102.513 430.274 102.676C429.948 102.835 429.696 103.062 429.518 103.358C429.34 103.65 429.253 103.992 429.257 104.386C429.253 104.788 429.342 105.138 429.524 105.438C429.71 105.737 429.965 105.97 430.291 106.136C430.617 106.303 430.992 106.386 431.416 106.386ZM443.48 110.818V110.205C443.48 109.78 443.567 109.392 443.741 109.04C443.92 108.684 444.177 108.4 444.514 108.188C444.855 107.972 445.268 107.864 445.753 107.864C446.245 107.864 446.658 107.972 446.991 108.188C447.325 108.4 447.577 108.684 447.747 109.04C447.918 109.392 448.003 109.78 448.003 110.205V110.818C448.003 111.242 447.916 111.633 447.741 111.989C447.571 112.341 447.317 112.625 446.98 112.841C446.647 113.053 446.238 113.159 445.753 113.159C445.26 113.159 444.846 113.053 444.509 112.841C444.171 112.625 443.916 112.341 443.741 111.989C443.567 111.633 443.48 111.242 443.48 110.818ZM444.639 110.205V110.818C444.639 111.17 444.723 111.487 444.889 111.767C445.056 112.044 445.344 112.182 445.753 112.182C446.151 112.182 446.431 112.044 446.594 111.767C446.76 111.487 446.844 111.17 446.844 110.818V110.205C446.844 109.852 446.764 109.538 446.605 109.261C446.446 108.981 446.162 108.841 445.753 108.841C445.355 108.841 445.069 108.981 444.895 109.261C444.724 109.538 444.639 109.852 444.639 110.205ZM437.685 104.159V103.545C437.685 103.121 437.772 102.733 437.946 102.381C438.124 102.025 438.382 101.741 438.719 101.528C439.06 101.312 439.473 101.205 439.957 101.205C440.45 101.205 440.863 101.312 441.196 101.528C441.529 101.741 441.781 102.025 441.952 102.381C442.122 102.733 442.207 103.121 442.207 103.545V104.159C442.207 104.583 442.12 104.973 441.946 105.33C441.776 105.682 441.522 105.966 441.185 106.182C440.851 106.394 440.442 106.5 439.957 106.5C439.465 106.5 439.05 106.394 438.713 106.182C438.376 105.966 438.12 105.682 437.946 105.33C437.772 104.973 437.685 104.583 437.685 104.159ZM438.844 103.545V104.159C438.844 104.511 438.927 104.828 439.094 105.108C439.26 105.384 439.548 105.523 439.957 105.523C440.355 105.523 440.635 105.384 440.798 105.108C440.965 104.828 441.048 104.511 441.048 104.159V103.545C441.048 103.193 440.969 102.879 440.81 102.602C440.651 102.322 440.366 102.182 439.957 102.182C439.56 102.182 439.274 102.322 439.099 102.602C438.929 102.879 438.844 103.193 438.844 103.545ZM438.116 113L446.116 101.364H447.412L439.412 113H438.116Z" fill="#696972"/>
  <rect x="24.5" y="143" width="425" height="48" rx="12" fill="#BBEB9D"/>
  <path d="M180.295 161.364L183.534 170.841H183.665L186.903 161.364H188.801L184.614 173H182.585L178.398 161.364H180.295ZM190.169 173V164.273H191.868V173H190.169ZM191.027 162.926C190.732 162.926 190.478 162.828 190.266 162.631C190.057 162.43 189.953 162.191 189.953 161.915C189.953 161.634 190.057 161.396 190.266 161.199C190.478 160.998 190.732 160.898 191.027 160.898C191.323 160.898 191.574 160.998 191.783 161.199C191.995 161.396 192.101 161.634 192.101 161.915C192.101 162.191 191.995 162.43 191.783 162.631C191.574 162.828 191.323 162.926 191.027 162.926ZM197.739 173.176C196.879 173.176 196.139 172.992 195.517 172.625C194.9 172.254 194.423 171.733 194.085 171.062C193.752 170.388 193.585 169.598 193.585 168.693C193.585 167.799 193.752 167.011 194.085 166.33C194.423 165.648 194.892 165.116 195.495 164.733C196.101 164.35 196.809 164.159 197.62 164.159C198.112 164.159 198.589 164.241 199.051 164.403C199.514 164.566 199.928 164.822 200.296 165.17C200.663 165.519 200.953 165.972 201.165 166.528C201.377 167.081 201.483 167.754 201.483 168.545V169.148H194.546V167.875H199.818C199.818 167.428 199.728 167.032 199.546 166.688C199.364 166.339 199.108 166.064 198.779 165.864C198.453 165.663 198.07 165.562 197.631 165.562C197.154 165.562 196.737 165.68 196.381 165.915C196.029 166.146 195.756 166.449 195.563 166.824C195.373 167.195 195.279 167.598 195.279 168.034V169.028C195.279 169.612 195.381 170.108 195.585 170.517C195.794 170.926 196.084 171.239 196.455 171.455C196.826 171.667 197.26 171.773 197.756 171.773C198.078 171.773 198.371 171.727 198.637 171.636C198.902 171.542 199.131 171.402 199.324 171.216C199.517 171.03 199.665 170.801 199.767 170.528L201.375 170.818C201.246 171.292 201.015 171.706 200.682 172.062C200.353 172.415 199.938 172.689 199.438 172.886C198.942 173.08 198.375 173.176 197.739 173.176ZM205.069 173L202.5 164.273H204.256L205.966 170.682H206.052L207.767 164.273H209.523L211.228 170.653H211.313L213.012 164.273H214.767L212.205 173H210.472L208.699 166.699H208.569L206.796 173H205.069ZM223.529 173.17C222.825 173.17 222.196 172.991 221.643 172.631C221.093 172.267 220.662 171.75 220.347 171.08C220.037 170.405 219.881 169.597 219.881 168.653C219.881 167.71 220.039 166.903 220.353 166.233C220.671 165.562 221.107 165.049 221.66 164.693C222.213 164.337 222.84 164.159 223.54 164.159C224.082 164.159 224.518 164.25 224.847 164.432C225.181 164.61 225.438 164.818 225.62 165.057C225.806 165.295 225.95 165.506 226.052 165.688H226.154V161.364H227.853V173H226.194V171.642H226.052C225.95 171.828 225.802 172.04 225.609 172.278C225.419 172.517 225.158 172.725 224.825 172.903C224.491 173.081 224.059 173.17 223.529 173.17ZM223.904 171.722C224.393 171.722 224.806 171.593 225.143 171.335C225.484 171.074 225.741 170.712 225.915 170.25C226.093 169.788 226.182 169.25 226.182 168.636C226.182 168.03 226.095 167.5 225.921 167.045C225.747 166.591 225.491 166.237 225.154 165.983C224.817 165.729 224.4 165.602 223.904 165.602C223.393 165.602 222.967 165.735 222.626 166C222.285 166.265 222.027 166.627 221.853 167.085C221.682 167.544 221.597 168.061 221.597 168.636C221.597 169.22 221.684 169.744 221.859 170.21C222.033 170.676 222.29 171.045 222.631 171.318C222.976 171.587 223.4 171.722 223.904 171.722ZM233.778 173.176C232.96 173.176 232.246 172.989 231.636 172.614C231.026 172.239 230.552 171.714 230.215 171.04C229.878 170.366 229.71 169.578 229.71 168.676C229.71 167.771 229.878 166.979 230.215 166.301C230.552 165.623 231.026 165.097 231.636 164.722C232.246 164.347 232.96 164.159 233.778 164.159C234.596 164.159 235.31 164.347 235.92 164.722C236.53 165.097 237.003 165.623 237.34 166.301C237.677 166.979 237.846 167.771 237.846 168.676C237.846 169.578 237.677 170.366 237.34 171.04C237.003 171.714 236.53 172.239 235.92 172.614C235.31 172.989 234.596 173.176 233.778 173.176ZM233.783 171.75C234.314 171.75 234.753 171.61 235.102 171.33C235.45 171.049 235.708 170.676 235.874 170.21C236.045 169.744 236.13 169.231 236.13 168.67C236.13 168.114 236.045 167.602 235.874 167.136C235.708 166.667 235.45 166.29 235.102 166.006C234.753 165.722 234.314 165.58 233.783 165.58C233.249 165.58 232.806 165.722 232.454 166.006C232.105 166.29 231.846 166.667 231.676 167.136C231.509 167.602 231.426 168.114 231.426 168.67C231.426 169.231 231.509 169.744 231.676 170.21C231.846 170.676 232.105 171.049 232.454 171.33C232.806 171.61 233.249 171.75 233.783 171.75ZM243.242 173.176C242.398 173.176 241.67 172.985 241.061 172.602C240.455 172.216 239.989 171.684 239.663 171.006C239.337 170.328 239.174 169.551 239.174 168.676C239.174 167.79 239.341 167.008 239.674 166.33C240.008 165.648 240.477 165.116 241.083 164.733C241.689 164.35 242.403 164.159 243.225 164.159C243.888 164.159 244.479 164.282 244.998 164.528C245.517 164.771 245.936 165.112 246.254 165.551C246.576 165.991 246.767 166.504 246.828 167.091H245.174C245.083 166.682 244.875 166.33 244.549 166.034C244.227 165.739 243.795 165.591 243.254 165.591C242.78 165.591 242.366 165.716 242.009 165.966C241.657 166.212 241.383 166.564 241.186 167.023C240.989 167.477 240.89 168.015 240.89 168.636C240.89 169.273 240.987 169.822 241.18 170.284C241.373 170.746 241.646 171.104 241.998 171.358C242.354 171.612 242.773 171.739 243.254 171.739C243.576 171.739 243.867 171.68 244.129 171.562C244.394 171.441 244.616 171.269 244.794 171.045C244.975 170.822 245.102 170.553 245.174 170.239H246.828C246.767 170.803 246.583 171.307 246.277 171.75C245.97 172.193 245.559 172.542 245.044 172.795C244.532 173.049 243.932 173.176 243.242 173.176ZM253.997 169.381V164.273H255.701V173H254.031V171.489H253.94C253.739 171.955 253.417 172.343 252.974 172.653C252.535 172.96 251.987 173.114 251.332 173.114C250.771 173.114 250.275 172.991 249.843 172.744C249.415 172.494 249.078 172.125 248.832 171.636C248.59 171.148 248.468 170.544 248.468 169.824V164.273H250.167V169.619C250.167 170.214 250.332 170.687 250.662 171.04C250.991 171.392 251.419 171.568 251.946 171.568C252.264 171.568 252.58 171.489 252.895 171.33C253.213 171.17 253.476 170.93 253.684 170.608C253.896 170.286 254.001 169.877 253.997 169.381ZM257.808 173V164.273H259.439V165.693H259.547C259.729 165.212 260.026 164.837 260.439 164.568C260.852 164.295 261.346 164.159 261.922 164.159C262.505 164.159 262.994 164.295 263.388 164.568C263.785 164.841 264.079 165.216 264.268 165.693H264.359C264.568 165.227 264.899 164.856 265.354 164.58C265.808 164.299 266.35 164.159 266.979 164.159C267.77 164.159 268.416 164.407 268.916 164.903C269.42 165.4 269.672 166.148 269.672 167.148V173H267.973V167.307C267.973 166.716 267.812 166.288 267.49 166.023C267.168 165.758 266.783 165.625 266.336 165.625C265.783 165.625 265.354 165.795 265.047 166.136C264.74 166.473 264.586 166.907 264.586 167.438V173H262.893V167.199C262.893 166.725 262.746 166.345 262.45 166.057C262.155 165.769 261.77 165.625 261.297 165.625C260.975 165.625 260.677 165.71 260.405 165.881C260.136 166.047 259.918 166.28 259.751 166.58C259.588 166.879 259.507 167.225 259.507 167.619V173H257.808ZM275.534 173.176C274.674 173.176 273.934 172.992 273.312 172.625C272.695 172.254 272.218 171.733 271.881 171.062C271.547 170.388 271.381 169.598 271.381 168.693C271.381 167.799 271.547 167.011 271.881 166.33C272.218 165.648 272.687 165.116 273.29 164.733C273.896 164.35 274.604 164.159 275.415 164.159C275.907 164.159 276.384 164.241 276.847 164.403C277.309 164.566 277.723 164.822 278.091 165.17C278.458 165.519 278.748 165.972 278.96 166.528C279.172 167.081 279.278 167.754 279.278 168.545V169.148H272.341V167.875H277.614C277.614 167.428 277.523 167.032 277.341 166.688C277.159 166.339 276.903 166.064 276.574 165.864C276.248 165.663 275.865 165.562 275.426 165.562C274.949 165.562 274.532 165.68 274.176 165.915C273.824 166.146 273.551 166.449 273.358 166.824C273.169 167.195 273.074 167.598 273.074 168.034V169.028C273.074 169.612 273.176 170.108 273.381 170.517C273.589 170.926 273.879 171.239 274.25 171.455C274.621 171.667 275.055 171.773 275.551 171.773C275.873 171.773 276.167 171.727 276.432 171.636C276.697 171.542 276.926 171.402 277.119 171.216C277.312 171.03 277.46 170.801 277.562 170.528L279.17 170.818C279.042 171.292 278.811 171.706 278.477 172.062C278.148 172.415 277.733 172.689 277.233 172.886C276.737 173.08 276.17 173.176 275.534 173.176ZM282.686 167.818V173H280.987V164.273H282.618V165.693H282.726C282.927 165.231 283.241 164.86 283.669 164.58C284.101 164.299 284.644 164.159 285.3 164.159C285.894 164.159 286.415 164.284 286.862 164.534C287.309 164.78 287.656 165.148 287.902 165.636C288.148 166.125 288.271 166.729 288.271 167.449V173H286.573V167.653C286.573 167.021 286.408 166.527 286.078 166.17C285.749 165.811 285.296 165.631 284.72 165.631C284.326 165.631 283.976 165.716 283.669 165.886C283.366 166.057 283.126 166.307 282.948 166.636C282.773 166.962 282.686 167.356 282.686 167.818ZM294.448 164.273V165.636H289.681V164.273H294.448ZM290.959 162.182H292.658V170.438C292.658 170.767 292.707 171.015 292.806 171.182C292.904 171.345 293.031 171.456 293.186 171.517C293.345 171.574 293.518 171.602 293.703 171.602C293.84 171.602 293.959 171.593 294.061 171.574C294.164 171.555 294.243 171.54 294.3 171.528L294.607 172.932C294.508 172.97 294.368 173.008 294.186 173.045C294.004 173.087 293.777 173.11 293.504 173.114C293.058 173.121 292.641 173.042 292.254 172.875C291.868 172.708 291.556 172.451 291.317 172.102C291.078 171.754 290.959 171.316 290.959 170.79V162.182Z" fill="#033B1E"/>
  <rect x="1" y="0.5" width="472" height="214" rx="11.5" stroke="#E2E2E8"/>
  </svg>
  