<svg width="472" height="275" viewBox="0 0 472 275" fill="none" xmlns="http://www.w3.org/2000/svg">
  <rect width="431" height="242" rx="12" fill="white"/>
  <path d="M39.394 32.98C33.598 32.868 29.51 37.516 29.566 43.256C29.482 49.052 33.654 53.504 39.226 53.42C42.166 53.42 44.434 52.16 45.806 50.144V53H48.242V44.488H39.786V46.924H45.554C44.63 49.36 42.362 50.872 39.646 50.872C35.194 50.872 32.226 47.652 32.226 42.976C32.226 38.888 35.138 35.528 39.394 35.528C42.53 35.528 44.714 37.404 45.274 40.232L47.85 39.476C47.122 35.612 43.79 32.98 39.394 32.98ZM57.4096 39.084C53.4616 39.084 50.7736 42.192 50.7736 46.28C50.7736 50.396 53.4896 53.42 57.5496 53.42C60.7696 53.42 63.4016 51.376 63.8496 48.38L61.3296 47.932C61.0776 49.808 59.5096 51.04 57.6056 51.04C55.2256 51.04 53.5176 49.36 53.2656 46.756H63.4576V45.468C63.4576 41.744 61.0776 39.084 57.4096 39.084ZM53.4056 44.628C53.8816 42.696 55.4216 41.408 57.4096 41.408C59.5376 41.408 60.9376 42.808 61.0216 44.628H53.4056ZM65.1186 41.856H67.5826V48.296C67.5826 51.46 69.5426 53.42 72.7626 53.42C75.5626 53.42 77.7186 51.32 77.5506 48.1L75.0026 47.848C75.1146 49.752 74.2186 50.984 72.6786 50.984C71.1386 50.984 70.2426 50.06 70.2426 48.352V41.856H77.0746V39.504H70.2426V35.472H67.5826V39.504H65.1186V41.856ZM78.1069 41.856H80.5709V48.296C80.5709 51.46 82.5309 53.42 85.7509 53.42C88.5509 53.42 90.7069 51.32 90.5389 48.1L87.9909 47.848C88.1029 49.752 87.2069 50.984 85.6669 50.984C84.1269 50.984 83.2309 50.06 83.2309 48.352V41.856H90.0629V39.504H83.2309V35.472H80.5709V39.504H78.1069V41.856ZM93.0921 53H95.7521V39.504H93.0921V53ZM94.4081 33.736C93.4001 33.736 92.6161 34.548 92.6161 35.528C92.6161 36.536 93.4001 37.32 94.4081 37.32C95.3881 37.32 96.1721 36.536 96.1721 35.528C96.1721 34.548 95.3881 33.736 94.4081 33.736ZM99.1077 53H101.768V45.72C101.768 43.116 103.112 41.492 105.24 41.492C107.144 41.492 108.096 42.584 108.096 44.796V53H110.756V44.264C110.756 41.044 108.992 39.084 106.052 39.084C104.176 39.084 102.748 39.84 101.768 41.072V39.504H99.1077V53ZM119.692 39.14C116.024 39.14 113.364 42.192 113.364 45.888C113.364 49.612 116.024 52.552 119.692 52.552C121.512 52.552 122.968 51.852 124.004 50.48V52.664C124.004 55.548 122.324 57.34 119.776 57.34C117.452 57.34 115.94 55.744 116.024 53.504L113.42 53.84C113.364 57.368 116.08 59.692 119.748 59.692C123.864 59.692 126.664 56.724 126.664 52.58V39.504H124.004V41.268C122.94 39.868 121.512 39.168 119.692 39.14ZM120.028 50.06C117.676 50.06 116.024 48.324 116.024 45.888C116.024 44.684 116.388 43.676 117.144 42.892C117.9 42.08 118.852 41.688 120.028 41.688C122.38 41.688 124.004 43.452 124.004 45.888C124.004 48.324 122.38 50.06 120.028 50.06ZM136.027 48.212C136.279 49.752 136.979 51.012 138.071 51.992C139.163 52.944 140.535 53.42 142.131 53.42C143.755 53.42 145.071 53 146.079 52.188C147.115 51.376 147.619 50.284 147.619 48.968C147.619 46.42 145.799 44.964 142.187 44.6C140.199 44.404 139.611 43.872 139.611 42.948C139.611 42.08 140.535 41.548 141.907 41.548C143.335 41.548 144.399 42.416 144.735 43.9L147.059 43.172C146.471 40.68 144.371 39.084 141.907 39.084C139.079 39.084 136.951 40.736 136.951 42.976C136.951 45.356 138.575 46.84 141.851 47.176C144.175 47.428 144.987 48.1 144.987 49.08C144.987 50.2 143.923 50.956 142.131 50.956C140.143 50.956 138.855 49.668 138.547 47.736L136.027 48.212ZM148.49 41.856H150.954V48.296C150.954 51.46 152.914 53.42 156.134 53.42C158.934 53.42 161.09 51.32 160.922 48.1L158.374 47.848C158.486 49.752 157.59 50.984 156.05 50.984C154.51 50.984 153.614 50.06 153.614 48.352V41.856H160.446V39.504H153.614V35.472H150.954V39.504H148.49V41.856ZM167.849 44.88C164.461 45.44 162.753 46.812 162.753 49.388C162.753 51.404 164.293 53.42 167.373 53.42C169.193 53.42 170.481 52.58 171.237 51.32V53H173.729V43.9C173.729 40.904 171.769 39.056 168.213 39.056C165.133 39.056 162.641 40.932 162.809 44.348L165.329 44.544L165.301 44.152C165.301 42.444 166.393 41.352 168.269 41.352C170.173 41.352 171.209 42.332 171.209 43.76V44.32L167.849 44.88ZM167.877 51.012C166.281 51.012 165.273 50.256 165.273 49.108C165.273 47.848 166.421 47.288 168.241 46.952L171.209 46.476V47.26C171.209 49.5 169.809 51.012 167.877 51.012ZM177.065 53H179.725V45.44C179.725 42.976 180.845 41.548 182.525 41.548C183.897 41.548 184.709 42.472 184.709 44.264C184.709 44.572 184.709 44.796 184.681 44.936L187.369 44.544C187.509 40.96 185.857 39.084 183.253 39.084C181.713 39.084 180.537 39.672 179.725 40.876V39.504H177.065V53ZM188.548 41.856H191.012V48.296C191.012 51.46 192.972 53.42 196.192 53.42C198.992 53.42 201.148 51.32 200.98 48.1L198.432 47.848C198.544 49.752 197.648 50.984 196.108 50.984C194.568 50.984 193.672 50.06 193.672 48.352V41.856H200.504V39.504H193.672V35.472H191.012V39.504H188.548V41.856ZM209.14 39.084C205.192 39.084 202.504 42.192 202.504 46.28C202.504 50.396 205.22 53.42 209.28 53.42C212.5 53.42 215.132 51.376 215.58 48.38L213.06 47.932C212.808 49.808 211.24 51.04 209.336 51.04C206.956 51.04 205.248 49.36 204.996 46.756H215.188V45.468C215.188 41.744 212.808 39.084 209.14 39.084ZM205.136 44.628C205.612 42.696 207.152 41.408 209.14 41.408C211.268 41.408 212.668 42.808 212.752 44.628H205.136ZM223.79 39.084C220.094 39.084 217.434 42.248 217.434 46.252C217.434 50.256 220.094 53.42 223.79 53.42C225.834 53.42 227.402 52.608 228.494 51.18V53H231.154V33.4H228.494V41.324C227.402 39.896 225.806 39.084 223.79 39.084ZM224.322 50.872C223.062 50.872 222.054 50.452 221.27 49.584C220.486 48.716 220.094 47.596 220.094 46.252C220.094 44.908 220.486 43.816 221.27 42.948C222.082 42.08 223.09 41.632 224.322 41.632C226.758 41.632 228.494 43.62 228.494 46.252C228.494 47.596 228.102 48.716 227.318 49.584C226.534 50.452 225.526 50.872 224.322 50.872Z" fill="#34343D"/>
  <circle cx="38" cy="102" r="10" fill="#5EB42A"/>
  <path d="M60.2768 108V96.3636H67.5723V97.875H62.0325V101.42H67.1916V102.926H62.0325V106.489H67.6405V108H60.2768ZM73.6789 99.2727V100.636H68.9119V99.2727H73.6789ZM70.1903 97.1818H71.8892V105.438C71.8892 105.767 71.9384 106.015 72.0369 106.182C72.1354 106.345 72.2623 106.456 72.4176 106.517C72.5767 106.574 72.749 106.602 72.9346 106.602C73.071 106.602 73.1903 106.593 73.2926 106.574C73.3949 106.555 73.4744 106.54 73.5312 106.528L73.838 107.932C73.7396 107.97 73.5994 108.008 73.4176 108.045C73.2358 108.087 73.0085 108.11 72.7358 108.114C72.2888 108.121 71.8721 108.042 71.4858 107.875C71.0994 107.708 70.7869 107.451 70.5483 107.102C70.3096 106.754 70.1903 106.316 70.1903 105.79V97.1818ZM77.2686 102.818V108H75.5697V96.3636H77.2458V100.693H77.3538C77.5583 100.223 77.8708 99.8504 78.2913 99.5739C78.7118 99.2973 79.261 99.1591 79.939 99.1591C80.5375 99.1591 81.0602 99.2822 81.5072 99.5284C81.958 99.7746 82.3065 100.142 82.5527 100.631C82.8027 101.116 82.9277 101.722 82.9277 102.449V108H81.2288V102.653C81.2288 102.013 81.064 101.517 80.7345 101.165C80.4049 100.809 79.9466 100.631 79.3595 100.631C78.958 100.631 78.5981 100.716 78.2799 100.886C77.9655 101.057 77.7174 101.307 77.5356 101.636C77.3576 101.962 77.2686 102.356 77.2686 102.818ZM85.0187 108V99.2727H86.7176V108H85.0187ZM85.8767 97.9261C85.5812 97.9261 85.3274 97.8277 85.1153 97.6307C84.907 97.4299 84.8028 97.1913 84.8028 96.9148C84.8028 96.6345 84.907 96.3958 85.1153 96.1989C85.3274 95.9981 85.5812 95.8977 85.8767 95.8977C86.1721 95.8977 86.424 95.9981 86.6323 96.1989C86.8445 96.3958 86.9505 96.6345 86.9505 96.9148C86.9505 97.1913 86.8445 97.4299 86.6323 97.6307C86.424 97.8277 86.1721 97.9261 85.8767 97.9261ZM92.5032 108.176C91.6585 108.176 90.9312 107.985 90.3214 107.602C89.7153 107.216 89.2494 106.684 88.9237 106.006C88.5979 105.328 88.435 104.551 88.435 103.676C88.435 102.79 88.6017 102.008 88.935 101.33C89.2684 100.648 89.7381 100.116 90.3441 99.733C90.9502 99.3504 91.6642 99.1591 92.4862 99.1591C93.1491 99.1591 93.74 99.2822 94.2589 99.5284C94.7778 99.7708 95.1964 100.112 95.5146 100.551C95.8366 100.991 96.0278 101.504 96.0884 102.091H94.435C94.3441 101.682 94.1358 101.33 93.81 101.034C93.4881 100.739 93.0562 100.591 92.5146 100.591C92.0411 100.591 91.6263 100.716 91.2703 100.966C90.918 101.212 90.6434 101.564 90.4464 102.023C90.2494 102.477 90.1509 103.015 90.1509 103.636C90.1509 104.273 90.2475 104.822 90.4407 105.284C90.6339 105.746 90.9066 106.104 91.2589 106.358C91.615 106.612 92.0335 106.739 92.5146 106.739C92.8366 106.739 93.1282 106.68 93.3896 106.562C93.6547 106.441 93.8763 106.269 94.0544 106.045C94.2362 105.822 94.3631 105.553 94.435 105.239H96.0884C96.0278 105.803 95.8441 106.307 95.5373 106.75C95.2305 107.193 94.8195 107.542 94.3044 107.795C93.793 108.049 93.1926 108.176 92.5032 108.176ZM104.269 101.403L102.729 101.676C102.665 101.479 102.563 101.292 102.422 101.114C102.286 100.936 102.1 100.79 101.866 100.676C101.631 100.562 101.337 100.506 100.985 100.506C100.504 100.506 100.102 100.614 99.7803 100.83C99.4584 101.042 99.2974 101.316 99.2974 101.653C99.2974 101.945 99.4053 102.18 99.6213 102.358C99.8372 102.536 100.186 102.682 100.667 102.795L102.053 103.114C102.856 103.299 103.455 103.585 103.849 103.972C104.242 104.358 104.439 104.86 104.439 105.477C104.439 106 104.288 106.466 103.985 106.875C103.686 107.28 103.267 107.598 102.729 107.83C102.195 108.061 101.576 108.176 100.871 108.176C99.894 108.176 99.0966 107.968 98.4792 107.551C97.8618 107.131 97.483 106.534 97.3428 105.761L98.9849 105.511C99.0872 105.939 99.2974 106.263 99.6156 106.483C99.9338 106.699 100.349 106.807 100.86 106.807C101.417 106.807 101.862 106.691 102.195 106.46C102.528 106.225 102.695 105.939 102.695 105.602C102.695 105.33 102.593 105.1 102.388 104.915C102.188 104.729 101.879 104.589 101.462 104.494L99.9849 104.17C99.1705 103.985 98.5682 103.689 98.1781 103.284C97.7917 102.879 97.5985 102.366 97.5985 101.744C97.5985 101.229 97.7425 100.778 98.0303 100.392C98.3182 100.006 98.7159 99.7045 99.2235 99.4886C99.7311 99.2689 100.313 99.1591 100.968 99.1591C101.911 99.1591 102.653 99.3636 103.195 99.7727C103.737 100.178 104.095 100.722 104.269 101.403ZM113.576 108.165C112.796 108.165 112.123 108.023 111.559 107.739C110.998 107.455 110.567 107.068 110.264 106.58C109.961 106.087 109.809 105.53 109.809 104.909C109.809 104.436 109.908 104.015 110.104 103.648C110.301 103.277 110.576 102.934 110.928 102.619C111.281 102.305 111.688 101.989 112.15 101.67L114.025 100.347C114.343 100.138 114.591 99.9186 114.769 99.6875C114.947 99.4527 115.036 99.1629 115.036 98.8182C115.036 98.5455 114.919 98.2841 114.684 98.0341C114.449 97.7841 114.135 97.6591 113.741 97.6591C113.468 97.6591 113.228 97.7254 113.019 97.858C112.815 97.9905 112.654 98.161 112.536 98.3693C112.423 98.5739 112.366 98.7898 112.366 99.017C112.366 99.2822 112.438 99.5492 112.582 99.8182C112.729 100.087 112.919 100.366 113.15 100.653C113.381 100.937 113.623 101.233 113.877 101.54L119.281 108H117.36L112.889 102.744C112.514 102.301 112.165 101.884 111.843 101.494C111.521 101.1 111.26 100.703 111.059 100.301C110.862 99.8958 110.764 99.4583 110.764 98.9886C110.764 98.4545 110.885 97.9811 111.127 97.5682C111.373 97.1515 111.716 96.8258 112.156 96.5909C112.595 96.3561 113.11 96.2386 113.701 96.2386C114.3 96.2386 114.813 96.3561 115.241 96.5909C115.673 96.822 116.004 97.1307 116.235 97.517C116.47 97.8996 116.587 98.3182 116.587 98.7727C116.587 99.3258 116.449 99.8144 116.173 100.239C115.9 100.659 115.523 101.045 115.042 101.398L112.707 103.119C112.252 103.453 111.936 103.782 111.758 104.108C111.584 104.43 111.497 104.682 111.497 104.864C111.497 105.197 111.582 105.506 111.752 105.79C111.926 106.074 112.169 106.301 112.479 106.472C112.794 106.642 113.161 106.727 113.582 106.727C114.014 106.727 114.434 106.634 114.843 106.449C115.256 106.259 115.629 105.989 115.962 105.636C116.3 105.284 116.567 104.862 116.764 104.369C116.961 103.877 117.059 103.326 117.059 102.716H118.593C118.593 103.466 118.508 104.1 118.337 104.619C118.167 105.134 117.961 105.555 117.718 105.881C117.479 106.203 117.254 106.455 117.042 106.636C116.974 106.697 116.909 106.758 116.849 106.818C116.788 106.879 116.724 106.939 116.656 107C116.262 107.398 115.784 107.691 115.224 107.881C114.667 108.07 114.118 108.165 113.576 108.165ZM128.17 108.176C127.325 108.176 126.598 107.985 125.988 107.602C125.382 107.216 124.916 106.684 124.591 106.006C124.265 105.328 124.102 104.551 124.102 103.676C124.102 102.79 124.269 102.008 124.602 101.33C124.935 100.648 125.405 100.116 126.011 99.733C126.617 99.3504 127.331 99.1591 128.153 99.1591C128.816 99.1591 129.407 99.2822 129.926 99.5284C130.445 99.7708 130.863 100.112 131.181 100.551C131.503 100.991 131.695 101.504 131.755 102.091H130.102C130.011 101.682 129.803 101.33 129.477 101.034C129.155 100.739 128.723 100.591 128.181 100.591C127.708 100.591 127.293 100.716 126.937 100.966C126.585 101.212 126.31 101.564 126.113 102.023C125.916 102.477 125.818 103.015 125.818 103.636C125.818 104.273 125.914 104.822 126.108 105.284C126.301 105.746 126.574 106.104 126.926 106.358C127.282 106.612 127.7 106.739 128.181 106.739C128.503 106.739 128.795 106.68 129.056 106.562C129.322 106.441 129.543 106.269 129.721 106.045C129.903 105.822 130.03 105.553 130.102 105.239H131.755C131.695 105.803 131.511 106.307 131.204 106.75C130.897 107.193 130.486 107.542 129.971 107.795C129.46 108.049 128.859 108.176 128.17 108.176ZM137.072 108.176C136.254 108.176 135.54 107.989 134.93 107.614C134.32 107.239 133.847 106.714 133.51 106.04C133.173 105.366 133.004 104.578 133.004 103.676C133.004 102.771 133.173 101.979 133.51 101.301C133.847 100.623 134.32 100.097 134.93 99.7216C135.54 99.3466 136.254 99.1591 137.072 99.1591C137.89 99.1591 138.604 99.3466 139.214 99.7216C139.824 100.097 140.298 100.623 140.635 101.301C140.972 101.979 141.14 102.771 141.14 103.676C141.14 104.578 140.972 105.366 140.635 106.04C140.298 106.714 139.824 107.239 139.214 107.614C138.604 107.989 137.89 108.176 137.072 108.176ZM137.078 106.75C137.608 106.75 138.048 106.61 138.396 106.33C138.745 106.049 139.002 105.676 139.169 105.21C139.339 104.744 139.424 104.231 139.424 103.67C139.424 103.114 139.339 102.602 139.169 102.136C139.002 101.667 138.745 101.29 138.396 101.006C138.048 100.722 137.608 100.58 137.078 100.58C136.544 100.58 136.101 100.722 135.748 101.006C135.4 101.29 135.14 101.667 134.97 102.136C134.803 102.602 134.72 103.114 134.72 103.67C134.72 104.231 134.803 104.744 134.97 105.21C135.14 105.676 135.4 106.049 135.748 106.33C136.101 106.61 136.544 106.75 137.078 106.75ZM142.861 108V99.2727H144.491V100.693H144.599C144.781 100.212 145.079 99.8371 145.491 99.5682C145.904 99.2955 146.399 99.1591 146.974 99.1591C147.558 99.1591 148.046 99.2955 148.44 99.5682C148.838 99.8409 149.132 100.216 149.321 100.693H149.412C149.62 100.227 149.952 99.8561 150.406 99.5795C150.861 99.2992 151.402 99.1591 152.031 99.1591C152.823 99.1591 153.469 99.4072 153.969 99.9034C154.472 100.4 154.724 101.148 154.724 102.148V108H153.025V102.307C153.025 101.716 152.865 101.288 152.543 101.023C152.221 100.758 151.836 100.625 151.389 100.625C150.836 100.625 150.406 100.795 150.099 101.136C149.793 101.473 149.639 101.907 149.639 102.438V108H147.946V102.199C147.946 101.725 147.798 101.345 147.503 101.057C147.207 100.769 146.823 100.625 146.349 100.625C146.027 100.625 145.73 100.71 145.457 100.881C145.188 101.047 144.971 101.28 144.804 101.58C144.641 101.879 144.56 102.225 144.56 102.619V108H142.861ZM156.825 111.273V99.2727H158.484V100.688H158.626C158.725 100.506 158.867 100.295 159.053 100.057C159.238 99.8182 159.496 99.6098 159.825 99.4318C160.155 99.25 160.59 99.1591 161.132 99.1591C161.837 99.1591 162.465 99.3371 163.019 99.6932C163.572 100.049 164.005 100.562 164.32 101.233C164.638 101.903 164.797 102.71 164.797 103.653C164.797 104.597 164.64 105.405 164.325 106.08C164.011 106.75 163.579 107.267 163.03 107.631C162.481 107.991 161.854 108.17 161.149 108.17C160.619 108.17 160.185 108.081 159.848 107.903C159.515 107.725 159.253 107.517 159.064 107.278C158.875 107.04 158.729 106.828 158.626 106.642H158.524V111.273H156.825ZM158.49 103.636C158.49 104.25 158.579 104.788 158.757 105.25C158.935 105.712 159.193 106.074 159.53 106.335C159.867 106.593 160.28 106.722 160.769 106.722C161.276 106.722 161.7 106.587 162.041 106.318C162.382 106.045 162.64 105.676 162.814 105.21C162.992 104.744 163.081 104.22 163.081 103.636C163.081 103.061 162.994 102.544 162.82 102.085C162.649 101.627 162.392 101.265 162.047 101C161.706 100.735 161.28 100.602 160.769 100.602C160.276 100.602 159.859 100.729 159.519 100.983C159.181 101.237 158.926 101.591 158.751 102.045C158.577 102.5 158.49 103.03 158.49 103.636ZM168.223 96.3636V108H166.524V96.3636H168.223ZM170.333 108V99.2727H172.032V108H170.333ZM171.191 97.9261C170.895 97.9261 170.641 97.8277 170.429 97.6307C170.221 97.4299 170.117 97.1913 170.117 96.9148C170.117 96.6345 170.221 96.3958 170.429 96.1989C170.641 95.9981 170.895 95.8977 171.191 95.8977C171.486 95.8977 171.738 95.9981 171.946 96.1989C172.158 96.3958 172.265 96.6345 172.265 96.9148C172.265 97.1913 172.158 97.4299 171.946 97.6307C171.738 97.8277 171.486 97.9261 171.191 97.9261ZM176.681 108.193C176.128 108.193 175.628 108.091 175.181 107.886C174.734 107.678 174.38 107.377 174.118 106.983C173.861 106.589 173.732 106.106 173.732 105.534C173.732 105.042 173.827 104.636 174.016 104.318C174.205 104 174.461 103.748 174.783 103.562C175.105 103.377 175.465 103.237 175.863 103.142C176.26 103.047 176.666 102.975 177.079 102.926C177.601 102.866 178.026 102.816 178.351 102.778C178.677 102.737 178.914 102.67 179.062 102.58C179.209 102.489 179.283 102.341 179.283 102.136V102.097C179.283 101.6 179.143 101.216 178.863 100.943C178.586 100.67 178.173 100.534 177.624 100.534C177.052 100.534 176.601 100.661 176.272 100.915C175.946 101.165 175.721 101.443 175.596 101.75L173.999 101.386C174.188 100.856 174.465 100.428 174.829 100.102C175.196 99.7727 175.618 99.5341 176.096 99.3864C176.573 99.2348 177.075 99.1591 177.601 99.1591C177.95 99.1591 178.319 99.2008 178.709 99.2841C179.103 99.3636 179.471 99.5114 179.812 99.7273C180.156 99.9432 180.438 100.252 180.658 100.653C180.878 101.051 180.988 101.568 180.988 102.205V108H179.329V106.807H179.26C179.151 107.027 178.986 107.242 178.766 107.455C178.546 107.667 178.264 107.843 177.919 107.983C177.575 108.123 177.162 108.193 176.681 108.193ZM177.05 106.83C177.52 106.83 177.921 106.737 178.255 106.551C178.592 106.366 178.848 106.123 179.022 105.824C179.2 105.521 179.289 105.197 179.289 104.852V103.727C179.228 103.788 179.111 103.845 178.937 103.898C178.766 103.947 178.571 103.991 178.351 104.028C178.132 104.062 177.918 104.095 177.709 104.125C177.501 104.152 177.327 104.174 177.187 104.193C176.857 104.235 176.556 104.305 176.283 104.403C176.014 104.502 175.798 104.644 175.635 104.83C175.476 105.011 175.397 105.254 175.397 105.557C175.397 105.977 175.552 106.295 175.863 106.511C176.173 106.723 176.569 106.83 177.05 106.83ZM184.773 102.818V108H183.074V99.2727H184.705V100.693H184.813C185.014 100.231 185.328 99.8598 185.756 99.5795C186.188 99.2992 186.732 99.1591 187.387 99.1591C187.982 99.1591 188.502 99.2841 188.949 99.5341C189.396 99.7803 189.743 100.148 189.989 100.636C190.235 101.125 190.359 101.729 190.359 102.449V108H188.66V102.653C188.66 102.021 188.495 101.527 188.165 101.17C187.836 100.811 187.383 100.631 186.807 100.631C186.413 100.631 186.063 100.716 185.756 100.886C185.453 101.057 185.213 101.307 185.035 101.636C184.86 101.962 184.773 102.356 184.773 102.818ZM196.137 108.176C195.292 108.176 194.565 107.985 193.955 107.602C193.349 107.216 192.883 106.684 192.558 106.006C192.232 105.328 192.069 104.551 192.069 103.676C192.069 102.79 192.236 102.008 192.569 101.33C192.902 100.648 193.372 100.116 193.978 99.733C194.584 99.3504 195.298 99.1591 196.12 99.1591C196.783 99.1591 197.374 99.2822 197.893 99.5284C198.412 99.7708 198.83 100.112 199.148 100.551C199.47 100.991 199.662 101.504 199.722 102.091H198.069C197.978 101.682 197.77 101.33 197.444 101.034C197.122 100.739 196.69 100.591 196.148 100.591C195.675 100.591 195.26 100.716 194.904 100.966C194.552 101.212 194.277 101.564 194.08 102.023C193.883 102.477 193.785 103.015 193.785 103.636C193.785 104.273 193.881 104.822 194.075 105.284C194.268 105.746 194.54 106.104 194.893 106.358C195.249 106.612 195.667 106.739 196.148 106.739C196.47 106.739 196.762 106.68 197.023 106.562C197.289 106.441 197.51 106.269 197.688 106.045C197.87 105.822 197.997 105.553 198.069 105.239H199.722C199.662 105.803 199.478 106.307 199.171 106.75C198.864 107.193 198.453 107.542 197.938 107.795C197.427 108.049 196.826 108.176 196.137 108.176ZM205.124 108.176C204.265 108.176 203.524 107.992 202.903 107.625C202.285 107.254 201.808 106.733 201.471 106.062C201.138 105.388 200.971 104.598 200.971 103.693C200.971 102.799 201.138 102.011 201.471 101.33C201.808 100.648 202.278 100.116 202.88 99.733C203.486 99.3504 204.195 99.1591 205.005 99.1591C205.498 99.1591 205.975 99.2405 206.437 99.4034C206.899 99.5663 207.314 99.822 207.681 100.17C208.049 100.519 208.338 100.972 208.551 101.528C208.763 102.081 208.869 102.754 208.869 103.545V104.148H201.931V102.875H207.204C207.204 102.428 207.113 102.032 206.931 101.688C206.749 101.339 206.494 101.064 206.164 100.864C205.838 100.663 205.456 100.562 205.016 100.562C204.539 100.562 204.123 100.68 203.766 100.915C203.414 101.146 203.141 101.449 202.948 101.824C202.759 102.195 202.664 102.598 202.664 103.034V104.028C202.664 104.612 202.766 105.108 202.971 105.517C203.179 105.926 203.469 106.239 203.84 106.455C204.212 106.667 204.645 106.773 205.141 106.773C205.463 106.773 205.757 106.727 206.022 106.636C206.287 106.542 206.516 106.402 206.71 106.216C206.903 106.03 207.051 105.801 207.153 105.528L208.761 105.818C208.632 106.292 208.401 106.706 208.068 107.062C207.738 107.415 207.323 107.689 206.823 107.886C206.327 108.08 205.761 108.176 205.124 108.176Z" fill="#1E1E1E"/>
  <rect x="275" y="96" width="128" height="12" rx="6" fill="#F6F5F9"/>
  <circle cx="38" cy="154" r="10" fill="#5EB42A"/>
  <path d="M64.5325 148.364V160H62.7711V150.125H62.703L59.9189 151.943V150.261L62.8223 148.364H64.5325ZM68.6463 158.557C68.3357 158.557 68.0686 158.447 67.8451 158.227C67.6217 158.004 67.5099 157.735 67.5099 157.42C67.5099 157.11 67.6217 156.845 67.8451 156.625C68.0686 156.402 68.3357 156.29 68.6463 156.29C68.9569 156.29 69.2239 156.402 69.4474 156.625C69.6709 156.845 69.7826 157.11 69.7826 157.42C69.7826 157.629 69.7296 157.82 69.6235 157.994C69.5213 158.165 69.3849 158.301 69.2145 158.403C69.044 158.506 68.8546 158.557 68.6463 158.557ZM68.6463 152.727C68.3357 152.727 68.0686 152.617 67.8451 152.398C67.6217 152.174 67.5099 151.905 67.5099 151.591C67.5099 151.28 67.6217 151.015 67.8451 150.795C68.0686 150.572 68.3357 150.46 68.6463 150.46C68.9569 150.46 69.2239 150.572 69.4474 150.795C69.6709 151.015 69.7826 151.28 69.7826 151.591C69.7826 151.799 69.7296 151.991 69.6235 152.165C69.5213 152.335 69.3849 152.472 69.2145 152.574C69.044 152.676 68.8546 152.727 68.6463 152.727ZM76.2743 148.364V160H74.5129V150.125H74.4447L71.6606 151.943V150.261L74.564 148.364H76.2743ZM85.2191 160L82.6509 151.273H84.4066L86.1169 157.682H86.2021L87.918 151.273H89.6737L91.3782 157.653H91.4634L93.1623 151.273H94.918L92.3555 160H90.6225L88.8498 153.699H88.7191L86.9464 160H85.2191ZM96.3542 160V151.273H98.0531V160H96.3542ZM97.2122 149.926C96.9167 149.926 96.6629 149.828 96.4508 149.631C96.2425 149.43 96.1383 149.191 96.1383 148.915C96.1383 148.634 96.2425 148.396 96.4508 148.199C96.6629 147.998 96.9167 147.898 97.2122 147.898C97.5076 147.898 97.7595 147.998 97.9678 148.199C98.18 148.396 98.286 148.634 98.286 148.915C98.286 149.191 98.18 149.43 97.9678 149.631C97.7595 149.828 97.5076 149.926 97.2122 149.926ZM104.236 151.273V152.636H99.4694V151.273H104.236ZM100.748 149.182H102.447V157.438C102.447 157.767 102.496 158.015 102.594 158.182C102.693 158.345 102.82 158.456 102.975 158.517C103.134 158.574 103.307 158.602 103.492 158.602C103.628 158.602 103.748 158.593 103.85 158.574C103.952 158.555 104.032 158.54 104.089 158.528L104.396 159.932C104.297 159.97 104.157 160.008 103.975 160.045C103.793 160.087 103.566 160.11 103.293 160.114C102.846 160.121 102.43 160.042 102.043 159.875C101.657 159.708 101.344 159.451 101.106 159.102C100.867 158.754 100.748 158.316 100.748 157.79V149.182ZM107.826 154.818V160H106.127V148.364H107.803V152.693H107.911C108.116 152.223 108.428 151.85 108.849 151.574C109.269 151.297 109.818 151.159 110.497 151.159C111.095 151.159 111.618 151.282 112.065 151.528C112.515 151.775 112.864 152.142 113.11 152.631C113.36 153.116 113.485 153.722 113.485 154.449V160H111.786V154.653C111.786 154.013 111.622 153.517 111.292 153.165C110.962 152.809 110.504 152.631 109.917 152.631C109.515 152.631 109.156 152.716 108.837 152.886C108.523 153.057 108.275 153.307 108.093 153.636C107.915 153.962 107.826 154.356 107.826 154.818ZM120.708 163.273C120.455 163.273 120.224 163.252 120.015 163.21C119.807 163.172 119.652 163.131 119.549 163.085L119.958 161.693C120.269 161.777 120.546 161.813 120.788 161.801C121.03 161.79 121.244 161.699 121.43 161.528C121.619 161.358 121.786 161.08 121.93 160.693L122.14 160.114L118.947 151.273H120.765L122.975 158.045H123.066L125.277 151.273H127.1L123.504 161.165C123.337 161.619 123.125 162.004 122.868 162.318C122.61 162.636 122.303 162.875 121.947 163.034C121.591 163.193 121.178 163.273 120.708 163.273ZM131.9 160.176C131.082 160.176 130.368 159.989 129.758 159.614C129.148 159.239 128.675 158.714 128.338 158.04C128.001 157.366 127.832 156.578 127.832 155.676C127.832 154.771 128.001 153.979 128.338 153.301C128.675 152.623 129.148 152.097 129.758 151.722C130.368 151.347 131.082 151.159 131.9 151.159C132.719 151.159 133.433 151.347 134.042 151.722C134.652 152.097 135.126 152.623 135.463 153.301C135.8 153.979 135.969 154.771 135.969 155.676C135.969 156.578 135.8 157.366 135.463 158.04C135.126 158.714 134.652 159.239 134.042 159.614C133.433 159.989 132.719 160.176 131.9 160.176ZM131.906 158.75C132.436 158.75 132.876 158.61 133.224 158.33C133.573 158.049 133.83 157.676 133.997 157.21C134.167 156.744 134.253 156.231 134.253 155.67C134.253 155.114 134.167 154.602 133.997 154.136C133.83 153.667 133.573 153.29 133.224 153.006C132.876 152.722 132.436 152.58 131.906 152.58C131.372 152.58 130.929 152.722 130.576 153.006C130.228 153.29 129.969 153.667 129.798 154.136C129.631 154.602 129.548 155.114 129.548 155.67C129.548 156.231 129.631 156.744 129.798 157.21C129.969 157.676 130.228 158.049 130.576 158.33C130.929 158.61 131.372 158.75 131.906 158.75ZM143.217 156.381V151.273H144.922V160H143.251V158.489H143.16C142.96 158.955 142.638 159.343 142.195 159.653C141.755 159.96 141.208 160.114 140.552 160.114C139.992 160.114 139.496 159.991 139.064 159.744C138.636 159.494 138.299 159.125 138.052 158.636C137.81 158.148 137.689 157.544 137.689 156.824V151.273H139.388V156.619C139.388 157.214 139.552 157.687 139.882 158.04C140.212 158.392 140.64 158.568 141.166 158.568C141.484 158.568 141.801 158.489 142.115 158.33C142.433 158.17 142.696 157.93 142.905 157.608C143.117 157.286 143.221 156.877 143.217 156.381ZM147.028 160V151.273H148.671V152.659H148.761C148.921 152.189 149.201 151.82 149.602 151.551C150.008 151.278 150.466 151.142 150.977 151.142C151.083 151.142 151.208 151.146 151.352 151.153C151.5 151.161 151.616 151.17 151.699 151.182V152.807C151.631 152.788 151.51 152.767 151.335 152.744C151.161 152.718 150.987 152.705 150.813 152.705C150.411 152.705 150.053 152.79 149.739 152.96C149.428 153.127 149.182 153.36 149 153.659C148.818 153.955 148.727 154.292 148.727 154.67V160H147.028ZM157.051 160V151.273H158.682V152.693H158.79C158.972 152.212 159.269 151.837 159.682 151.568C160.095 151.295 160.589 151.159 161.165 151.159C161.748 151.159 162.237 151.295 162.631 151.568C163.029 151.841 163.322 152.216 163.512 152.693H163.603C163.811 152.227 164.142 151.856 164.597 151.58C165.051 151.299 165.593 151.159 166.222 151.159C167.014 151.159 167.659 151.407 168.159 151.903C168.663 152.4 168.915 153.148 168.915 154.148V160H167.216V154.307C167.216 153.716 167.055 153.288 166.733 153.023C166.411 152.758 166.027 152.625 165.58 152.625C165.027 152.625 164.597 152.795 164.29 153.136C163.983 153.473 163.83 153.907 163.83 154.438V160H162.137V154.199C162.137 153.725 161.989 153.345 161.694 153.057C161.398 152.769 161.014 152.625 160.54 152.625C160.218 152.625 159.921 152.71 159.648 152.881C159.379 153.047 159.161 153.28 158.995 153.58C158.832 153.879 158.75 154.225 158.75 154.619V160H157.051ZM173.556 160.193C173.003 160.193 172.503 160.091 172.056 159.886C171.609 159.678 171.255 159.377 170.993 158.983C170.736 158.589 170.607 158.106 170.607 157.534C170.607 157.042 170.702 156.636 170.891 156.318C171.08 156 171.336 155.748 171.658 155.562C171.98 155.377 172.34 155.237 172.738 155.142C173.135 155.047 173.541 154.975 173.954 154.926C174.476 154.866 174.901 154.816 175.226 154.778C175.552 154.737 175.789 154.67 175.937 154.58C176.084 154.489 176.158 154.341 176.158 154.136V154.097C176.158 153.6 176.018 153.216 175.738 152.943C175.461 152.67 175.048 152.534 174.499 152.534C173.927 152.534 173.476 152.661 173.147 152.915C172.821 153.165 172.596 153.443 172.471 153.75L170.874 153.386C171.063 152.856 171.34 152.428 171.704 152.102C172.071 151.773 172.493 151.534 172.971 151.386C173.448 151.235 173.95 151.159 174.476 151.159C174.825 151.159 175.194 151.201 175.584 151.284C175.978 151.364 176.346 151.511 176.687 151.727C177.031 151.943 177.313 152.252 177.533 152.653C177.753 153.051 177.863 153.568 177.863 154.205V160H176.204V158.807H176.135C176.026 159.027 175.861 159.242 175.641 159.455C175.421 159.667 175.139 159.843 174.794 159.983C174.45 160.123 174.037 160.193 173.556 160.193ZM173.925 158.83C174.395 158.83 174.796 158.737 175.13 158.551C175.467 158.366 175.723 158.123 175.897 157.824C176.075 157.521 176.164 157.197 176.164 156.852V155.727C176.103 155.788 175.986 155.845 175.812 155.898C175.641 155.947 175.446 155.991 175.226 156.028C175.007 156.062 174.793 156.095 174.584 156.125C174.376 156.152 174.202 156.174 174.062 156.193C173.732 156.235 173.431 156.305 173.158 156.403C172.889 156.502 172.673 156.644 172.51 156.83C172.351 157.011 172.272 157.254 172.272 157.557C172.272 157.977 172.427 158.295 172.738 158.511C173.048 158.723 173.444 158.83 173.925 158.83ZM181.648 154.818V160H179.949V151.273H181.58V152.693H181.688C181.889 152.231 182.203 151.86 182.631 151.58C183.063 151.299 183.607 151.159 184.262 151.159C184.857 151.159 185.377 151.284 185.824 151.534C186.271 151.78 186.618 152.148 186.864 152.636C187.11 153.125 187.234 153.729 187.234 154.449V160H185.535V154.653C185.535 154.021 185.37 153.527 185.04 153.17C184.711 152.811 184.258 152.631 183.682 152.631C183.288 152.631 182.938 152.716 182.631 152.886C182.328 153.057 182.088 153.307 181.91 153.636C181.735 153.962 181.648 154.356 181.648 154.818ZM191.876 160.193C191.323 160.193 190.823 160.091 190.376 159.886C189.929 159.678 189.575 159.377 189.313 158.983C189.056 158.589 188.927 158.106 188.927 157.534C188.927 157.042 189.022 156.636 189.211 156.318C189.4 156 189.656 155.748 189.978 155.562C190.3 155.377 190.66 155.237 191.058 155.142C191.455 155.047 191.861 154.975 192.273 154.926C192.796 154.866 193.22 154.816 193.546 154.778C193.872 154.737 194.109 154.67 194.256 154.58C194.404 154.489 194.478 154.341 194.478 154.136V154.097C194.478 153.6 194.338 153.216 194.058 152.943C193.781 152.67 193.368 152.534 192.819 152.534C192.247 152.534 191.796 152.661 191.467 152.915C191.141 153.165 190.915 153.443 190.79 153.75L189.194 153.386C189.383 152.856 189.66 152.428 190.023 152.102C190.391 151.773 190.813 151.534 191.29 151.386C191.768 151.235 192.27 151.159 192.796 151.159C193.145 151.159 193.514 151.201 193.904 151.284C194.298 151.364 194.665 151.511 195.006 151.727C195.351 151.943 195.633 152.252 195.853 152.653C196.073 153.051 196.183 153.568 196.183 154.205V160H194.523V158.807H194.455C194.345 159.027 194.181 159.242 193.961 159.455C193.741 159.667 193.459 159.843 193.114 159.983C192.77 160.123 192.357 160.193 191.876 160.193ZM192.245 158.83C192.715 158.83 193.116 158.737 193.45 158.551C193.787 158.366 194.042 158.123 194.217 157.824C194.395 157.521 194.484 157.197 194.484 156.852V155.727C194.423 155.788 194.306 155.845 194.131 155.898C193.961 155.947 193.766 155.991 193.546 156.028C193.326 156.062 193.112 156.095 192.904 156.125C192.696 156.152 192.522 156.174 192.381 156.193C192.052 156.235 191.751 156.305 191.478 156.403C191.209 156.502 190.993 156.644 190.83 156.83C190.671 157.011 190.592 157.254 190.592 157.557C190.592 157.977 190.747 158.295 191.058 158.511C191.368 158.723 191.764 158.83 192.245 158.83ZM201.928 163.455C201.235 163.455 200.639 163.364 200.139 163.182C199.642 163 199.237 162.759 198.923 162.46C198.608 162.161 198.374 161.833 198.218 161.477L199.678 160.875C199.781 161.042 199.917 161.218 200.088 161.403C200.262 161.593 200.497 161.754 200.792 161.886C201.091 162.019 201.476 162.085 201.945 162.085C202.589 162.085 203.122 161.928 203.542 161.614C203.963 161.303 204.173 160.807 204.173 160.125V158.409H204.065C203.963 158.595 203.815 158.801 203.622 159.028C203.432 159.256 203.171 159.453 202.838 159.619C202.504 159.786 202.07 159.869 201.536 159.869C200.847 159.869 200.226 159.708 199.673 159.386C199.124 159.061 198.688 158.581 198.366 157.949C198.048 157.312 197.889 156.53 197.889 155.602C197.889 154.674 198.046 153.879 198.36 153.216C198.678 152.553 199.114 152.045 199.667 151.693C200.22 151.337 200.847 151.159 201.548 151.159C202.089 151.159 202.527 151.25 202.86 151.432C203.194 151.61 203.453 151.818 203.639 152.057C203.828 152.295 203.974 152.506 204.076 152.688H204.201V151.273H205.866V160.193C205.866 160.943 205.692 161.559 205.343 162.04C204.995 162.521 204.523 162.877 203.928 163.108C203.338 163.339 202.671 163.455 201.928 163.455ZM201.911 158.46C202.4 158.46 202.813 158.347 203.15 158.119C203.491 157.888 203.749 157.559 203.923 157.131C204.101 156.699 204.19 156.182 204.19 155.58C204.19 154.992 204.103 154.475 203.928 154.028C203.754 153.581 203.499 153.233 203.161 152.983C202.824 152.729 202.408 152.602 201.911 152.602C201.4 152.602 200.974 152.735 200.633 153C200.292 153.261 200.034 153.617 199.86 154.068C199.69 154.519 199.605 155.023 199.605 155.58C199.605 156.152 199.692 156.653 199.866 157.085C200.04 157.517 200.298 157.854 200.639 158.097C200.983 158.339 201.408 158.46 201.911 158.46ZM211.73 160.176C210.87 160.176 210.129 159.992 209.508 159.625C208.891 159.254 208.413 158.733 208.076 158.062C207.743 157.388 207.576 156.598 207.576 155.693C207.576 154.799 207.743 154.011 208.076 153.33C208.413 152.648 208.883 152.116 209.485 151.733C210.091 151.35 210.8 151.159 211.61 151.159C212.103 151.159 212.58 151.241 213.042 151.403C213.504 151.566 213.919 151.822 214.287 152.17C214.654 152.519 214.944 152.972 215.156 153.528C215.368 154.081 215.474 154.754 215.474 155.545V156.148H208.537V154.875H213.809C213.809 154.428 213.718 154.032 213.537 153.688C213.355 153.339 213.099 153.064 212.769 152.864C212.444 152.663 212.061 152.562 211.622 152.562C211.144 152.562 210.728 152.68 210.372 152.915C210.019 153.146 209.747 153.449 209.554 153.824C209.364 154.195 209.269 154.598 209.269 155.034V156.028C209.269 156.612 209.372 157.108 209.576 157.517C209.785 157.926 210.074 158.239 210.446 158.455C210.817 158.667 211.251 158.773 211.747 158.773C212.069 158.773 212.362 158.727 212.627 158.636C212.893 158.542 213.122 158.402 213.315 158.216C213.508 158.03 213.656 157.801 213.758 157.528L215.366 157.818C215.237 158.292 215.006 158.706 214.673 159.062C214.343 159.415 213.929 159.689 213.429 159.886C212.932 160.08 212.366 160.176 211.73 160.176ZM217.183 160V151.273H218.825V152.659H218.916C219.075 152.189 219.355 151.82 219.757 151.551C220.162 151.278 220.62 151.142 221.132 151.142C221.238 151.142 221.363 151.146 221.507 151.153C221.655 151.161 221.77 151.17 221.853 151.182V152.807C221.785 152.788 221.664 152.767 221.49 152.744C221.316 152.718 221.141 152.705 220.967 152.705C220.566 152.705 220.208 152.79 219.893 152.96C219.583 153.127 219.336 153.36 219.155 153.659C218.973 153.955 218.882 154.292 218.882 154.67V160H217.183Z" fill="#1E1E1E"/>
  <circle cx="38" cy="204" r="10" fill="#F6F5F9"/>
  <rect x="58.9984" y="198" width="170" height="12" rx="6" fill="#F6F5F9"/>
  <rect x="222" y="210" width="250" height="64.9412" rx="11.7647" fill="#2C7600"/>
  <path d="M248.706 243.059L252.165 246.589L260.235 238.354" stroke="white" stroke-width="1.5" stroke-linecap="round" stroke-linejoin="round"/>
  <path d="M254.471 256.196C262.051 256.196 268.196 250.051 268.196 242.471C268.196 234.89 262.051 228.745 254.471 228.745C246.89 228.745 240.745 234.89 240.745 242.471C240.745 250.051 246.89 256.196 254.471 256.196Z" stroke="white" stroke-width="1.5" stroke-linecap="round" stroke-linejoin="round"/>
  <path d="M285.766 243.205C285.658 245.689 287.422 247.741 290.464 247.741C293.2 247.741 294.982 245.959 294.982 243.349C294.982 240.847 293.236 239.155 290.698 239.155C289.816 239.155 289.042 239.389 288.34 239.857L288.718 236.509H294.388V234.871H287.188L286.468 241.423L288.034 241.891C288.664 241.081 289.402 240.703 290.554 240.703C292.192 240.703 293.272 241.747 293.272 243.349C293.272 245.005 292.21 246.103 290.464 246.103C288.52 246.103 287.422 244.825 287.494 242.953L285.766 243.205ZM296.102 247.471H297.812L302.402 234.871H300.692L296.102 247.471ZM303.184 238.669H305.794V247.471H307.504V234.871H305.758C305.758 236.311 304.894 237.229 303.184 237.229V238.669ZM309.412 243.511C309.304 245.815 310.942 247.741 313.912 247.741C316.99 247.741 318.664 245.833 318.664 243.655C318.664 242.305 317.98 241.189 316.684 240.523C317.566 239.875 318.016 238.939 318.016 237.841C318.016 236.059 316.612 234.601 313.93 234.601C311.428 234.601 309.934 236.167 309.898 238.183L311.626 238.453C311.608 237.211 312.418 236.257 313.948 236.257C315.442 236.257 316.306 236.923 316.306 238.003C316.306 239.101 315.496 239.857 313.912 239.857L312.796 239.875V241.459H313.984C315.802 241.459 316.9 242.233 316.9 243.655C316.9 245.149 315.748 246.103 313.93 246.103C312.148 246.103 311.212 245.095 311.212 243.583C311.212 243.421 311.212 243.313 311.23 243.241L309.412 243.511ZM324.203 240.307H325.787V244.447C325.787 246.481 327.047 247.741 329.117 247.741C330.917 247.741 332.303 246.391 332.195 244.321L330.557 244.159C330.629 245.383 330.053 246.175 329.063 246.175C328.073 246.175 327.497 245.581 327.497 244.483V240.307H331.889V238.795H327.497V236.203H325.787V238.795H324.203V240.307ZM336.648 242.251C334.47 242.611 333.372 243.493 333.372 245.149C333.372 246.445 334.362 247.741 336.342 247.741C337.512 247.741 338.34 247.201 338.826 246.391V247.471H340.428V241.621C340.428 239.695 339.168 238.507 336.882 238.507C334.902 238.507 333.3 239.713 333.408 241.909L335.028 242.035L335.01 241.783C335.01 240.685 335.712 239.983 336.918 239.983C338.142 239.983 338.808 240.613 338.808 241.531V241.891L336.648 242.251ZM336.666 246.193C335.64 246.193 334.992 245.707 334.992 244.969C334.992 244.159 335.73 243.799 336.9 243.583L338.808 243.277V243.781C338.808 245.221 337.908 246.193 336.666 246.193ZM341.978 244.393C342.14 245.383 342.59 246.193 343.292 246.823C343.994 247.435 344.876 247.741 345.902 247.741C346.946 247.741 347.792 247.471 348.44 246.949C349.106 246.427 349.43 245.725 349.43 244.879C349.43 243.241 348.26 242.305 345.938 242.071C344.66 241.945 344.282 241.603 344.282 241.009C344.282 240.451 344.876 240.109 345.758 240.109C346.676 240.109 347.36 240.667 347.576 241.621L349.07 241.153C348.692 239.551 347.342 238.525 345.758 238.525C343.94 238.525 342.572 239.587 342.572 241.027C342.572 242.557 343.616 243.511 345.722 243.727C347.216 243.889 347.738 244.321 347.738 244.951C347.738 245.671 347.054 246.157 345.902 246.157C344.624 246.157 343.796 245.329 343.598 244.087L341.978 244.393ZM350.975 247.471H352.685V244.465L353.531 243.619L356.501 247.471H358.589L354.737 242.431L358.391 238.795H356.177L352.685 242.269V234.871H350.975V247.471ZM358.783 244.393C358.945 245.383 359.395 246.193 360.097 246.823C360.799 247.435 361.681 247.741 362.707 247.741C363.751 247.741 364.597 247.471 365.245 246.949C365.911 246.427 366.235 245.725 366.235 244.879C366.235 243.241 365.065 242.305 362.743 242.071C361.465 241.945 361.087 241.603 361.087 241.009C361.087 240.451 361.681 240.109 362.563 240.109C363.481 240.109 364.165 240.667 364.381 241.621L365.875 241.153C365.497 239.551 364.147 238.525 362.563 238.525C360.745 238.525 359.377 239.587 359.377 241.027C359.377 242.557 360.421 243.511 362.527 243.727C364.021 243.889 364.543 244.321 364.543 244.951C364.543 245.671 363.859 246.157 362.707 246.157C361.429 246.157 360.601 245.329 360.403 244.087L358.783 244.393ZM376.061 238.525C373.487 238.525 371.741 240.523 371.741 243.151C371.741 245.797 373.541 247.741 376.187 247.741C378.311 247.741 380.057 246.301 380.273 244.321L378.653 243.925C378.527 245.221 377.465 246.103 376.151 246.103C374.549 246.103 373.451 244.861 373.451 243.007C373.451 241.441 374.531 240.163 376.061 240.163C377.267 240.163 378.113 240.883 378.275 241.963L379.841 241.441C379.463 239.659 378.023 238.525 376.061 238.525ZM385.768 238.525C383.122 238.525 381.25 240.577 381.25 243.151C381.25 245.743 383.122 247.741 385.768 247.741C388.396 247.741 390.232 245.743 390.232 243.151C390.232 240.577 388.378 238.525 385.768 238.525ZM385.75 246.103C384.148 246.103 382.96 244.825 382.96 243.151C382.96 241.441 384.148 240.163 385.75 240.163C387.37 240.163 388.522 241.441 388.522 243.151C388.522 243.997 388.252 244.717 387.73 245.275C387.208 245.833 386.56 246.103 385.75 246.103ZM391.914 247.471H393.57V242.611C393.57 240.955 394.254 240.073 395.334 240.073C396.324 240.073 396.774 240.595 396.774 241.873V247.471H398.412L398.376 242.377C398.448 240.865 399.114 240.073 400.14 240.073C401.13 240.073 401.58 240.595 401.58 241.873V247.471H403.236L403.2 241.459C403.2 239.515 402.282 238.525 400.644 238.525C399.51 238.525 398.664 239.083 398.16 240.073C397.8 239.065 396.972 238.525 395.802 238.525C394.812 238.525 394.056 239.011 393.57 239.821V238.813H391.914V247.471ZM405.397 251.521H407.107V246.301C407.809 247.219 408.817 247.741 410.131 247.741C412.507 247.741 414.217 245.707 414.217 243.133C414.217 240.559 412.507 238.525 410.131 238.525C408.817 238.525 407.809 239.047 407.107 239.965V238.795H405.397V251.521ZM409.789 246.103C408.223 246.103 407.107 244.825 407.107 243.133C407.107 242.269 407.359 241.567 407.863 241.009C408.367 240.451 409.015 240.163 409.789 240.163C410.599 240.163 411.247 240.451 411.751 241.009C412.255 241.567 412.507 242.269 412.507 243.133C412.507 243.997 412.255 244.717 411.733 245.275C411.229 245.833 410.581 246.103 409.789 246.103ZM415.891 247.471H417.601V234.871H415.891V247.471ZM423.52 238.525C420.982 238.525 419.254 240.523 419.254 243.151C419.254 245.797 421 247.741 423.61 247.741C425.68 247.741 427.372 246.427 427.66 244.501L426.04 244.213C425.878 245.419 424.87 246.211 423.646 246.211C422.116 246.211 421.018 245.131 420.856 243.457H427.408V242.629C427.408 240.235 425.878 238.525 423.52 238.525ZM420.946 242.089C421.252 240.847 422.242 240.019 423.52 240.019C424.888 240.019 425.788 240.919 425.842 242.089H420.946ZM428.476 240.307H430.06V244.447C430.06 246.481 431.32 247.741 433.39 247.741C435.19 247.741 436.576 246.391 436.468 244.321L434.83 244.159C434.902 245.383 434.326 246.175 433.336 246.175C432.346 246.175 431.77 245.581 431.77 244.483V240.307H436.162V238.795H431.77V236.203H430.06V238.795H428.476V240.307ZM441.714 238.525C439.176 238.525 437.448 240.523 437.448 243.151C437.448 245.797 439.194 247.741 441.804 247.741C443.874 247.741 445.566 246.427 445.854 244.501L444.234 244.213C444.072 245.419 443.064 246.211 441.84 246.211C440.31 246.211 439.212 245.131 439.05 243.457H445.602V242.629C445.602 240.235 444.072 238.525 441.714 238.525ZM439.14 242.089C439.446 240.847 440.436 240.019 441.714 240.019C443.082 240.019 443.982 240.919 444.036 242.089H439.14ZM451.131 238.525C448.755 238.525 447.045 240.559 447.045 243.133C447.045 245.707 448.755 247.741 451.131 247.741C452.445 247.741 453.453 247.219 454.155 246.301V247.471H455.865V234.871H454.155V239.965C453.453 239.047 452.427 238.525 451.131 238.525ZM451.473 246.103C450.663 246.103 450.015 245.833 449.511 245.275C449.007 244.717 448.755 243.997 448.755 243.133C448.755 242.269 449.007 241.567 449.511 241.009C450.033 240.451 450.681 240.163 451.473 240.163C453.039 240.163 454.155 241.441 454.155 243.133C454.155 243.997 453.903 244.717 453.399 245.275C452.895 245.833 452.247 246.103 451.473 246.103Z" fill="white"/>
  </svg>
  