<svg width="130" height="141" viewBox="0 0 130 141" fill="none" xmlns="http://www.w3.org/2000/svg">
  <path d="M95.0663 64.7407C84.6248 53.7202 62.3865 30.6419 56.9644 26.4931C50.1869 21.307 43.2254 28.3792 47.8888 38.3538C39.1663 31.7484 20.2762 20.3455 14.4948 27.5768C8.71353 34.8082 12.646 38.3201 15.3349 39.1721C9.06574 39.1281 1.12293 42.9317 6.44491 53.3688L18.0316 60.7642C14.4979 59.5757 6.78093 57.8589 4.18198 60.4993C0.933286 63.7996 -0.908337 67.5567 4.07906 71.1664C9.06645 74.776 24.441 78.5843 28.5812 81.5457C31.8934 83.9148 48.8108 99.8493 56.8555 107.52C65.9583 99.0902 86.3442 78.7319 95.0663 64.7407Z" fill="#FFC49A"/>
  <path d="M47.8888 38.3538C43.2254 28.3792 50.1869 21.307 56.9644 26.4931C62.3865 30.6419 84.6248 53.7202 95.0663 64.7407C86.3442 78.7319 65.9583 99.0902 56.8555 107.52C48.8108 99.8493 31.8934 83.9148 28.5812 81.5457C24.441 78.5843 9.06645 74.776 4.07906 71.1664C-0.908337 67.5567 0.933286 63.7996 4.18198 60.4993C6.78093 57.8589 14.4979 59.5757 18.0316 60.7642M47.8888 38.3538C39.1663 31.7484 20.2762 20.3455 14.4948 27.5768C8.71353 34.8082 12.646 38.3201 15.3349 39.1721M47.8888 38.3538C48.7532 41.1851 51.257 47.8333 54.3571 51.776C54.8041 57.0432 56.3037 68.4337 58.726 71.8578M15.3349 39.1721C9.06574 39.1281 1.12293 42.9317 6.44491 53.3688L18.0316 60.7642M15.3349 39.1721C21.6655 43.0519 37.3737 52.5882 41.5817 54.6508M18.0316 60.7642C21.6659 62.8563 30.309 67.5845 32.7076 68.0147M41.5817 54.6508C37.7045 58.6968 34.4305 64.114 32.7076 68.0147M41.5817 54.6508C42.7377 53.4445 43.9473 52.3601 45.1854 51.4741M32.7076 68.0147C31.8175 70.0299 31.3414 71.6403 31.4099 72.4477" stroke="#2C0F68" stroke-linecap="round" stroke-linejoin="round"/>
  <path d="M43.5 94.5L33 85.5L32 85H47.5C49.878 85 51.3135 84.6466 52.1217 84.2549C52.4094 84 52.7023 83.7481 53 83.5C52.9324 83.7027 52.673 83.9877 52.1217 84.2549C47.7708 88.1087 44.5943 92.624 43.5 94.5Z" fill="#2C0F68"/>
  <rect x="13.207" y="1" width="42.6627" height="83.9922" rx="6.67109" fill="#DDCDFF" stroke="#2C0F68" stroke-linecap="round" stroke-linejoin="round"/>
  <rect x="18.2734" y="7.13281" width="32.5303" height="71.46" rx="0.833886" fill="white" stroke="#2C0F68" stroke-linecap="round" stroke-linejoin="round"/>
  <path d="M30.2462 52.4968C30.9761 53.2389 32.1725 53.2389 32.9025 52.4968L43.9184 41.2977C44.5807 40.6244 44.5807 39.5444 43.9184 38.8711C43.2405 38.1819 42.1293 38.1819 41.4514 38.8711L32.1896 48.2869C31.8514 48.6307 31.2972 48.6307 30.9591 48.2869L27.631 44.9035C26.9531 44.2143 25.8419 44.2143 25.164 44.9035C24.5017 45.5768 24.5017 46.6568 25.164 47.3301L30.2462 52.4968Z" fill="#B8F592" stroke="#2C0F68" stroke-linecap="round" stroke-linejoin="round"/>
  <path d="M56.9636 26.4931C62.3856 30.6419 84.624 53.7202 95.0654 64.7407C86.3434 78.7319 65.9574 99.0902 56.8547 107.52L58.7252 71.8578C56.3029 68.4337 54.8033 57.0432 54.3563 51.776C51.2562 47.8333 48.7524 41.1851 47.8879 38.3538C43.2246 28.3792 50.186 21.307 56.9636 26.4931Z" fill="#FFC49A"/>
  <path d="M56.8547 107.52C65.9574 99.0902 86.3434 78.7319 95.0654 64.7407C84.624 53.7202 62.3856 30.6419 56.9636 26.4931C50.186 21.307 43.2246 28.3792 47.8879 38.3538C48.7524 41.1851 51.2562 47.8333 54.3563 51.776C54.8033 57.0432 56.3029 68.4337 58.7252 71.8578" stroke="#2C0F68" stroke-linecap="round" stroke-linejoin="round"/>
  <path d="M51.424 93.9492C60.5348 84.2687 84.7253 59.4893 97.6247 63.0846C102.517 64.448 114.449 73.6191 127.729 84.8549C135.728 98.1838 112.575 121.075 99.9981 130.855C88.7992 142.16 79.058 140.009 75.5872 137.521C63.4816 122.692 54.115 110.535 51.3328 107.671C46.1519 102.339 49.2349 96.3015 51.424 93.9492Z" fill="#B8F592" stroke="#2C0F68" stroke-linecap="round" stroke-linejoin="round"/>
  </svg>
  