<svg width="472" height="303" viewBox="0 0 472 303" fill="none" xmlns="http://www.w3.org/2000/svg">
  <rect x="0.5" y="0.5" width="471" height="302" rx="11.5" fill="white"/>
  <path d="M25.608 46H27.888L27.936 32.32L37.296 46H40.032V29.2H37.752V42.664L28.536 29.2H25.608V46ZM47.865 34.072C44.481 34.072 42.177 36.736 42.177 40.24C42.177 43.768 44.505 46.36 47.985 46.36C50.745 46.36 53.001 44.608 53.385 42.04L51.225 41.656C51.009 43.264 49.665 44.32 48.033 44.32C45.993 44.32 44.529 42.88 44.313 40.648H53.049V39.544C53.049 36.352 51.009 34.072 47.865 34.072ZM44.433 38.824C44.841 37.168 46.161 36.064 47.865 36.064C49.689 36.064 50.889 37.264 50.961 38.824H44.433ZM54.1658 34.432L57.7178 46H59.9978L62.4698 37.864L64.9418 46H67.1738L70.7738 34.432H68.4938L66.0218 42.784L63.5018 34.432H61.4138L58.8938 42.76L56.4218 34.432H54.1658ZM83.2622 34.072C79.8782 34.072 77.5742 36.736 77.5742 40.24C77.5742 43.768 79.9022 46.36 83.3822 46.36C86.1422 46.36 88.3982 44.608 88.7822 42.04L86.6222 41.656C86.4062 43.264 85.0622 44.32 83.4302 44.32C81.3902 44.32 79.9262 42.88 79.7102 40.648H88.4462V39.544C88.4462 36.352 86.4062 34.072 83.2622 34.072ZM79.8302 38.824C80.2382 37.168 81.5582 36.064 83.2622 36.064C85.0862 36.064 86.2862 37.264 86.3582 38.824H79.8302ZM90.7791 46H92.9871V39.52C92.9871 37.312 93.8991 36.136 95.3391 36.136C96.6591 36.136 97.2591 36.832 97.2591 38.536V46H99.4431L99.3951 39.208C99.4911 37.192 100.379 36.136 101.747 36.136C103.067 36.136 103.667 36.832 103.667 38.536V46H105.875L105.827 37.984C105.827 35.392 104.603 34.072 102.419 34.072C100.907 34.072 99.7791 34.816 99.1071 36.136C98.6271 34.792 97.5231 34.072 95.9631 34.072C94.6431 34.072 93.6351 34.72 92.9871 35.8V34.456H90.7791V46ZM108.516 51.4H110.796V44.44C111.732 45.664 113.076 46.36 114.828 46.36C117.996 46.36 120.276 43.648 120.276 40.216C120.276 36.784 117.996 34.072 114.828 34.072C113.076 34.072 111.732 34.768 110.796 35.992V34.432H108.516V51.4ZM114.372 44.176C112.284 44.176 110.796 42.472 110.796 40.216C110.796 39.064 111.132 38.128 111.804 37.384C112.476 36.64 113.34 36.256 114.372 36.256C115.452 36.256 116.316 36.64 116.988 37.384C117.66 38.128 117.996 39.064 117.996 40.216C117.996 41.368 117.66 42.328 116.964 43.072C116.292 43.816 115.428 44.176 114.372 44.176ZM122.268 46H124.548V29.2H122.268V46ZM132.537 34.072C129.009 34.072 126.513 36.808 126.513 40.24C126.513 43.696 129.009 46.36 132.537 46.36C136.041 46.36 138.489 43.696 138.489 40.24C138.489 36.808 136.017 34.072 132.537 34.072ZM132.513 44.176C130.377 44.176 128.793 42.472 128.793 40.24C128.793 37.96 130.377 36.256 132.513 36.256C134.673 36.256 136.209 37.96 136.209 40.24C136.209 41.368 135.849 42.328 135.153 43.072C134.457 43.816 133.593 44.176 132.513 44.176ZM139.699 46.768C139.555 49.768 141.811 51.736 144.907 51.736C148.315 51.736 150.691 49.216 150.691 45.784V34.432H148.411V40.048C148.411 42.328 147.187 43.744 145.363 43.744C143.635 43.744 142.771 42.784 142.771 40.864V34.432H140.491L140.515 41.32C140.515 44.104 142.051 45.784 144.643 45.808C146.275 45.784 147.523 45.208 148.411 44.056V45.88C148.411 48.208 147.019 49.72 144.907 49.72C143.059 49.72 141.763 48.52 141.883 46.48L139.699 46.768ZM158.369 34.072C154.985 34.072 152.681 36.736 152.681 40.24C152.681 43.768 155.009 46.36 158.489 46.36C161.249 46.36 163.505 44.608 163.889 42.04L161.729 41.656C161.513 43.264 160.169 44.32 158.537 44.32C156.497 44.32 155.033 42.88 154.817 40.648H163.553V39.544C163.553 36.352 161.513 34.072 158.369 34.072ZM154.937 38.824C155.345 37.168 156.665 36.064 158.369 36.064C160.193 36.064 161.393 37.264 161.465 38.824H154.937ZM170.926 34.072C167.542 34.072 165.238 36.736 165.238 40.24C165.238 43.768 167.566 46.36 171.046 46.36C173.806 46.36 176.062 44.608 176.446 42.04L174.286 41.656C174.07 43.264 172.726 44.32 171.094 44.32C169.054 44.32 167.59 42.88 167.374 40.648H176.11V39.544C176.11 36.352 174.07 34.072 170.926 34.072ZM167.494 38.824C167.902 37.168 169.222 36.064 170.926 36.064C172.75 36.064 173.95 37.264 174.022 38.824H167.494Z" fill="#34343D"/>
  <path d="M34.7727 81H33.3636C33.2803 80.5947 33.1345 80.2386 32.9261 79.9318C32.7216 79.625 32.4716 79.3674 32.1761 79.1591C31.8845 78.947 31.5606 78.7879 31.2045 78.6818C30.8485 78.5758 30.4773 78.5227 30.0909 78.5227C29.3864 78.5227 28.7481 78.7008 28.1761 79.0568C27.608 79.4129 27.1553 79.9375 26.8182 80.6307C26.4848 81.3239 26.3182 82.1742 26.3182 83.1818C26.3182 84.1894 26.4848 85.0398 26.8182 85.733C27.1553 86.4261 27.608 86.9508 28.1761 87.3068C28.7481 87.6629 29.3864 87.8409 30.0909 87.8409C30.4773 87.8409 30.8485 87.7879 31.2045 87.6818C31.5606 87.5758 31.8845 87.4186 32.1761 87.2102C32.4716 86.9981 32.7216 86.7386 32.9261 86.4318C33.1345 86.1212 33.2803 85.7652 33.3636 85.3636H34.7727C34.6667 85.9583 34.4735 86.4905 34.1932 86.9602C33.9129 87.4299 33.5644 87.8295 33.1477 88.1591C32.7311 88.4848 32.2633 88.733 31.7443 88.9034C31.2292 89.0739 30.678 89.1591 30.0909 89.1591C29.0985 89.1591 28.2159 88.9167 27.4432 88.4318C26.6705 87.947 26.0625 87.2576 25.6193 86.3636C25.1761 85.4697 24.9545 84.4091 24.9545 83.1818C24.9545 81.9545 25.1761 80.8939 25.6193 80C26.0625 79.1061 26.6705 78.4167 27.4432 77.9318C28.2159 77.447 29.0985 77.2045 30.0909 77.2045C30.678 77.2045 31.2292 77.2898 31.7443 77.4602C32.2633 77.6307 32.7311 77.8807 33.1477 78.2102C33.5644 78.536 33.9129 78.9337 34.1932 79.4034C34.4735 79.8693 34.6667 80.4015 34.7727 81ZM42.3679 85.4318V80.2727H43.7088V89H42.3679V87.5227H42.277C42.0724 87.9659 41.7543 88.3428 41.3224 88.6534C40.8906 88.9602 40.3452 89.1136 39.6861 89.1136C39.1406 89.1136 38.6558 88.9943 38.2315 88.7557C37.8073 88.5133 37.474 88.1496 37.2315 87.6648C36.9891 87.1761 36.8679 86.5606 36.8679 85.8182V80.2727H38.2088V85.7273C38.2088 86.3636 38.3868 86.8712 38.7429 87.25C39.1027 87.6288 39.5611 87.8182 40.1179 87.8182C40.4512 87.8182 40.7902 87.733 41.1349 87.5625C41.4834 87.392 41.7751 87.1307 42.0099 86.7784C42.2486 86.4261 42.3679 85.9773 42.3679 85.4318ZM52.3466 82.2273L51.142 82.5682C51.0663 82.3674 50.9545 82.1723 50.8068 81.983C50.6629 81.7898 50.4659 81.6307 50.2159 81.5057C49.9659 81.3807 49.6458 81.3182 49.2557 81.3182C48.7216 81.3182 48.2765 81.4413 47.9205 81.6875C47.5682 81.9299 47.392 82.2386 47.392 82.6136C47.392 82.947 47.5133 83.2102 47.7557 83.4034C47.9981 83.5966 48.3769 83.7576 48.892 83.8864L50.1875 84.2045C50.9678 84.3939 51.5492 84.6837 51.9318 85.0739C52.3144 85.4602 52.5057 85.9583 52.5057 86.5682C52.5057 87.0682 52.3617 87.5152 52.0739 87.9091C51.7898 88.303 51.392 88.6136 50.8807 88.8409C50.3693 89.0682 49.7746 89.1818 49.0966 89.1818C48.2064 89.1818 47.4697 88.9886 46.8864 88.6023C46.303 88.2159 45.9337 87.6515 45.7784 86.9091L47.0511 86.5909C47.1723 87.0606 47.4015 87.4129 47.7386 87.6477C48.0795 87.8826 48.5246 88 49.0739 88C49.6989 88 50.1951 87.8674 50.5625 87.6023C50.9337 87.3333 51.1193 87.0114 51.1193 86.6364C51.1193 86.3333 51.0133 86.0795 50.8011 85.875C50.589 85.6667 50.2633 85.5114 49.8239 85.4091L48.3693 85.0682C47.5701 84.8788 46.983 84.5852 46.608 84.1875C46.2367 83.786 46.0511 83.2841 46.0511 82.6818C46.0511 82.1894 46.1894 81.7538 46.4659 81.375C46.7462 80.9962 47.1269 80.6989 47.608 80.483C48.0928 80.267 48.642 80.1591 49.2557 80.1591C50.1193 80.1591 50.7973 80.3485 51.2898 80.7273C51.786 81.1061 52.1383 81.6061 52.3466 82.2273ZM58.3196 80.2727V81.4091H53.7969V80.2727H58.3196ZM55.1151 78.1818H56.456V86.5C56.456 86.8788 56.5109 87.1629 56.6207 87.3523C56.7344 87.5379 56.8783 87.6629 57.0526 87.7273C57.2306 87.7879 57.4181 87.8182 57.6151 87.8182C57.7628 87.8182 57.884 87.8106 57.9787 87.7955C58.0734 87.7765 58.1491 87.7614 58.206 87.75L58.4787 88.9545C58.3878 88.9886 58.2609 89.0227 58.098 89.0568C57.9351 89.0947 57.7287 89.1136 57.4787 89.1136C57.0999 89.1136 56.7287 89.0322 56.3651 88.8693C56.0052 88.7064 55.706 88.4583 55.4673 88.125C55.2325 87.7917 55.1151 87.3712 55.1151 86.8636V78.1818ZM63.7884 89.1818C63.0005 89.1818 62.3092 88.9943 61.7145 88.6193C61.1236 88.2443 60.6615 87.7197 60.3281 87.0455C59.9986 86.3712 59.8338 85.5833 59.8338 84.6818C59.8338 83.7727 59.9986 82.9792 60.3281 82.3011C60.6615 81.6231 61.1236 81.0966 61.7145 80.7216C62.3092 80.3466 63.0005 80.1591 63.7884 80.1591C64.5762 80.1591 65.2656 80.3466 65.8565 80.7216C66.4512 81.0966 66.9134 81.6231 67.2429 82.3011C67.5762 82.9792 67.7429 83.7727 67.7429 84.6818C67.7429 85.5833 67.5762 86.3712 67.2429 87.0455C66.9134 87.7197 66.4512 88.2443 65.8565 88.6193C65.2656 88.9943 64.5762 89.1818 63.7884 89.1818ZM63.7884 87.9773C64.3868 87.9773 64.8793 87.8239 65.2656 87.517C65.652 87.2102 65.938 86.8068 66.1236 86.3068C66.3092 85.8068 66.402 85.2652 66.402 84.6818C66.402 84.0985 66.3092 83.5549 66.1236 83.0511C65.938 82.5473 65.652 82.1402 65.2656 81.8295C64.8793 81.5189 64.3868 81.3636 63.7884 81.3636C63.1899 81.3636 62.6974 81.5189 62.3111 81.8295C61.9247 82.1402 61.6387 82.5473 61.4531 83.0511C61.2675 83.5549 61.1747 84.0985 61.1747 84.6818C61.1747 85.2652 61.2675 85.8068 61.4531 86.3068C61.6387 86.8068 61.9247 87.2102 62.3111 87.517C62.6974 87.8239 63.1899 87.9773 63.7884 87.9773ZM69.7898 89V80.2727H71.0852V81.6364H71.1989C71.3807 81.1705 71.6742 80.8087 72.0795 80.5511C72.4848 80.2898 72.9716 80.1591 73.5398 80.1591C74.1155 80.1591 74.5947 80.2898 74.9773 80.5511C75.3636 80.8087 75.6648 81.1705 75.8807 81.6364H75.9716C76.1951 81.1856 76.5303 80.8277 76.9773 80.5625C77.4242 80.2936 77.9602 80.1591 78.5852 80.1591C79.3655 80.1591 80.0038 80.4034 80.5 80.892C80.9962 81.3769 81.2443 82.1326 81.2443 83.1591V89H79.9034V83.1591C79.9034 82.5152 79.7273 82.0549 79.375 81.7784C79.0227 81.5019 78.608 81.3636 78.1307 81.3636C77.517 81.3636 77.0417 81.5492 76.7045 81.9205C76.3674 82.2879 76.1989 82.7538 76.1989 83.3182V89H74.8352V83.0227C74.8352 82.5265 74.6742 82.1269 74.3523 81.8239C74.0303 81.517 73.6155 81.3636 73.108 81.3636C72.7595 81.3636 72.4337 81.4564 72.1307 81.642C71.8314 81.8277 71.589 82.0852 71.4034 82.4148C71.2216 82.7405 71.1307 83.1174 71.1307 83.5455V89H69.7898ZM87.3551 89.1818C86.5142 89.1818 85.7888 88.9962 85.179 88.625C84.5729 88.25 84.1051 87.7273 83.7756 87.0568C83.4498 86.3826 83.2869 85.5985 83.2869 84.7045C83.2869 83.8106 83.4498 83.0227 83.7756 82.3409C84.1051 81.6553 84.5634 81.1212 85.1506 80.7386C85.7415 80.3523 86.4309 80.1591 87.2188 80.1591C87.6733 80.1591 88.1222 80.2348 88.5653 80.3864C89.0085 80.5379 89.4119 80.7841 89.7756 81.125C90.1392 81.4621 90.429 81.9091 90.6449 82.4659C90.8608 83.0227 90.9688 83.7083 90.9688 84.5227V85.0909H84.2415V83.9318H89.6051C89.6051 83.4394 89.5066 83 89.3097 82.6136C89.1165 82.2273 88.84 81.9223 88.4801 81.6989C88.1241 81.4754 87.7036 81.3636 87.2188 81.3636C86.6847 81.3636 86.2225 81.4962 85.8324 81.7614C85.446 82.0227 85.1487 82.3636 84.9403 82.7841C84.732 83.2045 84.6278 83.6553 84.6278 84.1364V84.9091C84.6278 85.5682 84.7415 86.1269 84.9688 86.5852C85.1998 87.0398 85.5199 87.3864 85.929 87.625C86.3381 87.8598 86.8134 87.9773 87.3551 87.9773C87.7074 87.9773 88.0256 87.928 88.3097 87.8295C88.5975 87.7273 88.8456 87.5758 89.054 87.375C89.2623 87.1705 89.4233 86.9167 89.5369 86.6136L90.8324 86.9773C90.696 87.4167 90.4669 87.803 90.1449 88.1364C89.8229 88.4659 89.4252 88.7235 88.9517 88.9091C88.4782 89.0909 87.946 89.1818 87.3551 89.1818ZM93.0085 89V80.2727H94.304V81.5909H94.3949C94.554 81.1591 94.8419 80.8087 95.2585 80.5398C95.6752 80.2708 96.1449 80.1364 96.6676 80.1364C96.7661 80.1364 96.8892 80.1383 97.0369 80.142C97.1847 80.1458 97.2964 80.1515 97.3722 80.1591V81.5227C97.3267 81.5114 97.2225 81.4943 97.0597 81.4716C96.9006 81.4451 96.732 81.4318 96.554 81.4318C96.1297 81.4318 95.7509 81.5208 95.4176 81.6989C95.0881 81.8731 94.8267 82.1155 94.6335 82.4261C94.4441 82.733 94.3494 83.0833 94.3494 83.4773V89H93.0085ZM110.007 80.2727C109.939 79.697 109.662 79.25 109.178 78.9318C108.693 78.6136 108.098 78.4545 107.393 78.4545C106.878 78.4545 106.428 78.5379 106.041 78.7045C105.659 78.8712 105.359 79.1004 105.143 79.392C104.931 79.6837 104.825 80.0152 104.825 80.3864C104.825 80.697 104.899 80.964 105.047 81.1875C105.198 81.4072 105.392 81.5909 105.626 81.7386C105.861 81.8826 106.107 82.0019 106.365 82.0966C106.623 82.1875 106.859 82.2614 107.075 82.3182L108.257 82.6364C108.56 82.7159 108.897 82.8258 109.268 82.9659C109.643 83.1061 110.001 83.2973 110.342 83.5398C110.687 83.7784 110.971 84.0852 111.195 84.4602C111.418 84.8352 111.53 85.2955 111.53 85.8409C111.53 86.4697 111.365 87.0379 111.036 87.5455C110.71 88.053 110.232 88.4564 109.604 88.7557C108.979 89.0549 108.219 89.2045 107.325 89.2045C106.492 89.2045 105.77 89.0701 105.161 88.8011C104.554 88.5322 104.077 88.1572 103.729 87.6761C103.384 87.1951 103.189 86.6364 103.143 86H104.598C104.636 86.4394 104.784 86.803 105.041 87.0909C105.303 87.375 105.632 87.5871 106.03 87.7273C106.431 87.8636 106.863 87.9318 107.325 87.9318C107.863 87.9318 108.346 87.8447 108.774 87.6705C109.202 87.4924 109.541 87.2462 109.791 86.9318C110.041 86.6136 110.166 86.2424 110.166 85.8182C110.166 85.4318 110.058 85.1174 109.842 84.875C109.626 84.6326 109.342 84.4356 108.99 84.2841C108.638 84.1326 108.257 84 107.848 83.8864L106.416 83.4773C105.507 83.2159 104.787 82.8428 104.257 82.358C103.727 81.8731 103.462 81.2386 103.462 80.4545C103.462 79.803 103.638 79.2348 103.99 78.75C104.346 78.2614 104.823 77.8826 105.422 77.6136C106.024 77.3409 106.696 77.2045 107.439 77.2045C108.189 77.2045 108.856 77.339 109.439 77.608C110.022 77.8731 110.484 78.2367 110.825 78.6989C111.17 79.161 111.352 79.6856 111.371 80.2727H110.007ZM117.324 89.1818C116.483 89.1818 115.758 88.9962 115.148 88.625C114.542 88.25 114.074 87.7273 113.744 87.0568C113.419 86.3826 113.256 85.5985 113.256 84.7045C113.256 83.8106 113.419 83.0227 113.744 82.3409C114.074 81.6553 114.532 81.1212 115.119 80.7386C115.71 80.3523 116.4 80.1591 117.188 80.1591C117.642 80.1591 118.091 80.2348 118.534 80.3864C118.977 80.5379 119.381 80.7841 119.744 81.125C120.108 81.4621 120.398 81.9091 120.614 82.4659C120.83 83.0227 120.938 83.7083 120.938 84.5227V85.0909H114.21V83.9318H119.574C119.574 83.4394 119.475 83 119.278 82.6136C119.085 82.2273 118.809 81.9223 118.449 81.6989C118.093 81.4754 117.672 81.3636 117.188 81.3636C116.653 81.3636 116.191 81.4962 115.801 81.7614C115.415 82.0227 115.117 82.3636 114.909 82.7841C114.701 83.2045 114.597 83.6553 114.597 84.1364V84.9091C114.597 85.5682 114.71 86.1269 114.938 86.5852C115.169 87.0398 115.489 87.3864 115.898 87.625C116.307 87.8598 116.782 87.9773 117.324 87.9773C117.676 87.9773 117.994 87.928 118.278 87.8295C118.566 87.7273 118.814 87.5758 119.023 87.375C119.231 87.1705 119.392 86.9167 119.506 86.6136L120.801 86.9773C120.665 87.4167 120.436 87.803 120.114 88.1364C119.792 88.4659 119.394 88.7235 118.92 88.9091C118.447 89.0909 117.915 89.1818 117.324 89.1818ZM122.977 89V80.2727H124.273V81.5909H124.364C124.523 81.1591 124.811 80.8087 125.227 80.5398C125.644 80.2708 126.114 80.1364 126.636 80.1364C126.735 80.1364 126.858 80.1383 127.006 80.142C127.153 80.1458 127.265 80.1515 127.341 80.1591V81.5227C127.295 81.5114 127.191 81.4943 127.028 81.4716C126.869 81.4451 126.701 81.4318 126.523 81.4318C126.098 81.4318 125.72 81.5208 125.386 81.6989C125.057 81.8731 124.795 82.1155 124.602 82.4261C124.413 82.733 124.318 83.0833 124.318 83.4773V89H122.977ZM136.332 80.2727L133.105 89H131.741L128.514 80.2727H129.969L132.378 87.2273H132.469L134.878 80.2727H136.332ZM138.102 89V80.2727H139.443V89H138.102ZM138.784 78.8182C138.523 78.8182 138.297 78.7292 138.108 78.5511C137.922 78.3731 137.83 78.1591 137.83 77.9091C137.83 77.6591 137.922 77.4451 138.108 77.267C138.297 77.089 138.523 77 138.784 77C139.045 77 139.269 77.089 139.455 77.267C139.644 77.4451 139.739 77.6591 139.739 77.9091C139.739 78.1591 139.644 78.3731 139.455 78.5511C139.269 78.7292 139.045 78.8182 138.784 78.8182ZM145.445 89.1818C144.626 89.1818 143.922 88.9886 143.331 88.6023C142.74 88.2159 142.286 87.6837 141.967 87.0057C141.649 86.3277 141.49 85.553 141.49 84.6818C141.49 83.7955 141.653 83.0133 141.979 82.3352C142.308 81.6534 142.767 81.1212 143.354 80.7386C143.945 80.3523 144.634 80.1591 145.422 80.1591C146.036 80.1591 146.589 80.2727 147.081 80.5C147.573 80.7273 147.977 81.0455 148.291 81.4545C148.606 81.8636 148.801 82.3409 148.876 82.8864H147.536C147.433 82.4886 147.206 82.1364 146.854 81.8295C146.505 81.5189 146.036 81.3636 145.445 81.3636C144.922 81.3636 144.464 81.5 144.07 81.7727C143.679 82.0417 143.375 82.4223 143.155 82.9148C142.939 83.4034 142.831 83.9773 142.831 84.6364C142.831 85.3106 142.937 85.8977 143.149 86.3977C143.365 86.8977 143.668 87.286 144.058 87.5625C144.452 87.839 144.914 87.9773 145.445 87.9773C145.793 87.9773 146.109 87.9167 146.393 87.7955C146.678 87.6742 146.918 87.5 147.115 87.2727C147.312 87.0455 147.452 86.7727 147.536 86.4545H148.876C148.801 86.9697 148.613 87.4337 148.314 87.8466C148.018 88.2557 147.626 88.5814 147.138 88.8239C146.653 89.0625 146.089 89.1818 145.445 89.1818ZM154.496 89.1818C153.655 89.1818 152.929 88.9962 152.32 88.625C151.714 88.25 151.246 87.7273 150.916 87.0568C150.59 86.3826 150.428 85.5985 150.428 84.7045C150.428 83.8106 150.59 83.0227 150.916 82.3409C151.246 81.6553 151.704 81.1212 152.291 80.7386C152.882 80.3523 153.571 80.1591 154.359 80.1591C154.814 80.1591 155.263 80.2348 155.706 80.3864C156.149 80.5379 156.553 80.7841 156.916 81.125C157.28 81.4621 157.57 81.9091 157.786 82.4659C158.001 83.0227 158.109 83.7083 158.109 84.5227V85.0909H151.382V83.9318H156.746C156.746 83.4394 156.647 83 156.45 82.6136C156.257 82.2273 155.981 81.9223 155.621 81.6989C155.265 81.4754 154.844 81.3636 154.359 81.3636C153.825 81.3636 153.363 81.4962 152.973 81.7614C152.587 82.0227 152.289 82.3636 152.081 82.7841C151.873 83.2045 151.768 83.6553 151.768 84.1364V84.9091C151.768 85.5682 151.882 86.1269 152.109 86.5852C152.34 87.0398 152.661 87.3864 153.07 87.625C153.479 87.8598 153.954 87.9773 154.496 87.9773C154.848 87.9773 155.166 87.928 155.45 87.8295C155.738 87.7273 155.986 87.5758 156.195 87.375C156.403 87.1705 156.564 86.9167 156.678 86.6136L157.973 86.9773C157.837 87.4167 157.607 87.803 157.286 88.1364C156.964 88.4659 156.566 88.7235 156.092 88.9091C155.619 89.0909 155.087 89.1818 154.496 89.1818ZM164.831 77.3636H166.513L170.467 87.0227H170.604L174.558 77.3636H176.24V89H174.922V80.1591H174.808L171.172 89H169.899L166.263 80.1591H166.149V89H164.831V77.3636ZM181.452 89.2045C180.899 89.2045 180.397 89.1004 179.946 88.892C179.495 88.6799 179.137 88.375 178.872 87.9773C178.607 87.5758 178.474 87.0909 178.474 86.5227C178.474 86.0227 178.573 85.6174 178.77 85.3068C178.967 84.9924 179.23 84.7462 179.56 84.5682C179.889 84.3902 180.253 84.2576 180.651 84.1705C181.052 84.0795 181.455 84.0076 181.861 83.9545C182.391 83.8864 182.821 83.8352 183.151 83.8011C183.484 83.7633 183.726 83.7008 183.878 83.6136C184.033 83.5265 184.111 83.375 184.111 83.1591V83.1136C184.111 82.553 183.957 82.1174 183.651 81.8068C183.348 81.4962 182.887 81.3409 182.27 81.3409C181.63 81.3409 181.128 81.4811 180.764 81.7614C180.401 82.0417 180.145 82.3409 179.997 82.6591L178.724 82.2045C178.952 81.6742 179.255 81.2614 179.634 80.9659C180.016 80.6667 180.433 80.4583 180.884 80.3409C181.338 80.2197 181.785 80.1591 182.224 80.1591C182.505 80.1591 182.827 80.1932 183.19 80.2614C183.558 80.3258 183.912 80.4602 184.253 80.6648C184.598 80.8693 184.884 81.178 185.111 81.5909C185.338 82.0038 185.452 82.5568 185.452 83.25V89H184.111V87.8182H184.043C183.952 88.0076 183.8 88.2102 183.588 88.4261C183.376 88.642 183.094 88.8258 182.741 88.9773C182.389 89.1288 181.959 89.2045 181.452 89.2045ZM181.656 88C182.187 88 182.634 87.8958 182.997 87.6875C183.365 87.4792 183.641 87.2102 183.827 86.8807C184.016 86.5511 184.111 86.2045 184.111 85.8409V84.6136C184.054 84.6818 183.929 84.7443 183.736 84.8011C183.546 84.8542 183.327 84.9015 183.077 84.9432C182.83 84.9811 182.59 85.0152 182.355 85.0455C182.124 85.072 181.937 85.0947 181.793 85.1136C181.444 85.1591 181.118 85.233 180.815 85.3352C180.516 85.4337 180.274 85.5833 180.088 85.7841C179.906 85.9811 179.815 86.25 179.815 86.5909C179.815 87.0568 179.988 87.4091 180.332 87.6477C180.681 87.8826 181.122 88 181.656 88ZM189.24 83.75V89H187.899V80.2727H189.195V81.6364H189.308C189.513 81.1932 189.823 80.8371 190.24 80.5682C190.657 80.2955 191.195 80.1591 191.854 80.1591C192.445 80.1591 192.962 80.2803 193.405 80.5227C193.848 80.7614 194.193 81.125 194.439 81.6136C194.685 82.0985 194.808 82.7121 194.808 83.4545V89H193.467V83.5455C193.467 82.8598 193.289 82.3258 192.933 81.9432C192.577 81.5568 192.089 81.3636 191.467 81.3636C191.039 81.3636 190.657 81.4564 190.32 81.642C189.986 81.8277 189.723 82.0985 189.53 82.4545C189.337 82.8106 189.24 83.2424 189.24 83.75ZM199.827 89.2045C199.274 89.2045 198.772 89.1004 198.321 88.892C197.87 88.6799 197.512 88.375 197.247 87.9773C196.982 87.5758 196.849 87.0909 196.849 86.5227C196.849 86.0227 196.948 85.6174 197.145 85.3068C197.342 84.9924 197.605 84.7462 197.935 84.5682C198.264 84.3902 198.628 84.2576 199.026 84.1705C199.427 84.0795 199.83 84.0076 200.236 83.9545C200.766 83.8864 201.196 83.8352 201.526 83.8011C201.859 83.7633 202.101 83.7008 202.253 83.6136C202.408 83.5265 202.486 83.375 202.486 83.1591V83.1136C202.486 82.553 202.332 82.1174 202.026 81.8068C201.723 81.4962 201.262 81.3409 200.645 81.3409C200.005 81.3409 199.503 81.4811 199.139 81.7614C198.776 82.0417 198.52 82.3409 198.372 82.6591L197.099 82.2045C197.327 81.6742 197.63 81.2614 198.009 80.9659C198.391 80.6667 198.808 80.4583 199.259 80.3409C199.713 80.2197 200.16 80.1591 200.599 80.1591C200.88 80.1591 201.202 80.1932 201.565 80.2614C201.933 80.3258 202.287 80.4602 202.628 80.6648C202.973 80.8693 203.259 81.178 203.486 81.5909C203.713 82.0038 203.827 82.5568 203.827 83.25V89H202.486V87.8182H202.418C202.327 88.0076 202.175 88.2102 201.963 88.4261C201.751 88.642 201.469 88.8258 201.116 88.9773C200.764 89.1288 200.334 89.2045 199.827 89.2045ZM200.031 88C200.562 88 201.009 87.8958 201.372 87.6875C201.74 87.4792 202.016 87.2102 202.202 86.8807C202.391 86.5511 202.486 86.2045 202.486 85.8409V84.6136C202.429 84.6818 202.304 84.7443 202.111 84.8011C201.921 84.8542 201.702 84.9015 201.452 84.9432C201.205 84.9811 200.965 85.0152 200.73 85.0455C200.499 85.072 200.312 85.0947 200.168 85.1136C199.819 85.1591 199.493 85.233 199.19 85.3352C198.891 85.4337 198.649 85.5833 198.463 85.7841C198.281 85.9811 198.19 86.25 198.19 86.5909C198.19 87.0568 198.363 87.4091 198.707 87.6477C199.056 87.8826 199.497 88 200.031 88ZM209.797 92.4545C209.149 92.4545 208.592 92.3712 208.126 92.2045C207.661 92.0417 207.272 91.8258 206.962 91.5568C206.655 91.2917 206.411 91.0076 206.229 90.7045L207.297 89.9545C207.418 90.1136 207.571 90.2955 207.757 90.5C207.943 90.7083 208.196 90.8883 208.518 91.0398C208.844 91.1951 209.27 91.2727 209.797 91.2727C210.501 91.2727 211.083 91.1023 211.541 90.7614C212 90.4205 212.229 89.8864 212.229 89.1591V87.3864H212.115C212.017 87.5455 211.876 87.7424 211.695 87.9773C211.517 88.2083 211.259 88.4148 210.922 88.5966C210.589 88.7746 210.138 88.8636 209.57 88.8636C208.865 88.8636 208.232 88.697 207.672 88.3636C207.115 88.0303 206.674 87.5455 206.348 86.9091C206.026 86.2727 205.865 85.5 205.865 84.5909C205.865 83.697 206.022 82.9186 206.337 82.2557C206.651 81.589 207.089 81.0739 207.649 80.7102C208.21 80.3428 208.857 80.1591 209.592 80.1591C210.161 80.1591 210.611 80.2538 210.945 80.4432C211.282 80.6288 211.539 80.8409 211.717 81.0795C211.899 81.3144 212.039 81.5076 212.138 81.6591H212.274V80.2727H213.57V89.25C213.57 90 213.399 90.6098 213.058 91.0795C212.721 91.553 212.267 91.8996 211.695 92.1193C211.126 92.3428 210.494 92.4545 209.797 92.4545ZM209.751 87.6591C210.289 87.6591 210.744 87.536 211.115 87.2898C211.486 87.0436 211.768 86.6894 211.962 86.2273C212.155 85.7652 212.251 85.2121 212.251 84.5682C212.251 83.9394 212.157 83.3845 211.967 82.9034C211.778 82.4223 211.498 82.0455 211.126 81.7727C210.755 81.5 210.297 81.3636 209.751 81.3636C209.183 81.3636 208.71 81.5076 208.331 81.7955C207.956 82.0833 207.674 82.4697 207.484 82.9545C207.299 83.4394 207.206 83.9773 207.206 84.5682C207.206 85.1742 207.301 85.7102 207.49 86.1761C207.683 86.6383 207.967 87.0019 208.342 87.267C208.721 87.5284 209.191 87.6591 209.751 87.6591ZM219.683 89.1818C218.842 89.1818 218.117 88.9962 217.507 88.625C216.901 88.25 216.433 87.7273 216.104 87.0568C215.778 86.3826 215.615 85.5985 215.615 84.7045C215.615 83.8106 215.778 83.0227 216.104 82.3409C216.433 81.6553 216.892 81.1212 217.479 80.7386C218.07 80.3523 218.759 80.1591 219.547 80.1591C220.001 80.1591 220.45 80.2348 220.893 80.3864C221.337 80.5379 221.74 80.7841 222.104 81.125C222.467 81.4621 222.757 81.9091 222.973 82.4659C223.189 83.0227 223.297 83.7083 223.297 84.5227V85.0909H216.57V83.9318H221.933C221.933 83.4394 221.835 83 221.638 82.6136C221.445 82.2273 221.168 81.9223 220.808 81.6989C220.452 81.4754 220.032 81.3636 219.547 81.3636C219.013 81.3636 218.551 81.4962 218.161 81.7614C217.774 82.0227 217.477 82.3636 217.268 82.7841C217.06 83.2045 216.956 83.6553 216.956 84.1364V84.9091C216.956 85.5682 217.07 86.1269 217.297 86.5852C217.528 87.0398 217.848 87.3864 218.257 87.625C218.666 87.8598 219.142 87.9773 219.683 87.9773C220.036 87.9773 220.354 87.928 220.638 87.8295C220.926 87.7273 221.174 87.5758 221.382 87.375C221.59 87.1705 221.751 86.9167 221.865 86.6136L223.161 86.9773C223.024 87.4167 222.795 87.803 222.473 88.1364C222.151 88.4659 221.753 88.7235 221.28 88.9091C220.806 89.0909 220.274 89.1818 219.683 89.1818ZM225.337 89V80.2727H226.632V81.5909H226.723C226.882 81.1591 227.17 80.8087 227.587 80.5398C228.003 80.2708 228.473 80.1364 228.996 80.1364C229.094 80.1364 229.217 80.1383 229.365 80.142C229.513 80.1458 229.625 80.1515 229.7 80.1591V81.5227C229.655 81.5114 229.551 81.4943 229.388 81.4716C229.229 81.4451 229.06 81.4318 228.882 81.4318C228.458 81.4318 228.079 81.5208 227.746 81.6989C227.416 81.8731 227.155 82.1155 226.962 82.4261C226.772 82.733 226.678 83.0833 226.678 83.4773V89H225.337Z" fill="#494949"/>
  <rect x="24" y="119" width="424" height="88" rx="8" fill="#F6F5F9"/>
  <path d="M54.7727 141H53.3636C53.2803 140.595 53.1345 140.239 52.9261 139.932C52.7216 139.625 52.4716 139.367 52.1761 139.159C51.8845 138.947 51.5606 138.788 51.2045 138.682C50.8485 138.576 50.4773 138.523 50.0909 138.523C49.3864 138.523 48.7481 138.701 48.1761 139.057C47.608 139.413 47.1553 139.938 46.8182 140.631C46.4848 141.324 46.3182 142.174 46.3182 143.182C46.3182 144.189 46.4848 145.04 46.8182 145.733C47.1553 146.426 47.608 146.951 48.1761 147.307C48.7481 147.663 49.3864 147.841 50.0909 147.841C50.4773 147.841 50.8485 147.788 51.2045 147.682C51.5606 147.576 51.8845 147.419 52.1761 147.21C52.4716 146.998 52.7216 146.739 52.9261 146.432C53.1345 146.121 53.2803 145.765 53.3636 145.364H54.7727C54.6667 145.958 54.4735 146.491 54.1932 146.96C53.9129 147.43 53.5644 147.83 53.1477 148.159C52.7311 148.485 52.2633 148.733 51.7443 148.903C51.2292 149.074 50.678 149.159 50.0909 149.159C49.0985 149.159 48.2159 148.917 47.4432 148.432C46.6705 147.947 46.0625 147.258 45.6193 146.364C45.1761 145.47 44.9545 144.409 44.9545 143.182C44.9545 141.955 45.1761 140.894 45.6193 140C46.0625 139.106 46.6705 138.417 47.4432 137.932C48.2159 137.447 49.0985 137.205 50.0909 137.205C50.678 137.205 51.2292 137.29 51.7443 137.46C52.2633 137.631 52.7311 137.881 53.1477 138.21C53.5644 138.536 53.9129 138.934 54.1932 139.403C54.4735 139.869 54.6667 140.402 54.7727 141ZM60.4134 149.182C59.6255 149.182 58.9342 148.994 58.3395 148.619C57.7486 148.244 57.2865 147.72 56.9531 147.045C56.6236 146.371 56.4588 145.583 56.4588 144.682C56.4588 143.773 56.6236 142.979 56.9531 142.301C57.2865 141.623 57.7486 141.097 58.3395 140.722C58.9342 140.347 59.6255 140.159 60.4134 140.159C61.2012 140.159 61.8906 140.347 62.4815 140.722C63.0762 141.097 63.5384 141.623 63.8679 142.301C64.2012 142.979 64.3679 143.773 64.3679 144.682C64.3679 145.583 64.2012 146.371 63.8679 147.045C63.5384 147.72 63.0762 148.244 62.4815 148.619C61.8906 148.994 61.2012 149.182 60.4134 149.182ZM60.4134 147.977C61.0118 147.977 61.5043 147.824 61.8906 147.517C62.277 147.21 62.563 146.807 62.7486 146.307C62.9342 145.807 63.027 145.265 63.027 144.682C63.027 144.098 62.9342 143.555 62.7486 143.051C62.563 142.547 62.277 142.14 61.8906 141.83C61.5043 141.519 61.0118 141.364 60.4134 141.364C59.8149 141.364 59.3224 141.519 58.9361 141.83C58.5497 142.14 58.2637 142.547 58.0781 143.051C57.8925 143.555 57.7997 144.098 57.7997 144.682C57.7997 145.265 57.8925 145.807 58.0781 146.307C58.2637 146.807 58.5497 147.21 58.9361 147.517C59.3224 147.824 59.8149 147.977 60.4134 147.977ZM67.7557 143.75V149H66.4148V140.273H67.7102V141.636H67.8239C68.0284 141.193 68.339 140.837 68.7557 140.568C69.1723 140.295 69.7102 140.159 70.3693 140.159C70.9602 140.159 71.4773 140.28 71.9205 140.523C72.3636 140.761 72.7083 141.125 72.9545 141.614C73.2008 142.098 73.3239 142.712 73.3239 143.455V149H71.983V143.545C71.983 142.86 71.8049 142.326 71.4489 141.943C71.0928 141.557 70.6042 141.364 69.983 141.364C69.5549 141.364 69.1723 141.456 68.8352 141.642C68.5019 141.828 68.2386 142.098 68.0455 142.455C67.8523 142.811 67.7557 143.242 67.7557 143.75ZM79.5696 140.273V141.409H75.0469V140.273H79.5696ZM76.3651 138.182H77.706V146.5C77.706 146.879 77.7609 147.163 77.8707 147.352C77.9844 147.538 78.1283 147.663 78.3026 147.727C78.4806 147.788 78.6681 147.818 78.8651 147.818C79.0128 147.818 79.134 147.811 79.2287 147.795C79.3234 147.777 79.3991 147.761 79.456 147.75L79.7287 148.955C79.6378 148.989 79.5109 149.023 79.348 149.057C79.1851 149.095 78.9787 149.114 78.7287 149.114C78.3499 149.114 77.9787 149.032 77.6151 148.869C77.2552 148.706 76.956 148.458 76.7173 148.125C76.4825 147.792 76.3651 147.371 76.3651 146.864V138.182ZM81.5866 149V140.273H82.8821V141.591H82.973C83.1321 141.159 83.42 140.809 83.8366 140.54C84.2533 140.271 84.723 140.136 85.2457 140.136C85.3442 140.136 85.4673 140.138 85.6151 140.142C85.7628 140.146 85.8745 140.152 85.9503 140.159V141.523C85.9048 141.511 85.8007 141.494 85.6378 141.472C85.4787 141.445 85.3101 141.432 85.1321 141.432C84.7079 141.432 84.3291 141.521 83.9957 141.699C83.6662 141.873 83.4048 142.116 83.2116 142.426C83.0223 142.733 82.9276 143.083 82.9276 143.477V149H81.5866ZM90.108 149.205C89.5549 149.205 89.053 149.1 88.6023 148.892C88.1515 148.68 87.7936 148.375 87.5284 147.977C87.2633 147.576 87.1307 147.091 87.1307 146.523C87.1307 146.023 87.2292 145.617 87.4261 145.307C87.6231 144.992 87.8864 144.746 88.2159 144.568C88.5455 144.39 88.9091 144.258 89.3068 144.17C89.7083 144.08 90.1117 144.008 90.517 143.955C91.0473 143.886 91.4773 143.835 91.8068 143.801C92.1402 143.763 92.3826 143.701 92.5341 143.614C92.6894 143.527 92.767 143.375 92.767 143.159V143.114C92.767 142.553 92.6136 142.117 92.3068 141.807C92.0038 141.496 91.5436 141.341 90.9261 141.341C90.286 141.341 89.7841 141.481 89.4205 141.761C89.0568 142.042 88.8011 142.341 88.6534 142.659L87.3807 142.205C87.608 141.674 87.911 141.261 88.2898 140.966C88.6723 140.667 89.089 140.458 89.5398 140.341C89.9943 140.22 90.4413 140.159 90.8807 140.159C91.161 140.159 91.483 140.193 91.8466 140.261C92.214 140.326 92.5682 140.46 92.9091 140.665C93.2538 140.869 93.5398 141.178 93.767 141.591C93.9943 142.004 94.108 142.557 94.108 143.25V149H92.767V147.818H92.6989C92.608 148.008 92.4564 148.21 92.2443 148.426C92.0322 148.642 91.75 148.826 91.3977 148.977C91.0455 149.129 90.6155 149.205 90.108 149.205ZM90.3125 148C90.8428 148 91.2898 147.896 91.6534 147.688C92.0208 147.479 92.2973 147.21 92.483 146.881C92.6723 146.551 92.767 146.205 92.767 145.841V144.614C92.7102 144.682 92.5852 144.744 92.392 144.801C92.2027 144.854 91.983 144.902 91.733 144.943C91.4867 144.981 91.2462 145.015 91.0114 145.045C90.7803 145.072 90.5928 145.095 90.4489 145.114C90.1004 145.159 89.7746 145.233 89.4716 145.335C89.1723 145.434 88.9299 145.583 88.7443 145.784C88.5625 145.981 88.4716 146.25 88.4716 146.591C88.4716 147.057 88.6439 147.409 88.9886 147.648C89.3371 147.883 89.7784 148 90.3125 148ZM100.101 149.182C99.2827 149.182 98.5781 148.989 97.9872 148.602C97.3963 148.216 96.9418 147.684 96.6236 147.006C96.3054 146.328 96.1463 145.553 96.1463 144.682C96.1463 143.795 96.3092 143.013 96.6349 142.335C96.9645 141.653 97.4228 141.121 98.0099 140.739C98.6009 140.352 99.2902 140.159 100.078 140.159C100.692 140.159 101.245 140.273 101.737 140.5C102.23 140.727 102.633 141.045 102.947 141.455C103.262 141.864 103.457 142.341 103.533 142.886H102.192C102.089 142.489 101.862 142.136 101.51 141.83C101.161 141.519 100.692 141.364 100.101 141.364C99.5781 141.364 99.1198 141.5 98.7259 141.773C98.3357 142.042 98.0308 142.422 97.8111 142.915C97.5952 143.403 97.4872 143.977 97.4872 144.636C97.4872 145.311 97.5933 145.898 97.8054 146.398C98.0213 146.898 98.3243 147.286 98.7145 147.562C99.1084 147.839 99.5705 147.977 100.101 147.977C100.449 147.977 100.766 147.917 101.05 147.795C101.334 147.674 101.574 147.5 101.771 147.273C101.968 147.045 102.108 146.773 102.192 146.455H103.533C103.457 146.97 103.269 147.434 102.97 147.847C102.675 148.256 102.283 148.581 101.794 148.824C101.309 149.062 100.745 149.182 100.101 149.182ZM109.288 140.273V141.409H104.766V140.273H109.288ZM106.084 138.182H107.425V146.5C107.425 146.879 107.48 147.163 107.589 147.352C107.703 147.538 107.847 147.663 108.021 147.727C108.199 147.788 108.387 147.818 108.584 147.818C108.732 147.818 108.853 147.811 108.947 147.795C109.042 147.777 109.118 147.761 109.175 147.75L109.447 148.955C109.357 148.989 109.23 149.023 109.067 149.057C108.904 149.095 108.697 149.114 108.447 149.114C108.069 149.114 107.697 149.032 107.334 148.869C106.974 148.706 106.675 148.458 106.436 148.125C106.201 147.792 106.084 147.371 106.084 146.864V138.182Z" fill="#0C0429"/>
  <path d="M336 144L340 148L350 138" stroke="#2C7600" stroke-width="1.5" stroke-linecap="round" stroke-linejoin="round"/>
  <path d="M370.915 137.818H372.148V144.56C372.148 145.256 371.984 145.877 371.656 146.424C371.331 146.968 370.872 147.397 370.278 147.712C369.685 148.023 368.989 148.179 368.19 148.179C367.392 148.179 366.696 148.023 366.102 147.712C365.509 147.397 365.048 146.968 364.72 146.424C364.395 145.877 364.233 145.256 364.233 144.56V137.818H365.466V144.46C365.466 144.957 365.575 145.4 365.794 145.788C366.013 146.172 366.324 146.475 366.729 146.697C367.136 146.916 367.624 147.026 368.19 147.026C368.757 147.026 369.244 146.916 369.652 146.697C370.06 146.475 370.371 146.172 370.587 145.788C370.805 145.4 370.915 144.957 370.915 144.46V137.818ZM374.451 150.864V140.364H375.584V141.577H375.724C375.81 141.444 375.929 141.275 376.081 141.07C376.237 140.861 376.459 140.675 376.748 140.513C377.039 140.347 377.434 140.264 377.931 140.264C378.574 140.264 379.141 140.425 379.631 140.746C380.122 141.068 380.505 141.524 380.78 142.114C381.055 142.704 381.192 143.4 381.192 144.202C381.192 145.01 381.055 145.711 380.78 146.305C380.505 146.895 380.123 147.352 379.636 147.677C379.149 147.998 378.587 148.159 377.951 148.159C377.46 148.159 377.068 148.078 376.773 147.915C376.478 147.75 376.251 147.562 376.091 147.354C375.932 147.142 375.81 146.966 375.724 146.827H375.624V150.864H374.451ZM375.604 144.182C375.604 144.759 375.689 145.267 375.858 145.708C376.027 146.146 376.274 146.489 376.599 146.737C376.923 146.982 377.321 147.105 377.792 147.105C378.282 147.105 378.692 146.976 379.02 146.717C379.351 146.455 379.6 146.104 379.765 145.663C379.934 145.219 380.019 144.725 380.019 144.182C380.019 143.645 379.936 143.161 379.77 142.73C379.608 142.296 379.361 141.953 379.03 141.701C378.702 141.446 378.289 141.318 377.792 141.318C377.314 141.318 376.913 141.439 376.589 141.681C376.264 141.92 376.019 142.254 375.853 142.685C375.687 143.113 375.604 143.612 375.604 144.182ZM384.155 137.818V148H382.982V137.818H384.155ZM389.407 148.159C388.717 148.159 388.112 147.995 387.592 147.667C387.075 147.339 386.671 146.88 386.379 146.29C386.091 145.7 385.946 145.01 385.946 144.222C385.946 143.426 386.091 142.732 386.379 142.138C386.671 141.545 387.075 141.085 387.592 140.756C388.112 140.428 388.717 140.264 389.407 140.264C390.096 140.264 390.699 140.428 391.216 140.756C391.737 141.085 392.141 141.545 392.429 142.138C392.721 142.732 392.867 143.426 392.867 144.222C392.867 145.01 392.721 145.7 392.429 146.29C392.141 146.88 391.737 147.339 391.216 147.667C390.699 147.995 390.096 148.159 389.407 148.159ZM389.407 147.105C389.93 147.105 390.361 146.971 390.699 146.702C391.037 146.434 391.288 146.081 391.45 145.643C391.612 145.206 391.694 144.732 391.694 144.222C391.694 143.711 391.612 143.236 391.45 142.795C391.288 142.354 391.037 141.998 390.699 141.726C390.361 141.454 389.93 141.318 389.407 141.318C388.883 141.318 388.452 141.454 388.114 141.726C387.776 141.998 387.526 142.354 387.363 142.795C387.201 143.236 387.12 143.711 387.12 144.222C387.12 144.732 387.201 145.206 387.363 145.643C387.526 146.081 387.776 146.434 388.114 146.702C388.452 146.971 388.883 147.105 389.407 147.105ZM396.905 148.179C396.421 148.179 395.982 148.088 395.588 147.906C395.193 147.72 394.88 147.453 394.648 147.105C394.416 146.754 394.3 146.33 394.3 145.832C394.3 145.395 394.386 145.04 394.558 144.768C394.731 144.493 394.961 144.278 395.249 144.122C395.538 143.966 395.856 143.85 396.204 143.774C396.555 143.695 396.908 143.632 397.263 143.585C397.727 143.526 398.103 143.481 398.392 143.451C398.683 143.418 398.895 143.363 399.028 143.287C399.164 143.211 399.232 143.078 399.232 142.889V142.849C399.232 142.359 399.097 141.978 398.829 141.706C398.564 141.434 398.161 141.298 397.621 141.298C397.061 141.298 396.622 141.421 396.303 141.666C395.985 141.911 395.762 142.173 395.632 142.452L394.519 142.054C394.718 141.59 394.983 141.229 395.314 140.97C395.649 140.708 396.013 140.526 396.408 140.423C396.806 140.317 397.197 140.264 397.581 140.264C397.826 140.264 398.108 140.294 398.426 140.354C398.748 140.41 399.058 140.528 399.356 140.707C399.658 140.886 399.908 141.156 400.107 141.517C400.306 141.878 400.405 142.362 400.405 142.969V148H399.232V146.966H399.172C399.093 147.132 398.96 147.309 398.774 147.498C398.589 147.687 398.342 147.848 398.034 147.98C397.725 148.113 397.349 148.179 396.905 148.179ZM397.084 147.125C397.548 147.125 397.939 147.034 398.257 146.852C398.579 146.669 398.821 146.434 398.983 146.146C399.149 145.857 399.232 145.554 399.232 145.236V144.162C399.182 144.222 399.073 144.276 398.904 144.326C398.738 144.372 398.546 144.414 398.327 144.45C398.111 144.483 397.901 144.513 397.695 144.54C397.493 144.563 397.329 144.583 397.203 144.599C396.898 144.639 396.613 144.704 396.348 144.793C396.086 144.879 395.874 145.01 395.712 145.186C395.553 145.358 395.473 145.594 395.473 145.892C395.473 146.3 395.624 146.608 395.926 146.817C396.231 147.022 396.617 147.125 397.084 147.125ZM405.43 148.159C404.794 148.159 404.232 147.998 403.745 147.677C403.257 147.352 402.876 146.895 402.601 146.305C402.326 145.711 402.189 145.01 402.189 144.202C402.189 143.4 402.326 142.704 402.601 142.114C402.876 141.524 403.259 141.068 403.75 140.746C404.24 140.425 404.807 140.264 405.45 140.264C405.947 140.264 406.34 140.347 406.628 140.513C406.92 140.675 407.142 140.861 407.294 141.07C407.45 141.275 407.571 141.444 407.657 141.577H407.757V137.818H408.93V148H407.797V146.827H407.657C407.571 146.966 407.449 147.142 407.289 147.354C407.13 147.562 406.903 147.75 406.608 147.915C406.313 148.078 405.921 148.159 405.43 148.159ZM405.589 147.105C406.06 147.105 406.458 146.982 406.782 146.737C407.107 146.489 407.354 146.146 407.523 145.708C407.692 145.267 407.777 144.759 407.777 144.182C407.777 143.612 407.694 143.113 407.528 142.685C407.362 142.254 407.117 141.92 406.792 141.681C406.467 141.439 406.066 141.318 405.589 141.318C405.092 141.318 404.678 141.446 404.346 141.701C404.018 141.953 403.771 142.296 403.605 142.73C403.443 143.161 403.362 143.645 403.362 144.182C403.362 144.725 403.445 145.219 403.61 145.663C403.779 146.104 404.028 146.455 404.356 146.717C404.688 146.976 405.099 147.105 405.589 147.105ZM414.444 148.159C413.708 148.159 413.073 147.997 412.539 147.672C412.009 147.344 411.6 146.886 411.311 146.3C411.026 145.71 410.884 145.024 410.884 144.241C410.884 143.459 411.026 142.77 411.311 142.173C411.6 141.573 412.001 141.106 412.515 140.771C413.032 140.433 413.635 140.264 414.324 140.264C414.722 140.264 415.115 140.33 415.502 140.463C415.89 140.596 416.243 140.811 416.561 141.109C416.88 141.404 417.133 141.795 417.322 142.283C417.511 142.77 417.605 143.37 417.605 144.082V144.58H411.719V143.565H416.412C416.412 143.134 416.326 142.75 416.154 142.412C415.985 142.074 415.743 141.807 415.428 141.612C415.116 141.416 414.748 141.318 414.324 141.318C413.857 141.318 413.453 141.434 413.111 141.666C412.773 141.895 412.513 142.193 412.331 142.561C412.148 142.929 412.057 143.323 412.057 143.744V144.42C412.057 144.997 412.157 145.486 412.355 145.887C412.558 146.285 412.838 146.588 413.196 146.797C413.554 147.002 413.97 147.105 414.444 147.105C414.752 147.105 415.03 147.062 415.279 146.976C415.531 146.886 415.748 146.754 415.93 146.578C416.112 146.399 416.253 146.177 416.353 145.912L417.486 146.23C417.367 146.615 417.166 146.953 416.885 147.244C416.603 147.533 416.255 147.758 415.841 147.92C415.426 148.08 414.961 148.159 414.444 148.159ZM422.274 148.159C421.637 148.159 421.076 147.998 420.588 147.677C420.101 147.352 419.72 146.895 419.445 146.305C419.17 145.711 419.032 145.01 419.032 144.202C419.032 143.4 419.17 142.704 419.445 142.114C419.72 141.524 420.103 141.068 420.593 140.746C421.084 140.425 421.651 140.264 422.294 140.264C422.791 140.264 423.184 140.347 423.472 140.513C423.764 140.675 423.986 140.861 424.138 141.07C424.294 141.275 424.415 141.444 424.501 141.577H424.6V137.818H425.774V148H424.64V146.827H424.501C424.415 146.966 424.292 147.142 424.133 147.354C423.974 147.562 423.747 147.75 423.452 147.915C423.157 148.078 422.764 148.159 422.274 148.159ZM422.433 147.105C422.904 147.105 423.301 146.982 423.626 146.737C423.951 146.489 424.198 146.146 424.367 145.708C424.536 145.267 424.62 144.759 424.62 144.182C424.62 143.612 424.538 143.113 424.372 142.685C424.206 142.254 423.961 141.92 423.636 141.681C423.311 141.439 422.91 141.318 422.433 141.318C421.936 141.318 421.521 141.446 421.19 141.701C420.862 141.953 420.615 142.296 420.449 142.73C420.287 143.161 420.206 143.645 420.206 144.182C420.206 144.725 420.288 145.219 420.454 145.663C420.623 146.104 420.872 146.455 421.2 146.717C421.531 146.976 421.942 147.105 422.433 147.105Z" fill="#2C7600"/>
  <path d="M45.4091 189V177.364H46.8182V182.545H53.0227V177.364H54.4318V189H53.0227V183.795H46.8182V189H45.4091ZM57.2528 189V177.364H61.1847C62.0938 177.364 62.84 177.519 63.4233 177.83C64.0066 178.136 64.4384 178.559 64.7188 179.097C64.9991 179.634 65.1392 180.246 65.1392 180.932C65.1392 181.617 64.9991 182.225 64.7188 182.756C64.4384 183.286 64.0085 183.703 63.429 184.006C62.8494 184.305 62.1089 184.455 61.2074 184.455H58.0256V183.182H61.1619C61.7831 183.182 62.2831 183.091 62.6619 182.909C63.0445 182.727 63.321 182.47 63.4915 182.136C63.6657 181.799 63.7528 181.398 63.7528 180.932C63.7528 180.466 63.6657 180.059 63.4915 179.71C63.3172 179.362 63.0388 179.093 62.6562 178.903C62.2737 178.71 61.768 178.614 61.1392 178.614H58.6619V189H57.2528ZM62.7301 183.773L65.5938 189H63.9574L61.1392 183.773H62.7301ZM75.1009 189.182C74.3736 189.182 73.7315 188.998 73.1747 188.631C72.6179 188.259 72.1823 187.737 71.8679 187.062C71.5535 186.384 71.3963 185.583 71.3963 184.659C71.3963 183.742 71.5535 182.947 71.8679 182.273C72.1823 181.598 72.6198 181.078 73.1804 180.71C73.741 180.343 74.3887 180.159 75.1236 180.159C75.6918 180.159 76.1406 180.254 76.4702 180.443C76.8035 180.629 77.0573 180.841 77.2315 181.08C77.4096 181.314 77.5478 181.508 77.6463 181.659H77.7599V177.364H79.1009V189H77.8054V187.659H77.6463C77.5478 187.818 77.4077 188.019 77.2259 188.261C77.044 188.5 76.7846 188.714 76.4474 188.903C76.1103 189.089 75.6615 189.182 75.1009 189.182ZM75.2827 187.977C75.8205 187.977 76.2751 187.837 76.6463 187.557C77.0175 187.273 77.2997 186.881 77.4929 186.381C77.6861 185.877 77.7827 185.295 77.7827 184.636C77.7827 183.985 77.688 183.415 77.4986 182.926C77.3092 182.434 77.0289 182.051 76.6577 181.778C76.2865 181.502 75.8281 181.364 75.2827 181.364C74.7145 181.364 74.241 181.509 73.8622 181.801C73.4872 182.089 73.205 182.481 73.0156 182.977C72.83 183.47 72.7372 184.023 72.7372 184.636C72.7372 185.258 72.8319 185.822 73.0213 186.33C73.2145 186.833 73.4986 187.235 73.8736 187.534C74.2524 187.83 74.7221 187.977 75.2827 187.977ZM85.2884 189.182C84.5005 189.182 83.8092 188.994 83.2145 188.619C82.6236 188.244 82.1615 187.72 81.8281 187.045C81.4986 186.371 81.3338 185.583 81.3338 184.682C81.3338 183.773 81.4986 182.979 81.8281 182.301C82.1615 181.623 82.6236 181.097 83.2145 180.722C83.8092 180.347 84.5005 180.159 85.2884 180.159C86.0762 180.159 86.7656 180.347 87.3565 180.722C87.9512 181.097 88.4134 181.623 88.7429 182.301C89.0762 182.979 89.2429 183.773 89.2429 184.682C89.2429 185.583 89.0762 186.371 88.7429 187.045C88.4134 187.72 87.9512 188.244 87.3565 188.619C86.7656 188.994 86.0762 189.182 85.2884 189.182ZM85.2884 187.977C85.8868 187.977 86.3793 187.824 86.7656 187.517C87.152 187.21 87.438 186.807 87.6236 186.307C87.8092 185.807 87.902 185.265 87.902 184.682C87.902 184.098 87.8092 183.555 87.6236 183.051C87.438 182.547 87.152 182.14 86.7656 181.83C86.3793 181.519 85.8868 181.364 85.2884 181.364C84.6899 181.364 84.1974 181.519 83.8111 181.83C83.4247 182.14 83.1387 182.547 82.9531 183.051C82.7675 183.555 82.6747 184.098 82.6747 184.682C82.6747 185.265 82.7675 185.807 82.9531 186.307C83.1387 186.807 83.4247 187.21 83.8111 187.517C84.1974 187.824 84.6899 187.977 85.2884 187.977ZM94.8352 189.182C94.017 189.182 93.3125 188.989 92.7216 188.602C92.1307 188.216 91.6761 187.684 91.358 187.006C91.0398 186.328 90.8807 185.553 90.8807 184.682C90.8807 183.795 91.0436 183.013 91.3693 182.335C91.6989 181.653 92.1572 181.121 92.7443 180.739C93.3352 180.352 94.0246 180.159 94.8125 180.159C95.4261 180.159 95.9792 180.273 96.4716 180.5C96.964 180.727 97.3674 181.045 97.6818 181.455C97.9962 181.864 98.1913 182.341 98.267 182.886H96.9261C96.8239 182.489 96.5966 182.136 96.2443 181.83C95.8958 181.519 95.4261 181.364 94.8352 181.364C94.3125 181.364 93.8542 181.5 93.4602 181.773C93.0701 182.042 92.7652 182.422 92.5455 182.915C92.3295 183.403 92.2216 183.977 92.2216 184.636C92.2216 185.311 92.3277 185.898 92.5398 186.398C92.7557 186.898 93.0587 187.286 93.4489 187.562C93.8428 187.839 94.3049 187.977 94.8352 187.977C95.1837 187.977 95.5 187.917 95.7841 187.795C96.0682 187.674 96.3087 187.5 96.5057 187.273C96.7027 187.045 96.8428 186.773 96.9261 186.455H98.267C98.1913 186.97 98.0038 187.434 97.7045 187.847C97.4091 188.256 97.017 188.581 96.5284 188.824C96.0436 189.062 95.4792 189.182 94.8352 189.182ZM105.727 185.432V180.273H107.068V189H105.727V187.523H105.636C105.432 187.966 105.114 188.343 104.682 188.653C104.25 188.96 103.705 189.114 103.045 189.114C102.5 189.114 102.015 188.994 101.591 188.756C101.167 188.513 100.833 188.15 100.591 187.665C100.348 187.176 100.227 186.561 100.227 185.818V180.273H101.568V185.727C101.568 186.364 101.746 186.871 102.102 187.25C102.462 187.629 102.92 187.818 103.477 187.818C103.811 187.818 104.15 187.733 104.494 187.562C104.843 187.392 105.134 187.131 105.369 186.778C105.608 186.426 105.727 185.977 105.727 185.432ZM109.524 189V180.273H110.82V181.636H110.933C111.115 181.17 111.409 180.809 111.814 180.551C112.219 180.29 112.706 180.159 113.274 180.159C113.85 180.159 114.329 180.29 114.712 180.551C115.098 180.809 115.399 181.17 115.615 181.636H115.706C115.929 181.186 116.265 180.828 116.712 180.562C117.159 180.294 117.695 180.159 118.32 180.159C119.1 180.159 119.738 180.403 120.234 180.892C120.731 181.377 120.979 182.133 120.979 183.159V189H119.638V183.159C119.638 182.515 119.462 182.055 119.109 181.778C118.757 181.502 118.342 181.364 117.865 181.364C117.251 181.364 116.776 181.549 116.439 181.92C116.102 182.288 115.933 182.754 115.933 183.318V189H114.57V183.023C114.57 182.527 114.409 182.127 114.087 181.824C113.765 181.517 113.35 181.364 112.842 181.364C112.494 181.364 112.168 181.456 111.865 181.642C111.566 181.828 111.323 182.085 111.138 182.415C110.956 182.741 110.865 183.117 110.865 183.545V189H109.524ZM127.089 189.182C126.249 189.182 125.523 188.996 124.913 188.625C124.307 188.25 123.839 187.727 123.51 187.057C123.184 186.383 123.021 185.598 123.021 184.705C123.021 183.811 123.184 183.023 123.51 182.341C123.839 181.655 124.298 181.121 124.885 180.739C125.476 180.352 126.165 180.159 126.953 180.159C127.408 180.159 127.857 180.235 128.3 180.386C128.743 180.538 129.146 180.784 129.51 181.125C129.874 181.462 130.163 181.909 130.379 182.466C130.595 183.023 130.703 183.708 130.703 184.523V185.091H123.976V183.932H129.339C129.339 183.439 129.241 183 129.044 182.614C128.851 182.227 128.574 181.922 128.214 181.699C127.858 181.475 127.438 181.364 126.953 181.364C126.419 181.364 125.957 181.496 125.567 181.761C125.18 182.023 124.883 182.364 124.675 182.784C124.466 183.205 124.362 183.655 124.362 184.136V184.909C124.362 185.568 124.476 186.127 124.703 186.585C124.934 187.04 125.254 187.386 125.663 187.625C126.072 187.86 126.548 187.977 127.089 187.977C127.442 187.977 127.76 187.928 128.044 187.83C128.332 187.727 128.58 187.576 128.788 187.375C128.997 187.17 129.158 186.917 129.271 186.614L130.567 186.977C130.43 187.417 130.201 187.803 129.879 188.136C129.557 188.466 129.16 188.723 128.686 188.909C128.213 189.091 127.68 189.182 127.089 189.182ZM134.084 183.75V189H132.743V180.273H134.038V181.636H134.152C134.357 181.193 134.667 180.837 135.084 180.568C135.5 180.295 136.038 180.159 136.697 180.159C137.288 180.159 137.805 180.28 138.249 180.523C138.692 180.761 139.036 181.125 139.283 181.614C139.529 182.098 139.652 182.712 139.652 183.455V189H138.311V183.545C138.311 182.86 138.133 182.326 137.777 181.943C137.421 181.557 136.932 181.364 136.311 181.364C135.883 181.364 135.5 181.456 135.163 181.642C134.83 181.828 134.567 182.098 134.374 182.455C134.18 182.811 134.084 183.242 134.084 183.75ZM145.898 180.273V181.409H141.375V180.273H145.898ZM142.693 178.182H144.034V186.5C144.034 186.879 144.089 187.163 144.199 187.352C144.313 187.538 144.456 187.663 144.631 187.727C144.809 187.788 144.996 187.818 145.193 187.818C145.341 187.818 145.462 187.811 145.557 187.795C145.652 187.777 145.727 187.761 145.784 187.75L146.057 188.955C145.966 188.989 145.839 189.023 145.676 189.057C145.513 189.095 145.307 189.114 145.057 189.114C144.678 189.114 144.307 189.032 143.943 188.869C143.583 188.706 143.284 188.458 143.045 188.125C142.811 187.792 142.693 187.371 142.693 186.864V178.182ZM150.483 189.205C149.93 189.205 149.428 189.1 148.977 188.892C148.527 188.68 148.169 188.375 147.903 187.977C147.638 187.576 147.506 187.091 147.506 186.523C147.506 186.023 147.604 185.617 147.801 185.307C147.998 184.992 148.261 184.746 148.591 184.568C148.92 184.39 149.284 184.258 149.682 184.17C150.083 184.08 150.487 184.008 150.892 183.955C151.422 183.886 151.852 183.835 152.182 183.801C152.515 183.763 152.758 183.701 152.909 183.614C153.064 183.527 153.142 183.375 153.142 183.159V183.114C153.142 182.553 152.989 182.117 152.682 181.807C152.379 181.496 151.919 181.341 151.301 181.341C150.661 181.341 150.159 181.481 149.795 181.761C149.432 182.042 149.176 182.341 149.028 182.659L147.756 182.205C147.983 181.674 148.286 181.261 148.665 180.966C149.047 180.667 149.464 180.458 149.915 180.341C150.369 180.22 150.816 180.159 151.256 180.159C151.536 180.159 151.858 180.193 152.222 180.261C152.589 180.326 152.943 180.46 153.284 180.665C153.629 180.869 153.915 181.178 154.142 181.591C154.369 182.004 154.483 182.557 154.483 183.25V189H153.142V187.818H153.074C152.983 188.008 152.831 188.21 152.619 188.426C152.407 188.642 152.125 188.826 151.773 188.977C151.42 189.129 150.991 189.205 150.483 189.205ZM150.688 188C151.218 188 151.665 187.896 152.028 187.688C152.396 187.479 152.672 187.21 152.858 186.881C153.047 186.551 153.142 186.205 153.142 185.841V184.614C153.085 184.682 152.96 184.744 152.767 184.801C152.578 184.854 152.358 184.902 152.108 184.943C151.862 184.981 151.621 185.015 151.386 185.045C151.155 185.072 150.968 185.095 150.824 185.114C150.475 185.159 150.15 185.233 149.847 185.335C149.547 185.434 149.305 185.583 149.119 185.784C148.938 185.981 148.847 186.25 148.847 186.591C148.847 187.057 149.019 187.409 149.364 187.648C149.712 187.883 150.153 188 150.688 188ZM160.726 180.273V181.409H156.203V180.273H160.726ZM157.521 178.182H158.862V186.5C158.862 186.879 158.917 187.163 159.027 187.352C159.141 187.538 159.285 187.663 159.459 187.727C159.637 187.788 159.824 187.818 160.021 187.818C160.169 187.818 160.29 187.811 160.385 187.795C160.48 187.777 160.555 187.761 160.612 187.75L160.885 188.955C160.794 188.989 160.667 189.023 160.504 189.057C160.341 189.095 160.135 189.114 159.885 189.114C159.506 189.114 159.135 189.032 158.771 188.869C158.411 188.706 158.112 188.458 157.874 188.125C157.639 187.792 157.521 187.371 157.521 186.864V178.182ZM162.743 189V180.273H164.084V189H162.743ZM163.425 178.818C163.163 178.818 162.938 178.729 162.749 178.551C162.563 178.373 162.47 178.159 162.47 177.909C162.47 177.659 162.563 177.445 162.749 177.267C162.938 177.089 163.163 177 163.425 177C163.686 177 163.91 177.089 164.095 177.267C164.285 177.445 164.379 177.659 164.379 177.909C164.379 178.159 164.285 178.373 164.095 178.551C163.91 178.729 163.686 178.818 163.425 178.818ZM170.085 189.182C169.297 189.182 168.606 188.994 168.011 188.619C167.42 188.244 166.958 187.72 166.625 187.045C166.295 186.371 166.131 185.583 166.131 184.682C166.131 183.773 166.295 182.979 166.625 182.301C166.958 181.623 167.42 181.097 168.011 180.722C168.606 180.347 169.297 180.159 170.085 180.159C170.873 180.159 171.563 180.347 172.153 180.722C172.748 181.097 173.21 181.623 173.54 182.301C173.873 182.979 174.04 183.773 174.04 184.682C174.04 185.583 173.873 186.371 173.54 187.045C173.21 187.72 172.748 188.244 172.153 188.619C171.563 188.994 170.873 189.182 170.085 189.182ZM170.085 187.977C170.684 187.977 171.176 187.824 171.562 187.517C171.949 187.21 172.235 186.807 172.42 186.307C172.606 185.807 172.699 185.265 172.699 184.682C172.699 184.098 172.606 183.555 172.42 183.051C172.235 182.547 171.949 182.14 171.562 181.83C171.176 181.519 170.684 181.364 170.085 181.364C169.487 181.364 168.994 181.519 168.608 181.83C168.222 182.14 167.936 182.547 167.75 183.051C167.564 183.555 167.472 184.098 167.472 184.682C167.472 185.265 167.564 185.807 167.75 186.307C167.936 186.807 168.222 187.21 168.608 187.517C168.994 187.824 169.487 187.977 170.085 187.977ZM177.428 183.75V189H176.087V180.273H177.382V181.636H177.496C177.7 181.193 178.011 180.837 178.428 180.568C178.844 180.295 179.382 180.159 180.041 180.159C180.632 180.159 181.149 180.28 181.592 180.523C182.036 180.761 182.38 181.125 182.626 181.614C182.873 182.098 182.996 182.712 182.996 183.455V189H181.655V183.545C181.655 182.86 181.477 182.326 181.121 181.943C180.765 181.557 180.276 181.364 179.655 181.364C179.227 181.364 178.844 181.456 178.507 181.642C178.174 181.828 177.911 182.098 177.717 182.455C177.524 182.811 177.428 183.242 177.428 183.75Z" fill="#0C0429"/>
  <path d="M336 184L340 188L350 178" stroke="#2C7600" stroke-width="1.5" stroke-linecap="round" stroke-linejoin="round"/>
  <path d="M370.915 177.818H372.148V184.56C372.148 185.256 371.984 185.877 371.656 186.424C371.331 186.968 370.872 187.397 370.278 187.712C369.685 188.023 368.989 188.179 368.19 188.179C367.392 188.179 366.696 188.023 366.102 187.712C365.509 187.397 365.048 186.968 364.72 186.424C364.395 185.877 364.233 185.256 364.233 184.56V177.818H365.466V184.46C365.466 184.957 365.575 185.4 365.794 185.788C366.013 186.172 366.324 186.475 366.729 186.697C367.136 186.916 367.624 187.026 368.19 187.026C368.757 187.026 369.244 186.916 369.652 186.697C370.06 186.475 370.371 186.172 370.587 185.788C370.805 185.4 370.915 184.957 370.915 184.46V177.818ZM374.451 190.864V180.364H375.584V181.577H375.724C375.81 181.444 375.929 181.275 376.081 181.07C376.237 180.861 376.459 180.675 376.748 180.513C377.039 180.347 377.434 180.264 377.931 180.264C378.574 180.264 379.141 180.425 379.631 180.746C380.122 181.068 380.505 181.524 380.78 182.114C381.055 182.704 381.192 183.4 381.192 184.202C381.192 185.01 381.055 185.711 380.78 186.305C380.505 186.895 380.123 187.352 379.636 187.677C379.149 187.998 378.587 188.159 377.951 188.159C377.46 188.159 377.068 188.078 376.773 187.915C376.478 187.75 376.251 187.562 376.091 187.354C375.932 187.142 375.81 186.966 375.724 186.827H375.624V190.864H374.451ZM375.604 184.182C375.604 184.759 375.689 185.267 375.858 185.708C376.027 186.146 376.274 186.489 376.599 186.737C376.923 186.982 377.321 187.105 377.792 187.105C378.282 187.105 378.692 186.976 379.02 186.717C379.351 186.455 379.6 186.104 379.765 185.663C379.934 185.219 380.019 184.725 380.019 184.182C380.019 183.645 379.936 183.161 379.77 182.73C379.608 182.296 379.361 181.953 379.03 181.701C378.702 181.446 378.289 181.318 377.792 181.318C377.314 181.318 376.913 181.439 376.589 181.681C376.264 181.92 376.019 182.254 375.853 182.685C375.687 183.113 375.604 183.612 375.604 184.182ZM384.155 177.818V188H382.982V177.818H384.155ZM389.407 188.159C388.717 188.159 388.112 187.995 387.592 187.667C387.075 187.339 386.671 186.88 386.379 186.29C386.091 185.7 385.946 185.01 385.946 184.222C385.946 183.426 386.091 182.732 386.379 182.138C386.671 181.545 387.075 181.085 387.592 180.756C388.112 180.428 388.717 180.264 389.407 180.264C390.096 180.264 390.699 180.428 391.216 180.756C391.737 181.085 392.141 181.545 392.429 182.138C392.721 182.732 392.867 183.426 392.867 184.222C392.867 185.01 392.721 185.7 392.429 186.29C392.141 186.88 391.737 187.339 391.216 187.667C390.699 187.995 390.096 188.159 389.407 188.159ZM389.407 187.105C389.93 187.105 390.361 186.971 390.699 186.702C391.037 186.434 391.288 186.081 391.45 185.643C391.612 185.206 391.694 184.732 391.694 184.222C391.694 183.711 391.612 183.236 391.45 182.795C391.288 182.354 391.037 181.998 390.699 181.726C390.361 181.454 389.93 181.318 389.407 181.318C388.883 181.318 388.452 181.454 388.114 181.726C387.776 181.998 387.526 182.354 387.363 182.795C387.201 183.236 387.12 183.711 387.12 184.222C387.12 184.732 387.201 185.206 387.363 185.643C387.526 186.081 387.776 186.434 388.114 186.702C388.452 186.971 388.883 187.105 389.407 187.105ZM396.905 188.179C396.421 188.179 395.982 188.088 395.588 187.906C395.193 187.72 394.88 187.453 394.648 187.105C394.416 186.754 394.3 186.33 394.3 185.832C394.3 185.395 394.386 185.04 394.558 184.768C394.731 184.493 394.961 184.278 395.249 184.122C395.538 183.966 395.856 183.85 396.204 183.774C396.555 183.695 396.908 183.632 397.263 183.585C397.727 183.526 398.103 183.481 398.392 183.451C398.683 183.418 398.895 183.363 399.028 183.287C399.164 183.211 399.232 183.078 399.232 182.889V182.849C399.232 182.359 399.097 181.978 398.829 181.706C398.564 181.434 398.161 181.298 397.621 181.298C397.061 181.298 396.622 181.421 396.303 181.666C395.985 181.911 395.762 182.173 395.632 182.452L394.519 182.054C394.718 181.59 394.983 181.229 395.314 180.97C395.649 180.708 396.013 180.526 396.408 180.423C396.806 180.317 397.197 180.264 397.581 180.264C397.826 180.264 398.108 180.294 398.426 180.354C398.748 180.41 399.058 180.528 399.356 180.707C399.658 180.886 399.908 181.156 400.107 181.517C400.306 181.878 400.405 182.362 400.405 182.969V188H399.232V186.966H399.172C399.093 187.132 398.96 187.309 398.774 187.498C398.589 187.687 398.342 187.848 398.034 187.98C397.725 188.113 397.349 188.179 396.905 188.179ZM397.084 187.125C397.548 187.125 397.939 187.034 398.257 186.852C398.579 186.669 398.821 186.434 398.983 186.146C399.149 185.857 399.232 185.554 399.232 185.236V184.162C399.182 184.222 399.073 184.276 398.904 184.326C398.738 184.372 398.546 184.414 398.327 184.45C398.111 184.483 397.901 184.513 397.695 184.54C397.493 184.563 397.329 184.583 397.203 184.599C396.898 184.639 396.613 184.704 396.348 184.793C396.086 184.879 395.874 185.01 395.712 185.186C395.553 185.358 395.473 185.594 395.473 185.892C395.473 186.3 395.624 186.608 395.926 186.817C396.231 187.022 396.617 187.125 397.084 187.125ZM405.43 188.159C404.794 188.159 404.232 187.998 403.745 187.677C403.257 187.352 402.876 186.895 402.601 186.305C402.326 185.711 402.189 185.01 402.189 184.202C402.189 183.4 402.326 182.704 402.601 182.114C402.876 181.524 403.259 181.068 403.75 180.746C404.24 180.425 404.807 180.264 405.45 180.264C405.947 180.264 406.34 180.347 406.628 180.513C406.92 180.675 407.142 180.861 407.294 181.07C407.45 181.275 407.571 181.444 407.657 181.577H407.757V177.818H408.93V188H407.797V186.827H407.657C407.571 186.966 407.449 187.142 407.289 187.354C407.13 187.562 406.903 187.75 406.608 187.915C406.313 188.078 405.921 188.159 405.43 188.159ZM405.589 187.105C406.06 187.105 406.458 186.982 406.782 186.737C407.107 186.489 407.354 186.146 407.523 185.708C407.692 185.267 407.777 184.759 407.777 184.182C407.777 183.612 407.694 183.113 407.528 182.685C407.362 182.254 407.117 181.92 406.792 181.681C406.467 181.439 406.066 181.318 405.589 181.318C405.092 181.318 404.678 181.446 404.346 181.701C404.018 181.953 403.771 182.296 403.605 182.73C403.443 183.161 403.362 183.645 403.362 184.182C403.362 184.725 403.445 185.219 403.61 185.663C403.779 186.104 404.028 186.455 404.356 186.717C404.688 186.976 405.099 187.105 405.589 187.105ZM414.444 188.159C413.708 188.159 413.073 187.997 412.539 187.672C412.009 187.344 411.6 186.886 411.311 186.3C411.026 185.71 410.884 185.024 410.884 184.241C410.884 183.459 411.026 182.77 411.311 182.173C411.6 181.573 412.001 181.106 412.515 180.771C413.032 180.433 413.635 180.264 414.324 180.264C414.722 180.264 415.115 180.33 415.502 180.463C415.89 180.596 416.243 180.811 416.561 181.109C416.88 181.404 417.133 181.795 417.322 182.283C417.511 182.77 417.605 183.37 417.605 184.082V184.58H411.719V183.565H416.412C416.412 183.134 416.326 182.75 416.154 182.412C415.985 182.074 415.743 181.807 415.428 181.612C415.116 181.416 414.748 181.318 414.324 181.318C413.857 181.318 413.453 181.434 413.111 181.666C412.773 181.895 412.513 182.193 412.331 182.561C412.148 182.929 412.057 183.323 412.057 183.744V184.42C412.057 184.997 412.157 185.486 412.355 185.887C412.558 186.285 412.838 186.588 413.196 186.797C413.554 187.002 413.97 187.105 414.444 187.105C414.752 187.105 415.03 187.062 415.279 186.976C415.531 186.886 415.748 186.754 415.93 186.578C416.112 186.399 416.253 186.177 416.353 185.912L417.486 186.23C417.367 186.615 417.166 186.953 416.885 187.244C416.603 187.533 416.255 187.758 415.841 187.92C415.426 188.08 414.961 188.159 414.444 188.159ZM422.274 188.159C421.637 188.159 421.076 187.998 420.588 187.677C420.101 187.352 419.72 186.895 419.445 186.305C419.17 185.711 419.032 185.01 419.032 184.202C419.032 183.4 419.17 182.704 419.445 182.114C419.72 181.524 420.103 181.068 420.593 180.746C421.084 180.425 421.651 180.264 422.294 180.264C422.791 180.264 423.184 180.347 423.472 180.513C423.764 180.675 423.986 180.861 424.138 181.07C424.294 181.275 424.415 181.444 424.501 181.577H424.6V177.818H425.774V188H424.64V186.827H424.501C424.415 186.966 424.292 187.142 424.133 187.354C423.974 187.562 423.747 187.75 423.452 187.915C423.157 188.078 422.764 188.159 422.274 188.159ZM422.433 187.105C422.904 187.105 423.301 186.982 423.626 186.737C423.951 186.489 424.198 186.146 424.367 185.708C424.536 185.267 424.62 184.759 424.62 184.182C424.62 183.612 424.538 183.113 424.372 182.685C424.206 182.254 423.961 181.92 423.636 181.681C423.311 181.439 422.91 181.318 422.433 181.318C421.936 181.318 421.521 181.446 421.19 181.701C420.862 181.953 420.615 182.296 420.449 182.73C420.287 183.161 420.206 183.645 420.206 184.182C420.206 184.725 420.288 185.219 420.454 185.663C420.623 186.104 420.872 186.455 421.2 186.717C421.531 186.976 421.942 187.105 422.433 187.105Z" fill="#2C7600"/>
  <rect x="24" y="231" width="424" height="48" rx="12" fill="#DDCDFF"/>
  <path d="M198.125 252.42C198.064 251.883 197.814 251.466 197.375 251.17C196.936 250.871 196.383 250.722 195.716 250.722C195.239 250.722 194.826 250.797 194.477 250.949C194.129 251.097 193.858 251.301 193.665 251.562C193.475 251.82 193.381 252.114 193.381 252.443C193.381 252.72 193.445 252.958 193.574 253.159C193.706 253.36 193.879 253.528 194.091 253.665C194.307 253.797 194.538 253.909 194.784 254C195.03 254.087 195.267 254.159 195.494 254.216L196.631 254.511C197.002 254.602 197.383 254.725 197.773 254.881C198.163 255.036 198.525 255.241 198.858 255.494C199.191 255.748 199.46 256.062 199.665 256.438C199.873 256.812 199.977 257.261 199.977 257.784C199.977 258.443 199.807 259.028 199.466 259.54C199.129 260.051 198.638 260.455 197.994 260.75C197.354 261.045 196.58 261.193 195.67 261.193C194.799 261.193 194.045 261.055 193.409 260.778C192.773 260.502 192.275 260.11 191.915 259.602C191.555 259.091 191.356 258.485 191.318 257.784H193.08C193.114 258.205 193.25 258.555 193.489 258.835C193.731 259.112 194.04 259.318 194.415 259.455C194.794 259.587 195.208 259.653 195.659 259.653C196.155 259.653 196.597 259.576 196.983 259.42C197.373 259.261 197.68 259.042 197.903 258.761C198.127 258.477 198.239 258.146 198.239 257.767C198.239 257.422 198.14 257.14 197.943 256.92C197.75 256.701 197.487 256.519 197.153 256.375C196.824 256.231 196.451 256.104 196.034 255.994L194.659 255.619C193.727 255.366 192.989 254.992 192.443 254.5C191.902 254.008 191.631 253.356 191.631 252.545C191.631 251.875 191.813 251.29 192.176 250.79C192.54 250.29 193.032 249.902 193.653 249.625C194.275 249.345 194.975 249.205 195.756 249.205C196.544 249.205 197.239 249.343 197.841 249.619C198.447 249.896 198.924 250.277 199.273 250.761C199.621 251.242 199.803 251.795 199.818 252.42H198.125ZM204.303 261.193C203.75 261.193 203.25 261.091 202.803 260.886C202.356 260.678 202.002 260.377 201.74 259.983C201.483 259.589 201.354 259.106 201.354 258.534C201.354 258.042 201.449 257.636 201.638 257.318C201.827 257 202.083 256.748 202.405 256.562C202.727 256.377 203.087 256.237 203.485 256.142C203.882 256.047 204.288 255.975 204.7 255.926C205.223 255.866 205.647 255.816 205.973 255.778C206.299 255.737 206.536 255.67 206.683 255.58C206.831 255.489 206.905 255.341 206.905 255.136V255.097C206.905 254.6 206.765 254.216 206.485 253.943C206.208 253.67 205.795 253.534 205.246 253.534C204.674 253.534 204.223 253.661 203.894 253.915C203.568 254.165 203.342 254.443 203.217 254.75L201.621 254.386C201.81 253.856 202.087 253.428 202.45 253.102C202.818 252.773 203.24 252.534 203.717 252.386C204.195 252.235 204.697 252.159 205.223 252.159C205.572 252.159 205.941 252.201 206.331 252.284C206.725 252.364 207.092 252.511 207.433 252.727C207.778 252.943 208.06 253.252 208.28 253.653C208.5 254.051 208.61 254.568 208.61 255.205V261H206.95V259.807H206.882C206.772 260.027 206.608 260.242 206.388 260.455C206.168 260.667 205.886 260.843 205.541 260.983C205.197 261.123 204.784 261.193 204.303 261.193ZM204.672 259.83C205.142 259.83 205.543 259.737 205.877 259.551C206.214 259.366 206.469 259.123 206.644 258.824C206.822 258.521 206.911 258.197 206.911 257.852V256.727C206.85 256.788 206.733 256.845 206.558 256.898C206.388 256.947 206.193 256.991 205.973 257.028C205.753 257.062 205.539 257.095 205.331 257.125C205.123 257.152 204.949 257.174 204.808 257.193C204.479 257.235 204.178 257.305 203.905 257.403C203.636 257.502 203.42 257.644 203.257 257.83C203.098 258.011 203.019 258.254 203.019 258.557C203.019 258.977 203.174 259.295 203.485 259.511C203.795 259.723 204.191 259.83 204.672 259.83ZM217.85 252.273L214.685 261H212.867L209.696 252.273H211.52L213.73 258.989H213.821L216.026 252.273H217.85ZM222.735 261.176C221.875 261.176 221.134 260.992 220.513 260.625C219.896 260.254 219.418 259.733 219.081 259.062C218.748 258.388 218.581 257.598 218.581 256.693C218.581 255.799 218.748 255.011 219.081 254.33C219.418 253.648 219.888 253.116 220.49 252.733C221.097 252.35 221.805 252.159 222.615 252.159C223.108 252.159 223.585 252.241 224.047 252.403C224.509 252.566 224.924 252.822 225.292 253.17C225.659 253.519 225.949 253.972 226.161 254.528C226.373 255.081 226.479 255.754 226.479 256.545V257.148H219.542V255.875H224.814C224.814 255.428 224.723 255.032 224.542 254.688C224.36 254.339 224.104 254.064 223.775 253.864C223.449 253.663 223.066 253.562 222.627 253.562C222.15 253.562 221.733 253.68 221.377 253.915C221.025 254.146 220.752 254.449 220.559 254.824C220.369 255.195 220.275 255.598 220.275 256.034V257.028C220.275 257.612 220.377 258.108 220.581 258.517C220.79 258.926 221.079 259.239 221.451 259.455C221.822 259.667 222.256 259.773 222.752 259.773C223.074 259.773 223.367 259.727 223.633 259.636C223.898 259.542 224.127 259.402 224.32 259.216C224.513 259.03 224.661 258.801 224.763 258.528L226.371 258.818C226.242 259.292 226.011 259.706 225.678 260.062C225.348 260.415 224.934 260.689 224.434 260.886C223.937 261.08 223.371 261.176 222.735 261.176ZM235.513 261.17C234.809 261.17 234.18 260.991 233.627 260.631C233.078 260.267 232.646 259.75 232.332 259.08C232.021 258.405 231.866 257.597 231.866 256.653C231.866 255.71 232.023 254.903 232.337 254.233C232.656 253.562 233.091 253.049 233.644 252.693C234.197 252.337 234.824 252.159 235.525 252.159C236.066 252.159 236.502 252.25 236.832 252.432C237.165 252.61 237.423 252.818 237.604 253.057C237.79 253.295 237.934 253.506 238.036 253.688H238.138V249.364H239.837V261H238.178V259.642H238.036C237.934 259.828 237.786 260.04 237.593 260.278C237.404 260.517 237.142 260.725 236.809 260.903C236.476 261.081 236.044 261.17 235.513 261.17ZM235.888 259.722C236.377 259.722 236.79 259.593 237.127 259.335C237.468 259.074 237.726 258.712 237.9 258.25C238.078 257.788 238.167 257.25 238.167 256.636C238.167 256.03 238.08 255.5 237.906 255.045C237.731 254.591 237.476 254.237 237.138 253.983C236.801 253.729 236.385 253.602 235.888 253.602C235.377 253.602 234.951 253.735 234.61 254C234.269 254.265 234.012 254.627 233.837 255.085C233.667 255.544 233.582 256.061 233.582 256.636C233.582 257.22 233.669 257.744 233.843 258.21C234.017 258.676 234.275 259.045 234.616 259.318C234.96 259.587 235.385 259.722 235.888 259.722ZM245.847 261.176C244.988 261.176 244.247 260.992 243.626 260.625C243.008 260.254 242.531 259.733 242.194 259.062C241.861 258.388 241.694 257.598 241.694 256.693C241.694 255.799 241.861 255.011 242.194 254.33C242.531 253.648 243.001 253.116 243.603 252.733C244.209 252.35 244.917 252.159 245.728 252.159C246.221 252.159 246.698 252.241 247.16 252.403C247.622 252.566 248.037 252.822 248.404 253.17C248.772 253.519 249.061 253.972 249.274 254.528C249.486 255.081 249.592 255.754 249.592 256.545V257.148H242.654V255.875H247.927C247.927 255.428 247.836 255.032 247.654 254.688C247.472 254.339 247.217 254.064 246.887 253.864C246.561 253.663 246.179 253.562 245.739 253.562C245.262 253.562 244.846 253.68 244.489 253.915C244.137 254.146 243.864 254.449 243.671 254.824C243.482 255.195 243.387 255.598 243.387 256.034V257.028C243.387 257.612 243.489 258.108 243.694 258.517C243.902 258.926 244.192 259.239 244.563 259.455C244.935 259.667 245.368 259.773 245.864 259.773C246.186 259.773 246.48 259.727 246.745 259.636C247.01 259.542 247.239 259.402 247.433 259.216C247.626 259.03 247.774 258.801 247.876 258.528L249.484 258.818C249.355 259.292 249.124 259.706 248.791 260.062C248.461 260.415 248.046 260.689 247.546 260.886C247.05 261.08 246.484 261.176 245.847 261.176ZM255.375 252.273V253.636H250.607V252.273H255.375ZM251.886 250.182H253.585V258.438C253.585 258.767 253.634 259.015 253.732 259.182C253.831 259.345 253.958 259.456 254.113 259.517C254.272 259.574 254.445 259.602 254.63 259.602C254.767 259.602 254.886 259.593 254.988 259.574C255.09 259.555 255.17 259.54 255.227 259.528L255.534 260.932C255.435 260.97 255.295 261.008 255.113 261.045C254.931 261.087 254.704 261.11 254.431 261.114C253.984 261.121 253.568 261.042 253.181 260.875C252.795 260.708 252.482 260.451 252.244 260.102C252.005 259.754 251.886 259.316 251.886 258.79V250.182ZM259.618 261.193C259.065 261.193 258.565 261.091 258.118 260.886C257.671 260.678 257.316 260.377 257.055 259.983C256.797 259.589 256.669 259.106 256.669 258.534C256.669 258.042 256.763 257.636 256.953 257.318C257.142 257 257.398 256.748 257.72 256.562C258.042 256.377 258.402 256.237 258.799 256.142C259.197 256.047 259.602 255.975 260.015 255.926C260.538 255.866 260.962 255.816 261.288 255.778C261.614 255.737 261.851 255.67 261.998 255.58C262.146 255.489 262.22 255.341 262.22 255.136V255.097C262.22 254.6 262.08 254.216 261.799 253.943C261.523 253.67 261.11 253.534 260.561 253.534C259.989 253.534 259.538 253.661 259.208 253.915C258.883 254.165 258.657 254.443 258.532 254.75L256.936 254.386C257.125 253.856 257.402 253.428 257.765 253.102C258.133 252.773 258.555 252.534 259.032 252.386C259.51 252.235 260.012 252.159 260.538 252.159C260.887 252.159 261.256 252.201 261.646 252.284C262.04 252.364 262.407 252.511 262.748 252.727C263.093 252.943 263.375 253.252 263.595 253.653C263.815 254.051 263.924 254.568 263.924 255.205V261H262.265V259.807H262.197C262.087 260.027 261.922 260.242 261.703 260.455C261.483 260.667 261.201 260.843 260.856 260.983C260.512 261.123 260.099 261.193 259.618 261.193ZM259.987 259.83C260.457 259.83 260.858 259.737 261.191 259.551C261.529 259.366 261.784 259.123 261.958 258.824C262.137 258.521 262.226 258.197 262.226 257.852V256.727C262.165 256.788 262.047 256.845 261.873 256.898C261.703 256.947 261.508 256.991 261.288 257.028C261.068 257.062 260.854 257.095 260.646 257.125C260.438 257.152 260.263 257.174 260.123 257.193C259.794 257.235 259.493 257.305 259.22 257.403C258.951 257.502 258.735 257.644 258.572 257.83C258.413 258.011 258.333 258.254 258.333 258.557C258.333 258.977 258.489 259.295 258.799 259.511C259.11 259.723 259.506 259.83 259.987 259.83ZM266.011 261V252.273H267.71V261H266.011ZM266.869 250.926C266.574 250.926 266.32 250.828 266.108 250.631C265.899 250.43 265.795 250.191 265.795 249.915C265.795 249.634 265.899 249.396 266.108 249.199C266.32 248.998 266.574 248.898 266.869 248.898C267.165 248.898 267.416 248.998 267.625 249.199C267.837 249.396 267.943 249.634 267.943 249.915C267.943 250.191 267.837 250.43 267.625 250.631C267.416 250.828 267.165 250.926 266.869 250.926ZM271.518 249.364V261H269.82V249.364H271.518ZM280.168 254.403L278.628 254.676C278.564 254.479 278.461 254.292 278.321 254.114C278.185 253.936 277.999 253.79 277.764 253.676C277.529 253.562 277.236 253.506 276.884 253.506C276.403 253.506 276.001 253.614 275.679 253.83C275.357 254.042 275.196 254.316 275.196 254.653C275.196 254.945 275.304 255.18 275.52 255.358C275.736 255.536 276.084 255.682 276.565 255.795L277.952 256.114C278.755 256.299 279.353 256.585 279.747 256.972C280.141 257.358 280.338 257.86 280.338 258.477C280.338 259 280.187 259.466 279.884 259.875C279.584 260.28 279.166 260.598 278.628 260.83C278.094 261.061 277.475 261.176 276.77 261.176C275.793 261.176 274.995 260.968 274.378 260.551C273.76 260.131 273.382 259.534 273.242 258.761L274.884 258.511C274.986 258.939 275.196 259.263 275.514 259.483C275.832 259.699 276.247 259.807 276.759 259.807C277.315 259.807 277.76 259.691 278.094 259.46C278.427 259.225 278.594 258.939 278.594 258.602C278.594 258.33 278.492 258.1 278.287 257.915C278.086 257.729 277.778 257.589 277.361 257.494L275.884 257.17C275.069 256.985 274.467 256.689 274.077 256.284C273.69 255.879 273.497 255.366 273.497 254.744C273.497 254.229 273.641 253.778 273.929 253.392C274.217 253.006 274.615 252.705 275.122 252.489C275.63 252.269 276.211 252.159 276.867 252.159C277.81 252.159 278.552 252.364 279.094 252.773C279.635 253.178 279.993 253.722 280.168 254.403Z" fill="#0C0429"/>
  <rect x="0.5" y="0.5" width="471" height="302" rx="11.5" stroke="#E2E2E8"/>
  </svg>
  