<svg width="460" height="214" viewBox="0 0 460 214" fill="none" xmlns="http://www.w3.org/2000/svg">
  <rect x="20" y="19" width="431" height="195" rx="12" fill="#BBEB9D"/>
  <rect width="431" height="194" rx="12" fill="white"/>
  <path d="M30.3174 53H32.9774V44.908H38.7174C42.4974 44.908 44.7374 42.584 44.7374 39.14C44.7374 35.836 42.4694 33.4 38.7174 33.4H30.3174V53ZM32.9774 42.332V35.948H38.6054C40.8454 35.948 42.0774 37.152 42.0774 39.14C42.0774 41.128 40.8454 42.332 38.6054 42.332H32.9774ZM50.8475 44.88C47.4595 45.44 45.7515 46.812 45.7515 49.388C45.7515 51.404 47.2915 53.42 50.3715 53.42C52.1915 53.42 53.4795 52.58 54.2355 51.32V53H56.7275V43.9C56.7275 40.904 54.7675 39.056 51.2115 39.056C48.1315 39.056 45.6395 40.932 45.8075 44.348L48.3275 44.544L48.2995 44.152C48.2995 42.444 49.3915 41.352 51.2675 41.352C53.1715 41.352 54.2075 42.332 54.2075 43.76V44.32L50.8475 44.88ZM50.8755 51.012C49.2795 51.012 48.2715 50.256 48.2715 49.108C48.2715 47.848 49.4195 47.288 51.2395 46.952L54.2075 46.476V47.26C54.2075 49.5 52.8075 51.012 50.8755 51.012ZM59.1388 53.896C58.9708 57.396 61.6028 59.692 65.2148 59.692C69.1908 59.692 71.9628 56.752 71.9628 52.748V39.504H69.3028V46.056C69.3028 48.716 67.8748 50.368 65.7468 50.368C63.7308 50.368 62.7228 49.248 62.7228 47.008V39.504H60.0628L60.0908 47.54C60.0908 50.788 61.8828 52.748 64.9068 52.776C66.8108 52.748 68.2668 52.076 69.3028 50.732V52.86C69.3028 55.576 67.6788 57.34 65.2148 57.34C63.0588 57.34 61.5468 55.94 61.6868 53.56L59.1388 53.896ZM75.3206 53H77.8966V45.44C77.8966 42.864 78.9606 41.492 80.6406 41.492C82.1806 41.492 82.8806 42.304 82.8806 44.292V53H85.4286L85.3726 45.076C85.4846 42.724 86.5206 41.492 88.1166 41.492C89.6566 41.492 90.3566 42.304 90.3566 44.292V53H92.9326L92.8766 43.648C92.8766 40.624 91.4486 39.084 88.9006 39.084C87.1366 39.084 85.8206 39.952 85.0366 41.492C84.4766 39.924 83.1886 39.084 81.3686 39.084C79.8286 39.084 78.6526 39.84 77.8966 41.1V39.532H75.3206V53ZM102.173 39.084C98.2253 39.084 95.5373 42.192 95.5373 46.28C95.5373 50.396 98.2533 53.42 102.313 53.42C105.533 53.42 108.165 51.376 108.613 48.38L106.093 47.932C105.841 49.808 104.273 51.04 102.369 51.04C99.9893 51.04 98.2813 49.36 98.0293 46.756H108.221V45.468C108.221 41.744 105.841 39.084 102.173 39.084ZM98.1693 44.628C98.6453 42.696 100.185 41.408 102.173 41.408C104.301 41.408 105.701 42.808 105.785 44.628H98.1693ZM111.223 53H113.883V45.72C113.883 43.116 115.227 41.492 117.355 41.492C119.259 41.492 120.211 42.584 120.211 44.796V53H122.871V44.264C122.871 41.044 121.107 39.084 118.167 39.084C116.291 39.084 114.863 39.84 113.883 41.072V39.504H111.223V53ZM124.456 41.856H126.92V48.296C126.92 51.46 128.88 53.42 132.1 53.42C134.9 53.42 137.056 51.32 136.888 48.1L134.34 47.848C134.452 49.752 133.556 50.984 132.016 50.984C130.476 50.984 129.58 50.06 129.58 48.352V41.856H136.412V39.504H129.58V35.472H126.92V39.504H124.456V41.856ZM138.244 48.212C138.496 49.752 139.196 51.012 140.288 51.992C141.38 52.944 142.752 53.42 144.348 53.42C145.972 53.42 147.288 53 148.296 52.188C149.332 51.376 149.836 50.284 149.836 48.968C149.836 46.42 148.016 44.964 144.404 44.6C142.416 44.404 141.828 43.872 141.828 42.948C141.828 42.08 142.752 41.548 144.124 41.548C145.552 41.548 146.616 42.416 146.952 43.9L149.276 43.172C148.688 40.68 146.588 39.084 144.124 39.084C141.296 39.084 139.168 40.736 139.168 42.976C139.168 45.356 140.792 46.84 144.068 47.176C146.392 47.428 147.204 48.1 147.204 49.08C147.204 50.2 146.14 50.956 144.348 50.956C142.36 50.956 141.072 49.668 140.764 47.736L138.244 48.212Z" fill="#34343D"/>
  <circle cx="38" cy="102" r="10" fill="#5EB42A"/>
  <path d="M60.2784 108V96.3636H64.4261C65.3277 96.3636 66.0758 96.5189 66.6705 96.8295C67.2689 97.1402 67.7159 97.5701 68.0114 98.1193C68.3068 98.6648 68.4545 99.2955 68.4545 100.011C68.4545 100.723 68.3049 101.35 68.0057 101.892C67.7102 102.43 67.2633 102.848 66.6648 103.148C66.0701 103.447 65.322 103.597 64.4205 103.597H61.2784V102.085H64.2614C64.8295 102.085 65.2917 102.004 65.6477 101.841C66.0076 101.678 66.2708 101.441 66.4375 101.131C66.6042 100.82 66.6875 100.447 66.6875 100.011C66.6875 99.572 66.6023 99.1913 66.4318 98.8693C66.2652 98.5473 66.0019 98.3011 65.642 98.1307C65.286 97.9564 64.8182 97.8693 64.2386 97.8693H62.0341V108H60.2784ZM66.0227 102.75L68.8977 108H66.8977L64.0795 102.75H66.0227ZM73.9305 108.176C73.0707 108.176 72.3302 107.992 71.7089 107.625C71.0915 107.254 70.6142 106.733 70.2771 106.062C69.9438 105.388 69.7771 104.598 69.7771 103.693C69.7771 102.799 69.9438 102.011 70.2771 101.33C70.6142 100.648 71.0839 100.116 71.6862 99.733C72.2923 99.3504 73.0006 99.1591 73.8112 99.1591C74.3036 99.1591 74.7809 99.2405 75.243 99.4034C75.7052 99.5663 76.1199 99.822 76.4874 100.17C76.8548 100.519 77.1446 100.972 77.3567 101.528C77.5688 102.081 77.6749 102.754 77.6749 103.545V104.148H70.7374V102.875H76.0101C76.0101 102.428 75.9192 102.032 75.7374 101.688C75.5555 101.339 75.2999 101.064 74.9703 100.864C74.6445 100.663 74.262 100.562 73.8226 100.562C73.3453 100.562 72.9286 100.68 72.5726 100.915C72.2203 101.146 71.9476 101.449 71.7544 101.824C71.565 102.195 71.4703 102.598 71.4703 103.034V104.028C71.4703 104.612 71.5726 105.108 71.7771 105.517C71.9855 105.926 72.2752 106.239 72.6464 106.455C73.0177 106.667 73.4514 106.773 73.9476 106.773C74.2695 106.773 74.5631 106.727 74.8283 106.636C75.0934 106.542 75.3226 106.402 75.5158 106.216C75.7089 106.03 75.8567 105.801 75.9589 105.528L77.5669 105.818C77.4381 106.292 77.207 106.706 76.8737 107.062C76.5442 107.415 76.1294 107.689 75.6294 107.886C75.1332 108.08 74.5669 108.176 73.9305 108.176ZM83.0599 108.176C82.2152 108.176 81.488 107.985 80.8781 107.602C80.2721 107.216 79.8061 106.684 79.4804 106.006C79.1546 105.328 78.9918 104.551 78.9918 103.676C78.9918 102.79 79.1584 102.008 79.4918 101.33C79.8251 100.648 80.2948 100.116 80.9008 99.733C81.5069 99.3504 82.2209 99.1591 83.0429 99.1591C83.7058 99.1591 84.2967 99.2822 84.8156 99.5284C85.3346 99.7708 85.7531 100.112 86.0713 100.551C86.3933 100.991 86.5846 101.504 86.6452 102.091H84.9918C84.9008 101.682 84.6925 101.33 84.3668 101.034C84.0448 100.739 83.613 100.591 83.0713 100.591C82.5978 100.591 82.183 100.716 81.827 100.966C81.4747 101.212 81.2001 101.564 81.0031 102.023C80.8061 102.477 80.7077 103.015 80.7077 103.636C80.7077 104.273 80.8043 104.822 80.9974 105.284C81.1906 105.746 81.4633 106.104 81.8156 106.358C82.1717 106.612 82.5902 106.739 83.0713 106.739C83.3933 106.739 83.6849 106.68 83.9463 106.562C84.2114 106.441 84.433 106.269 84.6111 106.045C84.7929 105.822 84.9198 105.553 84.9918 105.239H86.6452C86.5846 105.803 86.4008 106.307 86.094 106.75C85.7872 107.193 85.3762 107.542 84.8611 107.795C84.3497 108.049 83.7493 108.176 83.0599 108.176ZM92.0473 108.176C91.1874 108.176 90.4469 107.992 89.8257 107.625C89.2083 107.254 88.731 106.733 88.3939 106.062C88.0605 105.388 87.8939 104.598 87.8939 103.693C87.8939 102.799 88.0605 102.011 88.3939 101.33C88.731 100.648 89.2007 100.116 89.803 99.733C90.409 99.3504 91.1174 99.1591 91.928 99.1591C92.4204 99.1591 92.8977 99.2405 93.3598 99.4034C93.8219 99.5663 94.2367 99.822 94.6041 100.17C94.9715 100.519 95.2613 100.972 95.4734 101.528C95.6855 102.081 95.7916 102.754 95.7916 103.545V104.148H88.8541V102.875H94.1268C94.1268 102.428 94.0359 102.032 93.8541 101.688C93.6723 101.339 93.4166 101.064 93.0871 100.864C92.7613 100.663 92.3787 100.562 91.9393 100.562C91.4621 100.562 91.0454 100.68 90.6893 100.915C90.3371 101.146 90.0643 101.449 89.8711 101.824C89.6818 102.195 89.5871 102.598 89.5871 103.034V104.028C89.5871 104.612 89.6893 105.108 89.8939 105.517C90.1022 105.926 90.392 106.239 90.7632 106.455C91.1344 106.667 91.5681 106.773 92.0643 106.773C92.3863 106.773 92.6799 106.727 92.945 106.636C93.2102 106.542 93.4393 106.402 93.6325 106.216C93.8257 106.03 93.9734 105.801 94.0757 105.528L95.6836 105.818C95.5549 106.292 95.3238 106.706 94.9905 107.062C94.6609 107.415 94.2461 107.689 93.7461 107.886C93.2499 108.08 92.6836 108.176 92.0473 108.176ZM97.5005 108V99.2727H99.1994V108H97.5005ZM98.3585 97.9261C98.063 97.9261 97.8093 97.8277 97.5971 97.6307C97.3888 97.4299 97.2846 97.1913 97.2846 96.9148C97.2846 96.6345 97.3888 96.3958 97.5971 96.1989C97.8093 95.9981 98.063 95.8977 98.3585 95.8977C98.654 95.8977 98.9059 95.9981 99.1142 96.1989C99.3263 96.3958 99.4324 96.6345 99.4324 96.9148C99.4324 97.1913 99.3263 97.4299 99.1142 97.6307C98.9059 97.8277 98.654 97.9261 98.3585 97.9261ZM108.775 99.2727L105.61 108H103.792L100.621 99.2727H102.445L104.656 105.989H104.746L106.951 99.2727H108.775ZM113.66 108.176C112.8 108.176 112.06 107.992 111.438 107.625C110.821 107.254 110.344 106.733 110.007 106.062C109.673 105.388 109.507 104.598 109.507 103.693C109.507 102.799 109.673 102.011 110.007 101.33C110.344 100.648 110.813 100.116 111.416 99.733C112.022 99.3504 112.73 99.1591 113.541 99.1591C114.033 99.1591 114.51 99.2405 114.972 99.4034C115.435 99.5663 115.849 99.822 116.217 100.17C116.584 100.519 116.874 100.972 117.086 101.528C117.298 102.081 117.404 102.754 117.404 103.545V104.148H110.467V102.875H115.739C115.739 102.428 115.649 102.032 115.467 101.688C115.285 101.339 115.029 101.064 114.7 100.864C114.374 100.663 113.991 100.562 113.552 100.562C113.075 100.562 112.658 100.68 112.302 100.915C111.95 101.146 111.677 101.449 111.484 101.824C111.294 102.195 111.2 102.598 111.2 103.034V104.028C111.2 104.612 111.302 105.108 111.507 105.517C111.715 105.926 112.005 106.239 112.376 106.455C112.747 106.667 113.181 106.773 113.677 106.773C113.999 106.773 114.292 106.727 114.558 106.636C114.823 106.542 115.052 106.402 115.245 106.216C115.438 106.03 115.586 105.801 115.688 105.528L117.296 105.818C117.167 106.292 116.936 106.706 116.603 107.062C116.274 107.415 115.859 107.689 115.359 107.886C114.863 108.08 114.296 108.176 113.66 108.176ZM122.38 108.17C121.676 108.17 121.047 107.991 120.494 107.631C119.945 107.267 119.513 106.75 119.198 106.08C118.888 105.405 118.732 104.597 118.732 103.653C118.732 102.71 118.89 101.903 119.204 101.233C119.522 100.562 119.958 100.049 120.511 99.6932C121.064 99.3371 121.691 99.1591 122.392 99.1591C122.933 99.1591 123.369 99.25 123.698 99.4318C124.032 99.6098 124.289 99.8182 124.471 100.057C124.657 100.295 124.801 100.506 124.903 100.688H125.005V96.3636H126.704V108H125.045V106.642H124.903C124.801 106.828 124.653 107.04 124.46 107.278C124.27 107.517 124.009 107.725 123.676 107.903C123.342 108.081 122.911 108.17 122.38 108.17ZM122.755 106.722C123.244 106.722 123.657 106.593 123.994 106.335C124.335 106.074 124.592 105.712 124.767 105.25C124.945 104.788 125.034 104.25 125.034 103.636C125.034 103.03 124.947 102.5 124.772 102.045C124.598 101.591 124.342 101.237 124.005 100.983C123.668 100.729 123.251 100.602 122.755 100.602C122.244 100.602 121.818 100.735 121.477 101C121.136 101.265 120.878 101.627 120.704 102.085C120.534 102.544 120.448 103.061 120.448 103.636C120.448 104.22 120.536 104.744 120.71 105.21C120.884 105.676 121.142 106.045 121.482 106.318C121.827 106.587 122.251 106.722 122.755 106.722Z" fill="#1E1E1E"/>
  <path d="M183.409 96.2045C183.886 96.2083 184.364 96.2992 184.841 96.4773C185.318 96.6553 185.754 96.9508 186.148 97.3636C186.542 97.7727 186.858 98.3314 187.097 99.0398C187.335 99.7481 187.455 100.636 187.455 101.705C187.455 102.739 187.356 103.657 187.159 104.46C186.966 105.259 186.686 105.934 186.318 106.483C185.955 107.032 185.511 107.449 184.989 107.733C184.47 108.017 183.883 108.159 183.227 108.159C182.576 108.159 181.994 108.03 181.483 107.773C180.975 107.511 180.559 107.15 180.233 106.688C179.911 106.222 179.705 105.682 179.614 105.068H181C181.125 105.602 181.373 106.044 181.744 106.392C182.119 106.737 182.614 106.909 183.227 106.909C184.125 106.909 184.833 106.517 185.352 105.733C185.875 104.949 186.136 103.841 186.136 102.409H186.045C185.833 102.727 185.581 103.002 185.29 103.233C184.998 103.464 184.674 103.642 184.318 103.767C183.962 103.892 183.583 103.955 183.182 103.955C182.515 103.955 181.903 103.79 181.347 103.46C180.794 103.127 180.35 102.67 180.017 102.091C179.688 101.508 179.523 100.841 179.523 100.091C179.523 99.3788 179.682 98.7273 180 98.1364C180.322 97.5417 180.773 97.0682 181.352 96.7159C181.936 96.3636 182.621 96.1932 183.409 96.2045ZM183.409 97.4545C182.932 97.4545 182.502 97.5739 182.119 97.8125C181.741 98.0473 181.439 98.3655 181.216 98.767C180.996 99.1648 180.886 99.6061 180.886 100.091C180.886 100.576 180.992 101.017 181.205 101.415C181.42 101.809 181.714 102.123 182.085 102.358C182.46 102.589 182.886 102.705 183.364 102.705C183.723 102.705 184.059 102.634 184.369 102.494C184.68 102.35 184.951 102.155 185.182 101.909C185.417 101.659 185.6 101.377 185.733 101.062C185.866 100.744 185.932 100.413 185.932 100.068C185.932 99.6136 185.822 99.1875 185.602 98.7898C185.386 98.392 185.087 98.0701 184.705 97.8239C184.326 97.5777 183.894 97.4545 183.409 97.4545ZM190.689 106.511C190.409 106.511 190.168 106.411 189.967 106.21C189.767 106.009 189.666 105.769 189.666 105.489C189.666 105.208 189.767 104.968 189.967 104.767C190.168 104.566 190.409 104.466 190.689 104.466C190.969 104.466 191.21 104.566 191.411 104.767C191.611 104.968 191.712 105.208 191.712 105.489C191.712 105.674 191.664 105.845 191.57 106C191.479 106.155 191.356 106.28 191.2 106.375C191.049 106.466 190.878 106.511 190.689 106.511ZM190.689 100.625C190.409 100.625 190.168 100.525 189.967 100.324C189.767 100.123 189.666 99.8826 189.666 99.6023C189.666 99.322 189.767 99.0814 189.967 98.8807C190.168 98.6799 190.409 98.5795 190.689 98.5795C190.969 98.5795 191.21 98.6799 191.411 98.8807C191.611 99.0814 191.712 99.322 191.712 99.6023C191.712 99.7879 191.664 99.9583 191.57 100.114C191.479 100.269 191.356 100.394 191.2 100.489C191.049 100.58 190.878 100.625 190.689 100.625ZM194.095 108V106.977L197.936 102.773C198.387 102.28 198.758 101.852 199.05 101.489C199.341 101.121 199.557 100.777 199.697 100.455C199.841 100.129 199.913 99.7879 199.913 99.4318C199.913 99.0227 199.815 98.6686 199.618 98.3693C199.425 98.0701 199.16 97.839 198.822 97.6761C198.485 97.5133 198.107 97.4318 197.686 97.4318C197.239 97.4318 196.849 97.5246 196.516 97.7102C196.186 97.892 195.93 98.1477 195.749 98.4773C195.571 98.8068 195.482 99.1932 195.482 99.6364H194.141C194.141 98.9545 194.298 98.3561 194.612 97.8409C194.927 97.3258 195.355 96.9242 195.896 96.6364C196.442 96.3485 197.054 96.2045 197.732 96.2045C198.413 96.2045 199.018 96.3485 199.544 96.6364C200.071 96.9242 200.483 97.3125 200.783 97.8011C201.082 98.2898 201.232 98.8333 201.232 99.4318C201.232 99.8598 201.154 100.278 200.999 100.688C200.847 101.093 200.582 101.545 200.203 102.045C199.828 102.542 199.307 103.148 198.641 103.864L196.027 106.659V106.75H201.436V108H194.095ZM207.578 108.159C206.722 108.159 205.993 107.926 205.391 107.46C204.788 106.991 204.328 106.311 204.01 105.42C203.692 104.527 203.533 103.447 203.533 102.182C203.533 100.924 203.692 99.8504 204.01 98.9602C204.332 98.0663 204.794 97.3845 205.396 96.9148C206.002 96.4413 206.73 96.2045 207.578 96.2045C208.427 96.2045 209.152 96.4413 209.754 96.9148C210.36 97.3845 210.822 98.0663 211.141 98.9602C211.463 99.8504 211.624 100.924 211.624 102.182C211.624 103.447 211.464 104.527 211.146 105.42C210.828 106.311 210.368 106.991 209.766 107.46C209.163 107.926 208.434 108.159 207.578 108.159ZM207.578 106.909C208.427 106.909 209.086 106.5 209.555 105.682C210.025 104.864 210.26 103.697 210.26 102.182C210.26 101.174 210.152 100.316 209.936 99.608C209.724 98.8996 209.417 98.3598 209.016 97.9886C208.618 97.6174 208.139 97.4318 207.578 97.4318C206.737 97.4318 206.08 97.8466 205.607 98.6761C205.133 99.5019 204.896 100.67 204.896 102.182C204.896 103.189 205.002 104.045 205.214 104.75C205.427 105.455 205.732 105.991 206.129 106.358C206.531 106.725 207.014 106.909 207.578 106.909Z" fill="#86868E"/>
  <rect x="264" y="96" width="139" height="12" rx="6" fill="#F6F5F9"/>
  <circle cx="38" cy="154" r="10" fill="#5EB42A"/>
  <path d="M60.2784 160V148.364H64.4261C65.3277 148.364 66.0758 148.519 66.6705 148.83C67.2689 149.14 67.7159 149.57 68.0114 150.119C68.3068 150.665 68.4545 151.295 68.4545 152.011C68.4545 152.723 68.3049 153.35 68.0057 153.892C67.7102 154.43 67.2633 154.848 66.6648 155.148C66.0701 155.447 65.322 155.597 64.4205 155.597H61.2784V154.085H64.2614C64.8295 154.085 65.2917 154.004 65.6477 153.841C66.0076 153.678 66.2708 153.441 66.4375 153.131C66.6042 152.82 66.6875 152.447 66.6875 152.011C66.6875 151.572 66.6023 151.191 66.4318 150.869C66.2652 150.547 66.0019 150.301 65.642 150.131C65.286 149.956 64.8182 149.869 64.2386 149.869H62.0341V160H60.2784ZM66.0227 154.75L68.8977 160H66.8977L64.0795 154.75H66.0227ZM73.9305 160.176C73.0707 160.176 72.3302 159.992 71.7089 159.625C71.0915 159.254 70.6142 158.733 70.2771 158.062C69.9438 157.388 69.7771 156.598 69.7771 155.693C69.7771 154.799 69.9438 154.011 70.2771 153.33C70.6142 152.648 71.0839 152.116 71.6862 151.733C72.2923 151.35 73.0006 151.159 73.8112 151.159C74.3036 151.159 74.7809 151.241 75.243 151.403C75.7052 151.566 76.1199 151.822 76.4874 152.17C76.8548 152.519 77.1446 152.972 77.3567 153.528C77.5688 154.081 77.6749 154.754 77.6749 155.545V156.148H70.7374V154.875H76.0101C76.0101 154.428 75.9192 154.032 75.7374 153.688C75.5555 153.339 75.2999 153.064 74.9703 152.864C74.6445 152.663 74.262 152.562 73.8226 152.562C73.3453 152.562 72.9286 152.68 72.5726 152.915C72.2203 153.146 71.9476 153.449 71.7544 153.824C71.565 154.195 71.4703 154.598 71.4703 155.034V156.028C71.4703 156.612 71.5726 157.108 71.7771 157.517C71.9855 157.926 72.2752 158.239 72.6464 158.455C73.0177 158.667 73.4514 158.773 73.9476 158.773C74.2695 158.773 74.5631 158.727 74.8283 158.636C75.0934 158.542 75.3226 158.402 75.5158 158.216C75.7089 158.03 75.8567 157.801 75.9589 157.528L77.5669 157.818C77.4381 158.292 77.207 158.706 76.8737 159.062C76.5442 159.415 76.1294 159.689 75.6294 159.886C75.1332 160.08 74.5669 160.176 73.9305 160.176ZM83.0599 160.176C82.2152 160.176 81.488 159.985 80.8781 159.602C80.2721 159.216 79.8061 158.684 79.4804 158.006C79.1546 157.328 78.9918 156.551 78.9918 155.676C78.9918 154.79 79.1584 154.008 79.4918 153.33C79.8251 152.648 80.2948 152.116 80.9008 151.733C81.5069 151.35 82.2209 151.159 83.0429 151.159C83.7058 151.159 84.2967 151.282 84.8156 151.528C85.3346 151.771 85.7531 152.112 86.0713 152.551C86.3933 152.991 86.5846 153.504 86.6452 154.091H84.9918C84.9008 153.682 84.6925 153.33 84.3668 153.034C84.0448 152.739 83.613 152.591 83.0713 152.591C82.5978 152.591 82.183 152.716 81.827 152.966C81.4747 153.212 81.2001 153.564 81.0031 154.023C80.8061 154.477 80.7077 155.015 80.7077 155.636C80.7077 156.273 80.8043 156.822 80.9974 157.284C81.1906 157.746 81.4633 158.104 81.8156 158.358C82.1717 158.612 82.5902 158.739 83.0713 158.739C83.3933 158.739 83.6849 158.68 83.9463 158.562C84.2114 158.441 84.433 158.269 84.6111 158.045C84.7929 157.822 84.9198 157.553 84.9918 157.239H86.6452C86.5846 157.803 86.4008 158.307 86.094 158.75C85.7872 159.193 85.3762 159.542 84.8611 159.795C84.3497 160.049 83.7493 160.176 83.0599 160.176ZM92.0473 160.176C91.1874 160.176 90.4469 159.992 89.8257 159.625C89.2083 159.254 88.731 158.733 88.3939 158.062C88.0605 157.388 87.8939 156.598 87.8939 155.693C87.8939 154.799 88.0605 154.011 88.3939 153.33C88.731 152.648 89.2007 152.116 89.803 151.733C90.409 151.35 91.1174 151.159 91.928 151.159C92.4204 151.159 92.8977 151.241 93.3598 151.403C93.8219 151.566 94.2367 151.822 94.6041 152.17C94.9715 152.519 95.2613 152.972 95.4734 153.528C95.6855 154.081 95.7916 154.754 95.7916 155.545V156.148H88.8541V154.875H94.1268C94.1268 154.428 94.0359 154.032 93.8541 153.688C93.6723 153.339 93.4166 153.064 93.0871 152.864C92.7613 152.663 92.3787 152.562 91.9393 152.562C91.4621 152.562 91.0454 152.68 90.6893 152.915C90.3371 153.146 90.0643 153.449 89.8711 153.824C89.6818 154.195 89.5871 154.598 89.5871 155.034V156.028C89.5871 156.612 89.6893 157.108 89.8939 157.517C90.1022 157.926 90.392 158.239 90.7632 158.455C91.1344 158.667 91.5681 158.773 92.0643 158.773C92.3863 158.773 92.6799 158.727 92.945 158.636C93.2102 158.542 93.4393 158.402 93.6325 158.216C93.8257 158.03 93.9734 157.801 94.0757 157.528L95.6836 157.818C95.5549 158.292 95.3238 158.706 94.9905 159.062C94.6609 159.415 94.2461 159.689 93.7461 159.886C93.2499 160.08 92.6836 160.176 92.0473 160.176ZM97.5005 160V151.273H99.1994V160H97.5005ZM98.3585 149.926C98.063 149.926 97.8093 149.828 97.5971 149.631C97.3888 149.43 97.2846 149.191 97.2846 148.915C97.2846 148.634 97.3888 148.396 97.5971 148.199C97.8093 147.998 98.063 147.898 98.3585 147.898C98.654 147.898 98.9059 147.998 99.1142 148.199C99.3263 148.396 99.4324 148.634 99.4324 148.915C99.4324 149.191 99.3263 149.43 99.1142 149.631C98.9059 149.828 98.654 149.926 98.3585 149.926ZM108.775 151.273L105.61 160H103.792L100.621 151.273H102.445L104.656 157.989H104.746L106.951 151.273H108.775ZM113.66 160.176C112.8 160.176 112.06 159.992 111.438 159.625C110.821 159.254 110.344 158.733 110.007 158.062C109.673 157.388 109.507 156.598 109.507 155.693C109.507 154.799 109.673 154.011 110.007 153.33C110.344 152.648 110.813 152.116 111.416 151.733C112.022 151.35 112.73 151.159 113.541 151.159C114.033 151.159 114.51 151.241 114.972 151.403C115.435 151.566 115.849 151.822 116.217 152.17C116.584 152.519 116.874 152.972 117.086 153.528C117.298 154.081 117.404 154.754 117.404 155.545V156.148H110.467V154.875H115.739C115.739 154.428 115.649 154.032 115.467 153.688C115.285 153.339 115.029 153.064 114.7 152.864C114.374 152.663 113.991 152.562 113.552 152.562C113.075 152.562 112.658 152.68 112.302 152.915C111.95 153.146 111.677 153.449 111.484 153.824C111.294 154.195 111.2 154.598 111.2 155.034V156.028C111.2 156.612 111.302 157.108 111.507 157.517C111.715 157.926 112.005 158.239 112.376 158.455C112.747 158.667 113.181 158.773 113.677 158.773C113.999 158.773 114.292 158.727 114.558 158.636C114.823 158.542 115.052 158.402 115.245 158.216C115.438 158.03 115.586 157.801 115.688 157.528L117.296 157.818C117.167 158.292 116.936 158.706 116.603 159.062C116.274 159.415 115.859 159.689 115.359 159.886C114.863 160.08 114.296 160.176 113.66 160.176ZM122.38 160.17C121.676 160.17 121.047 159.991 120.494 159.631C119.945 159.267 119.513 158.75 119.198 158.08C118.888 157.405 118.732 156.597 118.732 155.653C118.732 154.71 118.89 153.903 119.204 153.233C119.522 152.562 119.958 152.049 120.511 151.693C121.064 151.337 121.691 151.159 122.392 151.159C122.933 151.159 123.369 151.25 123.698 151.432C124.032 151.61 124.289 151.818 124.471 152.057C124.657 152.295 124.801 152.506 124.903 152.688H125.005V148.364H126.704V160H125.045V158.642H124.903C124.801 158.828 124.653 159.04 124.46 159.278C124.27 159.517 124.009 159.725 123.676 159.903C123.342 160.081 122.911 160.17 122.38 160.17ZM122.755 158.722C123.244 158.722 123.657 158.593 123.994 158.335C124.335 158.074 124.592 157.712 124.767 157.25C124.945 156.788 125.034 156.25 125.034 155.636C125.034 155.03 124.947 154.5 124.772 154.045C124.598 153.591 124.342 153.237 124.005 152.983C123.668 152.729 123.251 152.602 122.755 152.602C122.244 152.602 121.818 152.735 121.477 153C121.136 153.265 120.878 153.627 120.704 154.085C120.534 154.544 120.448 155.061 120.448 155.636C120.448 156.22 120.536 156.744 120.71 157.21C120.884 157.676 121.142 158.045 121.482 158.318C121.827 158.587 122.251 158.722 122.755 158.722Z" fill="#1E1E1E"/>
  <path d="M183.295 148.364V160H181.886V149.841H181.818L178.977 151.727V150.295L181.886 148.364H183.295ZM190.278 160.159C189.612 160.159 189.011 160.027 188.477 159.761C187.943 159.496 187.515 159.133 187.193 158.67C186.871 158.208 186.695 157.682 186.665 157.091H188.028C188.081 157.617 188.32 158.053 188.744 158.398C189.172 158.739 189.684 158.909 190.278 158.909C190.756 158.909 191.18 158.797 191.551 158.574C191.926 158.35 192.22 158.044 192.432 157.653C192.648 157.259 192.756 156.814 192.756 156.318C192.756 155.811 192.644 155.358 192.42 154.96C192.201 154.559 191.898 154.242 191.511 154.011C191.125 153.78 190.684 153.663 190.188 153.659C189.831 153.655 189.466 153.71 189.091 153.824C188.716 153.934 188.407 154.076 188.165 154.25L186.847 154.091L187.551 148.364H193.597V149.614H188.733L188.324 153.045H188.392C188.631 152.856 188.93 152.699 189.29 152.574C189.65 152.449 190.025 152.386 190.415 152.386C191.127 152.386 191.761 152.557 192.318 152.898C192.879 153.235 193.318 153.697 193.636 154.284C193.958 154.871 194.119 155.542 194.119 156.295C194.119 157.038 193.953 157.701 193.619 158.284C193.29 158.864 192.835 159.322 192.256 159.659C191.676 159.992 191.017 160.159 190.278 160.159ZM197.376 158.511C197.096 158.511 196.856 158.411 196.655 158.21C196.454 158.009 196.354 157.769 196.354 157.489C196.354 157.208 196.454 156.968 196.655 156.767C196.856 156.566 197.096 156.466 197.376 156.466C197.657 156.466 197.897 156.566 198.098 156.767C198.299 156.968 198.399 157.208 198.399 157.489C198.399 157.674 198.352 157.845 198.257 158C198.166 158.155 198.043 158.28 197.888 158.375C197.736 158.466 197.566 158.511 197.376 158.511ZM197.376 152.625C197.096 152.625 196.856 152.525 196.655 152.324C196.454 152.123 196.354 151.883 196.354 151.602C196.354 151.322 196.454 151.081 196.655 150.881C196.856 150.68 197.096 150.58 197.376 150.58C197.657 150.58 197.897 150.68 198.098 150.881C198.299 151.081 198.399 151.322 198.399 151.602C198.399 151.788 198.352 151.958 198.257 152.114C198.166 152.269 198.043 152.394 197.888 152.489C197.736 152.58 197.566 152.625 197.376 152.625ZM200.783 160V158.977L204.624 154.773C205.074 154.28 205.446 153.852 205.737 153.489C206.029 153.121 206.245 152.777 206.385 152.455C206.529 152.129 206.601 151.788 206.601 151.432C206.601 151.023 206.502 150.669 206.305 150.369C206.112 150.07 205.847 149.839 205.51 149.676C205.173 149.513 204.794 149.432 204.374 149.432C203.927 149.432 203.536 149.525 203.203 149.71C202.874 149.892 202.618 150.148 202.436 150.477C202.258 150.807 202.169 151.193 202.169 151.636H200.828C200.828 150.955 200.985 150.356 201.3 149.841C201.614 149.326 202.042 148.924 202.584 148.636C203.129 148.348 203.741 148.205 204.419 148.205C205.101 148.205 205.705 148.348 206.232 148.636C206.758 148.924 207.171 149.312 207.47 149.801C207.769 150.29 207.919 150.833 207.919 151.432C207.919 151.86 207.841 152.278 207.686 152.688C207.535 153.093 207.269 153.545 206.891 154.045C206.516 154.542 205.995 155.148 205.328 155.864L202.714 158.659V158.75H208.124V160H200.783ZM214.561 148.364V160H213.152V149.841H213.084L210.243 151.727V150.295L213.152 148.364H214.561Z" fill="#86868E"/>
  <rect x="267" y="148" width="136" height="12" rx="6" fill="#F6F5F9"/>
  <rect x="210" y="53" width="250" height="64.9412" rx="11.7647" fill="#2C7600"/>
  <path d="M236.706 86.0594L240.165 89.5888L248.235 81.3535" stroke="white" stroke-width="1.5" stroke-linecap="round" stroke-linejoin="round"/>
  <path d="M242.471 99.1961C250.051 99.1961 256.196 93.0512 256.196 85.4706C256.196 77.89 250.051 71.7451 242.471 71.7451C234.89 71.7451 228.745 77.89 228.745 85.4706C228.745 93.0512 234.89 99.1961 242.471 99.1961Z" stroke="white" stroke-width="1.5" stroke-linecap="round" stroke-linejoin="round"/>
  <path d="M274.718 90.4706H276.428V85.2686H280.118C282.548 85.2686 283.988 83.7746 283.988 81.5606C283.988 79.4366 282.53 77.8706 280.118 77.8706H274.718V90.4706ZM276.428 83.6126V79.5086H280.046C281.486 79.5086 282.278 80.2826 282.278 81.5606C282.278 82.8386 281.486 83.6126 280.046 83.6126H276.428ZM287.916 85.2506C285.738 85.6106 284.64 86.4926 284.64 88.1486C284.64 89.4446 285.63 90.7406 287.61 90.7406C288.78 90.7406 289.608 90.2006 290.094 89.3906V90.4706H291.696V84.6206C291.696 82.6946 290.436 81.5066 288.15 81.5066C286.17 81.5066 284.568 82.7126 284.676 84.9086L286.296 85.0346L286.278 84.7826C286.278 83.6846 286.98 82.9826 288.186 82.9826C289.41 82.9826 290.076 83.6126 290.076 84.5306V84.8906L287.916 85.2506ZM287.934 89.1926C286.908 89.1926 286.26 88.7066 286.26 87.9686C286.26 87.1586 286.998 86.7986 288.168 86.5826L290.076 86.2766V86.7806C290.076 88.2206 289.176 89.1926 287.934 89.1926ZM293.246 91.0466C293.138 93.2966 294.83 94.7726 297.152 94.7726C299.708 94.7726 301.49 92.8826 301.49 90.3086V81.7946H299.78V86.0066C299.78 87.7166 298.862 88.7786 297.494 88.7786C296.198 88.7786 295.55 88.0586 295.55 86.6186V81.7946H293.84L293.858 86.9606C293.858 89.0486 295.01 90.3086 296.954 90.3266C298.178 90.3086 299.114 89.8766 299.78 89.0126V90.3806C299.78 92.1266 298.736 93.2606 297.152 93.2606C295.766 93.2606 294.794 92.3606 294.884 90.8306L293.246 91.0466ZM303.649 90.4706H305.305V85.6106C305.305 83.9546 305.989 83.0726 307.069 83.0726C308.059 83.0726 308.509 83.5946 308.509 84.8726V90.4706H310.147L310.111 85.3766C310.183 83.8646 310.849 83.0726 311.875 83.0726C312.865 83.0726 313.315 83.5946 313.315 84.8726V90.4706H314.971L314.935 84.4586C314.935 82.5146 314.017 81.5246 312.379 81.5246C311.245 81.5246 310.399 82.0826 309.895 83.0726C309.535 82.0646 308.707 81.5246 307.537 81.5246C306.547 81.5246 305.791 82.0106 305.305 82.8206V81.8126H303.649V90.4706ZM320.911 81.5246C318.373 81.5246 316.645 83.5226 316.645 86.1506C316.645 88.7966 318.391 90.7406 321.001 90.7406C323.071 90.7406 324.763 89.4266 325.051 87.5006L323.431 87.2126C323.269 88.4186 322.261 89.2106 321.037 89.2106C319.507 89.2106 318.409 88.1306 318.247 86.4566H324.799V85.6286C324.799 83.2346 323.269 81.5246 320.911 81.5246ZM318.337 85.0886C318.643 83.8466 319.633 83.0186 320.911 83.0186C322.279 83.0186 323.179 83.9186 323.233 85.0886H318.337ZM326.729 90.4706H328.439V85.7906C328.439 84.1166 329.303 83.0726 330.671 83.0726C331.895 83.0726 332.507 83.7746 332.507 85.1966V90.4706H334.217V84.8546C334.217 82.7846 333.083 81.5246 331.193 81.5246C329.987 81.5246 329.069 82.0106 328.439 82.8026V81.7946H326.729V90.4706ZM335.236 83.3066H336.82V87.4466C336.82 89.4806 338.08 90.7406 340.15 90.7406C341.95 90.7406 343.336 89.3906 343.228 87.3206L341.59 87.1586C341.662 88.3826 341.086 89.1746 340.096 89.1746C339.106 89.1746 338.53 88.5806 338.53 87.4826V83.3066H342.922V81.7946H338.53V79.2026H336.82V81.7946H335.236V83.3066ZM349.355 90.4706H351.065V85.2686H354.449L356.897 90.4886H358.751L356.195 85.1066C357.797 84.6566 358.751 83.3066 358.751 81.5606C358.751 79.4366 357.257 77.8706 354.899 77.8706H349.355V90.4706ZM351.065 83.6126V79.5086H354.809C356.231 79.5086 357.041 80.3186 357.041 81.5606C357.041 82.8386 356.231 83.6126 354.809 83.6126H351.065ZM363.714 81.5246C361.176 81.5246 359.448 83.5226 359.448 86.1506C359.448 88.7966 361.194 90.7406 363.804 90.7406C365.874 90.7406 367.566 89.4266 367.854 87.5006L366.234 87.2126C366.072 88.4186 365.064 89.2106 363.84 89.2106C362.31 89.2106 361.212 88.1306 361.05 86.4566H367.602V85.6286C367.602 83.2346 366.072 81.5246 363.714 81.5246ZM361.14 85.0886C361.446 83.8466 362.436 83.0186 363.714 83.0186C365.082 83.0186 365.982 83.9186 366.036 85.0886H361.14ZM373.365 81.5246C370.791 81.5246 369.045 83.5226 369.045 86.1506C369.045 88.7966 370.845 90.7406 373.491 90.7406C375.615 90.7406 377.361 89.3006 377.577 87.3206L375.957 86.9246C375.831 88.2206 374.769 89.1026 373.455 89.1026C371.853 89.1026 370.755 87.8606 370.755 86.0066C370.755 84.4406 371.835 83.1626 373.365 83.1626C374.571 83.1626 375.417 83.8826 375.579 84.9626L377.145 84.4406C376.767 82.6586 375.327 81.5246 373.365 81.5246ZM382.821 81.5246C380.283 81.5246 378.555 83.5226 378.555 86.1506C378.555 88.7966 380.301 90.7406 382.911 90.7406C384.981 90.7406 386.673 89.4266 386.961 87.5006L385.341 87.2126C385.179 88.4186 384.171 89.2106 382.947 89.2106C381.417 89.2106 380.319 88.1306 380.157 86.4566H386.709V85.6286C386.709 83.2346 385.179 81.5246 382.821 81.5246ZM380.247 85.0886C380.553 83.8466 381.543 83.0186 382.821 83.0186C384.189 83.0186 385.089 83.9186 385.143 85.0886H380.247ZM388.639 90.4706H390.349V81.7946H388.639V90.4706ZM389.485 78.0866C388.837 78.0866 388.333 78.6086 388.333 79.2386C388.333 79.8866 388.837 80.3906 389.485 80.3906C390.115 80.3906 390.619 79.8866 390.619 79.2386C390.619 78.6086 390.115 78.0866 389.485 78.0866ZM391.732 81.7946L395.224 90.4706H397.024L400.498 81.7946H398.698L396.124 88.2206L393.532 81.7946H391.732ZM405.374 81.5246C402.836 81.5246 401.108 83.5226 401.108 86.1506C401.108 88.7966 402.854 90.7406 405.464 90.7406C407.534 90.7406 409.226 89.4266 409.514 87.5006L407.894 87.2126C407.732 88.4186 406.724 89.2106 405.5 89.2106C403.97 89.2106 402.872 88.1306 402.71 86.4566H409.262V85.6286C409.262 83.2346 407.732 81.5246 405.374 81.5246ZM402.8 85.0886C403.106 83.8466 404.096 83.0186 405.374 83.0186C406.742 83.0186 407.642 83.9186 407.696 85.0886H402.8ZM414.792 81.5246C412.416 81.5246 410.706 83.5586 410.706 86.1326C410.706 88.7066 412.416 90.7406 414.792 90.7406C416.106 90.7406 417.114 90.2186 417.816 89.3006V90.4706H419.526V77.8706H417.816V82.9646C417.114 82.0466 416.088 81.5246 414.792 81.5246ZM415.134 89.1026C414.324 89.1026 413.676 88.8326 413.172 88.2746C412.668 87.7166 412.416 86.9966 412.416 86.1326C412.416 85.2686 412.668 84.5666 413.172 84.0086C413.694 83.4506 414.342 83.1626 415.134 83.1626C416.7 83.1626 417.816 84.4406 417.816 86.1326C417.816 86.9966 417.564 87.7166 417.06 88.2746C416.556 88.8326 415.908 89.1026 415.134 89.1026Z" fill="white"/>
  </svg>
  