<svg width="477" height="398" viewBox="0 0 477 398" fill="none" xmlns="http://www.w3.org/2000/svg">
  <rect x="180.156" y="2" width="210.985" height="392" rx="20" fill="#CFB8FF" stroke="#2C0F68" stroke-linecap="round" stroke-linejoin="round"/>
  <rect x="180.156" y="2" width="200.196" height="392" rx="20" fill="#DDCDFF" stroke="#2C0F68" stroke-linecap="round" stroke-linejoin="round"/>
  <path d="M373.159 372.006V23.9939C373.159 15.1573 365.996 7.99387 357.159 7.99387H342.133C338.398 7.99387 335.218 10.7099 334.634 14.3986C334.05 18.0872 330.87 20.8033 327.135 20.8033H232.137C228.461 20.8033 225.37 18.0492 224.947 14.3986C224.523 10.7479 221.432 7.99387 217.757 7.99387H202.15C193.313 7.99387 186.15 15.1573 186.15 23.9939V372.006C186.15 380.843 193.313 388.006 202.15 388.006H357.159C365.996 388.006 373.159 380.843 373.159 372.006Z" fill="#EEEAFF" stroke="#2C0F68" stroke-linecap="round" stroke-linejoin="round"/>
  <rect x="2" y="54" width="168.819" height="168.819" rx="13.5055" fill="#DDCDFF" stroke="#2C0F68" stroke-linecap="round" stroke-linejoin="round"/>
  <rect x="16.6309" y="69.7564" width="9.00369" height="9.00369" rx="4.50184" fill="#BA9AFF" stroke="#2C0F68" stroke-linecap="round" stroke-linejoin="round"/>
  <rect x="30.1365" y="69.7564" width="78.7822" height="9.00369" rx="4.50184" fill="#BA9AFF" stroke="#2C0F68" stroke-linecap="round" stroke-linejoin="round"/>
  <path d="M130.72 173.346H41.3911C40.1479 173.346 39.138 172.338 39.1607 171.095C39.3084 162.99 40.2419 155.564 41.5642 149.218C43.227 141.239 45.5047 134.969 47.6085 131.211C47.9815 130.544 48.3489 129.957 48.7066 129.453C53.7711 122.317 80.2195 124.388 81.9076 130.085C82.0146 130.446 82.117 130.822 82.2223 131.211C82.2712 131.351 82.3103 131.495 82.3385 131.639C82.5462 132.401 82.774 133.203 83.0735 134.024C85.0232 139.371 90.0117 145.513 112.295 146.404C114.852 146.191 117.09 146.366 119.048 146.845C130.978 149.766 132.552 164.008 132.981 170.958C133.061 172.254 132.018 173.346 130.72 173.346Z" fill="#CFB8FF"/>
  <path d="M119.048 146.845C130.978 149.766 132.552 164.008 132.981 170.958C133.061 172.254 132.018 173.346 130.72 173.346H41.3911C40.1479 173.346 39.138 172.338 39.1607 171.095C39.3084 162.99 40.2419 155.564 41.5642 149.218M119.048 146.845C117.09 146.366 114.852 146.191 112.295 146.404C90.0117 145.513 85.0232 139.371 83.0735 134.024C82.7173 133.048 82.4625 132.097 82.2223 131.211M119.048 146.845C120.924 151.012 121.749 159.122 110.044 158.222C98.47 157.331 65.0329 156.001 49.2346 155.427C48.8754 155.414 48.5255 155.451 48.1676 155.417C46.731 155.28 44.0462 153.94 41.5642 149.218M41.5642 149.218C43.227 141.239 45.5047 134.969 47.6085 131.211M47.6085 131.211C47.9815 130.544 48.3489 129.957 48.7066 129.453C53.7711 122.317 80.2195 124.388 81.9076 130.085C82.0146 130.446 82.117 130.822 82.2223 131.211M47.6085 131.211C47.0366 132.336 47.356 134.249 53.2084 132.899C60.5239 131.211 72.904 130.648 77.4058 132.899C81.9076 135.15 82.8331 132.968 82.2223 131.211" stroke="#2C0F68" stroke-linecap="round" stroke-linejoin="round"/>
  <path d="M48.707 129.453C53.7716 122.317 80.2199 124.388 81.9081 130.085C82.015 130.446 82.1175 130.822 82.2227 131.211C82.8335 132.968 81.9081 135.15 77.4062 132.899C72.9044 130.648 60.5243 131.211 53.2088 132.899C47.3564 134.249 47.0371 132.336 47.6089 131.211C47.9819 130.544 48.3494 129.957 48.707 129.453Z" fill="#E2F8D4" stroke="#2C0F68" stroke-linecap="round" stroke-linejoin="round"/>
  <path fill-rule="evenodd" clip-rule="evenodd" d="M41.3911 173.346H130.72C132.018 173.346 133.061 172.254 132.981 170.958C132.552 164.008 130.978 149.766 119.048 146.845C120.924 151.012 119.611 155.408 107.793 155.408C96.1376 155.408 69.3506 155.408 49.1412 155.408C48.8496 155.408 48.5619 155.442 48.2708 155.425C46.8625 155.343 44.1069 154.055 41.5642 149.218C40.2419 155.564 39.3084 162.99 39.1607 171.095C39.138 172.338 40.1479 173.346 41.3911 173.346Z" fill="#BA9AFF"/>
  <path d="M119.048 146.845C117.09 146.366 114.852 146.191 112.295 146.404C90.0117 145.513 85.0232 139.371 83.0735 134.024C82.5613 132.62 82.2588 131.27 81.9076 130.085C80.2195 124.388 53.7711 122.317 48.7066 129.453C46.3316 132.8 43.5217 139.824 41.5642 149.218M119.048 146.845C120.924 151.012 119.611 155.408 107.793 155.408C96.1376 155.408 69.3506 155.408 49.1412 155.408C48.8496 155.408 48.5619 155.442 48.2708 155.425C46.8625 155.343 44.1069 154.055 41.5642 149.218M119.048 146.845C130.978 149.766 132.552 164.008 132.981 170.958M41.5642 149.218C40.2419 155.564 39.3084 162.99 39.1607 171.095M130.72 173.346H41.3911M130.72 173.346C132.018 173.346 133.061 172.254 132.981 170.958M130.72 173.346V173.346C132.016 173.346 133.061 172.252 132.981 170.958V170.958M41.3911 173.346C40.1479 173.346 39.138 172.338 39.1607 171.095M41.3911 173.346V173.346C40.1479 173.346 39.138 172.338 39.1607 171.095V171.095" stroke="#2C0F68" stroke-linecap="round" stroke-linejoin="round"/>
  <path d="M130.865 173.346H41.3911C40.1479 173.346 39.1401 174.354 39.1401 175.597V177.848C39.1401 180.956 41.6596 183.475 44.7674 183.475H61.8865C63.3095 183.475 64.463 182.322 64.463 180.899C64.463 179.981 65.6101 179.482 66.333 180.048C68.4121 181.676 71.4006 183.475 74.0294 183.475H86.1924C87.5554 183.475 88.6604 182.37 88.6604 181.007C88.6604 180.099 89.8506 179.609 90.5622 180.173C92.5747 181.767 95.5872 183.475 98.7896 183.475H110.844C112.267 183.475 113.421 182.322 113.421 180.899C113.421 179.981 114.577 179.472 115.313 180.021C117.504 181.656 120.808 183.475 124.112 183.475H127.489C130.597 183.475 133.116 180.956 133.116 177.848V175.597C133.116 174.354 132.108 173.346 130.865 173.346Z" fill="#B8F592" stroke="#2C0F68" stroke-linecap="round" stroke-linejoin="round"/>
  <rect x="194.819" y="54" width="168.819" height="168.819" rx="13.5055" fill="#DDCDFF" stroke="#2C0F68" stroke-linecap="round" stroke-linejoin="round"/>
  <rect x="259.38" y="178.727" width="19.654" height="4.91349" rx="2.45674" transform="rotate(135 259.38 178.727)" fill="#BA9AFF" stroke="#2C0F68" stroke-linecap="round" stroke-linejoin="round"/>
  <rect width="19.654" height="4.91349" rx="2.45674" transform="matrix(0.707107 0.707107 0.707107 -0.707107 292.781 178.727)" fill="#BA9AFF" stroke="#2C0F68" stroke-linecap="round" stroke-linejoin="round"/>
  <rect x="251.936" y="117.311" width="72.0645" height="63.0564" rx="4.50184" fill="#BA9AFF" stroke="#2C0F68" stroke-linecap="round" stroke-linejoin="round"/>
  <rect x="233" y="117.311" width="86.805" height="63.0564" rx="4.50184" fill="#CFB8FF" stroke="#2C0F68" stroke-linecap="round" stroke-linejoin="round"/>
  <rect x="237.095" y="122.224" width="78.6158" height="53.2295" rx="4.50184" fill="#2C0F68" stroke="#2C0F68" stroke-linecap="round" stroke-linejoin="round"/>
  <rect x="253.295" y="139.959" width="3" height="21" rx="1.5" transform="rotate(32.5377 253.295 139.959)" fill="white" stroke="#2C0F68" stroke-linecap="round" stroke-linejoin="round"/>
  <rect width="3" height="9" rx="1.5" transform="matrix(0.843037 0.537855 0.537855 -0.843037 255.447 136.587)" fill="white" stroke="#2C0F68" stroke-linecap="round" stroke-linejoin="round"/>
  <rect x="209.45" y="69.7564" width="9.00369" height="9.00369" rx="4.50184" fill="#BA9AFF" stroke="#2C0F68" stroke-linecap="round" stroke-linejoin="round"/>
  <rect x="222.956" y="69.7564" width="54.0221" height="9.00369" rx="4.50184" fill="#BA9AFF" stroke="#2C0F68" stroke-linecap="round" stroke-linejoin="round"/>
  <path d="M126.75 301.162C126.573 298.814 124.616 297 122.261 297H63.6712C61.0511 297 58.9845 299.229 59.1822 301.841L65.8533 390.009C66.0309 392.357 67.9877 394.172 70.3423 394.172H128.932C131.552 394.172 133.619 391.943 133.421 389.33L126.75 301.162Z" fill="#BA9AFF" stroke="#2C0F68" stroke-linecap="round" stroke-linejoin="round"/>
  <path d="M55.0374 301.162C55.215 298.814 57.1718 297 59.5264 297H118.116C120.736 297 122.803 299.229 122.605 301.841L115.934 390.009C115.757 392.357 113.8 394.172 111.445 394.172H52.8553C50.2352 394.172 48.1686 391.943 48.3663 389.33L55.0374 301.162Z" fill="#CFB8FF" stroke="#2C0F68" stroke-linecap="round" stroke-linejoin="round"/>
  <path d="M61.7507 309.772C61.931 307.426 63.8868 305.615 66.2393 305.615H109.717C112.34 305.615 114.407 307.847 114.206 310.462L114.079 312.118C113.898 314.463 111.943 316.274 109.59 316.274H66.112C63.4897 316.274 61.4224 314.042 61.6234 311.428L61.7507 309.772Z" fill="#EEEAFF" stroke="#2C0F68" stroke-linecap="round" stroke-linejoin="round"/>
  <rect x="144.729" y="339.233" width="72.977" height="54.9378" rx="4.50184" fill="#FFAD73" stroke="#2C0F68" stroke-linecap="round" stroke-linejoin="round"/>
  <rect x="144.729" y="339.233" width="67.2373" height="54.9378" rx="4.50184" fill="#FFC49A" stroke="#2C0F68" stroke-linecap="round" stroke-linejoin="round"/>
  <path d="M157.029 339.233L160.239 330.246C160.772 328.752 162.188 327.754 163.776 327.754H198.438C201.035 327.754 202.848 330.327 201.975 332.773L199.667 339.233" stroke="#2C0F68" stroke-linecap="round" stroke-linejoin="round"/>
  <path d="M206.227 339.233L203.018 330.246C202.484 328.752 201.068 327.754 199.481 327.754H164.819C162.221 327.754 160.408 330.327 161.282 332.773L163.589 339.233" stroke="#2C0F68" stroke-linecap="round" stroke-linejoin="round"/>
  <path d="M11 394L468 394" stroke="#2C0F68" stroke-linecap="round" stroke-linejoin="round"/>
  <path d="M434.837 349.226C428.164 340.904 420.913 335.851 417.396 334.722C412.78 333.24 401.741 342.943 402.885 346.03C404.029 349.116 406.934 353.514 394.832 363.358C386.914 368.32 390.683 376.116 393.24 380.217C393.927 381.319 395.427 381.561 396.467 380.783L434.415 352.355C435.41 351.61 435.615 350.196 434.837 349.226Z" fill="#FFAD73" stroke="#2C0F68" stroke-linecap="round" stroke-linejoin="round"/>
  <path d="M395.833 381.258L434.934 351.967C435.642 351.437 436.647 351.581 437.178 352.289C438.505 354.061 438.145 356.573 436.373 357.9L429.496 363.052C428.865 363.525 427.97 363.397 427.498 362.766C427.193 362.359 426.518 362.519 426.386 363.01C426.005 364.422 425.277 366.212 424.112 367.086L418.719 371.125C418.115 371.578 417.258 371.455 416.805 370.851C416.503 370.448 415.813 370.626 415.685 371.112C415.322 372.488 414.553 374.246 413.134 375.309L407.789 379.313C407.158 379.786 406.263 379.658 405.791 379.027C405.486 378.62 404.804 378.778 404.66 379.266C404.232 380.719 403.371 382.623 401.906 383.72L401.122 384.308C399.35 385.635 396.838 385.274 395.511 383.503C394.98 382.794 395.124 381.789 395.833 381.258Z" fill="#FFC49A" stroke="#2C0F68" stroke-linecap="round" stroke-linejoin="round"/>
  <path d="M400.428 385.285C400.075 373.789 397.086 364.731 394.786 361.489C391.78 357.254 376.086 358.483 375.084 361.864C374.082 365.245 373.748 370.88 357.051 371.548C346.967 370.708 345.264 380.021 344.845 385.147C344.74 386.441 345.794 387.536 347.092 387.536L398.212 387.536C399.455 387.536 400.466 386.527 400.428 385.285Z" fill="#FFAD73" stroke="#2C0F68" stroke-linecap="round" stroke-linejoin="round"/>
  <path d="M346.412 387.537L398.744 387.537C399.693 387.537 400.462 388.306 400.462 389.255C400.462 391.626 398.539 393.548 396.168 393.548L386.964 393.548C386.119 393.548 385.435 392.863 385.435 392.019C385.435 391.474 384.754 391.178 384.325 391.514C383.091 392.48 381.318 393.548 379.758 393.548L372.54 393.548C371.731 393.548 371.076 392.892 371.076 392.083C371.076 391.545 370.369 391.254 369.947 391.588C368.753 392.534 366.965 393.548 365.065 393.548L357.911 393.548C357.067 393.548 356.383 392.863 356.383 392.019C356.383 391.474 355.697 391.172 355.26 391.498C353.959 392.469 351.999 393.548 350.038 393.548L348.988 393.548C346.617 393.548 344.695 391.626 344.695 389.255C344.695 388.306 345.464 387.537 346.412 387.537Z" fill="#FFC49A" stroke="#2C0F68" stroke-linecap="round" stroke-linejoin="round"/>
  <path d="M369.517 246.862C366.562 255.265 365.125 283.197 367.488 294.62C369.848 306.028 383.356 330.71 391.042 342.544C390.042 343.438 389.144 344.249 388.369 344.945L393.233 351.971C407.933 346.783 420.615 335.397 425.119 330.353L420.169 321.706L415.935 324.463C411.417 313.843 403.851 289.472 403.528 286.644C403.213 283.887 401.007 261.14 404.217 255.921C407.427 250.702 369.517 246.862 369.517 246.862Z" fill="#BA9AFF"/>
  <path d="M391.071 342.589C383.39 330.773 369.851 306.042 367.488 294.62C365.125 283.197 366.562 255.265 369.517 246.862C369.517 246.862 407.427 250.702 404.217 255.921C401.007 261.14 403.213 283.887 403.528 286.644C403.851 289.472 411.417 313.843 415.935 324.463M415.935 324.463L420.169 321.706L425.119 330.353C420.615 335.397 407.933 346.783 393.233 351.971L388.369 344.945C393.782 340.081 405.137 329.651 415.935 324.463Z" stroke="#2C0F68" stroke-linecap="round" stroke-linejoin="round"/>
  <path d="M400.799 358.525C401.094 351.829 403.389 312.738 403.882 305.156C404.176 300.626 404.871 297.075 406.048 293.635C410.577 280.4 421.225 267.065 421.225 245.681L387.142 243.022L370.402 241.742C367.45 253.263 362.75 279.77 367.569 293.635C367.12 297.955 367.192 301.492 367.192 305.156C367.192 312.56 364.545 345.34 364.906 357.916H361.347V366.798C371.52 367.416 394.704 368.282 406.048 366.798V357.916C404.645 358.114 402.863 358.326 400.799 358.525Z" fill="#BA9AFF"/>
  <path d="M400.799 358.525C401.094 351.829 403.389 312.738 403.882 305.156C404.176 300.626 404.871 297.075 406.048 293.635C410.577 280.4 421.225 267.065 421.225 245.681L387.142 243.022L370.402 241.742C367.45 253.263 362.75 279.77 367.569 293.635M375.326 263.996C371.437 274.761 368.17 287.853 367.569 293.635M367.569 293.635C367.12 297.955 367.192 301.492 367.192 305.156C367.192 312.56 364.545 345.34 364.906 357.916M364.906 357.916H361.347V366.798C371.52 367.416 394.704 368.282 406.048 366.798V357.916C398.385 358.997 379.428 360.51 364.906 357.916Z" stroke="#2C0F68" stroke-linecap="round" stroke-linejoin="round"/>
  <path d="M408.567 272.249C408.623 274.433 408.228 278.932 406.192 279.456C403.648 280.111 395.218 278.295 393.76 276.23C392.593 274.578 393.777 271.175 394.516 269.68" stroke="#2C0F68" stroke-linecap="round" stroke-linejoin="round"/>
  <path d="M350.999 165.765C347.5 157.356 345.017 151.285 343.359 149.858C341.287 148.073 338.539 150.467 339.847 153.745C337.178 151.47 330.706 146.305 328.538 148.331C326.904 149.858 327.467 151.494 328.592 152.057C329.717 152.619 332.645 155.111 334.332 156.252C333.031 156.577 330.765 158.036 332.116 161.266C331.178 161.606 329.302 163.616 330.99 165.765C331.263 166.174 332.345 167.218 334.494 168.118C336.447 170.065 341.825 175.782 341.825 175.782C341.825 175.782 360.499 206.499 365.999 212.5C370.399 217.3 386.35 219.877 392.184 222.71L407.684 208.21C393.184 207.21 386.499 204.5 377.499 197C370.299 191 354.666 172.129 350.999 165.765Z" fill="#FFAD83"/>
  <path d="M339.847 153.745C338.539 150.467 341.287 148.073 343.359 149.858C345.017 151.285 347.5 157.356 350.999 165.765C354.666 172.129 370.299 191 377.499 197C386.499 204.5 393.184 207.21 407.684 208.21L392.184 222.71C386.35 219.877 370.399 217.3 365.999 212.5C360.499 206.499 341.825 175.782 341.825 175.782C341.825 175.782 336.447 170.065 334.494 168.118M339.847 153.745C337.178 151.47 330.706 146.305 328.538 148.331C326.904 149.858 327.467 151.494 328.592 152.057C329.717 152.62 332.645 155.111 334.332 156.252M339.847 153.745C340.071 154.667 341.138 156.58 342.057 157.899C342.103 159.593 342.372 163.265 343.084 164.406M334.332 156.252C333.031 156.577 330.765 158.036 332.116 161.266M334.332 156.252C334.263 157.206 334.736 159.677 337.18 161.928C337.931 162.798 338.756 164.322 336.055 165.305M334.332 156.252C335.094 156.831 336.73 158.102 337.18 158.552M332.116 161.266C331.178 161.606 329.302 163.616 330.99 165.765C331.263 166.174 332.345 167.218 334.494 168.118M332.116 161.266C332.491 161.981 333.804 163.422 336.055 165.305M336.055 165.305C336.703 166.089 337.297 168.118 334.494 168.118" stroke="#2C0F68" stroke-linecap="round" stroke-linejoin="round"/>
  <path d="M387.34 151.261C384.981 151.737 380.262 149.834 384.981 147.455C387.812 146.028 393.527 141.664 395.027 137.664C400.218 136.223 407.112 139.237 408.527 140.664C409.942 142.092 410.934 144.261 412.821 146.164C414.331 147.687 412.978 153.481 412.349 154.591C413.481 154.21 415.967 152.847 417.068 152.212L418.484 153.164C419.428 151.261 423.203 147.455 426.506 149.358C429.809 151.261 429.809 156.494 426.034 160.3C423.014 163.345 419.742 162.837 418.484 162.203C415.086 164.486 413.293 172.669 412.821 176.475L405.272 180.757L394.419 175.524C394.796 171.718 399.27 165.786 401.786 163.883C398.011 164.834 391.115 163.796 387.34 163.32C383.565 162.844 383.094 157.445 385.453 155.067C387.34 153.164 387.498 151.737 387.34 151.261Z" fill="#FFAD83" stroke="#2C0F68" stroke-linecap="round" stroke-linejoin="round"/>
  <path d="M395.033 172.887C395.484 167.484 396.503 165.008 397.066 164.446L401.786 163.883C399.085 165.684 396.159 170.636 395.033 172.887Z" fill="#2C0F68"/>
  <path d="M398.41 144.187C398.137 143.407 396.855 142.257 393.908 143.895" stroke="#2C0F68" stroke-linecap="round" stroke-linejoin="round"/>
  <path d="M396.159 156.046C394.39 156.549 390.564 157.133 389.406 155.441" stroke="#2C0F68" stroke-linecap="round" stroke-linejoin="round"/>
  <path d="M415.526 177.164C412.026 174.164 397.594 172.789 392.026 176.664C389.132 179.046 377.438 194.495 375.026 201.164C372.615 207.833 369.184 217.497 368.219 226.548C367.447 233.789 367.415 255.621 368.219 259.749C373.296 263.955 367.727 258.624 370.883 258.624L375.026 266.664C380.15 265.192 386.026 266.664 402.026 265.664C409.526 265.664 413.574 265.465 418.526 263.664C423.479 261.863 422.526 247.664 421.526 242.164L426.026 224.273C427.23 224.657 428.428 225.117 429.607 225.664C430.602 220.103 430.922 214.23 429.957 208.644C426.58 189.114 419.385 178.593 415.526 177.164Z" fill="#FFDABF"/>
  <path d="M400.053 205.309C400.81 209.472 401.552 217.381 400.55 224.664C401.437 224.21 414.039 220.453 426.026 224.273M426.026 224.273C427.23 224.657 428.428 225.117 429.607 225.664C430.602 220.103 430.922 214.23 429.957 208.644C426.58 189.114 419.385 178.593 415.526 177.164C412.026 174.164 397.594 172.789 392.026 176.664C389.132 179.046 377.438 194.495 375.026 201.164C372.615 207.833 369.184 217.497 368.219 226.548C367.447 233.789 367.415 255.621 368.219 259.749C373.296 263.955 367.727 258.624 370.883 258.624L375.026 266.664C380.15 265.192 386.026 266.664 402.026 265.664C409.526 265.664 413.574 265.465 418.526 263.664C423.479 261.863 422.526 247.664 421.526 242.164L426.026 224.273Z" stroke="#2C0F68" stroke-linecap="round" stroke-linejoin="round"/>
  <path d="M372.061 282.43C373.555 281.875 377.466 273.228 380.026 271.164C389.486 265.78 410.226 256.064 417.026 249.664C423.826 243.264 426.526 230.331 427.026 224.664C419.426 221.864 410.86 222.498 407.527 223.164C401.027 239.164 406.026 237.164 399.026 241.164C393.426 244.364 374.55 256.998 372.062 257.664C369.664 258.137 363.001 260.292 359.882 262.321C355.984 264.857 356.378 267.626 356.435 269.863C356.48 271.653 359.026 272.319 360.293 272.427C360.047 272.504 359.544 273.11 359.505 274.926C359.466 276.742 361.828 277.387 363.014 277.483C362.71 280.236 365.504 280.297 366.279 279.999C367.054 279.701 368.273 279.902 368.421 281.128C368.569 282.354 370.195 283.123 372.061 282.43Z" fill="#FFAD83" stroke="#2C0F68" stroke-linecap="round" stroke-linejoin="round"/>
  <path d="M426.033 160.3C423.013 163.344 419.741 162.837 418.483 162.203C416.802 164.19 411.492 168.764 415.527 173.164C420.571 178.664 422.027 180.164 422.527 183.664C423.027 187.164 419.527 189.664 428.527 195.164C437.527 200.664 435.027 202.664 435.027 210.664C435.027 218.664 449.329 219.064 457.027 217.864C464.725 216.664 463.027 201.277 472.027 205.971C472.718 205.971 476.527 205.164 473.527 200.164C470.527 195.164 470.422 191.664 464.725 190.164C459.027 188.664 456.655 185.664 455.027 179.164C453.399 172.664 457.027 174.126 452.027 168.164C447.027 162.203 444.527 162.164 444.527 156.164C444.527 150.164 438.122 151.164 435.711 142.164C435.104 139.097 434.256 136.18 433.299 134.058C430.94 128.825 419.532 122.288 406.027 125.664C395.079 129.47 395.93 135.061 394.2 138.704C399.391 137.263 401.112 137.737 402.527 139.164C403.942 140.591 406.027 145.664 410.527 148.664C412.037 150.186 412.977 153.481 412.348 154.591C413.48 154.21 415.966 152.846 417.067 152.212L418.483 153.163C419.427 151.26 423.202 147.455 426.505 149.358C429.808 151.26 429.808 156.494 426.033 160.3Z" fill="#2C0F68" stroke="#2C0F68" stroke-linecap="round" stroke-linejoin="round"/>
  <path d="M393.527 268.164C387.127 271.764 381.527 271.664 379.527 271.164L393.527 264.164C398.36 261.331 408.927 255.164 412.527 253.164C416.127 251.164 419.694 246.664 421.027 244.664C420.527 250.664 415.527 256.664 412.527 258.664C409.527 260.664 401.527 263.664 393.527 268.164Z" fill="#2C0F68"/>
  <path d="M397.591 367.231C389.938 372.183 373.018 371.92 365.515 371.17L370.58 368.919L371.705 367.231H397.591Z" fill="#2C0F68"/>
  <path d="M403.219 353.725C404.569 351.024 403.781 348.473 403.219 347.535C409.523 343.158 414.121 340.867 419.538 335.718L421.789 336.843C418.187 344.947 407.908 351.474 403.219 353.725Z" fill="#2C0F68"/>
  <path d="M407.72 300.829C406.37 303.08 404.156 310.395 403.219 313.771C403.669 304.768 404.907 297.64 405.469 295.201L407.72 300.829Z" fill="#2C0F68"/>
  </svg>
  