<svg width="451" height="324" viewBox="0 0 451 324" fill="none" xmlns="http://www.w3.org/2000/svg">
  <rect width="254.998" height="64" rx="12" fill="#763FEC"/>
  <path d="M26 32H38" stroke="white" stroke-width="1.5" stroke-linecap="round" stroke-linejoin="round"/>
  <path d="M32 26L32 38" stroke="white" stroke-width="1.5" stroke-linecap="round" stroke-linejoin="round"/>
  <path d="M32 45C39.1799 45 45 39.1799 45 32C45 24.8201 39.1799 19 32 19C24.8201 19 19 24.8201 19 32C19 39.1799 24.8201 45 32 45Z" stroke="white" stroke-width="1.5" stroke-linecap="round" stroke-linejoin="round"/>
  <path d="M59.6075 28.198H62.2175V37H63.9275V24.4H62.1815C62.1815 25.84 61.3175 26.758 59.6075 26.758V28.198ZM65.7096 34.318L71.6496 34.336V37H73.3596V34.336H75.1956V32.734H73.3596V24.4H71.8656L65.7096 32.878V34.318ZM67.7616 32.698L71.6496 27.352V32.716L67.7616 32.698ZM81.3128 37H83.0228V32.14C83.0228 30.556 83.7428 29.638 84.8228 29.638C85.7048 29.638 86.2268 30.232 86.2268 31.384C86.2268 31.582 86.2268 31.726 86.2088 31.816L87.9368 31.564C88.0268 29.26 86.9648 28.054 85.2908 28.054C84.3008 28.054 83.5448 28.432 83.0228 29.206V28.324H81.3128V37ZM93.1611 28.054C90.6231 28.054 88.8951 30.052 88.8951 32.68C88.8951 35.326 90.6411 37.27 93.2511 37.27C95.3211 37.27 97.0131 35.956 97.3011 34.03L95.6811 33.742C95.5191 34.948 94.5111 35.74 93.2871 35.74C91.7571 35.74 90.6591 34.66 90.4971 32.986H97.0491V32.158C97.0491 29.764 95.5191 28.054 93.1611 28.054ZM90.5871 31.618C90.8931 30.376 91.8831 29.548 93.1611 29.548C94.5291 29.548 95.4291 30.448 95.4831 31.618H90.5871ZM102.813 28.054C100.239 28.054 98.4928 30.052 98.4928 32.68C98.4928 35.326 100.293 37.27 102.939 37.27C105.063 37.27 106.809 35.83 107.025 33.85L105.405 33.454C105.279 34.75 104.217 35.632 102.903 35.632C101.301 35.632 100.203 34.39 100.203 32.536C100.203 30.97 101.283 29.692 102.813 29.692C104.019 29.692 104.865 30.412 105.027 31.492L106.593 30.97C106.215 29.188 104.775 28.054 102.813 28.054ZM112.521 28.054C109.875 28.054 108.003 30.106 108.003 32.68C108.003 35.272 109.875 37.27 112.521 37.27C115.149 37.27 116.985 35.272 116.985 32.68C116.985 30.106 115.131 28.054 112.521 28.054ZM112.503 35.632C110.901 35.632 109.713 34.354 109.713 32.68C109.713 30.97 110.901 29.692 112.503 29.692C114.123 29.692 115.275 30.97 115.275 32.68C115.275 33.526 115.005 34.246 114.483 34.804C113.961 35.362 113.313 35.632 112.503 35.632ZM118.666 37H120.322V32.14C120.322 30.484 121.006 29.602 122.086 29.602C123.076 29.602 123.526 30.124 123.526 31.402V37H125.164L125.128 31.906C125.2 30.394 125.866 29.602 126.892 29.602C127.882 29.602 128.332 30.124 128.332 31.402V37H129.988L129.952 30.988C129.952 29.044 129.034 28.054 127.396 28.054C126.262 28.054 125.416 28.612 124.912 29.602C124.552 28.594 123.724 28.054 122.554 28.054C121.564 28.054 120.808 28.54 120.322 29.35V28.342H118.666V37ZM132.149 37H133.805V32.14C133.805 30.484 134.489 29.602 135.569 29.602C136.559 29.602 137.009 30.124 137.009 31.402V37H138.647L138.611 31.906C138.683 30.394 139.349 29.602 140.375 29.602C141.365 29.602 141.815 30.124 141.815 31.402V37H143.471L143.435 30.988C143.435 29.044 142.517 28.054 140.879 28.054C139.745 28.054 138.899 28.612 138.395 29.602C138.035 28.594 137.207 28.054 136.037 28.054C135.047 28.054 134.291 28.54 133.805 29.35V28.342H132.149V37ZM149.411 28.054C146.873 28.054 145.145 30.052 145.145 32.68C145.145 35.326 146.891 37.27 149.501 37.27C151.571 37.27 153.263 35.956 153.551 34.03L151.931 33.742C151.769 34.948 150.761 35.74 149.537 35.74C148.007 35.74 146.909 34.66 146.747 32.986H153.299V32.158C153.299 29.764 151.769 28.054 149.411 28.054ZM146.837 31.618C147.143 30.376 148.133 29.548 149.411 29.548C150.779 29.548 151.679 30.448 151.733 31.618H146.837ZM155.229 37H156.939V32.32C156.939 30.646 157.803 29.602 159.171 29.602C160.395 29.602 161.007 30.304 161.007 31.726V37H162.717V31.384C162.717 29.314 161.583 28.054 159.693 28.054C158.487 28.054 157.569 28.54 156.939 29.332V28.324H155.229V37ZM168.462 28.054C166.086 28.054 164.376 30.088 164.376 32.662C164.376 35.236 166.086 37.27 168.462 37.27C169.776 37.27 170.784 36.748 171.486 35.83V37H173.196V24.4H171.486V29.494C170.784 28.576 169.758 28.054 168.462 28.054ZM168.804 35.632C167.994 35.632 167.346 35.362 166.842 34.804C166.338 34.246 166.086 33.526 166.086 32.662C166.086 31.798 166.338 31.096 166.842 30.538C167.364 29.98 168.012 29.692 168.804 29.692C170.37 29.692 171.486 30.97 171.486 32.662C171.486 33.526 171.234 34.246 170.73 34.804C170.226 35.362 169.578 35.632 168.804 35.632ZM179.136 28.054C176.598 28.054 174.87 30.052 174.87 32.68C174.87 35.326 176.616 37.27 179.226 37.27C181.296 37.27 182.988 35.956 183.276 34.03L181.656 33.742C181.494 34.948 180.486 35.74 179.262 35.74C177.732 35.74 176.634 34.66 176.472 32.986H183.024V32.158C183.024 29.764 181.494 28.054 179.136 28.054ZM176.562 31.618C176.868 30.376 177.858 29.548 179.136 29.548C180.504 29.548 181.404 30.448 181.458 31.618H176.562ZM188.553 28.054C186.177 28.054 184.467 30.088 184.467 32.662C184.467 35.236 186.177 37.27 188.553 37.27C189.867 37.27 190.875 36.748 191.577 35.83V37H193.287V24.4H191.577V29.494C190.875 28.576 189.849 28.054 188.553 28.054ZM188.895 35.632C188.085 35.632 187.437 35.362 186.933 34.804C186.429 34.246 186.177 33.526 186.177 32.662C186.177 31.798 186.429 31.096 186.933 30.538C187.455 29.98 188.103 29.692 188.895 29.692C190.461 29.692 191.577 30.97 191.577 32.662C191.577 33.526 191.325 34.246 190.821 34.804C190.317 35.362 189.669 35.632 188.895 35.632ZM199.895 37H201.605V32.14C201.605 30.556 202.325 29.638 203.405 29.638C204.287 29.638 204.809 30.232 204.809 31.384C204.809 31.582 204.809 31.726 204.791 31.816L206.519 31.564C206.609 29.26 205.547 28.054 203.873 28.054C202.883 28.054 202.127 28.432 201.605 29.206V28.324H199.895V37ZM211.995 28.054C209.349 28.054 207.477 30.106 207.477 32.68C207.477 35.272 209.349 37.27 211.995 37.27C214.623 37.27 216.459 35.272 216.459 32.68C216.459 30.106 214.605 28.054 211.995 28.054ZM211.977 35.632C210.375 35.632 209.187 34.354 209.187 32.68C209.187 30.97 210.375 29.692 211.977 29.692C213.597 29.692 214.749 30.97 214.749 32.68C214.749 33.526 214.479 34.246 213.957 34.804C213.435 35.362 212.787 35.632 211.977 35.632ZM218.141 37H219.851V24.4H218.141V37ZM225.771 28.054C223.233 28.054 221.505 30.052 221.505 32.68C221.505 35.326 223.251 37.27 225.861 37.27C227.931 37.27 229.623 35.956 229.911 34.03L228.291 33.742C228.129 34.948 227.121 35.74 225.897 35.74C224.367 35.74 223.269 34.66 223.107 32.986H229.659V32.158C229.659 29.764 228.129 28.054 225.771 28.054ZM223.197 31.618C223.503 30.376 224.493 29.548 225.771 29.548C227.139 29.548 228.039 30.448 228.093 31.618H223.197ZM230.959 33.922C231.121 34.912 231.571 35.722 232.273 36.352C232.975 36.964 233.857 37.27 234.883 37.27C235.927 37.27 236.773 37 237.421 36.478C238.087 35.956 238.411 35.254 238.411 34.408C238.411 32.77 237.241 31.834 234.919 31.6C233.641 31.474 233.263 31.132 233.263 30.538C233.263 29.98 233.857 29.638 234.739 29.638C235.657 29.638 236.341 30.196 236.557 31.15L238.051 30.682C237.673 29.08 236.323 28.054 234.739 28.054C232.921 28.054 231.553 29.116 231.553 30.556C231.553 32.086 232.597 33.04 234.703 33.256C236.197 33.418 236.719 33.85 236.719 34.48C236.719 35.2 236.035 35.686 234.883 35.686C233.605 35.686 232.777 34.858 232.579 33.616L230.959 33.922Z" fill="white"/>
  <rect x="20" y="117" width="431" height="207" rx="12" fill="#CFB8FF"/>
  <rect y="97" width="431" height="207" rx="12" fill="white"/>
  <rect x="28" y="125" width="48" height="48" fill="white"/>
  <path d="M61.5596 139.4H42.4016V157.8H61.5596V139.4Z" fill="white"/>
  <path d="M71.1379 148.621L61.559 139.4V157.821L71.1379 148.621Z" fill="#DB0011"/>
  <path d="M51.9806 148.621L61.5596 139.4H42.4016L51.9806 148.621Z" fill="#DB0011"/>
  <path d="M32.7998 148.621L42.4013 157.821V139.4L32.7998 148.621Z" fill="#DB0011"/>
  <path d="M51.9806 148.621L42.4016 157.821H61.5596L51.9806 148.621Z" fill="#DB0011"/>
  <path d="M87.7798 150.308C88.1438 152.492 89.0958 154.228 90.5798 155.516C92.0638 156.776 93.9398 157.42 96.1518 157.42C100.66 157.42 103.628 154.928 103.628 151.232C103.628 147.732 101.164 145.856 96.1518 145.324C93.0158 145.016 91.6998 144.064 91.6998 142.272C91.6998 140.676 93.3798 139.556 95.8158 139.556C98.1398 139.556 99.9318 141.152 100.492 143.616L103.068 142.664C102.676 140.956 101.808 139.584 100.492 138.548C99.1758 137.512 97.6358 137.008 95.8158 137.008C91.9238 137.008 89.0118 139.22 89.0118 142.244C89.0118 145.632 91.1958 147.508 95.7038 147.984C99.2878 148.348 100.94 149.496 100.94 151.316C100.94 153.444 99.0918 154.872 96.1518 154.872C93.0998 154.872 90.8878 152.828 90.3278 149.468L87.7798 150.308ZM118.015 143.504H115.355V150.784C115.355 153.388 114.011 155.012 111.883 155.012C109.979 155.012 109.027 153.92 109.027 151.708V143.504H106.367V152.24C106.367 155.46 108.131 157.42 111.071 157.42C112.947 157.42 114.375 156.664 115.355 155.432V157H118.015V143.504ZM121.38 163.3H124.04V155.18C125.132 156.608 126.7 157.42 128.744 157.42C132.44 157.42 135.1 154.256 135.1 150.252C135.1 146.248 132.44 143.084 128.744 143.084C126.7 143.084 125.132 143.896 124.04 145.324V143.504H121.38V163.3ZM128.212 154.872C125.776 154.872 124.04 152.884 124.04 150.252C124.04 148.908 124.432 147.816 125.216 146.948C126 146.08 127.008 145.632 128.212 145.632C129.472 145.632 130.48 146.08 131.264 146.948C132.048 147.816 132.44 148.908 132.44 150.252C132.44 151.596 132.048 152.716 131.236 153.584C130.452 154.452 129.444 154.872 128.212 154.872ZM137.704 163.3H140.364V155.18C141.456 156.608 143.024 157.42 145.068 157.42C148.764 157.42 151.424 154.256 151.424 150.252C151.424 146.248 148.764 143.084 145.068 143.084C143.024 143.084 141.456 143.896 140.364 145.324V143.504H137.704V163.3ZM144.536 154.872C142.1 154.872 140.364 152.884 140.364 150.252C140.364 148.908 140.756 147.816 141.54 146.948C142.324 146.08 143.332 145.632 144.536 145.632C145.796 145.632 146.804 146.08 147.588 146.948C148.372 147.816 148.764 148.908 148.764 150.252C148.764 151.596 148.372 152.716 147.56 153.584C146.776 154.452 145.768 154.872 144.536 154.872ZM160.3 143.084C156.184 143.084 153.272 146.276 153.272 150.28C153.272 154.312 156.184 157.42 160.3 157.42C164.388 157.42 167.244 154.312 167.244 150.28C167.244 146.276 164.36 143.084 160.3 143.084ZM160.272 154.872C157.78 154.872 155.932 152.884 155.932 150.28C155.932 147.62 157.78 145.632 160.272 145.632C162.792 145.632 164.584 147.62 164.584 150.28C164.584 151.596 164.164 152.716 163.352 153.584C162.54 154.452 161.532 154.872 160.272 154.872ZM169.86 157H172.52V149.44C172.52 146.976 173.64 145.548 175.32 145.548C176.692 145.548 177.504 146.472 177.504 148.264C177.504 148.572 177.504 148.796 177.476 148.936L180.164 148.544C180.304 144.96 178.652 143.084 176.048 143.084C174.508 143.084 173.332 143.672 172.52 144.876V143.504H169.86V157ZM181.344 145.856H183.808V152.296C183.808 155.46 185.768 157.42 188.988 157.42C191.788 157.42 193.944 155.32 193.776 152.1L191.228 151.848C191.34 153.752 190.444 154.984 188.904 154.984C187.364 154.984 186.468 154.06 186.468 152.352V145.856H193.3V143.504H186.468V139.472H183.808V143.504H181.344V145.856ZM201.913 150.308C202.277 152.492 203.229 154.228 204.713 155.516C206.197 156.776 208.073 157.42 210.285 157.42C214.793 157.42 217.761 154.928 217.761 151.232C217.761 147.732 215.297 145.856 210.285 145.324C207.149 145.016 205.833 144.064 205.833 142.272C205.833 140.676 207.513 139.556 209.949 139.556C212.273 139.556 214.065 141.152 214.625 143.616L217.201 142.664C216.809 140.956 215.941 139.584 214.625 138.548C213.309 137.512 211.769 137.008 209.949 137.008C206.057 137.008 203.145 139.22 203.145 142.244C203.145 145.632 205.329 147.508 209.837 147.984C213.421 148.348 215.073 149.496 215.073 151.316C215.073 153.444 213.225 154.872 210.285 154.872C207.233 154.872 205.021 152.828 204.461 149.468L201.913 150.308ZM220.255 163.3H222.915V155.18C224.007 156.608 225.575 157.42 227.619 157.42C231.315 157.42 233.975 154.256 233.975 150.252C233.975 146.248 231.315 143.084 227.619 143.084C225.575 143.084 224.007 143.896 222.915 145.324V143.504H220.255V163.3ZM227.087 154.872C224.651 154.872 222.915 152.884 222.915 150.252C222.915 148.908 223.307 147.816 224.091 146.948C224.875 146.08 225.883 145.632 227.087 145.632C228.347 145.632 229.355 146.08 230.139 146.948C230.923 147.816 231.315 148.908 231.315 150.252C231.315 151.596 230.923 152.716 230.111 153.584C229.327 154.452 228.319 154.872 227.087 154.872ZM242.459 143.084C238.511 143.084 235.823 146.192 235.823 150.28C235.823 154.396 238.539 157.42 242.599 157.42C245.819 157.42 248.451 155.376 248.899 152.38L246.379 151.932C246.127 153.808 244.559 155.04 242.655 155.04C240.275 155.04 238.567 153.36 238.315 150.756H248.507V149.468C248.507 145.744 246.127 143.084 242.459 143.084ZM238.455 148.628C238.931 146.696 240.471 145.408 242.459 145.408C244.587 145.408 245.987 146.808 246.071 148.628H238.455ZM257.472 143.084C253.468 143.084 250.752 146.192 250.752 150.28C250.752 154.396 253.552 157.42 257.668 157.42C260.972 157.42 263.688 155.18 264.024 152.1L261.504 151.484C261.308 153.5 259.656 154.872 257.612 154.872C255.12 154.872 253.412 152.94 253.412 150.056C253.412 147.62 255.092 145.632 257.472 145.632C259.348 145.632 260.664 146.752 260.916 148.432L263.352 147.62C262.764 144.848 260.524 143.084 257.472 143.084ZM266.383 157H269.043V143.504H266.383V157ZM267.699 137.736C266.691 137.736 265.907 138.548 265.907 139.528C265.907 140.536 266.691 141.32 267.699 141.32C268.679 141.32 269.463 140.536 269.463 139.528C269.463 138.548 268.679 137.736 267.699 137.736ZM277.047 148.88C273.659 149.44 271.951 150.812 271.951 153.388C271.951 155.404 273.491 157.42 276.571 157.42C278.391 157.42 279.679 156.58 280.435 155.32V157H282.927V147.9C282.927 144.904 280.967 143.056 277.411 143.056C274.331 143.056 271.839 144.932 272.007 148.348L274.527 148.544L274.499 148.152C274.499 146.444 275.591 145.352 277.467 145.352C279.371 145.352 280.407 146.332 280.407 147.76V148.32L277.047 148.88ZM277.075 155.012C275.479 155.012 274.471 154.256 274.471 153.108C274.471 151.848 275.619 151.288 277.439 150.952L280.407 150.476V151.26C280.407 153.5 279.007 155.012 277.075 155.012ZM286.262 157H288.922V137.4H286.262V157ZM292.251 157H294.911V143.504H292.251V157ZM293.567 137.736C292.559 137.736 291.775 138.548 291.775 139.528C291.775 140.536 292.559 141.32 293.567 141.32C294.547 141.32 295.331 140.536 295.331 139.528C295.331 138.548 294.547 137.736 293.567 137.736ZM297.342 152.212C297.594 153.752 298.294 155.012 299.386 155.992C300.478 156.944 301.85 157.42 303.446 157.42C305.07 157.42 306.386 157 307.394 156.188C308.43 155.376 308.934 154.284 308.934 152.968C308.934 150.42 307.114 148.964 303.502 148.6C301.514 148.404 300.926 147.872 300.926 146.948C300.926 146.08 301.85 145.548 303.222 145.548C304.65 145.548 305.714 146.416 306.05 147.9L308.374 147.172C307.786 144.68 305.686 143.084 303.222 143.084C300.394 143.084 298.266 144.736 298.266 146.976C298.266 149.356 299.89 150.84 303.166 151.176C305.49 151.428 306.302 152.1 306.302 153.08C306.302 154.2 305.238 154.956 303.446 154.956C301.458 154.956 300.17 153.668 299.862 151.736L297.342 152.212ZM309.804 145.856H312.268V152.296C312.268 155.46 314.228 157.42 317.448 157.42C320.248 157.42 322.404 155.32 322.236 152.1L319.688 151.848C319.8 153.752 318.904 154.984 317.364 154.984C315.824 154.984 314.928 154.06 314.928 152.352V145.856H321.76V143.504H314.928V139.472H312.268V143.504H309.804V145.856Z" fill="#34343D"/>
  <path d="M383.167 138.5C379.945 138.5 377.333 141.109 377.333 144.329C377.333 146.928 378.354 153.096 388.403 159.331C388.583 159.442 388.789 159.5 389 159.5C389.211 159.5 389.417 159.442 389.597 159.331C399.646 153.096 400.667 146.928 400.667 144.329C400.667 141.109 398.054 138.5 394.833 138.5C391.612 138.5 389 142.033 389 142.033C389 142.033 386.388 138.5 383.167 138.5Z" stroke="#DCC8FA" stroke-width="1.7185" stroke-linecap="round" stroke-linejoin="round"/>
  <rect x="28" y="201" width="87" height="35" rx="4" fill="#F4F4F4"/>
  <path d="M48.672 219.048C49.1093 219.048 49.4933 218.995 49.824 218.888C50.16 218.781 50.44 218.632 50.664 218.44C50.888 218.243 51.056 218.011 51.168 217.744C51.28 217.472 51.336 217.173 51.336 216.848C51.336 216.187 51.1173 215.688 50.68 215.352C50.248 215.016 49.5973 214.848 48.728 214.848H47.12V219.048H48.672ZM54.032 225H52.512C52.208 225 51.9867 224.88 51.848 224.64L49.008 220.656C48.9173 220.523 48.8187 220.429 48.712 220.376C48.6053 220.317 48.4453 220.288 48.232 220.288H47.12V225H45.416V213.512H48.728C49.4693 213.512 50.1067 213.589 50.64 213.744C51.1787 213.893 51.6213 214.109 51.968 214.392C52.32 214.669 52.5787 215.005 52.744 215.4C52.9147 215.795 53 216.237 53 216.728C53 217.128 52.9387 217.504 52.816 217.856C52.6933 218.208 52.512 218.525 52.272 218.808C52.0373 219.085 51.7493 219.325 51.408 219.528C51.0667 219.731 50.68 219.885 50.248 219.992C50.4613 220.12 50.6453 220.299 50.8 220.528L54.032 225ZM60.0425 220.032C60.0425 219.723 59.9972 219.437 59.9065 219.176C59.8212 218.915 59.6932 218.688 59.5225 218.496C59.3518 218.304 59.1438 218.155 58.8985 218.048C58.6532 217.941 58.3705 217.888 58.0505 217.888C57.3945 217.888 56.8772 218.077 56.4985 218.456C56.1252 218.835 55.8878 219.36 55.7865 220.032H60.0425ZM61.3305 223.84C61.1385 224.064 60.9172 224.259 60.6665 224.424C60.4158 224.584 60.1492 224.715 59.8665 224.816C59.5838 224.917 59.2905 224.992 58.9865 225.04C58.6878 225.088 58.3918 225.112 58.0985 225.112C57.5385 225.112 57.0185 225.019 56.5385 224.832C56.0638 224.64 55.6505 224.363 55.2985 224C54.9518 223.632 54.6798 223.179 54.4825 222.64C54.2905 222.096 54.1945 221.472 54.1945 220.768C54.1945 220.203 54.2825 219.677 54.4585 219.192C54.6345 218.701 54.8852 218.275 55.2105 217.912C55.5412 217.549 55.9438 217.264 56.4185 217.056C56.8932 216.848 57.4265 216.744 58.0185 216.744C58.5145 216.744 58.9705 216.827 59.3865 216.992C59.8078 217.152 60.1705 217.387 60.4745 217.696C60.7785 218.005 61.0158 218.387 61.1865 218.84C61.3625 219.293 61.4505 219.811 61.4505 220.392C61.4505 220.632 61.4238 220.795 61.3705 220.88C61.3172 220.96 61.2185 221 61.0745 221H55.7465C55.7625 221.485 55.8318 221.909 55.9545 222.272C56.0772 222.629 56.2452 222.928 56.4585 223.168C56.6772 223.408 56.9358 223.587 57.2345 223.704C57.5332 223.821 57.8665 223.88 58.2345 223.88C58.5812 223.88 58.8798 223.84 59.1305 223.76C59.3865 223.68 59.6052 223.595 59.7865 223.504C59.9732 223.408 60.1278 223.32 60.2505 223.24C60.3785 223.16 60.4905 223.12 60.5865 223.12C60.7145 223.12 60.8132 223.168 60.8825 223.264L61.3305 223.84ZM63.1273 225V216.872H64.0633C64.2819 216.872 64.4179 216.976 64.4713 217.184L64.5833 217.96C64.8819 217.603 65.2126 217.312 65.5753 217.088C65.9433 216.859 66.3726 216.744 66.8633 216.744C67.4019 216.744 67.8393 216.893 68.1753 217.192C68.5113 217.485 68.7566 217.885 68.9113 218.392C69.0286 218.104 69.1806 217.856 69.3673 217.648C69.5539 217.44 69.7619 217.269 69.9913 217.136C70.2206 217.003 70.4633 216.904 70.7193 216.84C70.9806 216.776 71.2446 216.744 71.5113 216.744C71.9433 216.744 72.3273 216.813 72.6633 216.952C73.0046 217.085 73.2926 217.283 73.5273 217.544C73.7619 217.805 73.9406 218.128 74.0633 218.512C74.1859 218.896 74.2473 219.333 74.2473 219.824V225H72.6793V219.824C72.6793 219.216 72.5459 218.757 72.2793 218.448C72.0179 218.139 71.6339 217.984 71.1273 217.984C70.9033 217.984 70.6899 218.024 70.4873 218.104C70.2846 218.179 70.1059 218.293 69.9513 218.448C69.8019 218.603 69.6819 218.795 69.5913 219.024C69.5059 219.253 69.4633 219.52 69.4633 219.824V225H67.8953V219.824C67.8953 219.195 67.7699 218.731 67.5193 218.432C67.2686 218.133 66.9006 217.984 66.4153 217.984C66.0793 217.984 65.7673 218.072 65.4793 218.248C65.1913 218.424 64.9273 218.664 64.6873 218.968V225H63.1273ZM79.81 216.744C80.4073 216.744 80.946 216.843 81.426 217.04C81.9113 217.232 82.322 217.512 82.658 217.88C82.9993 218.243 83.2607 218.683 83.442 219.2C83.6233 219.712 83.714 220.288 83.714 220.928C83.714 221.568 83.6233 222.147 83.442 222.664C83.2607 223.181 82.9993 223.621 82.658 223.984C82.322 224.347 81.9113 224.627 81.426 224.824C80.946 225.016 80.4073 225.112 79.81 225.112C79.2073 225.112 78.6633 225.016 78.178 224.824C77.698 224.627 77.2873 224.347 76.946 223.984C76.6047 223.621 76.3407 223.181 76.154 222.664C75.9727 222.147 75.882 221.568 75.882 220.928C75.882 220.288 75.9727 219.712 76.154 219.2C76.3407 218.683 76.6047 218.243 76.946 217.88C77.2873 217.512 77.698 217.232 78.178 217.04C78.6633 216.843 79.2073 216.744 79.81 216.744ZM79.81 223.896C80.578 223.896 81.1513 223.637 81.53 223.12C81.9087 222.603 82.098 221.875 82.098 220.936C82.098 219.997 81.9087 219.269 81.53 218.752C81.1513 218.229 80.578 217.968 79.81 217.968C79.0313 217.968 78.45 218.229 78.066 218.752C77.6873 219.269 77.498 219.997 77.498 220.936C77.498 221.875 77.6873 222.603 78.066 223.12C78.45 223.637 79.0313 223.896 79.81 223.896ZM87.8431 225.128C87.1871 225.128 86.6805 224.944 86.3231 224.576C85.9711 224.208 85.7951 223.683 85.7951 223V218.136H84.8511C84.7605 218.136 84.6831 218.109 84.6191 218.056C84.5605 217.997 84.5311 217.912 84.5311 217.8V217.168L85.8511 216.984L86.2031 214.56C86.2245 214.469 86.2645 214.4 86.3231 214.352C86.3871 214.299 86.4671 214.272 86.5631 214.272H87.3551V217H89.6591V218.136H87.3551V222.896C87.3551 223.216 87.4325 223.456 87.5871 223.616C87.7471 223.771 87.9498 223.848 88.1951 223.848C88.3391 223.848 88.4618 223.829 88.5631 223.792C88.6698 223.755 88.7605 223.715 88.8351 223.672C88.9098 223.624 88.9738 223.581 89.0271 223.544C89.0805 223.507 89.1285 223.488 89.1711 223.488C89.2245 223.488 89.2645 223.501 89.2911 223.528C89.3231 223.549 89.3551 223.587 89.3871 223.64L89.8511 224.392C89.5951 224.627 89.2911 224.808 88.9391 224.936C88.5871 225.064 88.2218 225.128 87.8431 225.128ZM96.4331 220.032C96.4331 219.723 96.3878 219.437 96.2971 219.176C96.2118 218.915 96.0838 218.688 95.9131 218.496C95.7425 218.304 95.5345 218.155 95.2891 218.048C95.0438 217.941 94.7611 217.888 94.4411 217.888C93.7851 217.888 93.2678 218.077 92.8891 218.456C92.5158 218.835 92.2785 219.36 92.1771 220.032H96.4331ZM97.7211 223.84C97.5291 224.064 97.3078 224.259 97.0571 224.424C96.8065 224.584 96.5398 224.715 96.2571 224.816C95.9745 224.917 95.6811 224.992 95.3771 225.04C95.0785 225.088 94.7825 225.112 94.4891 225.112C93.9291 225.112 93.4091 225.019 92.9291 224.832C92.4545 224.64 92.0411 224.363 91.6891 224C91.3425 223.632 91.0705 223.179 90.8731 222.64C90.6811 222.096 90.5851 221.472 90.5851 220.768C90.5851 220.203 90.6731 219.677 90.8491 219.192C91.0251 218.701 91.2758 218.275 91.6011 217.912C91.9318 217.549 92.3345 217.264 92.8091 217.056C93.2838 216.848 93.8171 216.744 94.4091 216.744C94.9051 216.744 95.3611 216.827 95.7771 216.992C96.1985 217.152 96.5611 217.387 96.8651 217.696C97.1691 218.005 97.4065 218.387 97.5771 218.84C97.7531 219.293 97.8411 219.811 97.8411 220.392C97.8411 220.632 97.8145 220.795 97.7611 220.88C97.7078 220.96 97.6091 221 97.4651 221H92.1371C92.1531 221.485 92.2225 221.909 92.3451 222.272C92.4678 222.629 92.6358 222.928 92.8491 223.168C93.0678 223.408 93.3265 223.587 93.6251 223.704C93.9238 223.821 94.2571 223.88 94.6251 223.88C94.9718 223.88 95.2705 223.84 95.5211 223.76C95.7771 223.68 95.9958 223.595 96.1771 223.504C96.3638 223.408 96.5185 223.32 96.6411 223.24C96.7691 223.16 96.8811 223.12 96.9771 223.12C97.1051 223.12 97.2038 223.168 97.2731 223.264L97.7211 223.84Z" fill="#494949"/>
  <rect x="123" y="201" width="99" height="35" rx="4" fill="#F4F4F4"/>
  <path d="M143.896 219.424C144.328 219.424 144.707 219.368 145.032 219.256C145.363 219.144 145.637 218.987 145.856 218.784C146.08 218.576 146.248 218.331 146.36 218.048C146.472 217.76 146.528 217.443 146.528 217.096C146.528 216.397 146.309 215.848 145.872 215.448C145.44 215.048 144.781 214.848 143.896 214.848H142.12V219.424H143.896ZM143.896 213.512C144.632 213.512 145.272 213.597 145.816 213.768C146.36 213.939 146.811 214.181 147.168 214.496C147.525 214.805 147.789 215.181 147.96 215.624C148.136 216.067 148.224 216.557 148.224 217.096C148.224 217.635 148.131 218.131 147.944 218.584C147.757 219.032 147.483 219.419 147.12 219.744C146.757 220.069 146.304 220.323 145.76 220.504C145.221 220.68 144.6 220.768 143.896 220.768H142.12V225H140.416V213.512H143.896ZM153.902 221.392C153.267 221.413 152.728 221.464 152.286 221.544C151.843 221.619 151.483 221.72 151.206 221.848C150.928 221.976 150.728 222.128 150.606 222.304C150.483 222.475 150.422 222.667 150.422 222.88C150.422 223.083 150.454 223.259 150.518 223.408C150.587 223.552 150.678 223.672 150.789 223.768C150.907 223.859 151.043 223.925 151.198 223.968C151.352 224.011 151.52 224.032 151.702 224.032C151.942 224.032 152.16 224.008 152.358 223.96C152.56 223.912 152.75 223.845 152.926 223.76C153.102 223.669 153.27 223.56 153.43 223.432C153.59 223.304 153.747 223.157 153.902 222.992V221.392ZM149.326 218.008C149.779 217.576 150.27 217.253 150.798 217.04C151.331 216.827 151.915 216.72 152.549 216.72C153.014 216.72 153.424 216.797 153.782 216.952C154.139 217.101 154.44 217.312 154.686 217.584C154.931 217.856 155.115 218.181 155.238 218.56C155.366 218.939 155.43 219.357 155.43 219.816V225H154.734C154.579 225 154.462 224.976 154.382 224.928C154.302 224.875 154.238 224.779 154.19 224.64L154.022 223.928C153.814 224.12 153.608 224.291 153.406 224.44C153.203 224.584 152.99 224.709 152.766 224.816C152.547 224.917 152.312 224.995 152.062 225.048C151.811 225.101 151.534 225.128 151.23 225.128C150.91 225.128 150.608 225.085 150.326 225C150.048 224.909 149.806 224.773 149.598 224.592C149.39 224.411 149.224 224.184 149.102 223.912C148.984 223.64 148.926 223.323 148.926 222.96C148.926 222.64 149.011 222.333 149.182 222.04C149.358 221.741 149.64 221.475 150.03 221.24C150.424 221.005 150.936 220.813 151.566 220.664C152.2 220.515 152.979 220.429 153.902 220.408V219.816C153.902 219.203 153.771 218.744 153.51 218.44C153.248 218.136 152.864 217.984 152.358 217.984C152.016 217.984 151.728 218.027 151.494 218.112C151.264 218.197 151.064 218.293 150.894 218.4C150.728 218.501 150.582 218.595 150.454 218.68C150.331 218.765 150.203 218.808 150.07 218.808C149.963 218.808 149.87 218.779 149.79 218.72C149.715 218.661 149.654 218.592 149.606 218.512L149.326 218.008ZM158.99 218.432C159.251 217.899 159.566 217.48 159.934 217.176C160.302 216.872 160.745 216.72 161.262 216.72C161.438 216.72 161.603 216.741 161.758 216.784C161.918 216.821 162.057 216.88 162.174 216.96L162.07 218.136C162.033 218.28 161.945 218.352 161.806 218.352C161.731 218.352 161.619 218.339 161.47 218.312C161.321 218.28 161.161 218.264 160.99 218.264C160.739 218.264 160.518 218.301 160.326 218.376C160.134 218.445 159.961 218.552 159.806 218.696C159.657 218.835 159.523 219.008 159.406 219.216C159.289 219.419 159.179 219.651 159.078 219.912V225H157.518V216.872H158.414C158.585 216.872 158.699 216.904 158.758 216.968C158.822 217.027 158.867 217.133 158.894 217.288L158.99 218.432ZM165.921 225.128C165.265 225.128 164.759 224.944 164.401 224.576C164.049 224.208 163.873 223.683 163.873 223V218.136H162.929C162.839 218.136 162.761 218.109 162.697 218.056C162.639 217.997 162.609 217.912 162.609 217.8V217.168L163.929 216.984L164.281 214.56C164.303 214.469 164.343 214.4 164.401 214.352C164.465 214.299 164.545 214.272 164.641 214.272H165.433V217H167.737V218.136H165.433V222.896C165.433 223.216 165.511 223.456 165.665 223.616C165.825 223.771 166.028 223.848 166.273 223.848C166.417 223.848 166.54 223.829 166.641 223.792C166.748 223.755 166.839 223.715 166.913 223.672C166.988 223.624 167.052 223.581 167.105 223.544C167.159 223.507 167.207 223.488 167.249 223.488C167.303 223.488 167.343 223.501 167.369 223.528C167.401 223.549 167.433 223.587 167.465 223.64L167.929 224.392C167.673 224.627 167.369 224.808 167.017 224.936C166.665 225.064 166.3 225.128 165.921 225.128ZM169.054 219.528H173.054V220.856H169.054V219.528ZM182.831 225H181.263V218.136H177.183V222.896C177.183 223.216 177.261 223.456 177.415 223.616C177.575 223.771 177.778 223.848 178.023 223.848C178.167 223.848 178.29 223.829 178.391 223.792C178.498 223.755 178.589 223.715 178.663 223.672C178.738 223.624 178.802 223.581 178.855 223.544C178.909 223.507 178.957 223.488 178.999 223.488C179.053 223.488 179.093 223.501 179.119 223.528C179.151 223.549 179.183 223.587 179.215 223.64L179.679 224.392C179.423 224.627 179.119 224.808 178.767 224.936C178.415 225.064 178.05 225.128 177.671 225.128C177.015 225.128 176.509 224.944 176.151 224.576C175.799 224.208 175.623 223.683 175.623 223V218.136H174.679C174.589 218.136 174.511 218.109 174.447 218.056C174.389 217.997 174.359 217.912 174.359 217.8V217.168L175.687 216.984L176.031 214.56C176.053 214.469 176.093 214.4 176.151 214.352C176.215 214.299 176.295 214.272 176.391 214.272H177.183V217H182.831V225ZM183.183 214.312C183.183 214.456 183.154 214.595 183.095 214.728C183.037 214.856 182.957 214.971 182.855 215.072C182.759 215.168 182.645 215.245 182.511 215.304C182.378 215.357 182.239 215.384 182.095 215.384C181.951 215.384 181.815 215.357 181.687 215.304C181.559 215.245 181.445 215.168 181.343 215.072C181.247 214.971 181.17 214.856 181.111 214.728C181.058 214.595 181.031 214.456 181.031 214.312C181.031 214.163 181.058 214.021 181.111 213.888C181.17 213.755 181.247 213.64 181.343 213.544C181.445 213.443 181.559 213.365 181.687 213.312C181.815 213.253 181.951 213.224 182.095 213.224C182.239 213.224 182.378 213.253 182.511 213.312C182.645 213.365 182.759 213.443 182.855 213.544C182.957 213.64 183.037 213.755 183.095 213.888C183.154 214.021 183.183 214.163 183.183 214.312ZM185.096 225V216.872H186.032C186.251 216.872 186.387 216.976 186.44 217.184L186.552 217.96C186.851 217.603 187.181 217.312 187.544 217.088C187.912 216.859 188.341 216.744 188.832 216.744C189.371 216.744 189.808 216.893 190.144 217.192C190.48 217.485 190.725 217.885 190.88 218.392C190.997 218.104 191.149 217.856 191.336 217.648C191.523 217.44 191.731 217.269 191.96 217.136C192.189 217.003 192.432 216.904 192.688 216.84C192.949 216.776 193.213 216.744 193.48 216.744C193.912 216.744 194.296 216.813 194.632 216.952C194.973 217.085 195.261 217.283 195.496 217.544C195.731 217.805 195.909 218.128 196.032 218.512C196.155 218.896 196.216 219.333 196.216 219.824V225H194.648V219.824C194.648 219.216 194.515 218.757 194.248 218.448C193.987 218.139 193.603 217.984 193.096 217.984C192.872 217.984 192.659 218.024 192.456 218.104C192.253 218.179 192.075 218.293 191.92 218.448C191.771 218.603 191.651 218.795 191.56 219.024C191.475 219.253 191.432 219.52 191.432 219.824V225H189.864V219.824C189.864 219.195 189.739 218.731 189.488 218.432C189.237 218.133 188.869 217.984 188.384 217.984C188.048 217.984 187.736 218.072 187.448 218.248C187.16 218.424 186.896 218.664 186.656 218.968V225H185.096ZM203.699 220.032C203.699 219.723 203.653 219.437 203.563 219.176C203.477 218.915 203.349 218.688 203.179 218.496C203.008 218.304 202.8 218.155 202.555 218.048C202.309 217.941 202.027 217.888 201.707 217.888C201.051 217.888 200.533 218.077 200.155 218.456C199.781 218.835 199.544 219.36 199.443 220.032H203.699ZM204.987 223.84C204.795 224.064 204.573 224.259 204.323 224.424C204.072 224.584 203.805 224.715 203.523 224.816C203.24 224.917 202.947 224.992 202.643 225.04C202.344 225.088 202.048 225.112 201.755 225.112C201.195 225.112 200.675 225.019 200.195 224.832C199.72 224.64 199.307 224.363 198.955 224C198.608 223.632 198.336 223.179 198.139 222.64C197.947 222.096 197.851 221.472 197.851 220.768C197.851 220.203 197.939 219.677 198.115 219.192C198.291 218.701 198.541 218.275 198.867 217.912C199.197 217.549 199.6 217.264 200.075 217.056C200.549 216.848 201.083 216.744 201.675 216.744C202.171 216.744 202.627 216.827 203.043 216.992C203.464 217.152 203.827 217.387 204.131 217.696C204.435 218.005 204.672 218.387 204.843 218.84C205.019 219.293 205.107 219.811 205.107 220.392C205.107 220.632 205.08 220.795 205.027 220.88C204.973 220.96 204.875 221 204.731 221H199.403C199.419 221.485 199.488 221.909 199.611 222.272C199.733 222.629 199.901 222.928 200.115 223.168C200.333 223.408 200.592 223.587 200.891 223.704C201.189 223.821 201.523 223.88 201.891 223.88C202.237 223.88 202.536 223.84 202.787 223.76C203.043 223.68 203.261 223.595 203.443 223.504C203.629 223.408 203.784 223.32 203.907 223.24C204.035 223.16 204.147 223.12 204.243 223.12C204.371 223.12 204.469 223.168 204.539 223.264L204.987 223.84Z" fill="#494949"/>
  <rect x="230" y="201" width="114" height="35" rx="4" fill="#F4F4F4"/>
  <path d="M253.36 215.384C253.307 215.475 253.251 215.541 253.192 215.584C253.133 215.627 253.059 215.648 252.968 215.648C252.872 215.648 252.763 215.605 252.64 215.52C252.517 215.429 252.363 215.331 252.176 215.224C251.995 215.112 251.776 215.013 251.52 214.928C251.264 214.837 250.957 214.792 250.6 214.792C250.264 214.792 249.968 214.837 249.712 214.928C249.461 215.013 249.251 215.133 249.08 215.288C248.909 215.437 248.779 215.616 248.688 215.824C248.603 216.027 248.56 216.248 248.56 216.488C248.56 216.797 248.637 217.053 248.792 217.256C248.952 217.459 249.16 217.632 249.416 217.776C249.672 217.92 249.963 218.045 250.288 218.152C250.613 218.259 250.947 218.371 251.288 218.488C251.629 218.6 251.963 218.731 252.288 218.88C252.613 219.029 252.904 219.219 253.16 219.448C253.416 219.672 253.621 219.949 253.776 220.28C253.936 220.605 254.016 221.005 254.016 221.48C254.016 221.987 253.928 222.461 253.752 222.904C253.581 223.347 253.331 223.733 253 224.064C252.669 224.395 252.261 224.656 251.776 224.848C251.296 225.035 250.749 225.128 250.136 225.128C249.768 225.128 249.411 225.091 249.064 225.016C248.717 224.947 248.389 224.848 248.08 224.72C247.771 224.587 247.48 224.429 247.208 224.248C246.941 224.061 246.701 223.853 246.488 223.624L246.976 222.808C247.024 222.744 247.08 222.691 247.144 222.648C247.213 222.605 247.291 222.584 247.376 222.584C247.488 222.584 247.616 222.643 247.76 222.76C247.909 222.877 248.091 223.008 248.304 223.152C248.523 223.291 248.781 223.419 249.08 223.536C249.384 223.653 249.752 223.712 250.184 223.712C250.536 223.712 250.851 223.667 251.128 223.576C251.405 223.48 251.637 223.347 251.824 223.176C252.016 223 252.163 222.789 252.264 222.544C252.365 222.299 252.416 222.027 252.416 221.728C252.416 221.392 252.339 221.117 252.184 220.904C252.029 220.691 251.824 220.512 251.568 220.368C251.312 220.224 251.021 220.101 250.696 220C250.371 219.899 250.037 219.795 249.696 219.688C249.355 219.576 249.021 219.448 248.696 219.304C248.371 219.16 248.08 218.973 247.824 218.744C247.568 218.509 247.363 218.219 247.208 217.872C247.053 217.52 246.976 217.088 246.976 216.576C246.976 216.165 247.056 215.768 247.216 215.384C247.376 215 247.608 214.661 247.912 214.368C248.221 214.069 248.6 213.832 249.048 213.656C249.496 213.475 250.008 213.384 250.584 213.384C251.229 213.384 251.821 213.488 252.36 213.696C252.904 213.899 253.376 214.192 253.776 214.576L253.36 215.384ZM261.136 220.032C261.136 219.723 261.091 219.437 261 219.176C260.915 218.915 260.787 218.688 260.616 218.496C260.446 218.304 260.238 218.155 259.992 218.048C259.747 217.941 259.464 217.888 259.144 217.888C258.488 217.888 257.971 218.077 257.592 218.456C257.219 218.835 256.982 219.36 256.88 220.032H261.136ZM262.424 223.84C262.232 224.064 262.011 224.259 261.76 224.424C261.51 224.584 261.243 224.715 260.96 224.816C260.678 224.917 260.384 224.992 260.08 225.04C259.782 225.088 259.486 225.112 259.192 225.112C258.632 225.112 258.112 225.019 257.632 224.832C257.158 224.64 256.744 224.363 256.392 224C256.046 223.632 255.774 223.179 255.576 222.64C255.384 222.096 255.288 221.472 255.288 220.768C255.288 220.203 255.376 219.677 255.552 219.192C255.728 218.701 255.979 218.275 256.304 217.912C256.635 217.549 257.038 217.264 257.512 217.056C257.987 216.848 258.52 216.744 259.112 216.744C259.608 216.744 260.064 216.827 260.48 216.992C260.902 217.152 261.264 217.387 261.568 217.696C261.872 218.005 262.11 218.387 262.28 218.84C262.456 219.293 262.544 219.811 262.544 220.392C262.544 220.632 262.518 220.795 262.464 220.88C262.411 220.96 262.312 221 262.168 221H256.84C256.856 221.485 256.926 221.909 257.048 222.272C257.171 222.629 257.339 222.928 257.552 223.168C257.771 223.408 258.03 223.587 258.328 223.704C258.627 223.821 258.96 223.88 259.328 223.88C259.675 223.88 259.974 223.84 260.224 223.76C260.48 223.68 260.699 223.595 260.88 223.504C261.067 223.408 261.222 223.32 261.344 223.24C261.472 223.16 261.584 223.12 261.68 223.12C261.808 223.12 261.907 223.168 261.976 223.264L262.424 223.84ZM265.685 218C265.861 217.813 266.045 217.643 266.237 217.488C266.429 217.333 266.632 217.203 266.845 217.096C267.064 216.984 267.296 216.899 267.541 216.84C267.792 216.776 268.058 216.744 268.341 216.744C268.789 216.744 269.181 216.819 269.517 216.968C269.858 217.117 270.144 217.328 270.373 217.6C270.602 217.867 270.776 218.189 270.893 218.568C271.01 218.947 271.069 219.365 271.069 219.824V225H269.501V219.824C269.501 219.243 269.368 218.792 269.101 218.472C268.834 218.147 268.426 217.984 267.877 217.984C267.477 217.984 267.101 218.08 266.749 218.272C266.402 218.459 266.08 218.715 265.781 219.04V225H264.221V216.872H265.157C265.376 216.872 265.512 216.976 265.565 217.184L265.685 218ZM274.806 216.872V225H273.246V216.872H274.806ZM275.102 214.36C275.102 214.504 275.073 214.643 275.014 214.776C274.955 214.904 274.875 215.019 274.774 215.12C274.678 215.216 274.563 215.293 274.43 215.352C274.297 215.405 274.158 215.432 274.014 215.432C273.87 215.432 273.734 215.405 273.606 215.352C273.478 215.293 273.363 215.216 273.262 215.12C273.166 215.019 273.089 214.904 273.03 214.776C272.977 214.643 272.95 214.504 272.95 214.36C272.95 214.211 272.977 214.072 273.03 213.944C273.089 213.811 273.166 213.696 273.262 213.6C273.363 213.499 273.478 213.421 273.606 213.368C273.734 213.309 273.87 213.28 274.014 213.28C274.158 213.28 274.297 213.309 274.43 213.368C274.563 213.421 274.678 213.499 274.774 213.6C274.875 213.696 274.955 213.811 275.014 213.944C275.073 214.072 275.102 214.211 275.102 214.36ZM280.529 216.744C281.126 216.744 281.665 216.843 282.145 217.04C282.63 217.232 283.041 217.512 283.377 217.88C283.718 218.243 283.979 218.683 284.161 219.2C284.342 219.712 284.433 220.288 284.433 220.928C284.433 221.568 284.342 222.147 284.161 222.664C283.979 223.181 283.718 223.621 283.377 223.984C283.041 224.347 282.63 224.627 282.145 224.824C281.665 225.016 281.126 225.112 280.529 225.112C279.926 225.112 279.382 225.016 278.897 224.824C278.417 224.627 278.006 224.347 277.665 223.984C277.323 223.621 277.059 223.181 276.873 222.664C276.691 222.147 276.601 221.568 276.601 220.928C276.601 220.288 276.691 219.712 276.873 219.2C277.059 218.683 277.323 218.243 277.665 217.88C278.006 217.512 278.417 217.232 278.897 217.04C279.382 216.843 279.926 216.744 280.529 216.744ZM280.529 223.896C281.297 223.896 281.87 223.637 282.249 223.12C282.627 222.603 282.817 221.875 282.817 220.936C282.817 219.997 282.627 219.269 282.249 218.752C281.87 218.229 281.297 217.968 280.529 217.968C279.75 217.968 279.169 218.229 278.785 218.752C278.406 219.269 278.217 219.997 278.217 220.936C278.217 221.875 278.406 222.603 278.785 223.12C279.169 223.637 279.75 223.896 280.529 223.896ZM287.646 218.432C287.907 217.899 288.222 217.48 288.59 217.176C288.958 216.872 289.401 216.72 289.918 216.72C290.094 216.72 290.259 216.741 290.414 216.784C290.574 216.821 290.713 216.88 290.83 216.96L290.726 218.136C290.689 218.28 290.601 218.352 290.462 218.352C290.387 218.352 290.275 218.339 290.126 218.312C289.977 218.28 289.817 218.264 289.646 218.264C289.395 218.264 289.174 218.301 288.982 218.376C288.79 218.445 288.617 218.552 288.462 218.696C288.313 218.835 288.179 219.008 288.062 219.216C287.945 219.419 287.835 219.651 287.734 219.912V225H286.174V216.872H287.07C287.241 216.872 287.355 216.904 287.414 216.968C287.478 217.027 287.523 217.133 287.55 217.288L287.646 218.432ZM297.337 213.192V225H295.769V213.192H297.337ZM304.949 220.032C304.949 219.723 304.903 219.437 304.813 219.176C304.727 218.915 304.599 218.688 304.429 218.496C304.258 218.304 304.05 218.155 303.805 218.048C303.559 217.941 303.277 217.888 302.957 217.888C302.301 217.888 301.783 218.077 301.405 218.456C301.031 218.835 300.794 219.36 300.693 220.032H304.949ZM306.237 223.84C306.045 224.064 305.823 224.259 305.573 224.424C305.322 224.584 305.055 224.715 304.773 224.816C304.49 224.917 304.197 224.992 303.893 225.04C303.594 225.088 303.298 225.112 303.005 225.112C302.445 225.112 301.925 225.019 301.445 224.832C300.97 224.64 300.557 224.363 300.205 224C299.858 223.632 299.586 223.179 299.389 222.64C299.197 222.096 299.101 221.472 299.101 220.768C299.101 220.203 299.189 219.677 299.365 219.192C299.541 218.701 299.791 218.275 300.117 217.912C300.447 217.549 300.85 217.264 301.325 217.056C301.799 216.848 302.333 216.744 302.925 216.744C303.421 216.744 303.877 216.827 304.293 216.992C304.714 217.152 305.077 217.387 305.381 217.696C305.685 218.005 305.922 218.387 306.093 218.84C306.269 219.293 306.357 219.811 306.357 220.392C306.357 220.632 306.33 220.795 306.277 220.88C306.223 220.96 306.125 221 305.981 221H300.653C300.669 221.485 300.738 221.909 300.861 222.272C300.983 222.629 301.151 222.928 301.365 223.168C301.583 223.408 301.842 223.587 302.141 223.704C302.439 223.821 302.773 223.88 303.141 223.88C303.487 223.88 303.786 223.84 304.037 223.76C304.293 223.68 304.511 223.595 304.693 223.504C304.879 223.408 305.034 223.32 305.157 223.24C305.285 223.16 305.397 223.12 305.493 223.12C305.621 223.12 305.719 223.168 305.789 223.264L306.237 223.84ZM314.902 216.872L311.606 225H310.198L306.902 216.872H308.19C308.313 216.872 308.414 216.901 308.494 216.96C308.574 217.019 308.627 217.093 308.654 217.184L310.598 222.176C310.667 222.384 310.726 222.592 310.774 222.8C310.827 223.003 310.875 223.205 310.918 223.408C310.961 223.205 311.009 223.003 311.062 222.8C311.115 222.597 311.179 222.389 311.254 222.176L313.222 217.184C313.254 217.093 313.31 217.019 313.39 216.96C313.47 216.901 313.566 216.872 313.678 216.872H314.902ZM321.293 220.032C321.293 219.723 321.247 219.437 321.157 219.176C321.071 218.915 320.943 218.688 320.773 218.496C320.602 218.304 320.394 218.155 320.149 218.048C319.903 217.941 319.621 217.888 319.301 217.888C318.645 217.888 318.127 218.077 317.749 218.456C317.375 218.835 317.138 219.36 317.037 220.032H321.293ZM322.581 223.84C322.389 224.064 322.167 224.259 321.917 224.424C321.666 224.584 321.399 224.715 321.117 224.816C320.834 224.917 320.541 224.992 320.237 225.04C319.938 225.088 319.642 225.112 319.349 225.112C318.789 225.112 318.269 225.019 317.789 224.832C317.314 224.64 316.901 224.363 316.549 224C316.202 223.632 315.93 223.179 315.733 222.64C315.541 222.096 315.445 221.472 315.445 220.768C315.445 220.203 315.533 219.677 315.709 219.192C315.885 218.701 316.135 218.275 316.461 217.912C316.791 217.549 317.194 217.264 317.669 217.056C318.143 216.848 318.677 216.744 319.269 216.744C319.765 216.744 320.221 216.827 320.637 216.992C321.058 217.152 321.421 217.387 321.725 217.696C322.029 218.005 322.266 218.387 322.437 218.84C322.613 219.293 322.701 219.811 322.701 220.392C322.701 220.632 322.674 220.795 322.621 220.88C322.567 220.96 322.469 221 322.325 221H316.997C317.013 221.485 317.082 221.909 317.205 222.272C317.327 222.629 317.495 222.928 317.709 223.168C317.927 223.408 318.186 223.587 318.485 223.704C318.783 223.821 319.117 223.88 319.485 223.88C319.831 223.88 320.13 223.84 320.381 223.76C320.637 223.68 320.855 223.595 321.037 223.504C321.223 223.408 321.378 223.32 321.501 223.24C321.629 223.16 321.741 223.12 321.837 223.12C321.965 223.12 322.063 223.168 322.133 223.264L322.581 223.84ZM325.977 213.192V225H324.409V213.192H325.977Z" fill="#494949"/>
  <rect x="28" y="264" width="165" height="12" rx="6" fill="#F4F4F4"/>
  <rect x="337" y="264" width="66" height="12" rx="6" fill="#F4F4F4"/>
  </svg>
  