<svg width="474" height="179" viewBox="0 0 474 179" fill="none" xmlns="http://www.w3.org/2000/svg">
  <rect x="1" y="0.5" width="472" height="178" rx="11.5" fill="white"/>
  <path d="M24.98 31.384H30.5V46H32.78V31.384H38.324V29.2H24.98V31.384ZM41.8728 34.072C38.4888 34.072 36.1848 36.736 36.1848 40.24C36.1848 43.768 38.5128 46.36 41.9928 46.36C44.7528 46.36 47.0088 44.608 47.3928 42.04L45.2328 41.656C45.0168 43.264 43.6728 44.32 42.0408 44.32C40.0008 44.32 38.5368 42.88 38.3208 40.648H47.0568V39.544C47.0568 36.352 45.0168 34.072 41.8728 34.072ZM38.4408 38.824C38.8488 37.168 40.1688 36.064 41.8728 36.064C43.6968 36.064 44.8968 37.264 44.9688 38.824H38.4408ZM53.3737 39.04C50.4697 39.52 49.0057 40.696 49.0057 42.904C49.0057 44.632 50.3257 46.36 52.9657 46.36C54.5257 46.36 55.6297 45.64 56.2777 44.56V46H58.4137V38.2C58.4137 35.632 56.7337 34.048 53.6857 34.048C51.0457 34.048 48.9097 35.656 49.0537 38.584L51.2137 38.752L51.1897 38.416C51.1897 36.952 52.1257 36.016 53.7337 36.016C55.3657 36.016 56.2537 36.856 56.2537 38.08V38.56L53.3737 39.04ZM53.3977 44.296C52.0297 44.296 51.1657 43.648 51.1657 42.664C51.1657 41.584 52.1497 41.104 53.7097 40.816L56.2537 40.408V41.08C56.2537 43 55.0537 44.296 53.3977 44.296ZM61.0325 46H63.2405V39.52C63.2405 37.312 64.1525 36.136 65.5925 36.136C66.9125 36.136 67.5125 36.832 67.5125 38.536V46H69.6965L69.6485 39.208C69.7445 37.192 70.6325 36.136 72.0005 36.136C73.3205 36.136 73.9205 36.832 73.9205 38.536V46H76.1285L76.0805 37.984C76.0805 35.392 74.8565 34.072 72.6725 34.072C71.1605 34.072 70.0325 34.816 69.3605 36.136C68.8805 34.792 67.7765 34.072 66.2165 34.072C64.8965 34.072 63.8885 34.72 63.2405 35.8V34.456H61.0325V46ZM84.6267 46H92.1867C95.2347 46 97.1307 44.008 97.1307 41.32C97.1307 39.424 96.1227 37.888 94.4667 37.192C95.7867 36.448 96.5068 35.152 96.5068 33.544C96.5068 31.096 94.7308 29.2 91.7547 29.2H84.6267V46ZM86.9067 36.304V31.336H91.5147C93.2667 31.336 94.2987 32.344 94.2987 33.784C94.2987 35.32 93.3147 36.328 91.5867 36.328L86.9067 36.304ZM86.9067 43.864V38.392H91.8507C93.6748 38.392 94.7787 39.52 94.7787 41.128C94.7787 42.736 93.6748 43.864 91.8267 43.864H86.9067ZM99.1719 46H101.452V39.52C101.452 37.408 102.412 36.184 103.852 36.184C105.028 36.184 105.724 36.976 105.724 38.512C105.724 38.776 105.724 38.968 105.7 39.088L108.004 38.752C108.124 35.68 106.708 34.072 104.476 34.072C103.156 34.072 102.148 34.576 101.452 35.608V34.432H99.1719V46ZM114.73 34.072C111.346 34.072 109.042 36.736 109.042 40.24C109.042 43.768 111.37 46.36 114.85 46.36C117.61 46.36 119.866 44.608 120.25 42.04L118.09 41.656C117.874 43.264 116.53 44.32 114.898 44.32C112.858 44.32 111.394 42.88 111.178 40.648H119.914V39.544C119.914 36.352 117.874 34.072 114.73 34.072ZM111.298 38.824C111.706 37.168 113.026 36.064 114.73 36.064C116.554 36.064 117.754 37.264 117.826 38.824H111.298ZM126.231 39.04C123.327 39.52 121.863 40.696 121.863 42.904C121.863 44.632 123.183 46.36 125.823 46.36C127.383 46.36 128.487 45.64 129.135 44.56V46H131.271V38.2C131.271 35.632 129.591 34.048 126.543 34.048C123.903 34.048 121.767 35.656 121.911 38.584L124.071 38.752L124.047 38.416C124.047 36.952 124.983 36.016 126.591 36.016C128.223 36.016 129.111 36.856 129.111 38.08V38.56L126.231 39.04ZM126.255 44.296C124.887 44.296 124.023 43.648 124.023 42.664C124.023 41.584 125.007 41.104 126.567 40.816L129.111 40.408V41.08C129.111 43 127.911 44.296 126.255 44.296ZM133.889 46H136.169V41.992L137.297 40.864L141.257 46H144.041L138.905 39.28L143.777 34.432H140.825L136.169 39.064V29.2H133.889V46ZM149.465 34.072C146.297 34.072 144.017 36.784 144.017 40.216C144.017 43.648 146.297 46.36 149.465 46.36C151.217 46.36 152.561 45.664 153.497 44.44V46H155.777V29.2H153.497V35.992C152.561 34.768 151.193 34.072 149.465 34.072ZM149.921 44.176C148.841 44.176 147.977 43.816 147.305 43.072C146.633 42.328 146.297 41.368 146.297 40.216C146.297 39.064 146.633 38.128 147.305 37.384C148.001 36.64 148.865 36.256 149.921 36.256C152.009 36.256 153.497 37.96 153.497 40.216C153.497 41.368 153.161 42.328 152.489 43.072C151.817 43.816 150.953 44.176 149.921 44.176ZM163.793 34.072C160.265 34.072 157.769 36.808 157.769 40.24C157.769 43.696 160.265 46.36 163.793 46.36C167.297 46.36 169.745 43.696 169.745 40.24C169.745 36.808 167.273 34.072 163.793 34.072ZM163.769 44.176C161.633 44.176 160.049 42.472 160.049 40.24C160.049 37.96 161.633 36.256 163.769 36.256C165.929 36.256 167.465 37.96 167.465 40.24C167.465 41.368 167.105 42.328 166.409 43.072C165.713 43.816 164.849 44.176 163.769 44.176ZM170.508 34.432L174.06 46H176.34L178.812 37.864L181.284 46H183.516L187.116 34.432H184.836L182.364 42.784L179.844 34.432H177.756L175.236 42.76L172.764 34.432H170.508ZM188.875 46H191.155V39.76C191.155 37.528 192.307 36.136 194.131 36.136C195.763 36.136 196.579 37.072 196.579 38.968V46H198.859V38.512C198.859 35.752 197.347 34.072 194.827 34.072C193.219 34.072 191.995 34.72 191.155 35.776V34.432H188.875V46Z" fill="#34343D"/>
  <rect x="24.5" y="79" width="184" height="40" rx="4" fill="#F4F4F4"/>
  <path d="M41.2727 94.6136V93.3636H50V94.6136H46.3409V105H44.9318V94.6136H41.2727ZM54.3864 105.182C53.5455 105.182 52.8201 104.996 52.2102 104.625C51.6042 104.25 51.1364 103.727 50.8068 103.057C50.4811 102.383 50.3182 101.598 50.3182 100.705C50.3182 99.8106 50.4811 99.0227 50.8068 98.3409C51.1364 97.6553 51.5947 97.1212 52.1818 96.7386C52.7727 96.3523 53.4621 96.1591 54.25 96.1591C54.7045 96.1591 55.1534 96.2348 55.5966 96.3864C56.0398 96.5379 56.4432 96.7841 56.8068 97.125C57.1705 97.4621 57.4602 97.9091 57.6761 98.4659C57.892 99.0227 58 99.7083 58 100.523V101.091H51.2727V99.9318H56.6364C56.6364 99.4394 56.5379 99 56.3409 98.6136C56.1477 98.2273 55.8712 97.9223 55.5114 97.6989C55.1553 97.4754 54.7348 97.3636 54.25 97.3636C53.7159 97.3636 53.2538 97.4962 52.8636 97.7614C52.4773 98.0227 52.1799 98.3636 51.9716 98.7841C51.7633 99.2045 51.6591 99.6553 51.6591 100.136V100.909C51.6591 101.568 51.7727 102.127 52 102.585C52.2311 103.04 52.5511 103.386 52.9602 103.625C53.3693 103.86 53.8447 103.977 54.3864 103.977C54.7386 103.977 55.0568 103.928 55.3409 103.83C55.6288 103.727 55.8769 103.576 56.0852 103.375C56.2936 103.17 56.4545 102.917 56.5682 102.614L57.8636 102.977C57.7273 103.417 57.4981 103.803 57.1761 104.136C56.8542 104.466 56.4564 104.723 55.983 104.909C55.5095 105.091 54.9773 105.182 54.3864 105.182ZM60.0398 105V96.2727H61.3352V97.6364H61.4489C61.6307 97.1705 61.9242 96.8087 62.3295 96.5511C62.7348 96.2898 63.2216 96.1591 63.7898 96.1591C64.3655 96.1591 64.8447 96.2898 65.2273 96.5511C65.6136 96.8087 65.9148 97.1705 66.1307 97.6364H66.2216C66.4451 97.1856 66.7803 96.8277 67.2273 96.5625C67.6742 96.2936 68.2102 96.1591 68.8352 96.1591C69.6155 96.1591 70.2538 96.4034 70.75 96.892C71.2462 97.3769 71.4943 98.1326 71.4943 99.1591V105H70.1534V99.1591C70.1534 98.5152 69.9773 98.0549 69.625 97.7784C69.2727 97.5019 68.858 97.3636 68.3807 97.3636C67.767 97.3636 67.2917 97.5492 66.9545 97.9205C66.6174 98.2879 66.4489 98.7538 66.4489 99.3182V105H65.0852V99.0227C65.0852 98.5265 64.9242 98.1269 64.6023 97.8239C64.2803 97.517 63.8655 97.3636 63.358 97.3636C63.0095 97.3636 62.6837 97.4564 62.3807 97.642C62.0814 97.8277 61.839 98.0852 61.6534 98.4148C61.4716 98.7405 61.3807 99.1174 61.3807 99.5455V105H60.0398ZM73.946 108.273V96.2727H75.2415V97.6591H75.4006C75.4991 97.5076 75.6354 97.3144 75.8097 97.0795C75.9877 96.8409 76.2415 96.6288 76.571 96.4432C76.9044 96.2538 77.3551 96.1591 77.9233 96.1591C78.6581 96.1591 79.3059 96.3428 79.8665 96.7102C80.4271 97.0777 80.8646 97.5985 81.179 98.2727C81.4934 98.947 81.6506 99.7424 81.6506 100.659C81.6506 101.583 81.4934 102.384 81.179 103.062C80.8646 103.737 80.429 104.259 79.8722 104.631C79.3153 104.998 78.6733 105.182 77.946 105.182C77.3854 105.182 76.9366 105.089 76.5994 104.903C76.2623 104.714 76.0028 104.5 75.821 104.261C75.6392 104.019 75.4991 103.818 75.4006 103.659H75.2869V108.273H73.946ZM75.2642 100.636C75.2642 101.295 75.3608 101.877 75.554 102.381C75.7472 102.881 76.0294 103.273 76.4006 103.557C76.7718 103.837 77.2263 103.977 77.7642 103.977C78.3248 103.977 78.7926 103.83 79.1676 103.534C79.5464 103.235 79.8305 102.833 80.0199 102.33C80.2131 101.822 80.3097 101.258 80.3097 100.636C80.3097 100.023 80.215 99.4697 80.0256 98.9773C79.84 98.4811 79.5578 98.089 79.179 97.8011C78.804 97.5095 78.3324 97.3636 77.7642 97.3636C77.2188 97.3636 76.7604 97.5019 76.3892 97.7784C76.018 98.0511 75.7377 98.4337 75.5483 98.9261C75.3589 99.4148 75.2642 99.9848 75.2642 100.636ZM87.2415 105.182C86.4536 105.182 85.7623 104.994 85.1676 104.619C84.5767 104.244 84.1146 103.72 83.7812 103.045C83.4517 102.371 83.2869 101.583 83.2869 100.682C83.2869 99.7727 83.4517 98.9792 83.7812 98.3011C84.1146 97.6231 84.5767 97.0966 85.1676 96.7216C85.7623 96.3466 86.4536 96.1591 87.2415 96.1591C88.0294 96.1591 88.7188 96.3466 89.3097 96.7216C89.9044 97.0966 90.3665 97.6231 90.696 98.3011C91.0294 98.9792 91.196 99.7727 91.196 100.682C91.196 101.583 91.0294 102.371 90.696 103.045C90.3665 103.72 89.9044 104.244 89.3097 104.619C88.7188 104.994 88.0294 105.182 87.2415 105.182ZM87.2415 103.977C87.84 103.977 88.3324 103.824 88.7188 103.517C89.1051 103.21 89.3911 102.807 89.5767 102.307C89.7623 101.807 89.8551 101.265 89.8551 100.682C89.8551 100.098 89.7623 99.5549 89.5767 99.0511C89.3911 98.5473 89.1051 98.1402 88.7188 97.8295C88.3324 97.5189 87.84 97.3636 87.2415 97.3636C86.643 97.3636 86.1506 97.5189 85.7642 97.8295C85.3778 98.1402 85.0919 98.5473 84.9062 99.0511C84.7206 99.5549 84.6278 100.098 84.6278 100.682C84.6278 101.265 84.7206 101.807 84.9062 102.307C85.0919 102.807 85.3778 103.21 85.7642 103.517C86.1506 103.824 86.643 103.977 87.2415 103.977ZM93.2429 105V96.2727H94.5384V97.5909H94.6293C94.7884 97.1591 95.0762 96.8087 95.4929 96.5398C95.9096 96.2708 96.3793 96.1364 96.902 96.1364C97.0005 96.1364 97.1236 96.1383 97.2713 96.142C97.419 96.1458 97.5308 96.1515 97.6065 96.1591V97.5227C97.5611 97.5114 97.4569 97.4943 97.294 97.4716C97.1349 97.4451 96.9664 97.4318 96.7884 97.4318C96.3641 97.4318 95.9853 97.5208 95.652 97.6989C95.3224 97.8731 95.0611 98.1155 94.8679 98.4261C94.6785 98.733 94.5838 99.0833 94.5838 99.4773V105H93.2429ZM101.764 105.205C101.211 105.205 100.709 105.1 100.259 104.892C99.8078 104.68 99.4498 104.375 99.1847 103.977C98.9195 103.576 98.7869 103.091 98.7869 102.523C98.7869 102.023 98.8854 101.617 99.0824 101.307C99.2794 100.992 99.5426 100.746 99.8722 100.568C100.202 100.39 100.565 100.258 100.963 100.17C101.365 100.08 101.768 100.008 102.173 99.9545C102.704 99.8864 103.134 99.8352 103.463 99.8011C103.796 99.7633 104.039 99.7008 104.19 99.6136C104.346 99.5265 104.423 99.375 104.423 99.1591V99.1136C104.423 98.553 104.27 98.1174 103.963 97.8068C103.66 97.4962 103.2 97.3409 102.582 97.3409C101.942 97.3409 101.44 97.4811 101.077 97.7614C100.713 98.0417 100.457 98.3409 100.31 98.6591L99.0369 98.2045C99.2642 97.6742 99.5672 97.2614 99.946 96.9659C100.329 96.6667 100.745 96.4583 101.196 96.3409C101.651 96.2197 102.098 96.1591 102.537 96.1591C102.817 96.1591 103.139 96.1932 103.503 96.2614C103.87 96.3258 104.224 96.4602 104.565 96.6648C104.91 96.8693 105.196 97.178 105.423 97.5909C105.651 98.0038 105.764 98.5568 105.764 99.25V105H104.423V103.818H104.355C104.264 104.008 104.113 104.21 103.901 104.426C103.688 104.642 103.406 104.826 103.054 104.977C102.702 105.129 102.272 105.205 101.764 105.205ZM101.969 104C102.499 104 102.946 103.896 103.31 103.688C103.677 103.479 103.954 103.21 104.139 102.881C104.329 102.551 104.423 102.205 104.423 101.841V100.614C104.366 100.682 104.241 100.744 104.048 100.801C103.859 100.854 103.639 100.902 103.389 100.943C103.143 100.981 102.902 101.015 102.668 101.045C102.437 101.072 102.249 101.095 102.105 101.114C101.757 101.159 101.431 101.233 101.128 101.335C100.829 101.434 100.586 101.583 100.401 101.784C100.219 101.981 100.128 102.25 100.128 102.591C100.128 103.057 100.3 103.409 100.645 103.648C100.993 103.883 101.435 104 101.969 104ZM108.212 105V96.2727H109.507V97.5909H109.598C109.757 97.1591 110.045 96.8087 110.462 96.5398C110.878 96.2708 111.348 96.1364 111.871 96.1364C111.969 96.1364 112.092 96.1383 112.24 96.142C112.388 96.1458 112.5 96.1515 112.575 96.1591V97.5227C112.53 97.5114 112.426 97.4943 112.263 97.4716C112.104 97.4451 111.935 97.4318 111.757 97.4318C111.333 97.4318 110.954 97.5208 110.621 97.6989C110.291 97.8731 110.03 98.1155 109.837 98.4261C109.647 98.733 109.553 99.0833 109.553 99.4773V105H108.212ZM115.294 108.273C115.067 108.273 114.864 108.254 114.686 108.216C114.508 108.182 114.385 108.148 114.317 108.114L114.658 106.932C114.983 107.015 115.271 107.045 115.521 107.023C115.771 107 115.993 106.888 116.186 106.688C116.383 106.491 116.563 106.17 116.726 105.727L116.976 105.045L113.749 96.2727H115.203L117.612 103.227H117.703L120.112 96.2727H121.567L117.862 106.273C117.696 106.723 117.489 107.097 117.243 107.392C116.997 107.691 116.711 107.913 116.385 108.057C116.063 108.201 115.699 108.273 115.294 108.273ZM134.382 96.2727C134.314 95.697 134.037 95.25 133.553 94.9318C133.068 94.6136 132.473 94.4545 131.768 94.4545C131.253 94.4545 130.803 94.5379 130.416 94.7045C130.034 94.8712 129.734 95.1004 129.518 95.392C129.306 95.6837 129.2 96.0152 129.2 96.3864C129.2 96.697 129.274 96.964 129.422 97.1875C129.573 97.4072 129.767 97.5909 130.001 97.7386C130.236 97.8826 130.482 98.0019 130.74 98.0966C130.998 98.1875 131.234 98.2614 131.45 98.3182L132.632 98.6364C132.935 98.7159 133.272 98.8258 133.643 98.9659C134.018 99.1061 134.376 99.2973 134.717 99.5398C135.062 99.7784 135.346 100.085 135.57 100.46C135.793 100.835 135.905 101.295 135.905 101.841C135.905 102.47 135.74 103.038 135.411 103.545C135.085 104.053 134.607 104.456 133.979 104.756C133.354 105.055 132.594 105.205 131.7 105.205C130.867 105.205 130.145 105.07 129.536 104.801C128.929 104.532 128.452 104.157 128.104 103.676C127.759 103.195 127.564 102.636 127.518 102H128.973C129.011 102.439 129.159 102.803 129.416 103.091C129.678 103.375 130.007 103.587 130.405 103.727C130.806 103.864 131.238 103.932 131.7 103.932C132.238 103.932 132.721 103.845 133.149 103.67C133.577 103.492 133.916 103.246 134.166 102.932C134.416 102.614 134.541 102.242 134.541 101.818C134.541 101.432 134.433 101.117 134.217 100.875C134.001 100.633 133.717 100.436 133.365 100.284C133.013 100.133 132.632 100 132.223 99.8864L130.791 99.4773C129.882 99.2159 129.162 98.8428 128.632 98.358C128.102 97.8731 127.837 97.2386 127.837 96.4545C127.837 95.803 128.013 95.2348 128.365 94.75C128.721 94.2614 129.198 93.8826 129.797 93.6136C130.399 93.3409 131.071 93.2045 131.814 93.2045C132.564 93.2045 133.231 93.339 133.814 93.608C134.397 93.8731 134.859 94.2367 135.2 94.6989C135.545 95.161 135.727 95.6856 135.746 96.2727H134.382ZM141.835 96.2727V97.4091H137.312V96.2727H141.835ZM138.631 94.1818H139.972V102.5C139.972 102.879 140.027 103.163 140.136 103.352C140.25 103.538 140.394 103.663 140.568 103.727C140.746 103.788 140.934 103.818 141.131 103.818C141.278 103.818 141.4 103.811 141.494 103.795C141.589 103.777 141.665 103.761 141.722 103.75L141.994 104.955C141.903 104.989 141.777 105.023 141.614 105.057C141.451 105.095 141.244 105.114 140.994 105.114C140.616 105.114 140.244 105.032 139.881 104.869C139.521 104.706 139.222 104.458 138.983 104.125C138.748 103.792 138.631 103.371 138.631 102.864V94.1818ZM146.42 105.205C145.867 105.205 145.366 105.1 144.915 104.892C144.464 104.68 144.106 104.375 143.841 103.977C143.576 103.576 143.443 103.091 143.443 102.523C143.443 102.023 143.542 101.617 143.739 101.307C143.936 100.992 144.199 100.746 144.528 100.568C144.858 100.39 145.222 100.258 145.619 100.17C146.021 100.08 146.424 100.008 146.83 99.9545C147.36 99.8864 147.79 99.8352 148.119 99.8011C148.453 99.7633 148.695 99.7008 148.847 99.6136C149.002 99.5265 149.08 99.375 149.08 99.1591V99.1136C149.08 98.553 148.926 98.1174 148.619 97.8068C148.316 97.4962 147.856 97.3409 147.239 97.3409C146.598 97.3409 146.097 97.4811 145.733 97.7614C145.369 98.0417 145.114 98.3409 144.966 98.6591L143.693 98.2045C143.92 97.6742 144.223 97.2614 144.602 96.9659C144.985 96.6667 145.402 96.4583 145.852 96.3409C146.307 96.2197 146.754 96.1591 147.193 96.1591C147.473 96.1591 147.795 96.1932 148.159 96.2614C148.527 96.3258 148.881 96.4602 149.222 96.6648C149.566 96.8693 149.852 97.178 150.08 97.5909C150.307 98.0038 150.42 98.5568 150.42 99.25V105H149.08V103.818H149.011C148.92 104.008 148.769 104.21 148.557 104.426C148.345 104.642 148.063 104.826 147.71 104.977C147.358 105.129 146.928 105.205 146.42 105.205ZM146.625 104C147.155 104 147.602 103.896 147.966 103.688C148.333 103.479 148.61 103.21 148.795 102.881C148.985 102.551 149.08 102.205 149.08 101.841V100.614C149.023 100.682 148.898 100.744 148.705 100.801C148.515 100.854 148.295 100.902 148.045 100.943C147.799 100.981 147.559 101.015 147.324 101.045C147.093 101.072 146.905 101.095 146.761 101.114C146.413 101.159 146.087 101.233 145.784 101.335C145.485 101.434 145.242 101.583 145.057 101.784C144.875 101.981 144.784 102.25 144.784 102.591C144.784 103.057 144.956 103.409 145.301 103.648C145.65 103.883 146.091 104 146.625 104ZM156.754 96.2727V97.4091H152.05V96.2727H156.754ZM153.459 105V95.0682C153.459 94.5682 153.576 94.1515 153.811 93.8182C154.046 93.4848 154.351 93.2348 154.726 93.0682C155.101 92.9015 155.497 92.8182 155.913 92.8182C156.243 92.8182 156.512 92.8447 156.72 92.8977C156.929 92.9508 157.084 93 157.186 93.0455L156.8 94.2045C156.732 94.1818 156.637 94.1534 156.516 94.1193C156.398 94.0852 156.243 94.0682 156.05 94.0682C155.607 94.0682 155.286 94.1799 155.089 94.4034C154.896 94.6269 154.8 94.9545 154.8 95.3864V105H153.459ZM162.52 96.2727V97.4091H157.815V96.2727H162.52ZM159.224 105V95.0682C159.224 94.5682 159.342 94.1515 159.577 93.8182C159.812 93.4848 160.116 93.2348 160.491 93.0682C160.866 92.9015 161.262 92.8182 161.679 92.8182C162.009 92.8182 162.277 92.8447 162.486 92.8977C162.694 92.9508 162.849 93 162.952 93.0455L162.565 94.2045C162.497 94.1818 162.402 94.1534 162.281 94.1193C162.164 94.0852 162.009 94.0682 161.815 94.0682C161.372 94.0682 161.052 94.1799 160.855 94.4034C160.662 94.6269 160.565 94.9545 160.565 95.3864V105H159.224Z" fill="#4B4B55"/>
  <path d="M177.013 105.159C176.346 105.159 175.746 105.027 175.212 104.761C174.678 104.496 174.25 104.133 173.928 103.67C173.606 103.208 173.429 102.682 173.399 102.091H174.763C174.816 102.617 175.054 103.053 175.479 103.398C175.907 103.739 176.418 103.909 177.013 103.909C177.49 103.909 177.914 103.797 178.286 103.574C178.661 103.35 178.954 103.044 179.166 102.653C179.382 102.259 179.49 101.814 179.49 101.318C179.49 100.811 179.378 100.358 179.155 99.9602C178.935 99.5587 178.632 99.2424 178.246 99.0114C177.859 98.7803 177.418 98.6629 176.922 98.6591C176.566 98.6553 176.2 98.7102 175.825 98.8239C175.45 98.9337 175.142 99.0758 174.899 99.25L173.581 99.0909L174.286 93.3636H180.331V94.6136H175.467L175.058 98.0455H175.126C175.365 97.8561 175.664 97.6989 176.024 97.5739C176.384 97.4489 176.759 97.3864 177.149 97.3864C177.861 97.3864 178.496 97.5568 179.053 97.8977C179.613 98.2348 180.053 98.697 180.371 99.2841C180.693 99.8712 180.854 100.542 180.854 101.295C180.854 102.038 180.687 102.701 180.354 103.284C180.024 103.864 179.57 104.322 178.99 104.659C178.411 104.992 177.751 105.159 177.013 105.159ZM186.974 105.159C186.497 105.152 186.02 105.061 185.543 104.886C185.065 104.712 184.63 104.419 184.236 104.006C183.842 103.589 183.526 103.027 183.287 102.318C183.048 101.606 182.929 100.712 182.929 99.6364C182.929 98.6061 183.026 97.6932 183.219 96.8977C183.412 96.0985 183.692 95.4261 184.06 94.8807C184.427 94.3314 184.87 93.9148 185.389 93.6307C185.912 93.3466 186.501 93.2045 187.156 93.2045C187.808 93.2045 188.387 93.3352 188.895 93.5966C189.406 93.8542 189.823 94.214 190.145 94.6761C190.467 95.1383 190.675 95.6705 190.77 96.2727H189.384C189.255 95.75 189.005 95.3163 188.634 94.9716C188.262 94.6269 187.77 94.4545 187.156 94.4545C186.255 94.4545 185.545 94.8466 185.026 95.6307C184.51 96.4148 184.251 97.5152 184.247 98.9318H184.338C184.55 98.6098 184.802 98.3352 185.094 98.108C185.389 97.8769 185.715 97.6989 186.071 97.5739C186.427 97.4489 186.804 97.3864 187.202 97.3864C187.868 97.3864 188.478 97.553 189.031 97.8864C189.584 98.2159 190.027 98.6723 190.361 99.2557C190.694 99.8352 190.861 100.5 190.861 101.25C190.861 101.97 190.7 102.629 190.378 103.227C190.056 103.822 189.603 104.295 189.02 104.648C188.44 104.996 187.759 105.167 186.974 105.159ZM186.974 103.909C187.452 103.909 187.88 103.79 188.259 103.551C188.641 103.312 188.942 102.992 189.162 102.591C189.385 102.189 189.497 101.742 189.497 101.25C189.497 100.769 189.389 100.331 189.173 99.9375C188.961 99.5398 188.668 99.2235 188.293 98.9886C187.921 98.7538 187.497 98.6364 187.02 98.6364C186.66 98.6364 186.325 98.7083 186.014 98.8523C185.704 98.9924 185.431 99.1856 185.196 99.4318C184.965 99.678 184.783 99.9602 184.651 100.278C184.518 100.593 184.452 100.924 184.452 101.273C184.452 101.735 184.56 102.167 184.776 102.568C184.995 102.97 185.295 103.294 185.673 103.54C186.056 103.786 186.49 103.909 186.974 103.909Z" fill="#34343D"/>
  <rect x="340.5" y="79" width="109" height="40" rx="4" fill="#DDCDFF"/>
  <path d="M358.386 105H356.909L361.182 93.3636H362.636L366.909 105H365.432L361.955 95.2045H361.864L358.386 105ZM358.932 100.455H364.886V101.705H358.932V100.455ZM372.085 105.182C371.267 105.182 370.563 104.989 369.972 104.602C369.381 104.216 368.926 103.684 368.608 103.006C368.29 102.328 368.131 101.553 368.131 100.682C368.131 99.7955 368.294 99.0133 368.619 98.3352C368.949 97.6534 369.407 97.1212 369.994 96.7386C370.585 96.3523 371.275 96.1591 372.062 96.1591C372.676 96.1591 373.229 96.2727 373.722 96.5C374.214 96.7273 374.617 97.0455 374.932 97.4545C375.246 97.8636 375.441 98.3409 375.517 98.8864H374.176C374.074 98.4886 373.847 98.1364 373.494 97.8295C373.146 97.5189 372.676 97.3636 372.085 97.3636C371.563 97.3636 371.104 97.5 370.71 97.7727C370.32 98.0417 370.015 98.4223 369.795 98.9148C369.58 99.4034 369.472 99.9773 369.472 100.636C369.472 101.311 369.578 101.898 369.79 102.398C370.006 102.898 370.309 103.286 370.699 103.562C371.093 103.839 371.555 103.977 372.085 103.977C372.434 103.977 372.75 103.917 373.034 103.795C373.318 103.674 373.559 103.5 373.756 103.273C373.953 103.045 374.093 102.773 374.176 102.455H375.517C375.441 102.97 375.254 103.434 374.955 103.847C374.659 104.256 374.267 104.581 373.778 104.824C373.294 105.062 372.729 105.182 372.085 105.182ZM381.273 96.2727V97.4091H376.75V96.2727H381.273ZM378.068 94.1818H379.409V102.5C379.409 102.879 379.464 103.163 379.574 103.352C379.688 103.538 379.831 103.663 380.006 103.727C380.184 103.788 380.371 103.818 380.568 103.818C380.716 103.818 380.837 103.811 380.932 103.795C381.027 103.777 381.102 103.761 381.159 103.75L381.432 104.955C381.341 104.989 381.214 105.023 381.051 105.057C380.888 105.095 380.682 105.114 380.432 105.114C380.053 105.114 379.682 105.032 379.318 104.869C378.958 104.706 378.659 104.458 378.42 104.125C378.186 103.792 378.068 103.371 378.068 102.864V94.1818ZM383.29 105V96.2727H384.631V105H383.29ZM383.972 94.8182C383.71 94.8182 383.485 94.7292 383.295 94.5511C383.11 94.3731 383.017 94.1591 383.017 93.9091C383.017 93.6591 383.11 93.4451 383.295 93.267C383.485 93.089 383.71 93 383.972 93C384.233 93 384.456 93.089 384.642 93.267C384.831 93.4451 384.926 93.6591 384.926 93.9091C384.926 94.1591 384.831 94.3731 384.642 94.5511C384.456 94.7292 384.233 94.8182 383.972 94.8182ZM394.223 96.2727L390.996 105H389.632L386.405 96.2727H387.859L390.268 103.227H390.359L392.768 96.2727H394.223ZM399.339 105.182C398.499 105.182 397.773 104.996 397.163 104.625C396.557 104.25 396.089 103.727 395.76 103.057C395.434 102.383 395.271 101.598 395.271 100.705C395.271 99.8106 395.434 99.0227 395.76 98.3409C396.089 97.6553 396.548 97.1212 397.135 96.7386C397.726 96.3523 398.415 96.1591 399.203 96.1591C399.658 96.1591 400.107 96.2348 400.55 96.3864C400.993 96.5379 401.396 96.7841 401.76 97.125C402.124 97.4621 402.413 97.9091 402.629 98.4659C402.845 99.0227 402.953 99.7083 402.953 100.523V101.091H396.226V99.9318H401.589C401.589 99.4394 401.491 99 401.294 98.6136C401.101 98.2273 400.824 97.9223 400.464 97.6989C400.108 97.4754 399.688 97.3636 399.203 97.3636C398.669 97.3636 398.207 97.4962 397.817 97.7614C397.43 98.0227 397.133 98.3636 396.925 98.7841C396.716 99.2045 396.612 99.6553 396.612 100.136V100.909C396.612 101.568 396.726 102.127 396.953 102.585C397.184 103.04 397.504 103.386 397.913 103.625C398.322 103.86 398.798 103.977 399.339 103.977C399.692 103.977 400.01 103.928 400.294 103.83C400.582 103.727 400.83 103.576 401.038 103.375C401.247 103.17 401.408 102.917 401.521 102.614L402.817 102.977C402.68 103.417 402.451 103.803 402.129 104.136C401.807 104.466 401.41 104.723 400.936 104.909C400.463 105.091 399.93 105.182 399.339 105.182ZM413.697 102.614V101.455L418.811 93.3636H419.652V95.1591H419.084L415.22 101.273V101.364H422.107V102.614H413.697ZM419.175 105V102.261V101.722V93.3636H420.516V105H419.175ZM427.94 93.2045C428.418 93.2083 428.895 93.2992 429.372 93.4773C429.849 93.6553 430.285 93.9508 430.679 94.3636C431.073 94.7727 431.389 95.3314 431.628 96.0398C431.866 96.7481 431.986 97.6364 431.986 98.7045C431.986 99.7386 431.887 100.657 431.69 101.46C431.497 102.259 431.217 102.934 430.849 103.483C430.486 104.032 430.043 104.449 429.52 104.733C429.001 105.017 428.414 105.159 427.759 105.159C427.107 105.159 426.526 105.03 426.014 104.773C425.507 104.511 425.09 104.15 424.764 103.688C424.442 103.222 424.236 102.682 424.145 102.068H425.531C425.656 102.602 425.904 103.044 426.276 103.392C426.651 103.737 427.145 103.909 427.759 103.909C428.656 103.909 429.365 103.517 429.884 102.733C430.406 101.949 430.668 100.841 430.668 99.4091H430.577C430.365 99.7273 430.113 100.002 429.821 100.233C429.529 100.464 429.205 100.642 428.849 100.767C428.493 100.892 428.115 100.955 427.713 100.955C427.046 100.955 426.435 100.79 425.878 100.46C425.325 100.127 424.882 99.6705 424.548 99.0909C424.219 98.5076 424.054 97.8409 424.054 97.0909C424.054 96.3788 424.213 95.7273 424.531 95.1364C424.853 94.5417 425.304 94.0682 425.884 93.7159C426.467 93.3636 427.152 93.1932 427.94 93.2045ZM427.94 94.4545C427.463 94.4545 427.033 94.5739 426.651 94.8125C426.272 95.0473 425.971 95.3655 425.747 95.767C425.527 96.1648 425.418 96.6061 425.418 97.0909C425.418 97.5758 425.524 98.017 425.736 98.4148C425.952 98.8087 426.245 99.1231 426.616 99.358C426.991 99.589 427.418 99.7045 427.895 99.7045C428.255 99.7045 428.59 99.6345 428.901 99.4943C429.211 99.3504 429.482 99.1553 429.713 98.9091C429.948 98.6591 430.132 98.3769 430.264 98.0625C430.397 97.7443 430.463 97.4129 430.463 97.0682C430.463 96.6136 430.353 96.1875 430.134 95.7898C429.918 95.392 429.618 95.0701 429.236 94.8239C428.857 94.5777 428.425 94.4545 427.94 94.4545Z" fill="#0C0429"/>
  <rect x="24.5" y="143" width="165" height="12" rx="6" fill="#F4F4F4"/>
  <rect x="383.5" y="143" width="66" height="12" rx="6" fill="#F4F4F4"/>
  <rect x="1" y="0.5" width="472" height="178" rx="11.5" stroke="#E2E2E8"/>
  </svg>
  