<svg width="405" height="265" viewBox="0 0 405 265" fill="none" xmlns="http://www.w3.org/2000/svg">
  <rect x="20" y="20" width="385" height="245" rx="12" fill="#BBEB9D"/>
  <path d="M50.0222 70H52.3022V63.016H60.5102V60.808H52.3022V55.384H61.4942V53.2H50.0222V70ZM62.3408 70H64.6208V63.52C64.6208 61.408 65.5808 60.184 67.0208 60.184C68.1968 60.184 68.8928 60.976 68.8928 62.512C68.8928 62.776 68.8928 62.968 68.8688 63.088L71.1728 62.752C71.2928 59.68 69.8768 58.072 67.6448 58.072C66.3248 58.072 65.3168 58.576 64.6208 59.608V58.432H62.3408V70ZM72.8586 70H75.1386V58.432H72.8586V70ZM73.9866 53.488C73.1226 53.488 72.4506 54.184 72.4506 55.024C72.4506 55.888 73.1226 56.56 73.9866 56.56C74.8266 56.56 75.4986 55.888 75.4986 55.024C75.4986 54.184 74.8266 53.488 73.9866 53.488ZM83.0805 70H94.7685V67.816H85.7205C85.9845 66.76 86.8245 65.968 87.7605 65.392C88.2405 65.08 88.8885 64.72 89.6805 64.312C90.7845 63.736 91.6725 63.208 92.3205 62.752C92.9925 62.296 93.5685 61.672 94.0245 60.928C94.5045 60.184 94.7445 59.248 94.7445 58.168C94.7445 55.024 92.4645 52.84 89.0325 52.84C84.6885 52.84 82.9845 55.672 82.9845 58.528C82.9845 58.96 83.0085 59.344 83.0805 59.656L85.6005 59.824C85.5045 59.464 85.4565 59.032 85.4565 58.576C85.4565 57.592 85.7445 56.776 86.2965 56.08C86.8485 55.384 87.7605 55.024 89.0325 55.024C91.1205 55.024 92.4405 56.248 92.4405 58.24C92.4405 59.608 91.6245 60.592 90.5445 61.264C89.9925 61.6 89.2725 62.008 88.3365 62.464C87.2085 63.016 86.2725 63.544 85.5765 64C84.8805 64.456 84.3045 65.08 83.8005 65.848C83.3205 66.592 83.0805 67.528 83.0805 68.656V70ZM96.2406 55.384H105.025C103.657 57.232 102.457 59.464 101.425 62.104C100.393 64.744 99.7686 67.384 99.5286 70H101.881C102.361 64.384 105.241 58.312 108.025 55.384V53.2H96.2406V55.384ZM108.671 60.448H110.783V65.968C110.783 68.68 112.463 70.36 115.223 70.36C117.623 70.36 119.471 68.56 119.327 65.8L117.143 65.584C117.239 67.216 116.471 68.272 115.151 68.272C113.831 68.272 113.063 67.48 113.063 66.016V60.448H118.919V58.432H113.063V54.976H110.783V58.432H108.671V60.448ZM121.159 70H123.439V63.76C123.439 61.528 124.591 60.136 126.415 60.136C128.047 60.136 128.863 61.072 128.863 62.968V70H131.143V62.512C131.143 59.752 129.631 58.072 127.111 58.072C125.503 58.072 124.279 58.72 123.439 59.776V53.2H121.159V70Z" fill="#34343D"/>
  <rect x="311" y="48" width="66" height="12" rx="6" fill="#F4F4F4"/>
  <path d="M89.5852 125V111.909H91.1705V117.739H98.1506V111.909H99.7358V125H98.1506V119.145H91.1705V125H89.5852ZM106.694 125.205C105.807 125.205 105.029 124.994 104.36 124.572C103.696 124.15 103.176 123.56 102.801 122.801C102.43 122.043 102.245 121.156 102.245 120.142C102.245 119.119 102.43 118.227 102.801 117.464C103.176 116.701 103.696 116.109 104.36 115.687C105.029 115.265 105.807 115.054 106.694 115.054C107.58 115.054 108.355 115.265 109.02 115.687C109.689 116.109 110.209 116.701 110.58 117.464C110.955 118.227 111.142 119.119 111.142 120.142C111.142 121.156 110.955 122.043 110.58 122.801C110.209 123.56 109.689 124.15 109.02 124.572C108.355 124.994 107.58 125.205 106.694 125.205ZM106.694 123.849C107.367 123.849 107.921 123.677 108.355 123.332C108.79 122.987 109.112 122.533 109.321 121.97C109.529 121.408 109.634 120.798 109.634 120.142C109.634 119.486 109.529 118.874 109.321 118.308C109.112 117.741 108.79 117.283 108.355 116.933C107.921 116.584 107.367 116.409 106.694 116.409C106.02 116.409 105.466 116.584 105.032 116.933C104.597 117.283 104.275 117.741 104.066 118.308C103.858 118.874 103.753 119.486 103.753 120.142C103.753 120.798 103.858 121.408 104.066 121.97C104.275 122.533 104.597 122.987 105.032 123.332C105.466 123.677 106.02 123.849 106.694 123.849ZM119.633 120.986V115.182H121.141V125H119.633V123.338H119.53C119.3 123.837 118.942 124.261 118.456 124.61C117.971 124.955 117.357 125.128 116.616 125.128C116.002 125.128 115.456 124.994 114.979 124.725C114.502 124.452 114.127 124.043 113.854 123.498C113.581 122.948 113.445 122.256 113.445 121.42V115.182H114.954V121.318C114.954 122.034 115.154 122.605 115.555 123.031C115.959 123.457 116.475 123.67 117.101 123.67C117.476 123.67 117.858 123.575 118.246 123.383C118.638 123.191 118.966 122.897 119.23 122.501C119.498 122.104 119.633 121.599 119.633 120.986ZM123.904 125V115.182H125.362V116.665H125.464C125.643 116.179 125.967 115.785 126.435 115.482C126.904 115.18 127.433 115.028 128.021 115.028C128.131 115.028 128.27 115.031 128.436 115.035C128.602 115.039 128.728 115.045 128.813 115.054V116.588C128.762 116.575 128.645 116.556 128.462 116.531C128.283 116.501 128.093 116.486 127.893 116.486C127.415 116.486 126.989 116.586 126.614 116.786C126.244 116.982 125.95 117.255 125.732 117.604C125.519 117.95 125.413 118.344 125.413 118.787V125H123.904ZM137.556 117.381L136.201 117.764C136.116 117.538 135.99 117.319 135.824 117.106C135.662 116.888 135.44 116.71 135.159 116.569C134.878 116.428 134.518 116.358 134.079 116.358C133.478 116.358 132.977 116.496 132.577 116.773C132.18 117.046 131.982 117.393 131.982 117.815C131.982 118.19 132.118 118.487 132.391 118.704C132.664 118.921 133.09 119.102 133.67 119.247L135.127 119.605C136.005 119.818 136.659 120.144 137.089 120.583C137.52 121.018 137.735 121.578 137.735 122.264C137.735 122.827 137.573 123.33 137.249 123.773C136.93 124.216 136.482 124.565 135.907 124.821C135.331 125.077 134.662 125.205 133.9 125.205C132.898 125.205 132.069 124.987 131.413 124.553C130.757 124.118 130.341 123.483 130.167 122.648L131.599 122.29C131.735 122.818 131.993 123.214 132.372 123.479C132.756 123.743 133.256 123.875 133.874 123.875C134.577 123.875 135.135 123.726 135.549 123.428C135.966 123.125 136.175 122.763 136.175 122.341C136.175 122 136.056 121.714 135.817 121.484C135.579 121.25 135.212 121.075 134.718 120.96L133.081 120.577C132.182 120.364 131.522 120.033 131.1 119.586C130.682 119.134 130.474 118.57 130.474 117.892C130.474 117.338 130.629 116.848 130.94 116.422C131.256 115.996 131.684 115.661 132.225 115.418C132.77 115.175 133.388 115.054 134.079 115.054C135.05 115.054 135.813 115.267 136.367 115.693C136.925 116.119 137.322 116.682 137.556 117.381ZM147.293 125L144.301 115.182H145.886L148.009 122.699H148.111L150.207 115.182H151.818L153.889 122.673H153.991L156.114 115.182H157.699L154.707 125H153.224L151.077 117.457H150.923L148.776 125H147.293ZM163.348 125.205C162.461 125.205 161.684 124.994 161.015 124.572C160.35 124.15 159.83 123.56 159.455 122.801C159.084 122.043 158.899 121.156 158.899 120.142C158.899 119.119 159.084 118.227 159.455 117.464C159.83 116.701 160.35 116.109 161.015 115.687C161.684 115.265 162.461 115.054 163.348 115.054C164.234 115.054 165.01 115.265 165.675 115.687C166.344 116.109 166.863 116.701 167.234 117.464C167.609 118.227 167.797 119.119 167.797 120.142C167.797 121.156 167.609 122.043 167.234 122.801C166.863 123.56 166.344 124.15 165.675 124.572C165.01 124.994 164.234 125.205 163.348 125.205ZM163.348 123.849C164.021 123.849 164.575 123.677 165.01 123.332C165.444 122.987 165.766 122.533 165.975 121.97C166.184 121.408 166.288 120.798 166.288 120.142C166.288 119.486 166.184 118.874 165.975 118.308C165.766 117.741 165.444 117.283 165.01 116.933C164.575 116.584 164.021 116.409 163.348 116.409C162.675 116.409 162.121 116.584 161.686 116.933C161.251 117.283 160.93 117.741 160.721 118.308C160.512 118.874 160.407 119.486 160.407 120.142C160.407 120.798 160.512 121.408 160.721 121.97C160.93 122.533 161.251 122.987 161.686 123.332C162.121 123.677 162.675 123.849 163.348 123.849ZM170.099 125V115.182H171.557V116.665H171.659C171.838 116.179 172.162 115.785 172.631 115.482C173.099 115.18 173.628 115.028 174.216 115.028C174.327 115.028 174.465 115.031 174.631 115.035C174.798 115.039 174.923 115.045 175.009 115.054V116.588C174.957 116.575 174.84 116.556 174.657 116.531C174.478 116.501 174.288 116.486 174.088 116.486C173.611 116.486 173.185 116.586 172.81 116.786C172.439 116.982 172.145 117.255 171.928 117.604C171.714 117.95 171.608 118.344 171.608 118.787V125H170.099ZM178.203 121.42L178.177 119.554H178.484L182.78 115.182H184.646L180.069 119.81H179.942L178.203 121.42ZM176.797 125V111.909H178.305V125H176.797ZM183.035 125L179.2 120.142L180.274 119.094L184.953 125H183.035ZM190.3 125.205C189.354 125.205 188.538 124.996 187.852 124.578C187.17 124.156 186.644 123.568 186.273 122.814C185.906 122.055 185.723 121.173 185.723 120.168C185.723 119.162 185.906 118.276 186.273 117.509C186.644 116.737 187.159 116.136 187.82 115.706C188.485 115.271 189.26 115.054 190.146 115.054C190.658 115.054 191.163 115.139 191.661 115.31C192.16 115.48 192.614 115.757 193.023 116.141C193.432 116.52 193.758 117.023 194.001 117.649C194.244 118.276 194.365 119.047 194.365 119.963V120.602H186.797V119.298H192.831C192.831 118.744 192.72 118.25 192.499 117.815C192.281 117.381 191.97 117.038 191.566 116.786C191.165 116.535 190.692 116.409 190.146 116.409C189.546 116.409 189.026 116.558 188.587 116.857C188.152 117.151 187.818 117.534 187.583 118.007C187.349 118.48 187.232 118.987 187.232 119.528V120.398C187.232 121.139 187.36 121.768 187.615 122.283C187.875 122.795 188.235 123.185 188.695 123.453C189.156 123.717 189.691 123.849 190.3 123.849C190.696 123.849 191.054 123.794 191.374 123.683C191.698 123.568 191.977 123.398 192.211 123.172C192.445 122.942 192.627 122.656 192.754 122.315L194.212 122.724C194.058 123.219 193.801 123.653 193.438 124.028C193.076 124.399 192.629 124.689 192.096 124.898C191.563 125.102 190.965 125.205 190.3 125.205ZM200.367 125.205C199.549 125.205 198.827 124.998 198.2 124.585C197.574 124.167 197.084 123.579 196.73 122.82C196.377 122.058 196.2 121.156 196.2 120.116C196.2 119.085 196.377 118.19 196.73 117.432C197.084 116.673 197.576 116.087 198.207 115.674C198.838 115.261 199.566 115.054 200.393 115.054C201.032 115.054 201.537 115.161 201.908 115.374C202.283 115.582 202.568 115.821 202.764 116.089C202.965 116.354 203.12 116.571 203.231 116.741H203.359V111.909H204.867V125H203.41V123.491H203.231C203.12 123.67 202.963 123.896 202.758 124.169C202.553 124.437 202.262 124.678 201.882 124.891C201.503 125.1 200.998 125.205 200.367 125.205ZM200.572 123.849C201.177 123.849 201.688 123.692 202.106 123.376C202.524 123.057 202.841 122.616 203.058 122.053C203.276 121.487 203.384 120.832 203.384 120.091C203.384 119.358 203.278 118.717 203.065 118.167C202.852 117.613 202.536 117.183 202.119 116.876C201.701 116.565 201.186 116.409 200.572 116.409C199.933 116.409 199.4 116.573 198.974 116.901C198.552 117.225 198.235 117.666 198.021 118.224C197.813 118.778 197.708 119.401 197.708 120.091C197.708 120.79 197.815 121.425 198.028 121.996C198.245 122.562 198.565 123.014 198.987 123.351C199.413 123.683 199.941 123.849 200.572 123.849Z" fill="black"/>
  <circle cx="63" cy="118" r="12" stroke="#F6F5F9" stroke-width="6"/>
  <path d="M63 106.007C63 104.346 64.3595 102.97 65.9869 103.3C68.2345 103.757 70.3612 104.726 72.1945 106.148C74.825 108.189 76.7018 111.047 77.5293 114.272C78.3568 117.497 78.0879 120.905 76.765 123.96C75.4421 127.015 73.1404 129.544 70.2225 131.147C67.3046 132.75 63.9362 133.336 60.6481 132.814C57.36 132.292 54.339 130.691 52.061 128.263C49.783 125.836 48.3775 122.719 48.0659 119.404C47.8487 117.094 48.1714 114.779 48.9913 112.637C49.585 111.086 51.476 110.677 52.8776 111.568C54.2793 112.459 54.6344 114.322 54.2534 115.939C54.031 116.883 53.9613 117.863 54.0533 118.841C54.24 120.827 55.082 122.694 56.4467 124.149C57.8114 125.603 59.6212 126.562 61.591 126.875C63.5609 127.188 65.5788 126.836 67.3268 125.876C69.0749 124.916 70.4538 123.401 71.2463 121.571C72.0388 119.74 72.1999 117.698 71.7042 115.766C71.2084 113.835 70.0841 112.122 68.5082 110.9C67.7316 110.297 66.8671 109.831 65.9512 109.512C64.3826 108.967 63 107.668 63 106.007Z" fill="#5EB42A"/>
  <circle cx="242" cy="118" r="10" fill="#5EB42A"/>
  <path d="M264.277 124V112.364H268.424C269.33 112.364 270.08 112.528 270.674 112.858C271.269 113.187 271.714 113.638 272.01 114.21C272.305 114.778 272.453 115.419 272.453 116.131C272.453 116.847 272.303 117.491 272.004 118.062C271.709 118.631 271.262 119.081 270.663 119.415C270.068 119.744 269.32 119.909 268.419 119.909H265.566V118.42H268.26C268.832 118.42 269.296 118.322 269.652 118.125C270.008 117.924 270.269 117.652 270.436 117.307C270.602 116.962 270.686 116.57 270.686 116.131C270.686 115.691 270.602 115.301 270.436 114.96C270.269 114.619 270.006 114.352 269.646 114.159C269.29 113.966 268.82 113.869 268.237 113.869H266.032V124H264.277ZM276.66 124.193C276.107 124.193 275.607 124.091 275.16 123.886C274.713 123.678 274.359 123.377 274.098 122.983C273.84 122.589 273.711 122.106 273.711 121.534C273.711 121.042 273.806 120.636 273.996 120.318C274.185 120 274.441 119.748 274.763 119.562C275.085 119.377 275.444 119.237 275.842 119.142C276.24 119.047 276.645 118.975 277.058 118.926C277.581 118.866 278.005 118.816 278.331 118.778C278.657 118.737 278.893 118.67 279.041 118.58C279.189 118.489 279.263 118.341 279.263 118.136V118.097C279.263 117.6 279.122 117.216 278.842 116.943C278.566 116.67 278.153 116.534 277.604 116.534C277.032 116.534 276.581 116.661 276.251 116.915C275.926 117.165 275.7 117.443 275.575 117.75L273.979 117.386C274.168 116.856 274.444 116.428 274.808 116.102C275.176 115.773 275.598 115.534 276.075 115.386C276.552 115.235 277.054 115.159 277.581 115.159C277.929 115.159 278.299 115.201 278.689 115.284C279.083 115.364 279.45 115.511 279.791 115.727C280.136 115.943 280.418 116.252 280.638 116.653C280.857 117.051 280.967 117.568 280.967 118.205V124H279.308V122.807H279.24C279.13 123.027 278.965 123.242 278.746 123.455C278.526 123.667 278.244 123.843 277.899 123.983C277.554 124.123 277.141 124.193 276.66 124.193ZM277.03 122.83C277.499 122.83 277.901 122.737 278.234 122.551C278.571 122.366 278.827 122.123 279.001 121.824C279.179 121.521 279.268 121.197 279.268 120.852V119.727C279.208 119.788 279.09 119.845 278.916 119.898C278.746 119.947 278.551 119.991 278.331 120.028C278.111 120.062 277.897 120.095 277.689 120.125C277.48 120.152 277.306 120.174 277.166 120.193C276.836 120.235 276.535 120.305 276.263 120.403C275.994 120.502 275.778 120.644 275.615 120.83C275.456 121.011 275.376 121.254 275.376 121.557C275.376 121.977 275.532 122.295 275.842 122.511C276.153 122.723 276.549 122.83 277.03 122.83ZM283.054 124V115.273H284.753V124H283.054ZM283.912 113.926C283.616 113.926 283.363 113.828 283.151 113.631C282.942 113.43 282.838 113.191 282.838 112.915C282.838 112.634 282.942 112.396 283.151 112.199C283.363 111.998 283.616 111.898 283.912 111.898C284.207 111.898 284.459 111.998 284.668 112.199C284.88 112.396 284.986 112.634 284.986 112.915C284.986 113.191 284.88 113.43 284.668 113.631C284.459 113.828 284.207 113.926 283.912 113.926ZM290.129 124.17C289.425 124.17 288.796 123.991 288.243 123.631C287.694 123.267 287.262 122.75 286.948 122.08C286.637 121.405 286.482 120.597 286.482 119.653C286.482 118.71 286.639 117.903 286.953 117.233C287.271 116.562 287.707 116.049 288.26 115.693C288.813 115.337 289.44 115.159 290.141 115.159C290.682 115.159 291.118 115.25 291.448 115.432C291.781 115.61 292.038 115.818 292.22 116.057C292.406 116.295 292.55 116.506 292.652 116.688H292.754V112.364H294.453V124H292.794V122.642H292.652C292.55 122.828 292.402 123.04 292.209 123.278C292.02 123.517 291.758 123.725 291.425 123.903C291.092 124.081 290.66 124.17 290.129 124.17ZM290.504 122.722C290.993 122.722 291.406 122.593 291.743 122.335C292.084 122.074 292.342 121.712 292.516 121.25C292.694 120.788 292.783 120.25 292.783 119.636C292.783 119.03 292.696 118.5 292.521 118.045C292.347 117.591 292.092 117.237 291.754 116.983C291.417 116.729 291.001 116.602 290.504 116.602C289.993 116.602 289.567 116.735 289.226 117C288.885 117.265 288.627 117.627 288.453 118.085C288.283 118.544 288.198 119.061 288.198 119.636C288.198 120.22 288.285 120.744 288.459 121.21C288.633 121.676 288.891 122.045 289.232 122.318C289.576 122.587 290.001 122.722 290.504 122.722Z" fill="#1E1E1E"/>
  <rect x="48" y="149" width="165" height="12" rx="6" fill="#F4F4F4"/>
  <rect x="48" y="189" width="202" height="48" rx="12" fill="#CFF4B8"/>
  <path d="M100.125 210.42C100.064 209.883 99.8144 209.466 99.375 209.17C98.9356 208.871 98.3826 208.722 97.7159 208.722C97.2386 208.722 96.8258 208.797 96.4773 208.949C96.1288 209.097 95.858 209.301 95.6648 209.562C95.4754 209.82 95.3807 210.114 95.3807 210.443C95.3807 210.72 95.4451 210.958 95.5739 211.159C95.7064 211.36 95.8788 211.528 96.0909 211.665C96.3068 211.797 96.5379 211.909 96.7841 212C97.0303 212.087 97.267 212.159 97.4943 212.216L98.6307 212.511C99.0019 212.602 99.3826 212.725 99.7727 212.881C100.163 213.036 100.525 213.241 100.858 213.494C101.191 213.748 101.46 214.062 101.665 214.438C101.873 214.812 101.977 215.261 101.977 215.784C101.977 216.443 101.807 217.028 101.466 217.54C101.129 218.051 100.638 218.455 99.9943 218.75C99.3542 219.045 98.5795 219.193 97.6705 219.193C96.7992 219.193 96.0455 219.055 95.4091 218.778C94.7727 218.502 94.2746 218.11 93.9148 217.602C93.5549 217.091 93.3561 216.485 93.3182 215.784H95.0795C95.1136 216.205 95.25 216.555 95.4886 216.835C95.7311 217.112 96.0398 217.318 96.4148 217.455C96.7936 217.587 97.2083 217.653 97.6591 217.653C98.1553 217.653 98.5966 217.576 98.983 217.42C99.3731 217.261 99.6799 217.042 99.9034 216.761C100.127 216.477 100.239 216.146 100.239 215.767C100.239 215.422 100.14 215.14 99.9432 214.92C99.75 214.701 99.4867 214.519 99.1534 214.375C98.8239 214.231 98.4508 214.104 98.0341 213.994L96.6591 213.619C95.7273 213.366 94.9886 212.992 94.4432 212.5C93.9015 212.008 93.6307 211.356 93.6307 210.545C93.6307 209.875 93.8125 209.29 94.1761 208.79C94.5398 208.29 95.0322 207.902 95.6534 207.625C96.2746 207.345 96.9754 207.205 97.7557 207.205C98.5436 207.205 99.2386 207.343 99.8409 207.619C100.447 207.896 100.924 208.277 101.273 208.761C101.621 209.242 101.803 209.795 101.818 210.42H100.125ZM107.524 219.176C106.664 219.176 105.924 218.992 105.303 218.625C104.685 218.254 104.208 217.733 103.871 217.062C103.538 216.388 103.371 215.598 103.371 214.693C103.371 213.799 103.538 213.011 103.871 212.33C104.208 211.648 104.678 211.116 105.28 210.733C105.886 210.35 106.594 210.159 107.405 210.159C107.897 210.159 108.375 210.241 108.837 210.403C109.299 210.566 109.714 210.822 110.081 211.17C110.449 211.519 110.738 211.972 110.95 212.528C111.163 213.081 111.269 213.754 111.269 214.545V215.148H104.331V213.875H109.604C109.604 213.428 109.513 213.032 109.331 212.688C109.149 212.339 108.894 212.064 108.564 211.864C108.238 211.663 107.856 211.562 107.416 211.562C106.939 211.562 106.522 211.68 106.166 211.915C105.814 212.146 105.541 212.449 105.348 212.824C105.159 213.195 105.064 213.598 105.064 214.034V215.028C105.064 215.612 105.166 216.108 105.371 216.517C105.579 216.926 105.869 217.239 106.24 217.455C106.611 217.667 107.045 217.773 107.541 217.773C107.863 217.773 108.157 217.727 108.422 217.636C108.687 217.542 108.916 217.402 109.11 217.216C109.303 217.03 109.45 216.801 109.553 216.528L111.161 216.818C111.032 217.292 110.801 217.706 110.467 218.062C110.138 218.415 109.723 218.689 109.223 218.886C108.727 219.08 108.161 219.176 107.524 219.176ZM114.676 213.818V219H112.978V210.273H114.608V211.693H114.716C114.917 211.231 115.231 210.86 115.659 210.58C116.091 210.299 116.635 210.159 117.29 210.159C117.885 210.159 118.406 210.284 118.853 210.534C119.3 210.78 119.646 211.148 119.892 211.636C120.139 212.125 120.262 212.729 120.262 213.449V219H118.563V213.653C118.563 213.021 118.398 212.527 118.068 212.17C117.739 211.811 117.286 211.631 116.711 211.631C116.317 211.631 115.966 211.716 115.659 211.886C115.356 212.057 115.116 212.307 114.938 212.636C114.764 212.962 114.676 213.356 114.676 213.818ZM125.631 219.17C124.927 219.17 124.298 218.991 123.745 218.631C123.195 218.267 122.764 217.75 122.449 217.08C122.139 216.405 121.983 215.597 121.983 214.653C121.983 213.71 122.141 212.903 122.455 212.233C122.773 211.562 123.209 211.049 123.762 210.693C124.315 210.337 124.942 210.159 125.642 210.159C126.184 210.159 126.62 210.25 126.949 210.432C127.283 210.61 127.54 210.818 127.722 211.057C127.908 211.295 128.052 211.506 128.154 211.688H128.256V207.364H129.955V219H128.296V217.642H128.154C128.052 217.828 127.904 218.04 127.711 218.278C127.521 218.517 127.26 218.725 126.927 218.903C126.593 219.081 126.161 219.17 125.631 219.17ZM126.006 217.722C126.495 217.722 126.908 217.593 127.245 217.335C127.586 217.074 127.843 216.712 128.017 216.25C128.195 215.788 128.285 215.25 128.285 214.636C128.285 214.03 128.197 213.5 128.023 213.045C127.849 212.591 127.593 212.237 127.256 211.983C126.919 211.729 126.502 211.602 126.006 211.602C125.495 211.602 125.069 211.735 124.728 212C124.387 212.265 124.129 212.627 123.955 213.085C123.785 213.544 123.699 214.061 123.699 214.636C123.699 215.22 123.786 215.744 123.961 216.21C124.135 216.676 124.392 217.045 124.733 217.318C125.078 217.587 125.502 217.722 126.006 217.722ZM142.802 212.403L141.262 212.676C141.198 212.479 141.095 212.292 140.955 212.114C140.819 211.936 140.633 211.79 140.398 211.676C140.164 211.562 139.87 211.506 139.518 211.506C139.037 211.506 138.635 211.614 138.313 211.83C137.991 212.042 137.83 212.316 137.83 212.653C137.83 212.945 137.938 213.18 138.154 213.358C138.37 213.536 138.718 213.682 139.2 213.795L140.586 214.114C141.389 214.299 141.987 214.585 142.381 214.972C142.775 215.358 142.972 215.86 142.972 216.477C142.972 217 142.821 217.466 142.518 217.875C142.218 218.28 141.8 218.598 141.262 218.83C140.728 219.061 140.109 219.176 139.404 219.176C138.427 219.176 137.629 218.968 137.012 218.551C136.395 218.131 136.016 217.534 135.876 216.761L137.518 216.511C137.62 216.939 137.83 217.263 138.148 217.483C138.467 217.699 138.881 217.807 139.393 217.807C139.95 217.807 140.395 217.691 140.728 217.46C141.061 217.225 141.228 216.939 141.228 216.602C141.228 216.33 141.126 216.1 140.921 215.915C140.72 215.729 140.412 215.589 139.995 215.494L138.518 215.17C137.703 214.985 137.101 214.689 136.711 214.284C136.325 213.879 136.131 213.366 136.131 212.744C136.131 212.229 136.275 211.778 136.563 211.392C136.851 211.006 137.249 210.705 137.756 210.489C138.264 210.269 138.845 210.159 139.501 210.159C140.444 210.159 141.186 210.364 141.728 210.773C142.27 211.178 142.628 211.722 142.802 212.403ZM150.193 215.381V210.273H151.897V219H150.227V217.489H150.136C149.935 217.955 149.613 218.343 149.17 218.653C148.73 218.96 148.183 219.114 147.528 219.114C146.967 219.114 146.471 218.991 146.039 218.744C145.611 218.494 145.274 218.125 145.028 217.636C144.785 217.148 144.664 216.544 144.664 215.824V210.273H146.363V215.619C146.363 216.214 146.528 216.687 146.857 217.04C147.187 217.392 147.615 217.568 148.141 217.568C148.46 217.568 148.776 217.489 149.09 217.33C149.408 217.17 149.672 216.93 149.88 216.608C150.092 216.286 150.196 215.877 150.193 215.381ZM154.004 219V210.273H155.634V211.693H155.742C155.924 211.212 156.222 210.837 156.634 210.568C157.047 210.295 157.542 210.159 158.117 210.159C158.701 210.159 159.189 210.295 159.583 210.568C159.981 210.841 160.275 211.216 160.464 211.693H160.555C160.763 211.227 161.095 210.856 161.549 210.58C162.004 210.299 162.545 210.159 163.174 210.159C163.966 210.159 164.612 210.407 165.112 210.903C165.616 211.4 165.867 212.148 165.867 213.148V219H164.169V213.307C164.169 212.716 164.008 212.288 163.686 212.023C163.364 211.758 162.979 211.625 162.532 211.625C161.979 211.625 161.549 211.795 161.242 212.136C160.936 212.473 160.782 212.907 160.782 213.438V219H159.089V213.199C159.089 212.725 158.941 212.345 158.646 212.057C158.35 211.769 157.966 211.625 157.492 211.625C157.17 211.625 156.873 211.71 156.6 211.881C156.331 212.047 156.114 212.28 155.947 212.58C155.784 212.879 155.703 213.225 155.703 213.619V219H154.004ZM167.968 219V210.273H169.599V211.693H169.707C169.889 211.212 170.186 210.837 170.599 210.568C171.012 210.295 171.506 210.159 172.082 210.159C172.665 210.159 173.154 210.295 173.548 210.568C173.946 210.841 174.239 211.216 174.429 211.693H174.52C174.728 211.227 175.059 210.856 175.514 210.58C175.968 210.299 176.51 210.159 177.139 210.159C177.931 210.159 178.576 210.407 179.076 210.903C179.58 211.4 179.832 212.148 179.832 213.148V219H178.133V213.307C178.133 212.716 177.972 212.288 177.65 212.023C177.328 211.758 176.944 211.625 176.497 211.625C175.944 211.625 175.514 211.795 175.207 212.136C174.9 212.473 174.747 212.907 174.747 213.438V219H173.054V213.199C173.054 212.725 172.906 212.345 172.61 212.057C172.315 211.769 171.931 211.625 171.457 211.625C171.135 211.625 170.838 211.71 170.565 211.881C170.296 212.047 170.078 212.28 169.912 212.58C169.749 212.879 169.667 213.225 169.667 213.619V219H167.968ZM184.473 219.193C183.92 219.193 183.42 219.091 182.973 218.886C182.526 218.678 182.172 218.377 181.91 217.983C181.653 217.589 181.524 217.106 181.524 216.534C181.524 216.042 181.619 215.636 181.808 215.318C181.997 215 182.253 214.748 182.575 214.562C182.897 214.377 183.257 214.237 183.655 214.142C184.052 214.047 184.458 213.975 184.871 213.926C185.393 213.866 185.818 213.816 186.143 213.778C186.469 213.737 186.706 213.67 186.854 213.58C187.001 213.489 187.075 213.341 187.075 213.136V213.097C187.075 212.6 186.935 212.216 186.655 211.943C186.378 211.67 185.965 211.534 185.416 211.534C184.844 211.534 184.393 211.661 184.064 211.915C183.738 212.165 183.513 212.443 183.388 212.75L181.791 212.386C181.98 211.856 182.257 211.428 182.621 211.102C182.988 210.773 183.41 210.534 183.888 210.386C184.365 210.235 184.867 210.159 185.393 210.159C185.742 210.159 186.111 210.201 186.501 210.284C186.895 210.364 187.263 210.511 187.604 210.727C187.948 210.943 188.23 211.252 188.45 211.653C188.67 212.051 188.78 212.568 188.78 213.205V219H187.121V217.807H187.052C186.943 218.027 186.778 218.242 186.558 218.455C186.338 218.667 186.056 218.843 185.711 218.983C185.367 219.123 184.954 219.193 184.473 219.193ZM184.842 217.83C185.312 217.83 185.713 217.737 186.047 217.551C186.384 217.366 186.639 217.123 186.814 216.824C186.992 216.521 187.081 216.197 187.081 215.852V214.727C187.02 214.788 186.903 214.845 186.729 214.898C186.558 214.947 186.363 214.991 186.143 215.028C185.924 215.062 185.71 215.095 185.501 215.125C185.293 215.152 185.119 215.174 184.979 215.193C184.649 215.235 184.348 215.305 184.075 215.403C183.806 215.502 183.59 215.644 183.427 215.83C183.268 216.011 183.189 216.254 183.189 216.557C183.189 216.977 183.344 217.295 183.655 217.511C183.965 217.723 184.361 217.83 184.842 217.83ZM190.866 219V210.273H192.508V211.659H192.599C192.758 211.189 193.039 210.82 193.44 210.551C193.846 210.278 194.304 210.142 194.815 210.142C194.921 210.142 195.046 210.146 195.19 210.153C195.338 210.161 195.454 210.17 195.537 210.182V211.807C195.469 211.788 195.347 211.767 195.173 211.744C194.999 211.718 194.825 211.705 194.651 211.705C194.249 211.705 193.891 211.79 193.577 211.96C193.266 212.127 193.02 212.36 192.838 212.659C192.656 212.955 192.565 213.292 192.565 213.67V219H190.866ZM198.171 222.273C197.917 222.273 197.686 222.252 197.477 222.21C197.269 222.172 197.114 222.131 197.011 222.085L197.421 220.693C197.731 220.777 198.008 220.813 198.25 220.801C198.493 220.79 198.707 220.699 198.892 220.528C199.082 220.358 199.248 220.08 199.392 219.693L199.602 219.114L196.409 210.273H198.227L200.438 217.045H200.528L202.739 210.273H204.563L200.966 220.165C200.799 220.619 200.587 221.004 200.33 221.318C200.072 221.636 199.765 221.875 199.409 222.034C199.053 222.193 198.64 222.273 198.171 222.273Z" fill="#0C0429"/>
  <rect width="385" height="245" rx="12" fill="white"/>
  <path d="M30.0222 50H32.3022V43.016H40.5102V40.808H32.3022V35.384H41.4942V33.2H30.0222V50ZM42.3408 50H44.6208V43.52C44.6208 41.408 45.5808 40.184 47.0208 40.184C48.1968 40.184 48.8928 40.976 48.8928 42.512C48.8928 42.776 48.8928 42.968 48.8688 43.088L51.1728 42.752C51.2928 39.68 49.8768 38.072 47.6448 38.072C46.3248 38.072 45.3168 38.576 44.6208 39.608V38.432H42.3408V50ZM52.8586 50H55.1386V38.432H52.8586V50ZM53.9866 33.488C53.1226 33.488 52.4506 34.184 52.4506 35.024C52.4506 35.888 53.1226 36.56 53.9866 36.56C54.8266 36.56 55.4986 35.888 55.4986 35.024C55.4986 34.184 54.8266 33.488 53.9866 33.488ZM63.0805 50H74.7685V47.816H65.7205C65.9845 46.76 66.8245 45.968 67.7605 45.392C68.2405 45.08 68.8885 44.72 69.6805 44.312C70.7845 43.736 71.6725 43.208 72.3205 42.752C72.9925 42.296 73.5685 41.672 74.0245 40.928C74.5045 40.184 74.7445 39.248 74.7445 38.168C74.7445 35.024 72.4645 32.84 69.0325 32.84C64.6885 32.84 62.9845 35.672 62.9845 38.528C62.9845 38.96 63.0085 39.344 63.0805 39.656L65.6005 39.824C65.5045 39.464 65.4565 39.032 65.4565 38.576C65.4565 37.592 65.7445 36.776 66.2965 36.08C66.8485 35.384 67.7605 35.024 69.0325 35.024C71.1205 35.024 72.4405 36.248 72.4405 38.24C72.4405 39.608 71.6245 40.592 70.5445 41.264C69.9925 41.6 69.2725 42.008 68.3365 42.464C67.2085 43.016 66.2725 43.544 65.5765 44C64.8805 44.456 64.3045 45.08 63.8005 45.848C63.3205 46.592 63.0805 47.528 63.0805 48.656V50ZM76.2406 35.384H85.0246C83.6566 37.232 82.4566 39.464 81.4246 42.104C80.3926 44.744 79.7686 47.384 79.5286 50H81.8806C82.3606 44.384 85.2406 38.312 88.0246 35.384V33.2H76.2406V35.384ZM88.6713 40.448H90.7833V45.968C90.7833 48.68 92.4633 50.36 95.2233 50.36C97.6233 50.36 99.4713 48.56 99.3273 45.8L97.1433 45.584C97.2393 47.216 96.4713 48.272 95.1513 48.272C93.8313 48.272 93.0633 47.48 93.0633 46.016V40.448H98.9193V38.432H93.0633V34.976H90.7833V38.432H88.6713V40.448ZM101.159 50H103.439V43.76C103.439 41.528 104.591 40.136 106.415 40.136C108.047 40.136 108.863 41.072 108.863 42.968V50H111.143V42.512C111.143 39.752 109.631 38.072 107.111 38.072C105.503 38.072 104.279 38.72 103.439 39.776V33.2H101.159V50Z" fill="#34343D"/>
  <rect x="291" y="28" width="66" height="12" rx="6" fill="#F4F4F4"/>
  <circle cx="43" cy="98" r="12" stroke="#F6F5F9" stroke-width="6"/>
  <path d="M43 86.0069C43 84.3462 44.3595 82.9697 45.9869 83.3004C48.2345 83.7571 50.3612 84.7261 52.1945 86.1483C54.825 88.1891 56.7018 91.0469 57.5293 94.2718C58.3568 97.4966 58.0879 100.905 56.765 103.96C55.4421 107.015 53.1404 109.544 50.2225 111.147C47.3046 112.75 43.9362 113.336 40.6481 112.814C37.36 112.292 34.339 110.691 32.061 108.263C29.783 105.836 28.3775 102.719 28.0659 99.404C27.8487 97.094 28.1714 94.7793 28.9913 92.6373C29.585 91.0864 31.476 90.6773 32.8776 91.5679C34.2793 92.4586 34.6344 94.3223 34.2534 95.9387C34.031 96.8825 33.9613 97.8625 34.0533 98.8411C34.24 100.827 35.082 102.694 36.4467 104.149C37.8114 105.603 39.6212 106.562 41.591 106.875C43.5609 107.188 45.5788 106.836 47.3268 105.876C49.0749 104.916 50.4538 103.401 51.2463 101.571C52.0388 99.7403 52.1999 97.6984 51.7042 95.7665C51.2084 93.8346 50.0841 92.1225 48.5082 90.8999C47.7316 90.2974 46.8671 89.8307 45.9512 89.5123C44.3826 88.9669 43 87.6676 43 86.0069Z" fill="#5EB42A"/>
  <path d="M71.4091 104V92.3636H72.8182V97.5455H79.0227V92.3636H80.4318V104H79.0227V98.7955H72.8182V104H71.4091ZM86.6165 104.182C85.8286 104.182 85.1373 103.994 84.5426 103.619C83.9517 103.244 83.4896 102.72 83.1562 102.045C82.8267 101.371 82.6619 100.583 82.6619 99.6818C82.6619 98.7727 82.8267 97.9792 83.1562 97.3011C83.4896 96.6231 83.9517 96.0966 84.5426 95.7216C85.1373 95.3466 85.8286 95.1591 86.6165 95.1591C87.4044 95.1591 88.0938 95.3466 88.6847 95.7216C89.2794 96.0966 89.7415 96.6231 90.071 97.3011C90.4044 97.9792 90.571 98.7727 90.571 99.6818C90.571 100.583 90.4044 101.371 90.071 102.045C89.7415 102.72 89.2794 103.244 88.6847 103.619C88.0938 103.994 87.4044 104.182 86.6165 104.182ZM86.6165 102.977C87.215 102.977 87.7074 102.824 88.0938 102.517C88.4801 102.21 88.7661 101.807 88.9517 101.307C89.1373 100.807 89.2301 100.265 89.2301 99.6818C89.2301 99.0985 89.1373 98.5549 88.9517 98.0511C88.7661 97.5473 88.4801 97.1402 88.0938 96.8295C87.7074 96.5189 87.215 96.3636 86.6165 96.3636C86.018 96.3636 85.5256 96.5189 85.1392 96.8295C84.7528 97.1402 84.4669 97.5473 84.2812 98.0511C84.0956 98.5549 84.0028 99.0985 84.0028 99.6818C84.0028 100.265 84.0956 100.807 84.2812 101.307C84.4669 101.807 84.7528 102.21 85.1392 102.517C85.5256 102.824 86.018 102.977 86.6165 102.977ZM98.1179 100.432V95.2727H99.4588V104H98.1179V102.523H98.027C97.8224 102.966 97.5043 103.343 97.0724 103.653C96.6406 103.96 96.0952 104.114 95.4361 104.114C94.8906 104.114 94.4058 103.994 93.9815 103.756C93.5573 103.513 93.224 103.15 92.9815 102.665C92.7391 102.176 92.6179 101.561 92.6179 100.818V95.2727H93.9588V100.727C93.9588 101.364 94.1368 101.871 94.4929 102.25C94.8527 102.629 95.3111 102.818 95.8679 102.818C96.2012 102.818 96.5402 102.733 96.8849 102.562C97.2334 102.392 97.5251 102.131 97.7599 101.778C97.9986 101.426 98.1179 100.977 98.1179 100.432ZM101.915 104V95.2727H103.21V96.5909H103.301C103.46 96.1591 103.748 95.8087 104.165 95.5398C104.581 95.2708 105.051 95.1364 105.574 95.1364C105.672 95.1364 105.795 95.1383 105.943 95.142C106.091 95.1458 106.203 95.1515 106.278 95.1591V96.5227C106.233 96.5114 106.129 96.4943 105.966 96.4716C105.807 96.4451 105.638 96.4318 105.46 96.4318C105.036 96.4318 104.657 96.5208 104.324 96.6989C103.994 96.8731 103.733 97.1155 103.54 97.4261C103.35 97.733 103.256 98.0833 103.256 98.4773V104H101.915ZM114.05 97.2273L112.845 97.5682C112.769 97.3674 112.658 97.1723 112.51 96.983C112.366 96.7898 112.169 96.6307 111.919 96.5057C111.669 96.3807 111.349 96.3182 110.959 96.3182C110.425 96.3182 109.98 96.4413 109.624 96.6875C109.271 96.9299 109.095 97.2386 109.095 97.6136C109.095 97.947 109.216 98.2102 109.459 98.4034C109.701 98.5966 110.08 98.7576 110.595 98.8864L111.891 99.2045C112.671 99.3939 113.252 99.6837 113.635 100.074C114.018 100.46 114.209 100.958 114.209 101.568C114.209 102.068 114.065 102.515 113.777 102.909C113.493 103.303 113.095 103.614 112.584 103.841C112.072 104.068 111.478 104.182 110.8 104.182C109.91 104.182 109.173 103.989 108.589 103.602C108.006 103.216 107.637 102.652 107.482 101.909L108.754 101.591C108.875 102.061 109.105 102.413 109.442 102.648C109.783 102.883 110.228 103 110.777 103C111.402 103 111.898 102.867 112.266 102.602C112.637 102.333 112.822 102.011 112.822 101.636C112.822 101.333 112.716 101.08 112.504 100.875C112.292 100.667 111.966 100.511 111.527 100.409L110.072 100.068C109.273 99.8788 108.686 99.5852 108.311 99.1875C107.94 98.786 107.754 98.2841 107.754 97.6818C107.754 97.1894 107.893 96.7538 108.169 96.375C108.449 95.9962 108.83 95.6989 109.311 95.483C109.796 95.267 110.345 95.1591 110.959 95.1591C111.822 95.1591 112.5 95.3485 112.993 95.7273C113.489 96.1061 113.841 96.6061 114.05 97.2273ZM122.705 104L120.045 95.2727H121.455L123.341 101.955H123.432L125.295 95.2727H126.727L128.568 101.932H128.659L130.545 95.2727H131.955L129.295 104H127.977L126.068 97.2955H125.932L124.023 104H122.705ZM136.976 104.182C136.188 104.182 135.497 103.994 134.902 103.619C134.311 103.244 133.849 102.72 133.516 102.045C133.186 101.371 133.021 100.583 133.021 99.6818C133.021 98.7727 133.186 97.9792 133.516 97.3011C133.849 96.6231 134.311 96.0966 134.902 95.7216C135.497 95.3466 136.188 95.1591 136.976 95.1591C137.764 95.1591 138.453 95.3466 139.044 95.7216C139.639 96.0966 140.101 96.6231 140.43 97.3011C140.764 97.9792 140.93 98.7727 140.93 99.6818C140.93 100.583 140.764 101.371 140.43 102.045C140.101 102.72 139.639 103.244 139.044 103.619C138.453 103.994 137.764 104.182 136.976 104.182ZM136.976 102.977C137.574 102.977 138.067 102.824 138.453 102.517C138.839 102.21 139.125 101.807 139.311 101.307C139.497 100.807 139.589 100.265 139.589 99.6818C139.589 99.0985 139.497 98.5549 139.311 98.0511C139.125 97.5473 138.839 97.1402 138.453 96.8295C138.067 96.5189 137.574 96.3636 136.976 96.3636C136.377 96.3636 135.885 96.5189 135.499 96.8295C135.112 97.1402 134.826 97.5473 134.641 98.0511C134.455 98.5549 134.362 99.0985 134.362 99.6818C134.362 100.265 134.455 100.807 134.641 101.307C134.826 101.807 135.112 102.21 135.499 102.517C135.885 102.824 136.377 102.977 136.976 102.977ZM142.977 104V95.2727H144.273V96.5909H144.364C144.523 96.1591 144.811 95.8087 145.227 95.5398C145.644 95.2708 146.114 95.1364 146.636 95.1364C146.735 95.1364 146.858 95.1383 147.006 95.142C147.153 95.1458 147.265 95.1515 147.341 95.1591V96.5227C147.295 96.5114 147.191 96.4943 147.028 96.4716C146.869 96.4451 146.701 96.4318 146.523 96.4318C146.098 96.4318 145.72 96.5208 145.386 96.6989C145.057 96.8731 144.795 97.1155 144.602 97.4261C144.413 97.733 144.318 98.0833 144.318 98.4773V104H142.977ZM150.18 100.818L150.158 99.1591H150.43L154.249 95.2727H155.908L151.839 99.3864H151.726L150.18 100.818ZM148.93 104V92.3636H150.271V104H148.93ZM154.476 104L151.067 99.6818L152.021 98.75L156.18 104H154.476ZM160.933 104.182C160.092 104.182 159.367 103.996 158.757 103.625C158.151 103.25 157.683 102.727 157.354 102.057C157.028 101.383 156.865 100.598 156.865 99.7045C156.865 98.8106 157.028 98.0227 157.354 97.3409C157.683 96.6553 158.142 96.1212 158.729 95.7386C159.32 95.3523 160.009 95.1591 160.797 95.1591C161.251 95.1591 161.7 95.2348 162.143 95.3864C162.587 95.5379 162.99 95.7841 163.354 96.125C163.717 96.4621 164.007 96.9091 164.223 97.4659C164.439 98.0227 164.547 98.7083 164.547 99.5227V100.091H157.82V98.9318H163.183C163.183 98.4394 163.085 98 162.888 97.6136C162.695 97.2273 162.418 96.9223 162.058 96.6989C161.702 96.4754 161.282 96.3636 160.797 96.3636C160.263 96.3636 159.801 96.4962 159.411 96.7614C159.024 97.0227 158.727 97.3636 158.518 97.7841C158.31 98.2045 158.206 98.6553 158.206 99.1364V99.9091C158.206 100.568 158.32 101.127 158.547 101.585C158.778 102.04 159.098 102.386 159.507 102.625C159.916 102.86 160.392 102.977 160.933 102.977C161.286 102.977 161.604 102.928 161.888 102.83C162.176 102.727 162.424 102.576 162.632 102.375C162.84 102.17 163.001 101.917 163.115 101.614L164.411 101.977C164.274 102.417 164.045 102.803 163.723 103.136C163.401 103.466 163.003 103.723 162.53 103.909C162.056 104.091 161.524 104.182 160.933 104.182ZM169.882 104.182C169.155 104.182 168.513 103.998 167.956 103.631C167.399 103.259 166.964 102.737 166.649 102.062C166.335 101.384 166.178 100.583 166.178 99.6591C166.178 98.7424 166.335 97.947 166.649 97.2727C166.964 96.5985 167.401 96.0777 167.962 95.7102C168.522 95.3428 169.17 95.1591 169.905 95.1591C170.473 95.1591 170.922 95.2538 171.251 95.4432C171.585 95.6288 171.839 95.8409 172.013 96.0795C172.191 96.3144 172.329 96.5076 172.428 96.6591H172.541V92.3636H173.882V104H172.587V102.659H172.428C172.329 102.818 172.189 103.019 172.007 103.261C171.825 103.5 171.566 103.714 171.229 103.903C170.892 104.089 170.443 104.182 169.882 104.182ZM170.064 102.977C170.602 102.977 171.056 102.837 171.428 102.557C171.799 102.273 172.081 101.881 172.274 101.381C172.467 100.877 172.564 100.295 172.564 99.6364C172.564 98.9848 172.469 98.4148 172.28 97.9261C172.09 97.4337 171.81 97.0511 171.439 96.7784C171.068 96.5019 170.609 96.3636 170.064 96.3636C169.496 96.3636 169.022 96.5095 168.643 96.8011C168.268 97.089 167.986 97.4811 167.797 97.9773C167.611 98.4697 167.518 99.0227 167.518 99.6364C167.518 100.258 167.613 100.822 167.803 101.33C167.996 101.833 168.28 102.235 168.655 102.534C169.034 102.83 169.503 102.977 170.064 102.977Z" fill="#4B4B55"/>
  <circle cx="210" cy="98" r="10" fill="#5EB42A"/>
  <path d="M233.409 104V92.3636H237.341C238.254 92.3636 239 92.5284 239.58 92.858C240.163 93.1837 240.595 93.625 240.875 94.1818C241.155 94.7386 241.295 95.3598 241.295 96.0455C241.295 96.7311 241.155 97.3542 240.875 97.9148C240.598 98.4754 240.17 98.9223 239.591 99.2557C239.011 99.5852 238.269 99.75 237.364 99.75H234.545V98.5H237.318C237.943 98.5 238.445 98.392 238.824 98.1761C239.203 97.9602 239.477 97.6686 239.648 97.3011C239.822 96.9299 239.909 96.5114 239.909 96.0455C239.909 95.5795 239.822 95.1629 239.648 94.7955C239.477 94.428 239.201 94.1402 238.818 93.9318C238.436 93.7197 237.928 93.6136 237.295 93.6136H234.818V104H233.409ZM245.952 104.205C245.399 104.205 244.897 104.1 244.446 103.892C243.995 103.68 243.637 103.375 243.372 102.977C243.107 102.576 242.974 102.091 242.974 101.523C242.974 101.023 243.073 100.617 243.27 100.307C243.467 99.9924 243.73 99.7462 244.06 99.5682C244.389 99.3902 244.753 99.2576 245.151 99.1705C245.552 99.0795 245.955 99.0076 246.361 98.9545C246.891 98.8864 247.321 98.8352 247.651 98.8011C247.984 98.7633 248.226 98.7008 248.378 98.6136C248.533 98.5265 248.611 98.375 248.611 98.1591V98.1136C248.611 97.553 248.457 97.1174 248.151 96.8068C247.848 96.4962 247.387 96.3409 246.77 96.3409C246.13 96.3409 245.628 96.4811 245.264 96.7614C244.901 97.0417 244.645 97.3409 244.497 97.6591L243.224 97.2045C243.452 96.6742 243.755 96.2614 244.134 95.9659C244.516 95.6667 244.933 95.4583 245.384 95.3409C245.838 95.2197 246.285 95.1591 246.724 95.1591C247.005 95.1591 247.327 95.1932 247.69 95.2614C248.058 95.3258 248.412 95.4602 248.753 95.6648C249.098 95.8693 249.384 96.178 249.611 96.5909C249.838 97.0038 249.952 97.5568 249.952 98.25V104H248.611V102.818H248.543C248.452 103.008 248.3 103.21 248.088 103.426C247.876 103.642 247.594 103.826 247.241 103.977C246.889 104.129 246.459 104.205 245.952 104.205ZM246.156 103C246.687 103 247.134 102.896 247.497 102.688C247.865 102.479 248.141 102.21 248.327 101.881C248.516 101.551 248.611 101.205 248.611 100.841V99.6136C248.554 99.6818 248.429 99.7443 248.236 99.8011C248.046 99.8542 247.827 99.9015 247.577 99.9432C247.33 99.9811 247.09 100.015 246.855 100.045C246.624 100.072 246.437 100.095 246.293 100.114C245.944 100.159 245.618 100.233 245.315 100.335C245.016 100.434 244.774 100.583 244.588 100.784C244.406 100.981 244.315 101.25 244.315 101.591C244.315 102.057 244.488 102.409 244.832 102.648C245.181 102.883 245.622 103 246.156 103ZM252.399 104V95.2727H253.74V104H252.399ZM253.081 93.8182C252.82 93.8182 252.594 93.7292 252.405 93.5511C252.219 93.3731 252.126 93.1591 252.126 92.9091C252.126 92.6591 252.219 92.4451 252.405 92.267C252.594 92.089 252.82 92 253.081 92C253.342 92 253.566 92.089 253.751 92.267C253.941 92.4451 254.036 92.6591 254.036 92.9091C254.036 93.1591 253.941 93.3731 253.751 93.5511C253.566 93.7292 253.342 93.8182 253.081 93.8182ZM259.491 104.182C258.764 104.182 258.122 103.998 257.565 103.631C257.009 103.259 256.573 102.737 256.259 102.062C255.944 101.384 255.787 100.583 255.787 99.6591C255.787 98.7424 255.944 97.947 256.259 97.2727C256.573 96.5985 257.01 96.0777 257.571 95.7102C258.132 95.3428 258.779 95.1591 259.514 95.1591C260.082 95.1591 260.531 95.2538 260.861 95.4432C261.194 95.6288 261.448 95.8409 261.622 96.0795C261.8 96.3144 261.938 96.5076 262.037 96.6591H262.151V92.3636H263.491V104H262.196V102.659H262.037C261.938 102.818 261.798 103.019 261.616 103.261C261.435 103.5 261.175 103.714 260.838 103.903C260.501 104.089 260.052 104.182 259.491 104.182ZM259.673 102.977C260.211 102.977 260.666 102.837 261.037 102.557C261.408 102.273 261.69 101.881 261.884 101.381C262.077 100.877 262.173 100.295 262.173 99.6364C262.173 98.9848 262.079 98.4148 261.889 97.9261C261.7 97.4337 261.42 97.0511 261.048 96.7784C260.677 96.5019 260.219 96.3636 259.673 96.3636C259.105 96.3636 258.632 96.5095 258.253 96.8011C257.878 97.089 257.596 97.4811 257.406 97.9773C257.221 98.4697 257.128 99.0227 257.128 99.6364C257.128 100.258 257.223 100.822 257.412 101.33C257.605 101.833 257.889 102.235 258.264 102.534C258.643 102.83 259.113 102.977 259.673 102.977Z" fill="#4B4B55"/>
  <rect x="28" y="129" width="165" height="12" rx="6" fill="#F4F4F4"/>
  <rect x="28" y="169" width="202" height="48" rx="12" fill="#BBEB9D"/>
  <path d="M80.125 190.42C80.0644 189.883 79.8144 189.466 79.375 189.17C78.9356 188.871 78.3826 188.722 77.7159 188.722C77.2386 188.722 76.8258 188.797 76.4773 188.949C76.1288 189.097 75.858 189.301 75.6648 189.562C75.4754 189.82 75.3807 190.114 75.3807 190.443C75.3807 190.72 75.4451 190.958 75.5739 191.159C75.7064 191.36 75.8788 191.528 76.0909 191.665C76.3068 191.797 76.5379 191.909 76.7841 192C77.0303 192.087 77.267 192.159 77.4943 192.216L78.6307 192.511C79.0019 192.602 79.3826 192.725 79.7727 192.881C80.1629 193.036 80.5246 193.241 80.858 193.494C81.1913 193.748 81.4602 194.062 81.6648 194.438C81.8731 194.812 81.9773 195.261 81.9773 195.784C81.9773 196.443 81.8068 197.028 81.4659 197.54C81.1288 198.051 80.6383 198.455 79.9943 198.75C79.3542 199.045 78.5795 199.193 77.6705 199.193C76.7992 199.193 76.0455 199.055 75.4091 198.778C74.7727 198.502 74.2746 198.11 73.9148 197.602C73.5549 197.091 73.3561 196.485 73.3182 195.784H75.0795C75.1136 196.205 75.25 196.555 75.4886 196.835C75.7311 197.112 76.0398 197.318 76.4148 197.455C76.7936 197.587 77.2083 197.653 77.6591 197.653C78.1553 197.653 78.5966 197.576 78.983 197.42C79.3731 197.261 79.6799 197.042 79.9034 196.761C80.1269 196.477 80.2386 196.146 80.2386 195.767C80.2386 195.422 80.1402 195.14 79.9432 194.92C79.75 194.701 79.4867 194.519 79.1534 194.375C78.8239 194.231 78.4508 194.104 78.0341 193.994L76.6591 193.619C75.7273 193.366 74.9886 192.992 74.4432 192.5C73.9015 192.008 73.6307 191.356 73.6307 190.545C73.6307 189.875 73.8125 189.29 74.1761 188.79C74.5398 188.29 75.0322 187.902 75.6534 187.625C76.2746 187.345 76.9754 187.205 77.7557 187.205C78.5436 187.205 79.2386 187.343 79.8409 187.619C80.447 187.896 80.9242 188.277 81.2727 188.761C81.6212 189.242 81.803 189.795 81.8182 190.42H80.125ZM87.5243 199.176C86.6644 199.176 85.9239 198.992 85.3027 198.625C84.6853 198.254 84.208 197.733 83.8709 197.062C83.5375 196.388 83.3709 195.598 83.3709 194.693C83.3709 193.799 83.5375 193.011 83.8709 192.33C84.208 191.648 84.6777 191.116 85.28 190.733C85.886 190.35 86.5944 190.159 87.405 190.159C87.8974 190.159 88.3747 190.241 88.8368 190.403C89.2989 190.566 89.7137 190.822 90.0811 191.17C90.4485 191.519 90.7383 191.972 90.9504 192.528C91.1625 193.081 91.2686 193.754 91.2686 194.545V195.148H84.3311V193.875H89.6038C89.6038 193.428 89.5129 193.032 89.3311 192.688C89.1493 192.339 88.8936 192.064 88.5641 191.864C88.2383 191.663 87.8557 191.562 87.4163 191.562C86.9391 191.562 86.5224 191.68 86.1663 191.915C85.8141 192.146 85.5413 192.449 85.3481 192.824C85.1588 193.195 85.0641 193.598 85.0641 194.034V195.028C85.0641 195.612 85.1663 196.108 85.3709 196.517C85.5792 196.926 85.869 197.239 86.2402 197.455C86.6114 197.667 87.0451 197.773 87.5413 197.773C87.8633 197.773 88.1569 197.727 88.422 197.636C88.6872 197.542 88.9163 197.402 89.1095 197.216C89.3027 197.03 89.4504 196.801 89.5527 196.528L91.1606 196.818C91.0319 197.292 90.8008 197.706 90.4675 198.062C90.1379 198.415 89.7231 198.689 89.2231 198.886C88.7269 199.08 88.1606 199.176 87.5243 199.176ZM94.6764 193.818V199H92.9775V190.273H94.6082V191.693H94.7162C94.9169 191.231 95.2313 190.86 95.6594 190.58C96.0912 190.299 96.6347 190.159 97.29 190.159C97.8847 190.159 98.4056 190.284 98.8525 190.534C99.2995 190.78 99.6461 191.148 99.8923 191.636C100.139 192.125 100.262 192.729 100.262 193.449V199H98.5628V193.653C98.5628 193.021 98.398 192.527 98.0685 192.17C97.7389 191.811 97.2863 191.631 96.7105 191.631C96.3166 191.631 95.9662 191.716 95.6594 191.886C95.3563 192.057 95.1158 192.307 94.9378 192.636C94.7635 192.962 94.6764 193.356 94.6764 193.818ZM105.631 199.17C104.927 199.17 104.298 198.991 103.745 198.631C103.195 198.267 102.764 197.75 102.449 197.08C102.139 196.405 101.983 195.597 101.983 194.653C101.983 193.71 102.141 192.903 102.455 192.233C102.773 191.562 103.209 191.049 103.762 190.693C104.315 190.337 104.942 190.159 105.642 190.159C106.184 190.159 106.62 190.25 106.949 190.432C107.283 190.61 107.54 190.818 107.722 191.057C107.908 191.295 108.052 191.506 108.154 191.688H108.256V187.364H109.955V199H108.296V197.642H108.154C108.052 197.828 107.904 198.04 107.711 198.278C107.521 198.517 107.26 198.725 106.927 198.903C106.593 199.081 106.161 199.17 105.631 199.17ZM106.006 197.722C106.495 197.722 106.908 197.593 107.245 197.335C107.586 197.074 107.843 196.712 108.017 196.25C108.195 195.788 108.285 195.25 108.285 194.636C108.285 194.03 108.197 193.5 108.023 193.045C107.849 192.591 107.593 192.237 107.256 191.983C106.919 191.729 106.502 191.602 106.006 191.602C105.495 191.602 105.069 191.735 104.728 192C104.387 192.265 104.129 192.627 103.955 193.085C103.785 193.544 103.699 194.061 103.699 194.636C103.699 195.22 103.786 195.744 103.961 196.21C104.135 196.676 104.392 197.045 104.733 197.318C105.078 197.587 105.502 197.722 106.006 197.722ZM122.802 192.403L121.262 192.676C121.198 192.479 121.095 192.292 120.955 192.114C120.819 191.936 120.633 191.79 120.398 191.676C120.164 191.562 119.87 191.506 119.518 191.506C119.037 191.506 118.635 191.614 118.313 191.83C117.991 192.042 117.83 192.316 117.83 192.653C117.83 192.945 117.938 193.18 118.154 193.358C118.37 193.536 118.718 193.682 119.2 193.795L120.586 194.114C121.389 194.299 121.987 194.585 122.381 194.972C122.775 195.358 122.972 195.86 122.972 196.477C122.972 197 122.821 197.466 122.518 197.875C122.218 198.28 121.8 198.598 121.262 198.83C120.728 199.061 120.109 199.176 119.404 199.176C118.427 199.176 117.629 198.968 117.012 198.551C116.395 198.131 116.016 197.534 115.876 196.761L117.518 196.511C117.62 196.939 117.83 197.263 118.148 197.483C118.467 197.699 118.881 197.807 119.393 197.807C119.95 197.807 120.395 197.691 120.728 197.46C121.061 197.225 121.228 196.939 121.228 196.602C121.228 196.33 121.126 196.1 120.921 195.915C120.72 195.729 120.412 195.589 119.995 195.494L118.518 195.17C117.703 194.985 117.101 194.689 116.711 194.284C116.325 193.879 116.131 193.366 116.131 192.744C116.131 192.229 116.275 191.778 116.563 191.392C116.851 191.006 117.249 190.705 117.756 190.489C118.264 190.269 118.845 190.159 119.501 190.159C120.444 190.159 121.186 190.364 121.728 190.773C122.27 191.178 122.628 191.722 122.802 192.403ZM130.193 195.381V190.273H131.897V199H130.227V197.489H130.136C129.935 197.955 129.613 198.343 129.17 198.653C128.73 198.96 128.183 199.114 127.528 199.114C126.967 199.114 126.471 198.991 126.039 198.744C125.611 198.494 125.274 198.125 125.028 197.636C124.785 197.148 124.664 196.544 124.664 195.824V190.273H126.363V195.619C126.363 196.214 126.528 196.687 126.857 197.04C127.187 197.392 127.615 197.568 128.141 197.568C128.46 197.568 128.776 197.489 129.09 197.33C129.408 197.17 129.672 196.93 129.88 196.608C130.092 196.286 130.196 195.877 130.193 195.381ZM134.004 199V190.273H135.634V191.693H135.742C135.924 191.212 136.222 190.837 136.634 190.568C137.047 190.295 137.542 190.159 138.117 190.159C138.701 190.159 139.189 190.295 139.583 190.568C139.981 190.841 140.275 191.216 140.464 191.693H140.555C140.763 191.227 141.095 190.856 141.549 190.58C142.004 190.299 142.545 190.159 143.174 190.159C143.966 190.159 144.612 190.407 145.112 190.903C145.616 191.4 145.867 192.148 145.867 193.148V199H144.169V193.307C144.169 192.716 144.008 192.288 143.686 192.023C143.364 191.758 142.979 191.625 142.532 191.625C141.979 191.625 141.549 191.795 141.242 192.136C140.936 192.473 140.782 192.907 140.782 193.438V199H139.089V193.199C139.089 192.725 138.941 192.345 138.646 192.057C138.35 191.769 137.966 191.625 137.492 191.625C137.17 191.625 136.873 191.71 136.6 191.881C136.331 192.047 136.114 192.28 135.947 192.58C135.784 192.879 135.703 193.225 135.703 193.619V199H134.004ZM147.968 199V190.273H149.599V191.693H149.707C149.889 191.212 150.186 190.837 150.599 190.568C151.012 190.295 151.506 190.159 152.082 190.159C152.665 190.159 153.154 190.295 153.548 190.568C153.946 190.841 154.239 191.216 154.429 191.693H154.52C154.728 191.227 155.059 190.856 155.514 190.58C155.968 190.299 156.51 190.159 157.139 190.159C157.931 190.159 158.576 190.407 159.076 190.903C159.58 191.4 159.832 192.148 159.832 193.148V199H158.133V193.307C158.133 192.716 157.972 192.288 157.65 192.023C157.328 191.758 156.944 191.625 156.497 191.625C155.944 191.625 155.514 191.795 155.207 192.136C154.9 192.473 154.747 192.907 154.747 193.438V199H153.054V193.199C153.054 192.725 152.906 192.345 152.61 192.057C152.315 191.769 151.931 191.625 151.457 191.625C151.135 191.625 150.838 191.71 150.565 191.881C150.296 192.047 150.078 192.28 149.912 192.58C149.749 192.879 149.667 193.225 149.667 193.619V199H147.968ZM164.473 199.193C163.92 199.193 163.42 199.091 162.973 198.886C162.526 198.678 162.172 198.377 161.91 197.983C161.653 197.589 161.524 197.106 161.524 196.534C161.524 196.042 161.619 195.636 161.808 195.318C161.997 195 162.253 194.748 162.575 194.562C162.897 194.377 163.257 194.237 163.655 194.142C164.052 194.047 164.458 193.975 164.871 193.926C165.393 193.866 165.818 193.816 166.143 193.778C166.469 193.737 166.706 193.67 166.854 193.58C167.001 193.489 167.075 193.341 167.075 193.136V193.097C167.075 192.6 166.935 192.216 166.655 191.943C166.378 191.67 165.965 191.534 165.416 191.534C164.844 191.534 164.393 191.661 164.064 191.915C163.738 192.165 163.513 192.443 163.388 192.75L161.791 192.386C161.98 191.856 162.257 191.428 162.621 191.102C162.988 190.773 163.41 190.534 163.888 190.386C164.365 190.235 164.867 190.159 165.393 190.159C165.742 190.159 166.111 190.201 166.501 190.284C166.895 190.364 167.263 190.511 167.604 190.727C167.948 190.943 168.23 191.252 168.45 191.653C168.67 192.051 168.78 192.568 168.78 193.205V199H167.121V197.807H167.052C166.943 198.027 166.778 198.242 166.558 198.455C166.338 198.667 166.056 198.843 165.711 198.983C165.367 199.123 164.954 199.193 164.473 199.193ZM164.842 197.83C165.312 197.83 165.713 197.737 166.047 197.551C166.384 197.366 166.639 197.123 166.814 196.824C166.992 196.521 167.081 196.197 167.081 195.852V194.727C167.02 194.788 166.903 194.845 166.729 194.898C166.558 194.947 166.363 194.991 166.143 195.028C165.924 195.062 165.71 195.095 165.501 195.125C165.293 195.152 165.119 195.174 164.979 195.193C164.649 195.235 164.348 195.305 164.075 195.403C163.806 195.502 163.59 195.644 163.427 195.83C163.268 196.011 163.189 196.254 163.189 196.557C163.189 196.977 163.344 197.295 163.655 197.511C163.965 197.723 164.361 197.83 164.842 197.83ZM170.866 199V190.273H172.508V191.659H172.599C172.758 191.189 173.039 190.82 173.44 190.551C173.846 190.278 174.304 190.142 174.815 190.142C174.921 190.142 175.046 190.146 175.19 190.153C175.338 190.161 175.454 190.17 175.537 190.182V191.807C175.469 191.788 175.347 191.767 175.173 191.744C174.999 191.718 174.825 191.705 174.651 191.705C174.249 191.705 173.891 191.79 173.577 191.96C173.266 192.127 173.02 192.36 172.838 192.659C172.656 192.955 172.565 193.292 172.565 193.67V199H170.866ZM178.171 202.273C177.917 202.273 177.686 202.252 177.477 202.21C177.269 202.172 177.114 202.131 177.011 202.085L177.421 200.693C177.731 200.777 178.008 200.813 178.25 200.801C178.493 200.79 178.707 200.699 178.892 200.528C179.082 200.358 179.248 200.08 179.392 199.693L179.602 199.114L176.409 190.273H178.227L180.438 197.045H180.528L182.739 190.273H184.563L180.966 200.165C180.799 200.619 180.587 201.004 180.33 201.318C180.072 201.636 179.765 201.875 179.409 202.034C179.053 202.193 178.64 202.273 178.171 202.273Z" fill="#0C0429"/>
  </svg>
  