<svg width="69" height="40" viewBox="0 0 69 40" fill="none" xmlns="http://www.w3.org/2000/svg">
  <path fill-rule="evenodd" clip-rule="evenodd"
    d="M9.53218 14.471C7.41036 14.471 5.47139 16.343 5.47139 18.9308V27.3829C5.47139 28.5244 4.54602 29.4497 3.40452 29.4497C2.26302 29.4497 1.33765 28.5244 1.33765 27.3829V18.9308C1.33765 14.3095 4.88557 10.3373 9.53218 10.3373C12.0116 10.3373 14.1782 11.4683 15.6598 13.2254C17.1415 11.4683 19.3081 10.3373 21.7875 10.3373C26.4341 10.3373 29.982 14.3095 29.982 18.9308V27.3829C29.982 28.5244 29.0567 29.4497 27.9152 29.4497C26.7737 29.4497 25.8483 28.5244 25.8483 27.3829V18.9308C25.8483 16.343 23.9093 14.471 21.7875 14.471C19.6657 14.471 17.7267 16.343 17.7267 18.9308V27.3829C17.7267 28.5244 16.8013 29.4497 15.6598 29.4497C14.5183 29.4497 13.593 28.5244 13.593 27.3829V18.9308C13.593 16.343 11.654 14.471 9.53218 14.471Z"
    fill="#000000" />
  <path fill-rule="evenodd" clip-rule="evenodd"
    d="M59.9152 14.471C57.7934 14.471 55.8544 16.343 55.8544 18.9308V27.3829C55.8544 28.5244 54.9291 29.4497 53.7876 29.4497C52.6461 29.4497 51.7207 28.5244 51.7207 27.3829V18.9308C51.7207 14.3095 55.2686 10.3373 59.9152 10.3373C64.5618 10.3373 68.1098 14.3095 68.1098 18.9308V27.3829C68.1098 28.5244 67.1844 29.4497 66.0429 29.4497C64.9014 29.4497 63.976 28.5244 63.976 27.3829V18.9308C63.976 16.343 62.037 14.471 59.9152 14.471Z"
    fill="#000000" />
  <path
    d="M44.9121 20.8564C44.9121 23.4443 42.9731 25.3162 40.8513 25.3162C38.7294 25.3162 36.7905 23.4443 36.7905 20.8564L36.7905 12.4044C36.7905 11.2629 35.8651 10.3375 34.7236 10.3375C33.5821 10.3375 32.6567 11.2629 32.6567 12.4044L32.6567 20.8564C32.6567 25.4777 36.2047 29.45 40.8513 29.45C42.3457 29.45 43.7264 29.0391 44.9121 28.3279V31.057C44.9121 33.687 42.983 35.5289 40.9471 35.5289C39.7095 35.5289 38.5514 34.8811 37.7955 33.7673C37.1545 32.8228 35.8692 32.5767 34.9246 33.2178C33.9801 33.8588 33.7341 35.1441 34.3751 36.0886C35.8153 38.2107 38.1947 39.6627 40.9471 39.6627C45.5738 39.6627 49.0458 35.6496 49.0458 31.057V21.2554C49.0458 21.2117 49.0444 21.1684 49.0418 21.1255C49.0445 21.0361 49.0458 20.9464 49.0458 20.8564V12.4044C49.0458 11.2629 48.1204 10.3375 46.9789 10.3375C45.8374 10.3375 44.9121 11.2629 44.9121 12.4044V20.8564Z"
    fill="#000000" />
</svg>
  